<svg width="22" height="22" viewBox="0 0 22 22" fill="none" xmlns="http://www.w3.org/2000/svg">
<path d="M21.9958 0.415224C21.9924 0.389871 21.9886 0.365474 21.9809 0.340599C21.9728 0.313333 21.9618 0.288458 21.9494 0.263104C21.9427 0.249232 21.9403 0.234402 21.9322 0.221008C21.9269 0.212398 21.9183 0.206657 21.9121 0.198525C21.8963 0.17652 21.8776 0.157386 21.858 0.137773C21.8384 0.11816 21.8188 0.099982 21.7963 0.0841959C21.7882 0.0784555 21.7829 0.0703233 21.7748 0.0655397C21.7614 0.0574075 21.7465 0.055494 21.7327 0.0487969C21.7064 0.0358811 21.6805 0.0248787 21.6528 0.0167465C21.6293 0.0105277 21.6064 0.00717919 21.5825 0.004309C21.5542 0.000960449 21.527 -0.000953009 21.4988 0.000482085C21.4724 0.00191718 21.4471 0.00717919 21.4213 0.0133979C21.405 0.0172249 21.3883 0.0157898 21.372 0.0215301L0.32394 7.197C0.133551 7.2611 0.0039141 7.43858 8.71862e-05 7.63997C-0.00373973 7.84136 0.118722 8.02362 0.307197 8.09585L10.1409 11.8745L14.3903 21.7115C14.4663 21.8871 14.6395 22 14.8294 22C14.8375 22 14.8452 22 14.8533 21.9995C15.0528 21.9895 15.2245 21.857 15.2853 21.6671L21.9824 0.619008C21.9872 0.604178 21.9857 0.588871 21.9886 0.573563C21.9943 0.546775 21.9986 0.520943 21.9996 0.493676C22.0006 0.466888 21.9991 0.441534 21.9958 0.415224ZM1.88197 7.67584L19.7331 1.59009L10.3816 10.9416L1.88197 7.67584ZM14.761 20.1578L11.068 11.6085L20.4741 2.20192L14.761 20.1578Z" fill="#555555"/>
<path d="M7.51379 14.4863C7.32675 14.2993 7.02443 14.2993 6.83739 14.4863L0.14028 21.1835C-0.0467602 21.3705 -0.0467602 21.6728 0.14028 21.8599C0.233562 21.9531 0.356023 22 0.478484 22C0.600946 22 0.723407 21.9531 0.816688 21.8599L7.51379 15.1628C7.70084 14.9757 7.70084 14.6734 7.51379 14.4863Z" fill="#555555"/>
<path d="M8.75055 17.8349L5.402 21.1834C5.21496 21.3705 5.21496 21.6728 5.402 21.8598C5.49528 21.9531 5.61774 22 5.7402 22C5.86266 22 5.98513 21.9531 6.07841 21.8598L9.42696 18.5113C9.614 18.3242 9.614 18.0219 9.42696 17.8349C9.23992 17.6478 8.93759 17.6478 8.75055 17.8349Z" fill="#555555"/>
<path d="M0.478484 16.738C0.600946 16.738 0.723407 16.6911 0.816688 16.5979L4.16524 13.2493C4.35228 13.0623 4.35228 12.7599 4.16524 12.5729C3.9782 12.3859 3.67587 12.3859 3.48883 12.5729L0.14028 15.9215C-0.0467602 16.1085 -0.0467602 16.4108 0.14028 16.5979C0.233562 16.6911 0.356023 16.738 0.478484 16.738Z" fill="#555555"/>
</svg>