<svg width="23" height="19" viewBox="0 0 23 19" fill="none" xmlns="http://www.w3.org/2000/svg">
<path d="M19.6458 0.845703C19.0095 0.845703 18.4613 1.23288 18.0004 1.87401L2.74181 7.2349C2.4495 6.81995 2.08056 6.5957 1.67707 6.5957C0.720682 6.5957 0 7.83195 0 9.4707C0 11.1095 0.720682 12.3457 1.67707 12.3457C2.08051 12.3457 2.4495 12.1215 2.74176 11.7065L5.63496 12.7233L5.07433 13.6586C4.88939 13.9672 4.79164 14.3208 4.79164 14.6802C4.79164 15.4976 5.28133 16.2212 6.03939 16.524L9.56701 17.9347C9.83632 18.042 10.1171 18.0938 10.3941 18.0938C11.2269 18.0938 12.0299 17.6309 12.419 16.8508L13.1608 15.3664L17.9994 17.0665C18.4604 17.7085 19.0095 18.0957 19.6458 18.0957C21.8241 18.0957 23 13.6519 23 9.4707C23 5.28951 21.8241 0.845703 19.6458 0.845703ZM10.7036 15.9941C10.6318 16.1378 10.4296 16.2174 10.2791 16.1541L6.75144 14.7435L6.71789 14.6438L7.48169 13.3711L11.338 14.7262L10.7036 15.9941ZM19.6458 16.179C19.2155 16.179 18.2083 13.8972 18.2083 9.4707C18.2083 5.04419 19.2155 2.76238 19.6458 2.76238C20.0761 2.76238 21.0833 5.04419 21.0833 9.4707C21.0833 13.8972 20.0761 16.179 19.6458 16.179Z" fill="white"/>
</svg>
