<svg width="52" height="52" viewBox="0 0 52 52" fill="none" xmlns="http://www.w3.org/2000/svg">
<path d="M26 20.8C21.6918 20.8 18.2 24.2933 18.2 28.6C18.2 32.9081 21.6918 36.4 26 36.4C30.3072 36.4 33.8 32.9081 33.8 28.6C33.8 24.2933 30.3072 20.8 26 20.8ZM46.8 13H40.56C39.702 13 38.7774 12.3344 38.5065 11.52L36.8935 6.67935C36.6215 5.86555 35.698 5.19995 34.84 5.19995H17.16C16.302 5.19995 15.3774 5.86555 15.1065 6.67987L13.4935 11.5206C13.2215 12.3344 12.298 13 11.44 13H5.2C2.34 13 0 15.34 0 18.2V41.5999C0 44.4599 2.34 46.7999 5.2 46.7999H46.8C49.66 46.7999 52 44.4599 52 41.5999V18.2C52 15.34 49.66 13 46.8 13ZM26 41.5999C18.8204 41.5999 13 35.7796 13 28.6C13 21.4208 18.8204 15.6 26 15.6C33.1786 15.6 39 21.4208 39 28.6C39 35.7796 33.1786 41.5999 26 41.5999ZM44.98 21.8363C43.9754 21.8363 43.16 21.022 43.16 20.0163C43.16 19.0117 43.9754 18.1963 44.98 18.1963C45.9857 18.1963 46.8 19.0117 46.8 20.0163C46.8 21.022 45.9852 21.8363 44.98 21.8363Z" fill="#2C78F6"/>
</svg>
