<svg width="21" height="24" viewBox="0 0 21 24" fill="none" xmlns="http://www.w3.org/2000/svg">
<path d="M10.3689 0C7.78281 0 5.67944 2.10394 5.67944 4.69V7.11977C5.67944 9.70602 7.78281 11.81 10.3689 11.81C12.9551 11.81 15.0583 9.70602 15.0583 7.11977V4.69C15.0583 2.10394 12.9551 0 10.3689 0Z" fill="white"/>
<path d="M20.7096 17.9215C19.208 15.3626 16.8078 13.4654 13.9512 12.5795C13.885 12.559 13.8133 12.5764 13.764 12.6252C12.4352 13.9354 10.784 14.9576 10.3712 15.2045C9.93052 14.9229 8.07444 13.7131 6.97102 12.6252C6.92186 12.5764 6.84967 12.559 6.78382 12.5795C3.92685 13.4656 1.52684 15.3628 0.0257761 17.9217C-0.00859203 17.9803 -0.00859203 18.0531 0.0257761 18.1116C2.15737 21.7439 6.12007 24.0003 10.3675 24.0003C14.6151 24.0003 18.578 21.7439 20.7096 18.1116C20.7442 18.0529 20.7442 17.9801 20.7096 17.9215ZM16.7456 19.3205C16.7456 19.4239 16.6471 19.5031 16.5438 19.5031H15.2737C15.1702 19.5031 15.0573 19.5919 15.0573 19.6956V21.0091C15.0573 21.1124 15.002 21.1913 14.8985 21.1913H13.7579C13.6544 21.1913 13.5568 21.1124 13.5568 21.0091V19.6956C13.5564 19.5921 13.4858 19.5031 13.3823 19.5031H12.0575C11.954 19.5031 11.8684 19.4238 11.8684 19.3205V18.1896C11.8684 18.0861 11.954 18.0026 12.0575 18.0026H13.3823C13.4858 18.0026 13.5564 17.9181 13.5564 17.8144V16.4994C13.5564 16.3959 13.654 16.3143 13.7575 16.3143H14.8859C14.9892 16.3143 15.0571 16.3959 15.0571 16.4994V17.8182C15.0571 17.9219 15.1573 18.0024 15.261 18.0024H16.5438C16.6471 18.0024 16.7456 18.0899 16.7456 18.1934V19.3205Z" fill="white"/>
</svg>
