<svg width="30" height="30" viewBox="0 0 30 30" fill="none" xmlns="http://www.w3.org/2000/svg">
<path d="M29.5002 1.30904e-08C29.5002 1.30904e-08 29.5 1.30904e-08 29.5 1.30904e-08H0.5C0.223937 -6.24869e-05 6.24999e-05 0.223687 0 0.49975C0 0.499812 0 0.499937 0 0.5V10.5H0.999999V0.999999H29V12H11.5V13H29.5C29.776 13.0001 29.9999 12.7763 30 12.5002C30 12.5002 30 12.5001 30 12.5V0.5C30 0.223937 29.7763 6.2513e-05 29.5002 1.30904e-08Z" fill="white"/>
<path d="M26.5002 2.50024H16.5002V3.50024H26.5002V2.50024Z" fill="white"/>
<path d="M28 5.50024H18V6.50024H28V5.50024Z" fill="white"/>
<path d="M25.9997 8.49951H15.9998V9.49951H25.9997V8.49951Z" fill="white"/>
<path d="M15.9599 4.31063C15.6176 3.48782 14.6731 3.09832 13.8503 3.44063C13.8362 3.4465 13.8222 3.4525 13.8084 3.45875L9.75412 5.56188C9.914 5.2305 9.99793 4.86763 9.99975 4.49975C9.99975 3.11907 8.88043 1.99976 7.49975 1.99976C6.11906 1.99976 4.99975 3.11907 4.99975 4.49975C5.00163 5.04244 5.18181 5.5695 5.51256 5.99975H5.49175C4.0725 6.00925 2.80557 6.89156 2.3045 8.2195L0.969755 12.8201C0.652005 13.6454 1.0635 14.5722 1.88894 14.8899C2.26532 15.0348 2.6825 15.0324 3.05719 14.8831C3.48769 14.7096 3.82269 14.3594 3.97688 13.9216L4.49975 12.2576V19.494C4.0695 19.1633 3.54244 18.9831 2.99975 18.9812C1.62113 18.9791 0.501818 20.0951 0.499755 21.4737C0.498755 22.1489 0.771255 22.7957 1.25519 23.2665C0.487193 23.6589 0.00275587 24.4474 -0.000244128 25.3098V29.4997C-0.000306627 29.7758 0.223443 29.9997 0.499505 29.9997C0.499568 29.9997 0.499693 29.9997 0.499755 29.9997H5.49975C5.77581 29.9998 5.99969 29.776 5.99975 29.5C5.99975 29.4999 5.99975 29.4998 5.99975 29.4997V25.3098C5.99731 24.6011 5.66806 23.9332 5.1075 23.4997H8.89206C8.33143 23.9332 8.00218 24.6011 7.99981 25.3098V29.4997C7.99975 29.7758 8.2235 29.9997 8.49956 29.9997C8.49962 29.9997 8.49975 29.9997 8.49981 29.9997H13.4998C13.7759 29.9998 13.9997 29.776 13.9998 29.5C13.9998 29.4999 13.9998 29.4998 13.9998 29.4997V25.3098C13.9968 24.4474 13.5124 23.6589 12.7444 23.2665C13.7316 22.303 13.7507 20.7215 12.7872 19.7344C12.1938 19.1264 11.3321 18.8617 10.4998 19.0317V8.80344L15.0899 6.42013C15.9126 6.07788 16.3021 5.13338 15.9599 4.31063ZM7.49975 2.99975C8.32818 2.99975 8.99975 3.67132 8.99975 4.49975C8.99975 5.32819 8.32818 5.99975 7.49975 5.99975C6.67169 5.99888 6.00062 5.32781 5.99975 4.49975C5.99975 3.67132 6.67131 2.99975 7.49975 2.99975ZM2.99975 19.9812C3.82819 19.9812 4.49975 20.6527 4.49975 21.4812C4.49975 22.3096 3.82819 22.9812 2.99975 22.9812C2.17132 22.9812 1.49975 22.3096 1.49975 21.4812C1.50063 20.6531 2.17169 19.9821 2.99975 19.9812ZM4.99975 28.9997H0.999755V25.3098C1.00075 24.5866 1.58682 24.0006 2.31007 23.9997H3.68944C4.41263 24.0006 4.99875 24.5866 4.99975 25.3098V28.9997ZM12.9997 25.3098V28.9997H8.99975V25.3098C9.00075 24.5866 9.58681 24.0006 10.3101 23.9997H11.6894C12.4127 24.0006 12.9987 24.5866 12.9997 25.3098ZM10.9997 19.9812C11.8278 19.982 12.4989 20.6531 12.4997 21.4812C12.4997 22.3096 11.8282 22.9812 10.9997 22.9812C10.1713 22.9812 9.49975 22.3096 9.49975 21.4812C9.49975 20.6527 10.1713 19.9812 10.9997 19.9812ZM15.0449 5.14475C14.978 5.3165 14.8406 5.45131 14.6675 5.51488L9.76956 8.05587C9.60381 8.14187 9.49975 8.31306 9.49975 8.49975V19.494C8.56318 20.1865 8.23875 21.4398 8.72175 22.4997H7.99975V13.9997H6.99975V22.4997H5.27775C5.42 22.1854 5.49494 21.8447 5.49788 21.4997H5.49975V8.99975C5.49969 8.72356 5.27575 8.49975 4.99963 8.49981C4.78131 8.49987 4.58825 8.64156 4.52275 8.84987L3.02975 13.6008C2.91663 13.9128 2.57194 14.0741 2.25994 13.9609C2.23807 13.9529 2.21663 13.9437 2.19575 13.9333C1.90732 13.7842 1.78488 13.4362 1.9165 13.1394L3.25119 8.53881C3.61113 7.61444 4.49969 7.00406 5.49169 6.99975H9.032C9.11212 6.99988 9.19112 6.98056 9.26225 6.94363L14.2317 4.36407C14.5299 4.23969 14.8735 4.36694 15.0186 4.65557C15.0956 4.80769 15.1051 4.98519 15.0449 5.14475Z" fill="white"/>
<path d="M20.7443 23.2667C21.7332 22.3032 21.7539 20.7204 20.7904 19.7315C19.8269 18.7425 18.2441 18.7219 17.2551 19.6854C16.2662 20.6489 16.2456 22.2317 17.2091 23.2207C17.2243 23.2362 17.2396 23.2516 17.2552 23.2667C16.4873 23.6591 16.0028 24.4476 15.9998 25.31V29.4999C15.9997 29.776 16.2234 29.9998 16.4995 29.9999C16.4996 29.9999 16.4997 29.9999 16.4998 29.9999H21.4997C21.7758 30 21.9997 29.7762 21.9997 29.5002C21.9997 29.5001 21.9997 29.5 21.9997 29.4999V25.31C21.9967 24.4476 21.5123 23.6591 20.7443 23.2667ZM18.9998 19.9814C19.8282 19.9814 20.4998 20.6529 20.4998 21.4814C20.4998 22.3098 19.8282 22.9814 18.9998 22.9814C18.1713 22.9814 17.4998 22.3098 17.4998 21.4814C17.5006 20.6533 18.1717 19.9823 18.9998 19.9814ZM20.9998 28.9999H16.9998V25.31C17.0008 24.5868 17.5868 24.0008 18.3101 23.9999H19.6894C20.4126 24.0008 20.9988 24.5868 20.9998 25.31V28.9999Z" fill="white"/>
<path d="M28.745 23.2667C29.734 22.3032 29.7546 20.7204 28.7911 19.7315C27.8276 18.7425 26.2448 18.7219 25.2559 19.6854C24.2669 20.6489 24.2463 22.2317 25.2098 23.2207C25.225 23.2362 25.2404 23.2516 25.2559 23.2667C24.488 23.6591 24.0035 24.4476 24.0005 25.31V29.4999C24.0004 29.776 24.2242 29.9998 24.5002 29.9999C24.5003 29.9999 24.5004 29.9999 24.5005 29.9999H29.5005C29.7765 30 30.0004 29.7762 30.0005 29.5002C30.0005 29.5001 30.0005 29.5 30.0005 29.4999V25.31C29.9975 24.4476 29.513 23.6591 28.745 23.2667ZM27.0005 19.9814C27.8289 19.9814 28.5005 20.6529 28.5005 21.4814C28.5005 22.3098 27.8289 22.9814 27.0005 22.9814C26.172 22.9814 25.5005 22.3098 25.5005 21.4814C25.5014 20.6533 26.1724 19.9823 27.0005 19.9814ZM29.0005 28.9999H25.0005V25.31C25.0015 24.5868 25.5875 24.0008 26.3108 23.9999H27.6902C28.4134 24.0008 28.9995 24.5868 29.0005 25.31V28.9999Z" fill="white"/>
</svg>
