<svg width="40" height="40" viewBox="0 0 40 40" fill="none" xmlns="http://www.w3.org/2000/svg">
<path d="M39.334 1.74539e-08C39.3339 1.74539e-08 39.3337 1.74539e-08 39.3336 1.74539e-08H0.666912C0.298828 -8.3316e-05 0.000327474 0.298251 0.000244141 0.666334C0.000244141 0.666418 0.000244141 0.666584 0.000244141 0.666668V14H1.33358V1.33334H38.667V16H15.3336V17.3334H39.3336C39.7017 17.3334 40.0002 17.0351 40.0003 16.667C40.0003 16.6669 40.0003 16.6668 40.0003 16.6667V0.666668C40.0004 0.298584 39.7021 8.33509e-05 39.334 1.74539e-08Z" fill="#2C78F6"/>
<path d="M35.3343 3.3335H22.001V4.66683H35.3343V3.3335Z" fill="#2C78F6"/>
<path d="M37.3334 7.3335H24V8.66683H37.3334V7.3335Z" fill="#2C78F6"/>
<path d="M34.6669 11.333H21.3335V12.6663H34.6669V11.333Z" fill="#2C78F6"/>
<path d="M21.2802 5.74768C20.8238 4.65059 19.5644 4.13126 18.4674 4.58767C18.4487 4.59551 18.43 4.60351 18.4115 4.61184L13.0059 7.41601C13.219 6.97418 13.3309 6.49034 13.3334 5.99984C13.3334 4.15892 11.8409 2.6665 10 2.6665C8.1591 2.6665 6.66668 4.15892 6.66668 5.99984C6.66918 6.72343 6.90943 7.42618 7.35043 7.99985H7.32268C5.43034 8.01251 3.74109 9.18893 3.073 10.9595L1.29334 17.0936C0.869668 18.1941 1.41834 19.4298 2.51892 19.8534C3.02075 20.0466 3.57701 20.0434 4.07659 19.8443C4.65059 19.613 5.09726 19.146 5.30284 18.5624L6.00001 16.3436V25.9922C5.42634 25.5513 4.72359 25.311 4.00001 25.3085C2.16184 25.3057 0.669418 26.7936 0.666668 28.6319C0.665334 29.5321 1.02867 30.3945 1.67392 31.0223C0.649918 31.5455 0.00400002 32.5968 1.74539e-08 33.7466V39.3332C-8.3316e-05 39.7013 0.29825 39.9998 0.666334 39.9999C0.666418 39.9999 0.666584 39.9999 0.666668 39.9999H7.33334C7.70143 40 7.99993 39.7016 8.00001 39.3336C8.00001 39.3335 8.00001 39.3333 8.00001 39.3332V33.7466C7.99676 32.8017 7.55776 31.9112 6.81034 31.3332H11.8564C11.1089 31.9112 10.6699 32.8017 10.6668 33.7466V39.3332C10.6667 39.7013 10.965 39.9998 11.3331 39.9999C11.3332 39.9999 11.3334 39.9999 11.3334 39.9999H18.0001C18.3682 40 18.6667 39.7016 18.6668 39.3336C18.6668 39.3335 18.6668 39.3333 18.6668 39.3332V33.7466C18.6628 32.5968 18.0169 31.5455 16.9929 31.0223C18.3091 29.7375 18.3347 27.629 17.0499 26.3127C16.2588 25.5021 15.1099 25.1492 14.0001 25.3759V11.7381L20.1202 8.56035C21.2172 8.10401 21.7365 6.84468 21.2802 5.74768ZM10 3.99984C11.1046 3.99984 12 4.89526 12 5.99984C12 7.10443 11.1046 7.99985 10 7.99985C8.89593 7.99868 8.00118 7.10393 8.00001 5.99984C8.00001 4.89526 8.89543 3.99984 10 3.99984ZM4.00001 26.6418C5.10459 26.6418 6.00001 27.5372 6.00001 28.6418C6.00001 29.7464 5.10459 30.6418 4.00001 30.6418C2.89542 30.6418 2 29.7464 2 28.6418C2.00117 27.5377 2.89592 26.643 4.00001 26.6418ZM6.66668 38.6666H1.33334V33.7466C1.33467 32.7824 2.11609 32.0011 3.08042 31.9999H4.91959C5.88384 32.0011 6.66534 32.7824 6.66668 33.7466V38.6666ZM17.3334 33.7466V38.6666H12V33.7466C12.0014 32.7824 12.7828 32.0011 13.7471 31.9999H15.5863C16.5506 32.0011 17.332 32.7824 17.3334 33.7466ZM14.6667 26.6418C15.7708 26.643 16.6655 27.5377 16.6667 28.6418C16.6667 29.7464 15.7713 30.6418 14.6667 30.6418C13.5621 30.6418 12.6667 29.7464 12.6667 28.6418C12.6667 27.5372 13.5621 26.6418 14.6667 26.6418ZM20.0603 6.85984C19.971 7.08884 19.7878 7.26859 19.557 7.35334L13.0264 10.7414C12.8054 10.856 12.6667 11.0843 12.6667 11.3332V25.9922C11.4179 26.9155 10.9854 28.5866 11.6294 29.9999H10.6667V18.6665H9.33335V29.9999H7.03734C7.22701 29.5807 7.32693 29.1265 7.33084 28.6665H7.33334V11.9999C7.33326 11.6316 7.03468 11.3332 6.66651 11.3333C6.37543 11.3334 6.11801 11.5223 6.03068 11.8L4.04001 18.1346C3.88917 18.5506 3.42959 18.7656 3.01359 18.6147C2.98442 18.6041 2.95584 18.5919 2.928 18.5779C2.54342 18.3792 2.38017 17.9152 2.55567 17.5194L4.33526 11.3853C4.81517 10.1528 5.99993 9.33893 7.32259 9.33318H12.043C12.1499 9.33335 12.2552 9.3076 12.35 9.25835L18.976 5.81893C19.3735 5.65309 19.8317 5.82276 20.0252 6.20759C20.1278 6.41043 20.1405 6.64709 20.0603 6.85984Z" fill="#2C78F6"/>
<path d="M27.6596 31.0226C28.9782 29.738 29.0057 27.6276 27.721 26.309C26.4363 24.9904 24.3259 24.9629 23.0073 26.2476C21.6887 27.5322 21.6612 29.6426 22.9459 30.9612C22.9662 30.982 22.9867 31.0025 23.0074 31.0226C21.9835 31.5458 21.3375 32.5971 21.3335 33.747V39.3336C21.3334 39.7017 21.6317 40.0002 21.9998 40.0002C21.9999 40.0002 22.0001 40.0002 22.0002 40.0002H28.6668C29.0349 40.0003 29.3334 39.702 29.3335 39.3339C29.3335 39.3338 29.3335 39.3337 29.3335 39.3336V33.747C29.3295 32.5971 28.6836 31.5458 27.6596 31.0226ZM25.3335 26.6421C26.4381 26.6421 27.3335 27.5376 27.3335 28.6421C27.3335 29.7467 26.4381 30.6421 25.3335 30.6421C24.2289 30.6421 23.3335 29.7467 23.3335 28.6421C23.3347 27.5381 24.2294 26.6434 25.3335 26.6421ZM28.0002 38.6669H22.6668V33.747C22.6682 32.7827 23.4496 32.0014 24.4139 32.0002H26.2531C27.2173 32.0014 27.9988 32.7827 28.0002 33.747V38.6669Z" fill="#2C78F6"/>
<path d="M38.3271 31.0226C39.6457 29.738 39.6732 27.6276 38.3885 26.309C37.1038 24.9904 34.9934 24.9629 33.6748 26.2476C32.3562 27.5322 32.3287 29.6426 33.6134 30.9612C33.6336 30.982 33.6541 31.0025 33.6749 31.0226C32.651 31.5458 32.005 32.5971 32.001 33.747V39.3336C32.0009 39.7017 32.2992 40.0002 32.6673 40.0002C32.6674 40.0002 32.6676 40.0002 32.6676 40.0002H39.3343C39.7024 40.0003 40.0009 39.702 40.001 39.3339C40.001 39.3338 40.001 39.3337 40.001 39.3336V33.747C39.997 32.5971 39.3511 31.5458 38.3271 31.0226ZM36.001 26.6421C37.1056 26.6421 38.001 27.5376 38.001 28.6421C38.001 29.7467 37.1056 30.6421 36.001 30.6421C34.8964 30.6421 34.001 29.7467 34.001 28.6421C34.0021 27.5381 34.8969 26.6434 36.001 26.6421ZM38.6677 38.6669H33.3343V33.747C33.3356 32.7827 34.1171 32.0014 35.0814 32.0002H36.9206C37.8848 32.0014 38.6663 32.7827 38.6677 33.747V38.6669Z" fill="#2C78F6"/>
</svg>
