<svg width="21" height="21" viewBox="0 0 21 21" fill="none" xmlns="http://www.w3.org/2000/svg">
<path d="M8.05228 13.5213L7.7241 15.4344C7.67966 15.6969 7.78905 15.9593 8.00613 16.1158C8.22492 16.2723 8.51378 16.2925 8.75137 16.1697L10.4999 15.2712L12.2485 16.1697C12.3528 16.2218 12.4656 16.2487 12.5767 16.2487C12.7237 16.2487 12.8707 16.2033 12.9938 16.1158C13.2108 15.9593 13.3202 15.6952 13.2758 15.4344L12.9493 13.5213L14.356 12.1618C14.5492 11.9767 14.6176 11.6991 14.5338 11.4467C14.4501 11.1943 14.2296 11.0109 13.9629 10.9722L12.0126 10.6879L11.1341 8.94979C11.0144 8.71255 10.7683 8.56281 10.4982 8.56281C10.2299 8.56281 9.98375 8.71255 9.86239 8.94979L8.98554 10.6879L7.03527 10.9722C6.76862 11.0109 6.54813 11.196 6.46438 11.4467C6.38062 11.6991 6.44899 11.9767 6.64214 12.1618L8.05228 13.5213Z" fill="white"/>
<path d="M18.8822 2.23275H16.6482V1.0129C16.6482 0.454291 16.1884 0 15.6192 0H15.4552C14.8877 0 14.4262 0.454291 14.4262 1.0129V2.23275H6.54648V1.0129C6.54648 0.452608 6.08498 0 5.5175 0H5.35341C4.78594 0 4.32614 0.454291 4.32614 1.0129V2.23275H2.11778C0.95035 2.23275 0 3.16826 0 4.31744V18.9153C0 20.0645 0.95035 21 2.11778 21H18.8805C20.0479 21 20.9983 20.0645 20.9983 18.9153V4.31744C21 3.16826 20.0497 2.23275 18.8822 2.23275ZM18.6053 18.6427H2.39468V7.28043H18.6053V18.6427Z" fill="white"/>
</svg>
