<svg width="59" height="59" viewBox="0 0 59 59" fill="none" xmlns="http://www.w3.org/2000/svg">
<g filter="url(#filter0_d)">
<circle cx="27.5" cy="27.5" r="22.5" fill="white"/>
</g>
<path fill-rule="evenodd" clip-rule="evenodd" d="M16.0685 37.5441C15.158 34.4577 12.0438 23.8262 15.8337 19.9396C19.3465 16.3366 23.1188 18.7965 24.1766 19.5967C25.2339 20.3969 26.7618 21.3688 27.8191 21.3116C28.8764 21.2544 27.9368 22.2263 27.9368 22.2263C27.2319 22.2546 25.914 22.2124 23.4717 20.3975C20.9992 18.5601 18.4657 18.6676 16.6568 20.7403C14.8006 22.866 14.4581 29.2174 17.2434 36.9728C17.5376 37.8014 16.8619 38.4876 16.0685 37.5441Z" fill="#CC2C2A"/>
<path fill-rule="evenodd" clip-rule="evenodd" d="M39.2624 37.5437C40.174 34.452 43.2909 23.8039 39.4977 19.9109C35.9811 16.302 32.2049 18.7657 31.1465 19.5675C30.0881 20.3688 28.5586 21.3423 27.5002 21.285C26.4418 21.2278 27.3825 22.2008 27.3825 22.2008C28.0885 22.2297 29.4075 22.1869 31.852 20.3688C34.3272 18.5282 36.8635 18.6362 38.6741 20.7122C40.5319 22.8416 40.8739 29.2031 38.0858 36.9709C37.7922 37.8015 38.4684 38.4883 39.2624 37.5437Z" fill="#CC2C2A"/>
<path fill-rule="evenodd" clip-rule="evenodd" d="M19.5143 37.5845C18.8759 35.538 16.6937 28.4902 19.3493 25.9131C21.8108 23.5243 24.4549 25.1552 25.196 25.6858C25.9372 26.2164 27.0077 26.8604 27.7488 26.8224C28.49 26.7845 27.8313 27.4285 27.8313 27.4285C27.337 27.4472 26.4139 27.4188 24.7023 26.2159C22.9693 24.9979 21.1939 25.069 19.9261 26.4432C18.6258 27.8526 18.386 32.0633 20.3379 37.2053C20.5435 37.7552 20.0701 38.2098 19.5143 37.5845Z" fill="#4456A1"/>
<path fill-rule="evenodd" clip-rule="evenodd" d="M35.7684 37.5837C36.4073 35.534 38.5917 28.4745 35.9334 25.8936C33.4691 23.501 30.8228 25.1346 30.0811 25.6657C29.3394 26.1969 28.2678 26.8425 27.5256 26.8045C26.7839 26.7665 27.4431 27.4116 27.4431 27.4116C27.9379 27.4303 28.8622 27.402 30.5754 26.1969C32.3101 24.9768 34.0871 25.0485 35.3566 26.4247C36.6586 27.8369 36.8983 32.054 34.9442 37.2039C34.7381 37.7544 35.212 38.2101 35.7684 37.5837Z" fill="#4456A1"/>
<path fill-rule="evenodd" clip-rule="evenodd" d="M20.4159 32.5699C19.9315 29.0856 21.5793 25.328 24.6462 27.7687C23.2727 27.5259 20.7012 27.2959 20.4159 32.5699Z" fill="#4456A1"/>
<defs>
<filter id="filter0_d" x="0" y="0" width="59" height="59" filterUnits="userSpaceOnUse" color-interpolation-filters="sRGB">
<feFlood flood-opacity="0" result="BackgroundImageFix"/>
<feColorMatrix in="SourceAlpha" type="matrix" values="0 0 0 0 0 0 0 0 0 0 0 0 0 0 0 0 0 0 127 0"/>
<feOffset dx="2" dy="2"/>
<feGaussianBlur stdDeviation="3.5"/>
<feColorMatrix type="matrix" values="0 0 0 0 0 0 0 0 0 0 0 0 0 0 0 0 0 0 0.06 0"/>
<feBlend mode="normal" in2="BackgroundImageFix" result="effect1_dropShadow"/>
<feBlend mode="normal" in="SourceGraphic" in2="effect1_dropShadow" result="shape"/>
</filter>
</defs>
</svg>
