<svg width="35" height="35" viewBox="0 0 35 35" fill="none" xmlns="http://www.w3.org/2000/svg">
<path d="M4.83968 2.49994H29.975C31.3539 2.49994 32.4726 3.61894 32.4726 5.00003V30C32.4726 31.3811 31.354 32.5001 29.975 32.5001H4.83968C3.46085 32.5001 2.34223 31.3811 2.34223 30V5.00003C2.34223 3.61893 3.46086 2.49994 4.83968 2.49994Z" fill="black" fill-opacity="0.01" stroke="#CF446F"/>
<path d="M20.8604 10H14.1393C11.8569 10 10 11.857 10 14.1394V20.8605C10 23.143 11.8569 24.9999 14.1393 24.9999H20.8604C23.143 24.9999 24.9999 23.1429 24.9999 20.8605V14.1394C25 11.857 23.143 10 20.8604 10ZM23.6691 20.8605C23.6691 22.4092 22.4092 23.669 20.8605 23.669H14.1393C12.5907 23.6691 11.3309 22.4092 11.3309 20.8605V14.1394C11.3309 12.5908 12.5907 11.3309 14.1393 11.3309H20.8604C22.4091 11.3309 23.669 12.5908 23.669 14.1394V20.8605H23.6691Z" fill="#CF446F"/>
<path d="M17.4999 13.635C15.3686 13.635 13.6348 15.3689 13.6348 17.5001C13.6348 19.6313 15.3686 21.365 17.4999 21.365C19.6311 21.365 21.365 19.6313 21.365 17.5001C21.365 15.3689 19.6311 13.635 17.4999 13.635ZM17.4999 20.0341C16.1025 20.0341 14.9656 18.8973 14.9656 17.5C14.9656 16.1026 16.1025 14.9658 17.4999 14.9658C18.8973 14.9658 20.0341 16.1026 20.0341 17.5C20.0341 18.8973 18.8972 20.0341 17.4999 20.0341Z" fill="#CF446F"/>
<path d="M21.5272 12.5065C21.2708 12.5065 21.0189 12.6103 20.8378 12.7922C20.6559 12.9732 20.5513 13.2252 20.5513 13.4825C20.5513 13.739 20.656 13.9909 20.8378 14.1728C21.0188 14.3538 21.2708 14.4585 21.5272 14.4585C21.7845 14.4585 22.0356 14.3538 22.2175 14.1728C22.3994 13.9909 22.5032 13.7389 22.5032 13.4825C22.5032 13.2252 22.3994 12.9732 22.2175 12.7922C22.0365 12.6103 21.7845 12.5065 21.5272 12.5065Z" fill="#CF446F"/>
</svg>
