<svg width="21" height="21" viewBox="0 0 21 21" fill="none" xmlns="http://www.w3.org/2000/svg">
<path d="M20.315 11.1554H7.07571C6.69771 11.1554 6.39093 10.8486 6.39093 10.4706C6.39093 10.0926 6.69771 9.78583 7.07571 9.78583H20.315C20.693 9.78583 20.9997 10.0926 20.9997 10.4706C20.9997 10.8486 20.693 11.1554 20.315 11.1554Z" fill="white"/>
<path d="M10.7282 14.8072C10.5528 14.8072 10.3776 14.7407 10.2442 14.6064L6.5921 10.9543C6.32461 10.6867 6.32461 10.253 6.5921 9.98549L10.2442 6.33337C10.5117 6.06588 10.9454 6.06588 11.213 6.33337C11.4805 6.60086 11.4805 7.03454 11.213 7.30203L8.04475 10.4703L11.213 13.6386C11.4805 13.9061 11.4805 14.3398 11.213 14.6073C11.0788 14.7407 10.9034 14.8072 10.7282 14.8072Z" fill="white"/>
<path d="M10.0435 20.5138C4.50592 20.5138 0 16.0079 0 10.4703C0 4.93268 4.50592 0.426758 10.0435 0.426758C14.1987 0.426758 17.8674 2.92665 19.3913 6.79627C19.53 7.14769 19.3565 7.54492 19.0051 7.68452C18.6535 7.82161 18.2562 7.65075 18.1166 7.29749C16.8009 3.95566 13.6318 1.79632 10.0435 1.79632C5.26092 1.79632 1.36957 5.68785 1.36957 10.4703C1.36957 15.2527 5.26092 19.1443 10.0435 19.1443C13.6318 19.1443 16.8009 16.9849 18.1166 13.6441C18.2554 13.2907 18.6526 13.12 19.0051 13.2569C19.3565 13.3957 19.53 13.7937 19.3913 14.1453C17.8674 18.0139 14.1987 20.5138 10.0435 20.5138Z" fill="white"/>
</svg>
