<svg width="171" height="21" viewBox="0 0 171 21" fill="none" xmlns="http://www.w3.org/2000/svg">
<path d="M8.937 15.716C7.389 15.716 5.994 15.401 4.752 14.771C3.528 14.123 2.565 13.232 1.863 12.098C1.179 10.964 0.837 9.677 0.837 8.237C0.837 6.797 1.179 5.51 1.863 4.376C2.565 3.242 3.528 2.36 4.752 1.73C5.994 1.082 7.389 0.758 8.937 0.758C10.467 0.758 11.799 1.082 12.933 1.73C14.085 2.36 14.922 3.269 15.444 4.457L12.177 6.212C11.421 4.88 10.332 4.214 8.91 4.214C7.812 4.214 6.903 4.574 6.183 5.294C5.463 6.014 5.103 6.995 5.103 8.237C5.103 9.479 5.463 10.46 6.183 11.18C6.903 11.9 7.812 12.26 8.91 12.26C10.35 12.26 11.439 11.594 12.177 10.262L15.444 12.044C14.922 13.196 14.085 14.096 12.933 14.744C11.799 15.392 10.467 15.716 8.937 15.716ZM30.1548 4.43H25.2408V15.5H21.0558V4.43H16.1418V0.973999H30.1548V4.43ZM38.5976 15.716C37.0676 15.716 35.6906 15.401 34.4666 14.771C33.2606 14.123 32.3156 13.232 31.6316 12.098C30.9476 10.964 30.6056 9.677 30.6056 8.237C30.6056 6.797 30.9476 5.51 31.6316 4.376C32.3156 3.242 33.2606 2.36 34.4666 1.73C35.6906 1.082 37.0676 0.758 38.5976 0.758C40.1276 0.758 41.4956 1.082 42.7016 1.73C43.9076 2.36 44.8526 3.242 45.5366 4.376C46.2206 5.51 46.5626 6.797 46.5626 8.237C46.5626 9.677 46.2206 10.964 45.5366 12.098C44.8526 13.232 43.9076 14.123 42.7016 14.771C41.4956 15.401 40.1276 15.716 38.5976 15.716ZM38.5976 12.26C39.6776 12.26 40.5596 11.9 41.2436 11.18C41.9456 10.442 42.2966 9.461 42.2966 8.237C42.2966 7.013 41.9456 6.041 41.2436 5.321C40.5596 4.583 39.6776 4.214 38.5976 4.214C37.5176 4.214 36.6266 4.583 35.9246 5.321C35.2226 6.041 34.8716 7.013 34.8716 8.237C34.8716 9.461 35.2226 10.442 35.9246 11.18C36.6266 11.9 37.5176 12.26 38.5976 12.26ZM63.6346 15.5V6.806L59.2876 14.096H57.5056L53.2666 6.779V15.5H49.4596V0.973999H53.8606L58.5046 9.371L63.4456 0.973999H67.3876L67.4416 15.5H63.6346Z" fill="#30353E"/>
<path d="M85.9212 0.973999V15.5H81.7092V4.43H75.6612V15.5H71.4762V0.973999H85.9212ZM96.7636 15.716C95.2336 15.716 93.8566 15.401 92.6326 14.771C91.4266 14.123 90.4816 13.232 89.7976 12.098C89.1136 10.964 88.7716 9.677 88.7716 8.237C88.7716 6.797 89.1136 5.51 89.7976 4.376C90.4816 3.242 91.4266 2.36 92.6326 1.73C93.8566 1.082 95.2336 0.758 96.7636 0.758C98.2936 0.758 99.6616 1.082 100.868 1.73C102.074 2.36 103.019 3.242 103.703 4.376C104.387 5.51 104.729 6.797 104.729 8.237C104.729 9.677 104.387 10.964 103.703 12.098C103.019 13.232 102.074 14.123 100.868 14.771C99.6616 15.401 98.2936 15.716 96.7636 15.716ZM96.7636 12.26C97.8436 12.26 98.7256 11.9 99.4096 11.18C100.112 10.442 100.463 9.461 100.463 8.237C100.463 7.013 100.112 6.041 99.4096 5.321C98.7256 4.583 97.8436 4.214 96.7636 4.214C95.6836 4.214 94.7926 4.583 94.0906 5.321C93.3886 6.041 93.0376 7.013 93.0376 8.237C93.0376 9.461 93.3886 10.442 94.0906 11.18C94.7926 11.9 95.6836 12.26 96.7636 12.26ZM116.185 0.758C117.535 0.758 118.759 1.073 119.857 1.703C120.973 2.315 121.846 3.188 122.476 4.322C123.106 5.438 123.421 6.743 123.421 8.237C123.421 9.731 123.106 11.045 122.476 12.179C121.846 13.295 120.973 14.168 119.857 14.798C118.759 15.41 117.535 15.716 116.185 15.716C114.331 15.716 112.873 15.131 111.811 13.961V20.738H107.599V0.973999H111.622V2.648C112.666 1.388 114.187 0.758 116.185 0.758ZM115.456 12.26C116.536 12.26 117.418 11.9 118.102 11.18C118.804 10.442 119.155 9.461 119.155 8.237C119.155 7.013 118.804 6.041 118.102 5.321C117.418 4.583 116.536 4.214 115.456 4.214C114.376 4.214 113.485 4.583 112.783 5.321C112.099 6.041 111.757 7.013 111.757 8.237C111.757 9.461 112.099 10.442 112.783 11.18C113.485 11.9 114.376 12.26 115.456 12.26ZM138.049 4.43H133.135V15.5H128.95V4.43H124.036V0.973999H138.049V4.43ZM145.938 0.758C148.188 0.758 149.916 1.298 151.122 2.378C152.328 3.44 152.931 5.051 152.931 7.211V15.5H148.989V13.691C148.197 15.041 146.721 15.716 144.561 15.716C143.445 15.716 142.473 15.527 141.645 15.149C140.835 14.771 140.214 14.249 139.782 13.583C139.35 12.917 139.134 12.161 139.134 11.315C139.134 9.965 139.638 8.903 140.646 8.129C141.672 7.355 143.247 6.968 145.371 6.968H148.719C148.719 6.05 148.44 5.348 147.882 4.862C147.324 4.358 146.487 4.106 145.371 4.106C144.597 4.106 143.832 4.232 143.076 4.484C142.338 4.718 141.708 5.042 141.186 5.456L139.674 2.513C140.466 1.955 141.411 1.523 142.509 1.217C143.625 0.911 144.768 0.758 145.938 0.758ZM145.614 12.881C146.334 12.881 146.973 12.719 147.531 12.395C148.089 12.053 148.485 11.558 148.719 10.91V9.425H145.83C144.102 9.425 143.238 9.992 143.238 11.126C143.238 11.666 143.445 12.098 143.859 12.422C144.291 12.728 144.876 12.881 145.614 12.881ZM170.521 0.973999V15.5H166.309V4.43H161.719L161.584 6.995C161.512 8.903 161.332 10.487 161.044 11.747C160.756 13.007 160.288 13.997 159.64 14.717C158.992 15.437 158.092 15.797 156.94 15.797C156.328 15.797 155.599 15.689 154.753 15.473L154.969 12.017C155.257 12.053 155.464 12.071 155.59 12.071C156.22 12.071 156.688 11.846 156.994 11.396C157.318 10.928 157.534 10.343 157.642 9.641C157.75 8.921 157.831 7.976 157.885 6.806L158.101 0.973999H170.521Z" fill="#2C78F6"/>
</svg>
