<svg width="114" height="22" viewBox="0 0 114 22" fill="none" xmlns="http://www.w3.org/2000/svg">
<path d="M56.7887 0.520998V10.2163H53.9774V2.82768H49.9407V10.2163H47.1475V0.520998H56.7887Z" fill="#2C78F6"/>
<path d="M64.0253 10.3604C63.0042 10.3604 62.0851 10.1502 61.2681 9.7297C60.4632 9.2972 59.8325 8.70251 59.3759 7.94563C58.9194 7.18875 58.6911 6.32975 58.6911 5.36863C58.6911 4.40752 58.9194 3.54852 59.3759 2.79164C59.8325 2.03476 60.4632 1.44607 61.2681 1.02558C62.0851 0.593082 63.0042 0.376831 64.0253 0.376831C65.0465 0.376831 65.9596 0.593082 66.7645 1.02558C67.5695 1.44607 68.2002 2.03476 68.6567 2.79164C69.1133 3.54852 69.3415 4.40752 69.3415 5.36863C69.3415 6.32975 69.1133 7.18875 68.6567 7.94563C68.2002 8.70251 67.5695 9.2972 66.7645 9.7297C65.9596 10.1502 65.0465 10.3604 64.0253 10.3604ZM64.0253 8.05376C64.7462 8.05376 65.3349 7.81348 65.7914 7.33292C66.2599 6.84034 66.4942 6.18558 66.4942 5.36863C66.4942 4.55168 66.2599 3.90293 65.7914 3.42237C65.3349 2.9298 64.7462 2.68351 64.0253 2.68351C63.3045 2.68351 62.7098 2.9298 62.2413 3.42237C61.7727 3.90293 61.5385 4.55168 61.5385 5.36863C61.5385 6.18558 61.7727 6.84034 62.2413 7.33292C62.7098 7.81348 63.3045 8.05376 64.0253 8.05376Z" fill="#2C78F6"/>
<path d="M76.9878 0.376831C77.8888 0.376831 78.7058 0.587075 79.4386 1.00756C80.1835 1.41604 80.7661 1.99872 81.1866 2.7556C81.6071 3.50046 81.8174 4.37147 81.8174 5.36863C81.8174 6.36579 81.6071 7.24281 81.1866 7.99969C80.7661 8.74456 80.1835 9.32724 79.4386 9.74772C78.7058 10.1562 77.8888 10.3604 76.9878 10.3604C75.7503 10.3604 74.7772 9.96998 74.0684 9.18908V13.7123H71.2571V0.520998H73.9422V1.6383C74.639 0.79732 75.6542 0.376831 76.9878 0.376831ZM76.5012 8.05376C77.222 8.05376 77.8107 7.81348 78.2672 7.33292C78.7358 6.84034 78.9701 6.18558 78.9701 5.36863C78.9701 4.55168 78.7358 3.90293 78.2672 3.42237C77.8107 2.9298 77.222 2.68351 76.5012 2.68351C75.7804 2.68351 75.1857 2.9298 74.7171 3.42237C74.2606 3.90293 74.0323 4.55168 74.0323 5.36863C74.0323 6.18558 74.2606 6.84034 74.7171 7.33292C75.1857 7.81348 75.7804 8.05376 76.5012 8.05376Z" fill="#2C78F6"/>
<path d="M91.5812 2.82768H88.3014V10.2163H85.5081V2.82768H82.2283V0.520998H91.5812V2.82768Z" fill="#2C78F6"/>
<path d="M96.8461 0.376831C98.3479 0.376831 99.5012 0.73725 100.306 1.45809C101.111 2.16691 101.514 3.24216 101.514 4.68384V10.2163H98.8825V9.00887C98.3539 9.90991 97.3687 10.3604 95.9271 10.3604C95.1822 10.3604 94.5334 10.2343 93.9808 9.982C93.4402 9.7297 93.0257 9.3813 92.7374 8.93678C92.449 8.49226 92.3049 7.98768 92.3049 7.42302C92.3049 6.52198 92.6412 5.81315 93.314 5.29655C93.9988 4.77995 95.05 4.52165 96.4677 4.52165H98.7023C98.7023 3.90894 98.5161 3.44039 98.1436 3.11601C97.7712 2.77962 97.2126 2.61143 96.4677 2.61143C95.9511 2.61143 95.4405 2.69553 94.9359 2.86372C94.4433 3.0199 94.0229 3.23615 93.6744 3.51248L92.6653 1.54819C93.1939 1.17576 93.8246 0.887424 94.5575 0.683187C95.3023 0.47895 96.0652 0.376831 96.8461 0.376831ZM96.6299 8.46824C97.1104 8.46824 97.5369 8.36011 97.9094 8.14386C98.2818 7.91559 98.5461 7.58521 98.7023 7.15271V6.16156H96.774C95.6207 6.16156 95.044 6.54 95.044 7.29688C95.044 7.65729 95.1822 7.94563 95.4585 8.16188C95.7469 8.36612 96.1373 8.46824 96.6299 8.46824Z" fill="#2C78F6"/>
<path d="M113.254 0.520998V10.2163H110.443V2.82768H107.38L107.29 4.53967C107.241 5.81315 107.121 6.87038 106.929 7.71136C106.737 8.55233 106.425 9.2131 105.992 9.69366C105.56 10.1742 104.959 10.4145 104.19 10.4145C103.781 10.4145 103.295 10.3424 102.73 10.1982L102.874 7.89157C103.067 7.91559 103.205 7.92761 103.289 7.92761C103.709 7.92761 104.022 7.77743 104.226 7.47708C104.442 7.16472 104.586 6.77427 104.658 6.30572C104.731 5.82516 104.785 5.19443 104.821 4.41352L104.965 0.520998H113.254Z" fill="#2C78F6"/>
<path d="M5.40629 10.3604C4.37308 10.3604 3.442 10.1502 2.61304 9.7297C1.79609 9.2972 1.15334 8.70251 0.684796 7.94563C0.228265 7.18875 0 6.32975 0 5.36863C0 4.40752 0.228265 3.54852 0.684796 2.79164C1.15334 2.03476 1.79609 1.44607 2.61304 1.02558C3.442 0.593082 4.37308 0.376831 5.40629 0.376831C6.42747 0.376831 7.31651 0.593082 8.07339 1.02558C8.84228 1.44607 9.40093 2.05278 9.74933 2.8457L7.5688 4.01706C7.06421 3.12803 6.33737 2.68351 5.38826 2.68351C4.65541 2.68351 4.04871 2.92379 3.56815 3.40435C3.08759 3.88491 2.84731 4.53967 2.84731 5.36863C2.84731 6.1976 3.08759 6.85236 3.56815 7.33292C4.04871 7.81348 4.65541 8.05376 5.38826 8.05376C6.34938 8.05376 7.07623 7.60924 7.5688 6.7202L9.74933 7.90959C9.40093 8.67848 8.84228 9.27918 8.07339 9.71168C7.31651 10.1442 6.42747 10.3604 5.40629 10.3604Z" fill="#30353E"/>
<path d="M19.5679 2.82768H16.2881V10.2163H13.4949V2.82768H10.2151V0.520998H19.5679V2.82768Z" fill="#30353E"/>
<path d="M25.203 10.3604C24.1818 10.3604 23.2627 10.1502 22.4458 9.7297C21.6409 9.2972 21.0101 8.70251 20.5536 7.94563C20.0971 7.18875 19.8688 6.32975 19.8688 5.36863C19.8688 4.40752 20.0971 3.54852 20.5536 2.79164C21.0101 2.03476 21.6409 1.44607 22.4458 1.02558C23.2627 0.593082 24.1818 0.376831 25.203 0.376831C26.2242 0.376831 27.1373 0.593082 27.9422 1.02558C28.7471 1.44607 29.3779 2.03476 29.8344 2.79164C30.2909 3.54852 30.5192 4.40752 30.5192 5.36863C30.5192 6.32975 30.2909 7.18875 29.8344 7.94563C29.3779 8.70251 28.7471 9.2972 27.9422 9.7297C27.1373 10.1502 26.2242 10.3604 25.203 10.3604ZM25.203 8.05376C25.9238 8.05376 26.5125 7.81348 26.9691 7.33292C27.4376 6.84034 27.6719 6.18558 27.6719 5.36863C27.6719 4.55168 27.4376 3.90293 26.9691 3.42237C26.5125 2.9298 25.9238 2.68351 25.203 2.68351C24.4822 2.68351 23.8875 2.9298 23.4189 3.42237C22.9504 3.90293 22.7161 4.55168 22.7161 5.36863C22.7161 6.18558 22.9504 6.84034 23.4189 7.33292C23.8875 7.81348 24.4822 8.05376 25.203 8.05376Z" fill="#30353E"/>
<path d="M41.9138 10.2163V4.41352L39.0124 9.27918H37.823L34.9937 4.3955V10.2163H32.4528V0.520998H35.3902L38.4898 6.12551L41.7876 0.520998H44.4187L44.4547 10.2163H41.9138Z" fill="#30353E"/>
<path d="M2.88551 20.28C2.42853 20.28 2.01783 20.1788 1.65341 19.9764C1.28898 19.7739 1.00265 19.4962 0.794409 19.1434C0.591951 18.7847 0.490723 18.3798 0.490723 17.9286C0.490723 17.4775 0.591951 17.0754 0.794409 16.7226C1.00265 16.3639 1.28898 16.0863 1.65341 15.8896C2.01783 15.6871 2.42853 15.5859 2.88551 15.5859C3.34248 15.5859 3.75029 15.6871 4.10893 15.8896C4.47335 16.0863 4.75679 16.3639 4.95925 16.7226C5.16749 17.0754 5.27161 17.4775 5.27161 17.9286C5.27161 18.3798 5.16749 18.7847 4.95925 19.1434C4.75679 19.4962 4.47335 19.7739 4.10893 19.9764C3.75029 20.1788 3.34248 20.28 2.88551 20.28ZM2.88551 19.5512C3.18052 19.5512 3.44371 19.4847 3.67509 19.3516C3.91226 19.2128 4.09736 19.0219 4.2304 18.779C4.36345 18.5302 4.42997 18.2468 4.42997 17.9286C4.42997 17.6105 4.36345 17.3299 4.2304 17.087C4.09736 16.8383 3.91226 16.6474 3.67509 16.5143C3.44371 16.3813 3.18052 16.3148 2.88551 16.3148C2.5905 16.3148 2.32441 16.3813 2.08725 16.5143C1.85587 16.6474 1.67076 16.8383 1.53193 17.087C1.39889 17.3299 1.33237 17.6105 1.33237 17.9286C1.33237 18.2468 1.39889 18.5302 1.53193 18.779C1.67076 19.0219 1.85587 19.2128 2.08725 19.3516C2.32441 19.4847 2.5905 19.5512 2.88551 19.5512Z" fill="#909AAB"/>
<path d="M9.09748 15.7855C9.52553 15.7855 9.90731 15.8809 10.2428 16.0718C10.5783 16.2627 10.8386 16.5288 11.0237 16.8701C11.2146 17.2056 11.31 17.5902 11.31 18.0241C11.31 18.4695 11.2088 18.8657 11.0064 19.2128C10.8097 19.5541 10.5291 19.8202 10.1647 20.0111C9.80608 20.202 9.39538 20.2974 8.93262 20.2974C8.15171 20.2974 7.54723 20.0313 7.11918 19.4991C6.69691 18.9612 6.48577 18.2063 6.48577 17.2345C6.48577 16.2916 6.67955 15.5541 7.06712 15.0219C7.45468 14.484 8.04759 14.1282 8.84585 13.9547L10.9456 13.4861L11.0671 14.2497L9.13218 14.6662C8.5306 14.7992 8.0823 15.0248 7.78729 15.343C7.49228 15.6611 7.32453 16.1181 7.28404 16.7139C7.48071 16.4189 7.73523 16.1904 8.04759 16.0284C8.35995 15.8665 8.70992 15.7855 9.09748 15.7855ZM8.94997 19.6033C9.24498 19.6033 9.50529 19.5367 9.73088 19.4037C9.96226 19.2706 10.1416 19.0884 10.2688 18.8571C10.3961 18.6199 10.4597 18.3509 10.4597 18.0501C10.4597 17.5931 10.3209 17.2258 10.0432 16.9482C9.76559 16.6705 9.40116 16.5317 8.94997 16.5317C8.49878 16.5317 8.13146 16.6705 7.84802 16.9482C7.57037 17.2258 7.43154 17.5931 7.43154 18.0501C7.43154 18.3509 7.49517 18.6199 7.62243 18.8571C7.75547 19.0884 7.93769 19.2706 8.16906 19.4037C8.40044 19.5367 8.66075 19.6033 8.94997 19.6033Z" fill="#909AAB"/>
<path d="M16.757 15.6293L14.5271 20.6878C14.3304 21.1564 14.0991 21.4861 13.833 21.677C13.5727 21.8679 13.2574 21.9633 12.8872 21.9633C12.6616 21.9633 12.4418 21.9257 12.2278 21.8505C12.0195 21.7811 11.846 21.677 11.7072 21.5382L12.0629 20.9134C12.3001 21.139 12.5748 21.2518 12.8872 21.2518C13.0897 21.2518 13.2574 21.1969 13.3905 21.087C13.5293 20.9829 13.6537 20.8006 13.7636 20.5403L13.9111 20.2193L11.8807 15.6293H12.7484L14.3536 19.3082L15.9414 15.6293H16.757Z" fill="#909AAB"/>
<path d="M21.5605 15.6293V20.228H20.7275V18.3712C20.23 18.6025 19.7355 18.7182 19.2438 18.7182C18.6711 18.7182 18.2286 18.5852 17.9162 18.3191C17.6039 18.053 17.4477 17.6539 17.4477 17.1217V15.6293H18.2807V17.0696C18.2807 17.3878 18.379 17.6278 18.5757 17.7898C18.7781 17.9518 19.0587 18.0328 19.4173 18.0328C19.8222 18.0328 20.259 17.9315 20.7275 17.7291V15.6293H21.5605Z" fill="#909AAB"/>
<path d="M27.6141 17.9547C27.6141 18.0183 27.6083 18.1022 27.5967 18.2063H23.8657C23.9178 18.6112 24.0942 18.938 24.395 19.1868C24.7016 19.4297 25.0805 19.5512 25.5317 19.5512C26.0812 19.5512 26.5237 19.3661 26.8592 18.9959L27.3191 19.5338C27.1108 19.7768 26.8505 19.9619 26.5382 20.0892C26.2316 20.2164 25.8874 20.28 25.5056 20.28C25.0197 20.28 24.5888 20.1817 24.2128 19.985C23.8368 19.7826 23.5447 19.502 23.3364 19.1434C23.134 18.7847 23.0328 18.3798 23.0328 17.9286C23.0328 17.4832 23.1311 17.0812 23.3278 16.7226C23.5302 16.3639 23.805 16.0863 24.1521 15.8896C24.5049 15.6871 24.9012 15.5859 25.3408 15.5859C25.7804 15.5859 26.1709 15.6871 26.5121 15.8896C26.8592 16.0863 27.1282 16.3639 27.3191 16.7226C27.5157 17.0812 27.6141 17.4919 27.6141 17.9547ZM25.3408 16.2887C24.9416 16.2887 24.6061 16.4102 24.3343 16.6532C24.0682 16.8961 23.912 17.2143 23.8657 17.6076H26.8158C26.7695 17.22 26.6105 16.9048 26.3386 16.6618C26.0725 16.4131 25.7399 16.2887 25.3408 16.2887Z" fill="#909AAB"/>
<path d="M29.1866 15.6293H30.0196V17.5816H32.64V15.6293H33.473V20.228H32.64V18.3017H30.0196V20.228H29.1866V15.6293Z" fill="#909AAB"/>
<path d="M35.3729 15.6293H36.2059V18.9785L39.0258 15.6293H39.7807V20.228H38.9477V16.8788L36.1365 20.228H35.3729V15.6293Z" fill="#909AAB"/>
<path d="M45.834 17.9547C45.834 18.0183 45.8282 18.1022 45.8166 18.2063H42.0856C42.1377 18.6112 42.3141 18.938 42.6149 19.1868C42.9215 19.4297 43.3004 19.5512 43.7516 19.5512C44.3011 19.5512 44.7436 19.3661 45.0791 18.9959L45.539 19.5338C45.3307 19.7768 45.0704 19.9619 44.7581 20.0892C44.4515 20.2164 44.1073 20.28 43.7255 20.28C43.2396 20.28 42.8087 20.1817 42.4327 19.985C42.0567 19.7826 41.7646 19.502 41.5563 19.1434C41.3539 18.7847 41.2527 18.3798 41.2527 17.9286C41.2527 17.4832 41.351 17.0812 41.5477 16.7226C41.7501 16.3639 42.0249 16.0863 42.372 15.8896C42.7248 15.6871 43.1211 15.5859 43.5607 15.5859C44.0003 15.5859 44.3908 15.6871 44.732 15.8896C45.0791 16.0863 45.3481 16.3639 45.539 16.7226C45.7356 17.0812 45.834 17.4919 45.834 17.9547ZM43.5607 16.2887C43.1615 16.2887 42.826 16.4102 42.5542 16.6532C42.2881 16.8961 42.1319 17.2143 42.0856 17.6076H45.0357C44.9895 17.22 44.8304 16.9048 44.5585 16.6618C44.2924 16.4131 43.9598 16.2887 43.5607 16.2887Z" fill="#909AAB"/>
<path d="M52.0214 20.28C51.5528 20.28 51.1335 20.1788 50.7632 19.9764C50.3988 19.7739 50.1125 19.4962 49.9043 19.1434C49.696 18.7847 49.5919 18.3798 49.5919 17.9286C49.5919 17.4775 49.696 17.0754 49.9043 16.7226C50.1125 16.3639 50.3988 16.0863 50.7632 15.8896C51.1335 15.6871 51.5528 15.5859 52.0214 15.5859C52.4379 15.5859 52.8081 15.6698 53.132 15.8375C53.4617 16.0053 53.7162 16.2482 53.8956 16.5664L53.2622 16.9742C53.1175 16.7544 52.9382 16.5895 52.7242 16.4796C52.5102 16.3697 52.273 16.3148 52.0127 16.3148C51.7119 16.3148 51.44 16.3813 51.1971 16.5143C50.9599 16.6474 50.7719 16.8383 50.6331 17.087C50.5001 17.3299 50.4335 17.6105 50.4335 17.9286C50.4335 18.2526 50.5001 18.5389 50.6331 18.7876C50.7719 19.0306 50.9599 19.2186 51.1971 19.3516C51.44 19.4847 51.7119 19.5512 52.0127 19.5512C52.273 19.5512 52.5102 19.4962 52.7242 19.3863C52.9382 19.2764 53.1175 19.1116 53.2622 18.8918L53.8956 19.2909C53.7162 19.609 53.4617 19.8549 53.132 20.0284C52.8081 20.1962 52.4379 20.28 52.0214 20.28Z" fill="#909AAB"/>
<path d="M58.6223 16.3582H56.939V20.228H56.106V16.3582H54.4228V15.6293H58.6223V16.3582Z" fill="#909AAB"/>
<path d="M61.5206 20.28C61.0637 20.28 60.653 20.1788 60.2885 19.9764C59.9241 19.7739 59.6378 19.4962 59.4296 19.1434C59.2271 18.7847 59.1259 18.3798 59.1259 17.9286C59.1259 17.4775 59.2271 17.0754 59.4296 16.7226C59.6378 16.3639 59.9241 16.0863 60.2885 15.8896C60.653 15.6871 61.0637 15.5859 61.5206 15.5859C61.9776 15.5859 62.3854 15.6871 62.7441 15.8896C63.1085 16.0863 63.3919 16.3639 63.5944 16.7226C63.8026 17.0754 63.9068 17.4775 63.9068 17.9286C63.9068 18.3798 63.8026 18.7847 63.5944 19.1434C63.3919 19.4962 63.1085 19.7739 62.7441 19.9764C62.3854 20.1788 61.9776 20.28 61.5206 20.28ZM61.5206 19.5512C61.8157 19.5512 62.0788 19.4847 62.3102 19.3516C62.5474 19.2128 62.7325 19.0219 62.8655 18.779C62.9986 18.5302 63.0651 18.2468 63.0651 17.9286C63.0651 17.6105 62.9986 17.3299 62.8655 17.087C62.7325 16.8383 62.5474 16.6474 62.3102 16.5143C62.0788 16.3813 61.8157 16.3148 61.5206 16.3148C61.2256 16.3148 60.9595 16.3813 60.7224 16.5143C60.491 16.6474 60.3059 16.8383 60.1671 17.087C60.034 17.3299 59.9675 17.6105 59.9675 17.9286C59.9675 18.2468 60.034 18.5302 60.1671 18.779C60.3059 19.0219 60.491 19.2128 60.7224 19.3516C60.9595 19.4847 61.2256 19.5512 61.5206 19.5512Z" fill="#909AAB"/>
<path d="M70.6914 15.6293V20.228H69.9365V16.8701L68.2185 19.7074H67.8541L66.1534 16.8614V20.228H65.3899V15.6293H66.2489L68.0536 18.7356L69.9105 15.6293H70.6914Z" fill="#909AAB"/>
<path d="M74.2329 15.5859C74.8692 15.5859 75.3551 15.7421 75.6906 16.0545C76.0319 16.3668 76.2025 16.8325 76.2025 17.4514V20.228H75.4129V19.6206C75.2741 19.8346 75.0745 19.9995 74.8142 20.1152C74.5597 20.2251 74.256 20.28 73.9032 20.28C73.3883 20.28 72.9748 20.1557 72.6624 19.9069C72.3558 19.6582 72.2025 19.3314 72.2025 18.9265C72.2025 18.5216 72.35 18.1976 72.645 17.9547C72.94 17.7059 73.4086 17.5816 74.0507 17.5816H75.3695V17.4167C75.3695 17.0581 75.2654 16.7833 75.0572 16.5924C74.8489 16.4015 74.5424 16.3061 74.1374 16.3061C73.8656 16.3061 73.5995 16.3524 73.3392 16.4449C73.0789 16.5317 72.8591 16.6503 72.6797 16.8007L72.3327 16.1759C72.5698 15.9851 72.8533 15.8404 73.183 15.7421C73.5127 15.638 73.8627 15.5859 74.2329 15.5859ZM74.042 19.638C74.3601 19.638 74.6349 19.5685 74.8663 19.4297C75.0977 19.2851 75.2654 19.0827 75.3695 18.8223V18.1803H74.0854C73.3797 18.1803 73.0268 18.4174 73.0268 18.8918C73.0268 19.1231 73.1165 19.3054 73.2958 19.4384C73.4751 19.5714 73.7238 19.638 74.042 19.638Z" fill="#909AAB"/>
<path d="M81.4101 16.3582H79.7268V20.228H78.8938V16.3582H77.2105V15.6293H81.4101V16.3582Z" fill="#909AAB"/>
<path d="M84.3084 20.28C83.8514 20.28 83.4407 20.1788 83.0763 19.9764C82.7119 19.7739 82.4256 19.4962 82.2173 19.1434C82.0149 18.7847 81.9136 18.3798 81.9136 17.9286C81.9136 17.4775 82.0149 17.0754 82.2173 16.7226C82.4256 16.3639 82.7119 16.0863 83.0763 15.8896C83.4407 15.6871 83.8514 15.5859 84.3084 15.5859C84.7654 15.5859 85.1732 15.6871 85.5318 15.8896C85.8963 16.0863 86.1797 16.3639 86.3821 16.7226C86.5904 17.0754 86.6945 17.4775 86.6945 17.9286C86.6945 18.3798 86.5904 18.7847 86.3821 19.1434C86.1797 19.4962 85.8963 19.7739 85.5318 19.9764C85.1732 20.1788 84.7654 20.28 84.3084 20.28ZM84.3084 19.5512C84.6034 19.5512 84.8666 19.4847 85.098 19.3516C85.3352 19.2128 85.5203 19.0219 85.6533 18.779C85.7864 18.5302 85.8529 18.2468 85.8529 17.9286C85.8529 17.6105 85.7864 17.3299 85.6533 17.087C85.5203 16.8383 85.3352 16.6474 85.098 16.5143C84.8666 16.3813 84.6034 16.3148 84.3084 16.3148C84.0134 16.3148 83.7473 16.3813 83.5101 16.5143C83.2788 16.6474 83.0937 16.8383 82.9548 17.087C82.8218 17.3299 82.7553 17.6105 82.7553 17.9286C82.7553 18.2468 82.8218 18.5302 82.9548 18.779C83.0937 19.0219 83.2788 19.2128 83.5101 19.3516C83.7473 19.4847 84.0134 19.5512 84.3084 19.5512Z" fill="#909AAB"/>
<path d="M92.0917 15.6293V20.228H91.2587V16.3582H89.2804L89.2284 17.382C89.1994 18.0009 89.1445 18.5187 89.0635 18.9351C88.9825 19.3458 88.8495 19.6756 88.6644 19.9243C88.4793 20.173 88.2218 20.2974 87.8921 20.2974C87.7417 20.2974 87.5711 20.2714 87.3802 20.2193L87.4323 19.5165C87.5075 19.5338 87.5769 19.5425 87.6405 19.5425C87.8719 19.5425 88.0454 19.4413 88.1611 19.2388C88.2768 19.0364 88.352 18.7963 88.3867 18.5187C88.4214 18.241 88.4532 17.8448 88.4822 17.3299L88.5602 15.6293H92.0917Z" fill="#909AAB"/>
<path d="M95.9523 20.28C95.4953 20.28 95.0846 20.1788 94.7201 19.9764C94.3557 19.7739 94.0694 19.4962 93.8611 19.1434C93.6587 18.7847 93.5575 18.3798 93.5575 17.9286C93.5575 17.4775 93.6587 17.0754 93.8611 16.7226C94.0694 16.3639 94.3557 16.0863 94.7201 15.8896C95.0846 15.6871 95.4953 15.5859 95.9523 15.5859C96.4092 15.5859 96.817 15.6871 97.1757 15.8896C97.5401 16.0863 97.8235 16.3639 98.026 16.7226C98.2342 17.0754 98.3384 17.4775 98.3384 17.9286C98.3384 18.3798 98.2342 18.7847 98.026 19.1434C97.8235 19.4962 97.5401 19.7739 97.1757 19.9764C96.817 20.1788 96.4092 20.28 95.9523 20.28ZM95.9523 19.5512C96.2473 19.5512 96.5105 19.4847 96.7418 19.3516C96.979 19.2128 97.1641 19.0219 97.2971 18.779C97.4302 18.5302 97.4967 18.2468 97.4967 17.9286C97.4967 17.6105 97.4302 17.3299 97.2971 17.087C97.1641 16.8383 96.979 16.6474 96.7418 16.5143C96.5105 16.3813 96.2473 16.3148 95.9523 16.3148C95.6572 16.3148 95.3912 16.3813 95.154 16.5143C94.9226 16.6474 94.7375 16.8383 94.5987 17.087C94.4656 17.3299 94.3991 17.6105 94.3991 17.9286C94.3991 18.2468 94.4656 18.5302 94.5987 18.779C94.7375 19.0219 94.9226 19.2128 95.154 19.3516C95.3912 19.4847 95.6572 19.5512 95.9523 19.5512Z" fill="#909AAB"/>
<path d="M103.205 16.3582H100.654V20.228H99.8215V15.6293H103.205V16.3582Z" fill="#909AAB"/>
<path d="M106.105 20.28C105.648 20.28 105.237 20.1788 104.873 19.9764C104.508 19.7739 104.222 19.4962 104.014 19.1434C103.811 18.7847 103.71 18.3798 103.71 17.9286C103.71 17.4775 103.811 17.0754 104.014 16.7226C104.222 16.3639 104.508 16.0863 104.873 15.8896C105.237 15.6871 105.648 15.5859 106.105 15.5859C106.562 15.5859 106.97 15.6871 107.328 15.8896C107.693 16.0863 107.976 16.3639 108.179 16.7226C108.387 17.0754 108.491 17.4775 108.491 17.9286C108.491 18.3798 108.387 18.7847 108.179 19.1434C107.976 19.4962 107.693 19.7739 107.328 19.9764C106.97 20.1788 106.562 20.28 106.105 20.28ZM106.105 19.5512C106.4 19.5512 106.663 19.4847 106.894 19.3516C107.132 19.2128 107.317 19.0219 107.45 18.779C107.583 18.5302 107.649 18.2468 107.649 17.9286C107.649 17.6105 107.583 17.3299 107.45 17.087C107.317 16.8383 107.132 16.6474 106.894 16.5143C106.663 16.3813 106.4 16.3148 106.105 16.3148C105.81 16.3148 105.544 16.3813 105.307 16.5143C105.075 16.6474 104.89 16.8383 104.751 17.087C104.618 17.3299 104.552 17.6105 104.552 17.9286C104.552 18.2468 104.618 18.5302 104.751 18.779C104.89 19.0219 105.075 19.2128 105.307 19.3516C105.544 19.4847 105.81 19.5512 106.105 19.5512Z" fill="#909AAB"/>
<path d="M113.106 17.8419C113.702 17.9923 114 18.3654 114 18.9612C114 19.3661 113.847 19.6785 113.54 19.8983C113.239 20.1181 112.788 20.228 112.187 20.228H109.974V15.6293H112.109C112.652 15.6293 113.077 15.7334 113.384 15.9417C113.691 16.1441 113.844 16.4333 113.844 16.8093C113.844 17.0523 113.777 17.2634 113.644 17.4427C113.517 17.6163 113.338 17.7493 113.106 17.8419ZM110.79 17.6076H112.039C112.357 17.6076 112.597 17.5498 112.759 17.4341C112.927 17.3184 113.011 17.1506 113.011 16.9308C113.011 16.4912 112.687 16.2714 112.039 16.2714H110.79V17.6076ZM112.126 19.5859C112.473 19.5859 112.733 19.531 112.907 19.421C113.08 19.3111 113.167 19.1405 113.167 18.9091C113.167 18.672 113.086 18.4955 112.924 18.3798C112.768 18.2641 112.519 18.2063 112.178 18.2063H110.79V19.5859H112.126Z" fill="#909AAB"/>
</svg>
