<svg width="41" height="38" viewBox="0 0 41 38" fill="none" xmlns="http://www.w3.org/2000/svg">
<g filter="url(#filter0_d)">
<mask id="path-1-inside-1" fill="white">
<path d="M34.282 24.0273L28.9513 21.7184C28.8258 21.6556 28.6867 21.5024 28.5673 21.2978L32.1264 21.2951C32.1885 21.3011 33.6558 21.4353 34.8324 20.9296C35.278 20.7376 35.6096 20.3585 35.7427 19.8895C35.8769 19.416 35.7918 18.9147 35.5104 18.5133C34.4931 17.0656 32.1187 13.2829 32.0445 9.44618C32.0429 9.38018 31.828 2.85545 25.3845 2.80255C24.436 2.81018 23.5589 2.97109 22.7609 3.26782C22.5869 2.82436 22.3305 2.36182 21.9493 1.92655C20.8295 0.648 19.0115 0 16.5455 0C14.0795 0 12.2615 0.648 11.1411 1.92545C9.84945 3.39873 9.96945 5.18509 10 5.48455V8.38582C9.65091 8.78346 9.45455 9.29236 9.45455 9.81764V11.9995C9.45455 12.6633 9.75618 13.2824 10.2711 13.6953C10.7707 15.6736 11.8164 17.1644 12.1818 17.6427V19.4476C12.1818 19.9756 11.8938 20.46 11.4307 20.7131L6.56473 23.3673C4.98236 24.2313 4 25.8862 4 27.6884V30H28H29.0909H36.7273V27.9835C36.7273 26.2969 35.7902 24.7816 34.282 24.0273ZM28 28.9091H5.09091V27.6884C5.09091 26.286 5.85564 24.9971 7.08673 24.3262L11.9527 21.672C12.7671 21.2275 13.2727 20.3749 13.2727 19.4482V17.256L13.1456 17.1044C13.1325 17.0885 11.7956 15.4713 11.2856 13.2507L11.236 13.0347L11.05 12.9147C10.7342 12.7107 10.5455 12.3687 10.5455 12V9.81818C10.5455 9.51218 10.6753 9.22691 10.9109 9.01364L11.0909 8.85164V5.45455L11.086 5.38309C11.0844 5.36836 10.8989 3.85636 11.9615 2.64436C12.8653 1.61345 14.4078 1.09091 16.5455 1.09091C18.6755 1.09091 20.2147 1.60964 21.1196 2.63345C21.5696 3.14182 21.796 3.70964 21.9089 4.19727C21.9176 4.23545 21.9258 4.27309 21.9335 4.31073C21.9411 4.34945 21.9493 4.38818 21.9553 4.42527C21.9624 4.46782 21.9684 4.50818 21.9744 4.54855C21.9787 4.57745 21.9831 4.60691 21.9864 4.63473C21.9945 4.70236 22.0011 4.76782 22.0055 4.82836C22.006 4.83327 22.006 4.83764 22.006 4.84255C22.0098 4.90145 22.0125 4.95709 22.0142 5.00782C22.0142 5.01764 22.0142 5.02582 22.0147 5.03564C22.0158 5.08091 22.0158 5.124 22.0153 5.16164C22.0153 5.16709 22.0153 5.17255 22.0153 5.178C22.0131 5.30618 22.0044 5.38255 22.0044 5.38418L22 8.85164L22.18 9.01418C22.4156 9.22691 22.5455 9.51218 22.5455 9.81818V12C22.5455 12.4762 22.2335 12.8929 21.7698 13.0358L21.4982 13.1193L21.4109 13.3893C21.046 14.5244 20.5262 15.5727 19.8651 16.5055C19.7031 16.7351 19.5455 16.9385 19.4085 17.094L19.2727 17.2489V19.4989C19.2727 19.6369 19.2864 19.7722 19.3076 19.9053C19.312 19.9336 19.3196 19.9609 19.3251 19.9893C19.3464 20.0989 19.3747 20.2064 19.4096 20.3111C19.4178 20.3356 19.4265 20.3591 19.4358 20.3836C19.4784 20.4976 19.528 20.6078 19.5858 20.7136C19.5924 20.7256 19.5984 20.7382 19.6049 20.7502C19.684 20.8898 19.7751 21.0224 19.8798 21.1445L20.0042 21.2978H20.0255C20.2125 21.4822 20.4275 21.6425 20.6718 21.7647L25.8825 24.3698C27.1889 25.0222 28 26.3345 28 27.7947V28.9091ZM35.6364 28.9091H29.0909V27.7947C29.0909 25.9189 28.0485 24.2329 26.3713 23.394L22.6305 21.5231C22.7227 21.3125 22.7347 21.0715 22.654 20.8391C22.5204 20.4545 22.1713 20.2064 21.7649 20.2064H20.5556C20.5305 20.1622 20.5142 20.1136 20.494 20.0667C20.4667 20.004 20.4345 19.9424 20.4165 19.8764C20.3833 19.7553 20.3636 19.6287 20.3636 19.4989V17.6547C20.4885 17.502 20.62 17.328 20.7558 17.136C21.4316 16.1815 21.9733 15.1189 22.3671 13.9729C23.1367 13.62 23.6364 12.8591 23.6364 12V9.81818C23.6364 9.29291 23.44 8.784 23.0909 8.38636V5.48509C23.1051 5.34873 23.1356 4.902 23.0451 4.31836C23.7476 4.04236 24.5347 3.9 25.3851 3.89291C30.7529 3.93709 30.9487 9.24436 30.9542 9.468C31.0344 13.6042 33.5429 17.61 34.618 19.14C34.7102 19.2709 34.738 19.4356 34.6938 19.5911C34.6687 19.6805 34.5967 19.8431 34.402 19.9265C33.4856 20.3209 32.2425 20.2091 32.1787 20.2064H28.4244C28.0736 20.2064 27.754 20.3847 27.5691 20.6831C27.3847 20.9804 27.3673 21.3436 27.5222 21.6556C27.6929 21.9998 27.9945 22.4596 28.4904 22.7067L33.8069 25.0096C34.9355 25.5796 35.6364 26.7175 35.6364 27.9835V28.9091Z"/>
</mask>
<path d="M34.282 24.0273L28.9513 21.7184C28.8258 21.6556 28.6867 21.5024 28.5673 21.2978L32.1264 21.2951C32.1885 21.3011 33.6558 21.4353 34.8324 20.9296C35.278 20.7376 35.6096 20.3585 35.7427 19.8895C35.8769 19.416 35.7918 18.9147 35.5104 18.5133C34.4931 17.0656 32.1187 13.2829 32.0445 9.44618C32.0429 9.38018 31.828 2.85545 25.3845 2.80255C24.436 2.81018 23.5589 2.97109 22.7609 3.26782C22.5869 2.82436 22.3305 2.36182 21.9493 1.92655C20.8295 0.648 19.0115 0 16.5455 0C14.0795 0 12.2615 0.648 11.1411 1.92545C9.84945 3.39873 9.96945 5.18509 10 5.48455V8.38582C9.65091 8.78346 9.45455 9.29236 9.45455 9.81764V11.9995C9.45455 12.6633 9.75618 13.2824 10.2711 13.6953C10.7707 15.6736 11.8164 17.1644 12.1818 17.6427V19.4476C12.1818 19.9756 11.8938 20.46 11.4307 20.7131L6.56473 23.3673C4.98236 24.2313 4 25.8862 4 27.6884V30H28H29.0909H36.7273V27.9835C36.7273 26.2969 35.7902 24.7816 34.282 24.0273ZM28 28.9091H5.09091V27.6884C5.09091 26.286 5.85564 24.9971 7.08673 24.3262L11.9527 21.672C12.7671 21.2275 13.2727 20.3749 13.2727 19.4482V17.256L13.1456 17.1044C13.1325 17.0885 11.7956 15.4713 11.2856 13.2507L11.236 13.0347L11.05 12.9147C10.7342 12.7107 10.5455 12.3687 10.5455 12V9.81818C10.5455 9.51218 10.6753 9.22691 10.9109 9.01364L11.0909 8.85164V5.45455L11.086 5.38309C11.0844 5.36836 10.8989 3.85636 11.9615 2.64436C12.8653 1.61345 14.4078 1.09091 16.5455 1.09091C18.6755 1.09091 20.2147 1.60964 21.1196 2.63345C21.5696 3.14182 21.796 3.70964 21.9089 4.19727C21.9176 4.23545 21.9258 4.27309 21.9335 4.31073C21.9411 4.34945 21.9493 4.38818 21.9553 4.42527C21.9624 4.46782 21.9684 4.50818 21.9744 4.54855C21.9787 4.57745 21.9831 4.60691 21.9864 4.63473C21.9945 4.70236 22.0011 4.76782 22.0055 4.82836C22.006 4.83327 22.006 4.83764 22.006 4.84255C22.0098 4.90145 22.0125 4.95709 22.0142 5.00782C22.0142 5.01764 22.0142 5.02582 22.0147 5.03564C22.0158 5.08091 22.0158 5.124 22.0153 5.16164C22.0153 5.16709 22.0153 5.17255 22.0153 5.178C22.0131 5.30618 22.0044 5.38255 22.0044 5.38418L22 8.85164L22.18 9.01418C22.4156 9.22691 22.5455 9.51218 22.5455 9.81818V12C22.5455 12.4762 22.2335 12.8929 21.7698 13.0358L21.4982 13.1193L21.4109 13.3893C21.046 14.5244 20.5262 15.5727 19.8651 16.5055C19.7031 16.7351 19.5455 16.9385 19.4085 17.094L19.2727 17.2489V19.4989C19.2727 19.6369 19.2864 19.7722 19.3076 19.9053C19.312 19.9336 19.3196 19.9609 19.3251 19.9893C19.3464 20.0989 19.3747 20.2064 19.4096 20.3111C19.4178 20.3356 19.4265 20.3591 19.4358 20.3836C19.4784 20.4976 19.528 20.6078 19.5858 20.7136C19.5924 20.7256 19.5984 20.7382 19.6049 20.7502C19.684 20.8898 19.7751 21.0224 19.8798 21.1445L20.0042 21.2978H20.0255C20.2125 21.4822 20.4275 21.6425 20.6718 21.7647L25.8825 24.3698C27.1889 25.0222 28 26.3345 28 27.7947V28.9091ZM35.6364 28.9091H29.0909V27.7947C29.0909 25.9189 28.0485 24.2329 26.3713 23.394L22.6305 21.5231C22.7227 21.3125 22.7347 21.0715 22.654 20.8391C22.5204 20.4545 22.1713 20.2064 21.7649 20.2064H20.5556C20.5305 20.1622 20.5142 20.1136 20.494 20.0667C20.4667 20.004 20.4345 19.9424 20.4165 19.8764C20.3833 19.7553 20.3636 19.6287 20.3636 19.4989V17.6547C20.4885 17.502 20.62 17.328 20.7558 17.136C21.4316 16.1815 21.9733 15.1189 22.3671 13.9729C23.1367 13.62 23.6364 12.8591 23.6364 12V9.81818C23.6364 9.29291 23.44 8.784 23.0909 8.38636V5.48509C23.1051 5.34873 23.1356 4.902 23.0451 4.31836C23.7476 4.04236 24.5347 3.9 25.3851 3.89291C30.7529 3.93709 30.9487 9.24436 30.9542 9.468C31.0344 13.6042 33.5429 17.61 34.618 19.14C34.7102 19.2709 34.738 19.4356 34.6938 19.5911C34.6687 19.6805 34.5967 19.8431 34.402 19.9265C33.4856 20.3209 32.2425 20.2091 32.1787 20.2064H28.4244C28.0736 20.2064 27.754 20.3847 27.5691 20.6831C27.3847 20.9804 27.3673 21.3436 27.5222 21.6556C27.6929 21.9998 27.9945 22.4596 28.4904 22.7067L33.8069 25.0096C34.9355 25.5796 35.6364 26.7175 35.6364 27.9835V28.9091Z" fill="white"/>
<path d="M34.282 24.0273L28.9513 21.7184C28.8258 21.6556 28.6867 21.5024 28.5673 21.2978L32.1264 21.2951C32.1885 21.3011 33.6558 21.4353 34.8324 20.9296C35.278 20.7376 35.6096 20.3585 35.7427 19.8895C35.8769 19.416 35.7918 18.9147 35.5104 18.5133C34.4931 17.0656 32.1187 13.2829 32.0445 9.44618C32.0429 9.38018 31.828 2.85545 25.3845 2.80255C24.436 2.81018 23.5589 2.97109 22.7609 3.26782C22.5869 2.82436 22.3305 2.36182 21.9493 1.92655C20.8295 0.648 19.0115 0 16.5455 0C14.0795 0 12.2615 0.648 11.1411 1.92545C9.84945 3.39873 9.96945 5.18509 10 5.48455V8.38582C9.65091 8.78346 9.45455 9.29236 9.45455 9.81764V11.9995C9.45455 12.6633 9.75618 13.2824 10.2711 13.6953C10.7707 15.6736 11.8164 17.1644 12.1818 17.6427V19.4476C12.1818 19.9756 11.8938 20.46 11.4307 20.7131L6.56473 23.3673C4.98236 24.2313 4 25.8862 4 27.6884V30H28H29.0909H36.7273V27.9835C36.7273 26.2969 35.7902 24.7816 34.282 24.0273ZM28 28.9091H5.09091V27.6884C5.09091 26.286 5.85564 24.9971 7.08673 24.3262L11.9527 21.672C12.7671 21.2275 13.2727 20.3749 13.2727 19.4482V17.256L13.1456 17.1044C13.1325 17.0885 11.7956 15.4713 11.2856 13.2507L11.236 13.0347L11.05 12.9147C10.7342 12.7107 10.5455 12.3687 10.5455 12V9.81818C10.5455 9.51218 10.6753 9.22691 10.9109 9.01364L11.0909 8.85164V5.45455L11.086 5.38309C11.0844 5.36836 10.8989 3.85636 11.9615 2.64436C12.8653 1.61345 14.4078 1.09091 16.5455 1.09091C18.6755 1.09091 20.2147 1.60964 21.1196 2.63345C21.5696 3.14182 21.796 3.70964 21.9089 4.19727C21.9176 4.23545 21.9258 4.27309 21.9335 4.31073C21.9411 4.34945 21.9493 4.38818 21.9553 4.42527C21.9624 4.46782 21.9684 4.50818 21.9744 4.54855C21.9787 4.57745 21.9831 4.60691 21.9864 4.63473C21.9945 4.70236 22.0011 4.76782 22.0055 4.82836C22.006 4.83327 22.006 4.83764 22.006 4.84255C22.0098 4.90145 22.0125 4.95709 22.0142 5.00782C22.0142 5.01764 22.0142 5.02582 22.0147 5.03564C22.0158 5.08091 22.0158 5.124 22.0153 5.16164C22.0153 5.16709 22.0153 5.17255 22.0153 5.178C22.0131 5.30618 22.0044 5.38255 22.0044 5.38418L22 8.85164L22.18 9.01418C22.4156 9.22691 22.5455 9.51218 22.5455 9.81818V12C22.5455 12.4762 22.2335 12.8929 21.7698 13.0358L21.4982 13.1193L21.4109 13.3893C21.046 14.5244 20.5262 15.5727 19.8651 16.5055C19.7031 16.7351 19.5455 16.9385 19.4085 17.094L19.2727 17.2489V19.4989C19.2727 19.6369 19.2864 19.7722 19.3076 19.9053C19.312 19.9336 19.3196 19.9609 19.3251 19.9893C19.3464 20.0989 19.3747 20.2064 19.4096 20.3111C19.4178 20.3356 19.4265 20.3591 19.4358 20.3836C19.4784 20.4976 19.528 20.6078 19.5858 20.7136C19.5924 20.7256 19.5984 20.7382 19.6049 20.7502C19.684 20.8898 19.7751 21.0224 19.8798 21.1445L20.0042 21.2978H20.0255C20.2125 21.4822 20.4275 21.6425 20.6718 21.7647L25.8825 24.3698C27.1889 25.0222 28 26.3345 28 27.7947V28.9091ZM35.6364 28.9091H29.0909V27.7947C29.0909 25.9189 28.0485 24.2329 26.3713 23.394L22.6305 21.5231C22.7227 21.3125 22.7347 21.0715 22.654 20.8391C22.5204 20.4545 22.1713 20.2064 21.7649 20.2064H20.5556C20.5305 20.1622 20.5142 20.1136 20.494 20.0667C20.4667 20.004 20.4345 19.9424 20.4165 19.8764C20.3833 19.7553 20.3636 19.6287 20.3636 19.4989V17.6547C20.4885 17.502 20.62 17.328 20.7558 17.136C21.4316 16.1815 21.9733 15.1189 22.3671 13.9729C23.1367 13.62 23.6364 12.8591 23.6364 12V9.81818C23.6364 9.29291 23.44 8.784 23.0909 8.38636V5.48509C23.1051 5.34873 23.1356 4.902 23.0451 4.31836C23.7476 4.04236 24.5347 3.9 25.3851 3.89291C30.7529 3.93709 30.9487 9.24436 30.9542 9.468C31.0344 13.6042 33.5429 17.61 34.618 19.14C34.7102 19.2709 34.738 19.4356 34.6938 19.5911C34.6687 19.6805 34.5967 19.8431 34.402 19.9265C33.4856 20.3209 32.2425 20.2091 32.1787 20.2064H28.4244C28.0736 20.2064 27.754 20.3847 27.5691 20.6831C27.3847 20.9804 27.3673 21.3436 27.5222 21.6556C27.6929 21.9998 27.9945 22.4596 28.4904 22.7067L33.8069 25.0096C34.9355 25.5796 35.6364 26.7175 35.6364 27.9835V28.9091Z" stroke="white" stroke-width="2" mask="url(#path-1-inside-1)"/>
</g>
<defs>
<filter id="filter0_d" x="0" y="0" width="40.7273" height="38" filterUnits="userSpaceOnUse" color-interpolation-filters="sRGB">
<feFlood flood-opacity="0" result="BackgroundImageFix"/>
<feColorMatrix in="SourceAlpha" type="matrix" values="0 0 0 0 0 0 0 0 0 0 0 0 0 0 0 0 0 0 127 0"/>
<feOffset dy="4"/>
<feGaussianBlur stdDeviation="2"/>
<feColorMatrix type="matrix" values="0 0 0 0 0 0 0 0 0 0 0 0 0 0 0 0 0 0 0.25 0"/>
<feBlend mode="normal" in2="BackgroundImageFix" result="effect1_dropShadow"/>
<feBlend mode="normal" in="SourceGraphic" in2="effect1_dropShadow" result="shape"/>
</filter>
</defs>
</svg>
