<svg width="52" height="48" viewBox="0 0 52 48" fill="none" xmlns="http://www.w3.org/2000/svg">
<g filter="url(#filter0_d)">
<mask id="path-1-inside-1" fill="white">
<path d="M44.376 32.0364L37.2684 28.9578C37.1011 28.8742 36.9156 28.6698 36.7564 28.3971L41.5018 28.3935C41.5847 28.4015 43.5411 28.5804 45.1098 27.9062C45.704 27.6502 46.1462 27.1447 46.3236 26.5193C46.5025 25.888 46.3891 25.2196 46.0138 24.6844C44.6575 22.7542 41.4916 17.7105 41.3927 12.5949C41.3905 12.5069 41.104 3.80727 32.5127 3.73673C31.248 3.74691 30.0785 3.96145 29.0145 4.35709C28.7825 3.76582 28.4407 3.14909 27.9324 2.56873C26.4393 0.864 24.0153 0 20.7273 0C17.4393 0 15.0153 0.864 13.5215 2.56727C11.7993 4.53164 11.9593 6.91345 12 7.31273V11.1811C11.5345 11.7113 11.2727 12.3898 11.2727 13.0902V15.9993C11.2727 16.8844 11.6749 17.7098 12.3615 18.2604C13.0276 20.8982 14.4218 22.8858 14.9091 23.5236V25.9302C14.9091 26.6342 14.5251 27.28 13.9076 27.6175L7.41964 31.1564C5.30982 32.3084 4 34.5149 4 36.9178V40H36H37.4545H47.6364V37.3113C47.6364 35.0625 46.3869 33.0422 44.376 32.0364ZM36 38.5455H5.45455V36.9178C5.45455 35.048 6.47418 33.3295 8.11564 32.4349L14.6036 28.896C15.6895 28.3033 16.3636 27.1665 16.3636 25.9309V23.008L16.1942 22.8058C16.1767 22.7847 14.3942 20.6284 13.7142 17.6676L13.648 17.3796L13.4 17.2196C12.9789 16.9476 12.7273 16.4916 12.7273 16V13.0909C12.7273 12.6829 12.9004 12.3025 13.2145 12.0182L13.4545 11.8022V7.27273L13.448 7.17746C13.4458 7.15782 13.1985 5.14182 14.6153 3.52582C15.8204 2.15127 17.8771 1.45455 20.7273 1.45455C23.5673 1.45455 25.6196 2.14618 26.8262 3.51127C27.4262 4.18909 27.728 4.94618 27.8785 5.59636C27.8902 5.64727 27.9011 5.69745 27.9113 5.74764C27.9215 5.79927 27.9324 5.85091 27.9404 5.90036C27.9498 5.95709 27.9578 6.01091 27.9658 6.06473C27.9716 6.10327 27.9775 6.14255 27.9818 6.17964C27.9927 6.26982 28.0015 6.35709 28.0073 6.43782C28.008 6.44436 28.008 6.45018 28.008 6.45673C28.0131 6.53527 28.0167 6.60945 28.0189 6.67709C28.0189 6.69018 28.0189 6.70109 28.0196 6.71418C28.0211 6.77455 28.0211 6.832 28.0204 6.88218C28.0204 6.88945 28.0204 6.89673 28.0204 6.904C28.0175 7.07491 28.0058 7.17673 28.0058 7.17891L28 11.8022L28.24 12.0189C28.5542 12.3025 28.7273 12.6829 28.7273 13.0909V16C28.7273 16.6349 28.3113 17.1905 27.6931 17.3811L27.3309 17.4924L27.2145 17.8524C26.728 19.3658 26.0349 20.7636 25.1535 22.0073C24.9375 22.3135 24.7273 22.5847 24.5447 22.792L24.3636 22.9985V25.9985C24.3636 26.1825 24.3818 26.3629 24.4102 26.5404C24.416 26.5782 24.4262 26.6145 24.4335 26.6524C24.4618 26.7985 24.4996 26.9418 24.5462 27.0815C24.5571 27.1142 24.5687 27.1455 24.5811 27.1782C24.6378 27.3302 24.704 27.4771 24.7811 27.6182C24.7898 27.6342 24.7978 27.6509 24.8065 27.6669C24.912 27.8531 25.0335 28.0298 25.1731 28.1927L25.3389 28.3971H25.3673C25.6167 28.6429 25.9033 28.8567 26.2291 29.0196L33.1767 32.4931C34.9185 33.3629 36 35.1127 36 37.0596V38.5455ZM46.1818 38.5455H37.4545V37.0596C37.4545 34.5585 36.0647 32.3105 33.8284 31.192L28.8407 28.6975C28.9636 28.4167 28.9796 28.0953 28.872 27.7855C28.6938 27.2727 28.2284 26.9418 27.6865 26.9418H26.0742C26.0407 26.8829 26.0189 26.8182 25.992 26.7556C25.9556 26.672 25.9127 26.5898 25.8887 26.5018C25.8444 26.3404 25.8182 26.1716 25.8182 25.9985V23.5396C25.9847 23.336 26.16 23.104 26.3411 22.848C27.2422 21.5753 27.9644 20.1585 28.4895 18.6305C29.5156 18.16 30.1818 17.1455 30.1818 16V13.0909C30.1818 12.3905 29.92 11.712 29.4545 11.1818V7.31345C29.4735 7.13164 29.5142 6.536 29.3935 5.75782C30.3302 5.38982 31.3796 5.2 32.5135 5.19055C39.6705 5.24945 39.9316 12.3258 39.9389 12.624C40.0458 18.1389 43.3905 23.48 44.824 25.52C44.9469 25.6945 44.984 25.9142 44.9251 26.1215C44.8916 26.2407 44.7956 26.4575 44.536 26.5687C43.3142 27.0945 41.6567 26.9455 41.5716 26.9418H36.5658C36.0982 26.9418 35.672 27.1796 35.4255 27.5775C35.1796 27.9738 35.1564 28.4582 35.3629 28.8742C35.5905 29.3331 35.9927 29.9462 36.6538 30.2756L43.7425 33.3462C45.2473 34.1062 46.1818 35.6233 46.1818 37.3113V38.5455Z"/>
</mask>
<path d="M44.376 32.0364L37.2684 28.9578C37.1011 28.8742 36.9156 28.6698 36.7564 28.3971L41.5018 28.3935C41.5847 28.4015 43.5411 28.5804 45.1098 27.9062C45.704 27.6502 46.1462 27.1447 46.3236 26.5193C46.5025 25.888 46.3891 25.2196 46.0138 24.6844C44.6575 22.7542 41.4916 17.7105 41.3927 12.5949C41.3905 12.5069 41.104 3.80727 32.5127 3.73673C31.248 3.74691 30.0785 3.96145 29.0145 4.35709C28.7825 3.76582 28.4407 3.14909 27.9324 2.56873C26.4393 0.864 24.0153 0 20.7273 0C17.4393 0 15.0153 0.864 13.5215 2.56727C11.7993 4.53164 11.9593 6.91345 12 7.31273V11.1811C11.5345 11.7113 11.2727 12.3898 11.2727 13.0902V15.9993C11.2727 16.8844 11.6749 17.7098 12.3615 18.2604C13.0276 20.8982 14.4218 22.8858 14.9091 23.5236V25.9302C14.9091 26.6342 14.5251 27.28 13.9076 27.6175L7.41964 31.1564C5.30982 32.3084 4 34.5149 4 36.9178V40H36H37.4545H47.6364V37.3113C47.6364 35.0625 46.3869 33.0422 44.376 32.0364ZM36 38.5455H5.45455V36.9178C5.45455 35.048 6.47418 33.3295 8.11564 32.4349L14.6036 28.896C15.6895 28.3033 16.3636 27.1665 16.3636 25.9309V23.008L16.1942 22.8058C16.1767 22.7847 14.3942 20.6284 13.7142 17.6676L13.648 17.3796L13.4 17.2196C12.9789 16.9476 12.7273 16.4916 12.7273 16V13.0909C12.7273 12.6829 12.9004 12.3025 13.2145 12.0182L13.4545 11.8022V7.27273L13.448 7.17746C13.4458 7.15782 13.1985 5.14182 14.6153 3.52582C15.8204 2.15127 17.8771 1.45455 20.7273 1.45455C23.5673 1.45455 25.6196 2.14618 26.8262 3.51127C27.4262 4.18909 27.728 4.94618 27.8785 5.59636C27.8902 5.64727 27.9011 5.69745 27.9113 5.74764C27.9215 5.79927 27.9324 5.85091 27.9404 5.90036C27.9498 5.95709 27.9578 6.01091 27.9658 6.06473C27.9716 6.10327 27.9775 6.14255 27.9818 6.17964C27.9927 6.26982 28.0015 6.35709 28.0073 6.43782C28.008 6.44436 28.008 6.45018 28.008 6.45673C28.0131 6.53527 28.0167 6.60945 28.0189 6.67709C28.0189 6.69018 28.0189 6.70109 28.0196 6.71418C28.0211 6.77455 28.0211 6.832 28.0204 6.88218C28.0204 6.88945 28.0204 6.89673 28.0204 6.904C28.0175 7.07491 28.0058 7.17673 28.0058 7.17891L28 11.8022L28.24 12.0189C28.5542 12.3025 28.7273 12.6829 28.7273 13.0909V16C28.7273 16.6349 28.3113 17.1905 27.6931 17.3811L27.3309 17.4924L27.2145 17.8524C26.728 19.3658 26.0349 20.7636 25.1535 22.0073C24.9375 22.3135 24.7273 22.5847 24.5447 22.792L24.3636 22.9985V25.9985C24.3636 26.1825 24.3818 26.3629 24.4102 26.5404C24.416 26.5782 24.4262 26.6145 24.4335 26.6524C24.4618 26.7985 24.4996 26.9418 24.5462 27.0815C24.5571 27.1142 24.5687 27.1455 24.5811 27.1782C24.6378 27.3302 24.704 27.4771 24.7811 27.6182C24.7898 27.6342 24.7978 27.6509 24.8065 27.6669C24.912 27.8531 25.0335 28.0298 25.1731 28.1927L25.3389 28.3971H25.3673C25.6167 28.6429 25.9033 28.8567 26.2291 29.0196L33.1767 32.4931C34.9185 33.3629 36 35.1127 36 37.0596V38.5455ZM46.1818 38.5455H37.4545V37.0596C37.4545 34.5585 36.0647 32.3105 33.8284 31.192L28.8407 28.6975C28.9636 28.4167 28.9796 28.0953 28.872 27.7855C28.6938 27.2727 28.2284 26.9418 27.6865 26.9418H26.0742C26.0407 26.8829 26.0189 26.8182 25.992 26.7556C25.9556 26.672 25.9127 26.5898 25.8887 26.5018C25.8444 26.3404 25.8182 26.1716 25.8182 25.9985V23.5396C25.9847 23.336 26.16 23.104 26.3411 22.848C27.2422 21.5753 27.9644 20.1585 28.4895 18.6305C29.5156 18.16 30.1818 17.1455 30.1818 16V13.0909C30.1818 12.3905 29.92 11.712 29.4545 11.1818V7.31345C29.4735 7.13164 29.5142 6.536 29.3935 5.75782C30.3302 5.38982 31.3796 5.2 32.5135 5.19055C39.6705 5.24945 39.9316 12.3258 39.9389 12.624C40.0458 18.1389 43.3905 23.48 44.824 25.52C44.9469 25.6945 44.984 25.9142 44.9251 26.1215C44.8916 26.2407 44.7956 26.4575 44.536 26.5687C43.3142 27.0945 41.6567 26.9455 41.5716 26.9418H36.5658C36.0982 26.9418 35.672 27.1796 35.4255 27.5775C35.1796 27.9738 35.1564 28.4582 35.3629 28.8742C35.5905 29.3331 35.9927 29.9462 36.6538 30.2756L43.7425 33.3462C45.2473 34.1062 46.1818 35.6233 46.1818 37.3113V38.5455Z" fill="white" stroke="white" stroke-width="2" mask="url(#path-1-inside-1)"/>
</g>
<defs>
<filter id="filter0_d" x="0" y="0" width="51.6364" height="48" filterUnits="userSpaceOnUse" color-interpolation-filters="sRGB">
<feFlood flood-opacity="0" result="BackgroundImageFix"/>
<feColorMatrix in="SourceAlpha" type="matrix" values="0 0 0 0 0 0 0 0 0 0 0 0 0 0 0 0 0 0 127 0"/>
<feOffset dy="4"/>
<feGaussianBlur stdDeviation="2"/>
<feColorMatrix type="matrix" values="0 0 0 0 0 0 0 0 0 0 0 0 0 0 0 0 0 0 0.25 0"/>
<feBlend mode="normal" in2="BackgroundImageFix" result="effect1_dropShadow"/>
<feBlend mode="normal" in="SourceGraphic" in2="effect1_dropShadow" result="shape"/>
</filter>
</defs>
</svg>
