<svg width="156" height="156" viewBox="0 0 156 156" fill="none" xmlns="http://www.w3.org/2000/svg">
<rect width="156" height="156" rx="20" fill="white"/>
<path d="M33.66 105.35C34.08 105.483 34.4067 105.7 34.64 106C34.88 106.293 35 106.64 35 107.04C35 107.46 34.8633 107.827 34.59 108.14C34.3167 108.447 33.95 108.683 33.49 108.85C33.0367 109.017 32.54 109.1 32 109.1C31.5333 109.1 31.0633 109.037 30.59 108.91C30.1233 108.777 29.69 108.58 29.29 108.32L29.71 107.37C30.0167 107.577 30.3567 107.737 30.73 107.85C31.1033 107.957 31.4733 108.01 31.84 108.01C32.3667 108.01 32.8033 107.907 33.15 107.7C33.5033 107.493 33.68 107.21 33.68 106.85C33.68 106.543 33.5533 106.31 33.3 106.15C33.0467 105.99 32.6967 105.91 32.25 105.91H30.62V104.89H32.15C32.5367 104.89 32.84 104.81 33.06 104.65C33.28 104.49 33.39 104.273 33.39 104C33.39 103.673 33.24 103.42 32.94 103.24C32.6467 103.06 32.27 102.97 31.81 102.97C31.4967 102.97 31.1733 103.017 30.84 103.11C30.5067 103.197 30.1933 103.327 29.9 103.5L29.49 102.45C29.85 102.257 30.23 102.113 30.63 102.02C31.0367 101.92 31.44 101.87 31.84 101.87C32.36 101.87 32.8367 101.95 33.27 102.11C33.71 102.27 34.06 102.5 34.32 102.8C34.58 103.093 34.71 103.44 34.71 103.84C34.71 104.187 34.6167 104.49 34.43 104.75C34.2433 105.01 33.9867 105.21 33.66 105.35ZM41.1141 107.38H37.6141L36.9241 109H35.5841L38.7341 102H40.0141L43.1741 109H41.8141L41.1141 107.38ZM40.6841 106.36L39.3641 103.3L38.0541 106.36H40.6841ZM48.9976 103.1H45.5276L45.5376 109H44.2576V102H49.0076L48.9976 103.1ZM52.9772 102C53.5839 102 54.1105 102.1 54.5572 102.3C55.0105 102.5 55.3572 102.787 55.5972 103.16C55.8372 103.533 55.9572 103.977 55.9572 104.49C55.9572 104.997 55.8372 105.44 55.5972 105.82C55.3572 106.193 55.0105 106.48 54.5572 106.68C54.1105 106.88 53.5839 106.98 52.9772 106.98H51.3972V109H50.0972V102H52.9772ZM52.9172 105.88C53.4839 105.88 53.9139 105.76 54.2072 105.52C54.5005 105.28 54.6472 104.937 54.6472 104.49C54.6472 104.043 54.5005 103.7 54.2072 103.46C53.9139 103.22 53.4839 103.1 52.9172 103.1H51.3972V105.88H52.9172ZM63.0408 102L60.0008 107.65C59.7341 108.15 59.4141 108.527 59.0408 108.78C58.6741 109.027 58.2741 109.15 57.8408 109.15C57.4941 109.15 57.1508 109.077 56.8108 108.93L57.1308 107.91C57.4041 107.997 57.6308 108.04 57.8108 108.04C58.2308 108.04 58.5774 107.823 58.8508 107.39L58.9608 107.22L56.1708 102H57.5608L59.6308 106.11L61.7608 102H63.0408ZM67.6932 105.35C68.1132 105.483 68.4399 105.7 68.6732 106C68.9132 106.293 69.0332 106.64 69.0332 107.04C69.0332 107.46 68.8965 107.827 68.6232 108.14C68.3499 108.447 67.9832 108.683 67.5232 108.85C67.0699 109.017 66.5732 109.1 66.0332 109.1C65.5665 109.1 65.0965 109.037 64.6232 108.91C64.1565 108.777 63.7232 108.58 63.3232 108.32L63.7432 107.37C64.0499 107.577 64.3899 107.737 64.7632 107.85C65.1365 107.957 65.5065 108.01 65.8732 108.01C66.3999 108.01 66.8365 107.907 67.1832 107.7C67.5365 107.493 67.7132 107.21 67.7132 106.85C67.7132 106.543 67.5865 106.31 67.3332 106.15C67.0799 105.99 66.7299 105.91 66.2832 105.91H64.6532V104.89H66.1832C66.5699 104.89 66.8732 104.81 67.0932 104.65C67.3132 104.49 67.4232 104.273 67.4232 104C67.4232 103.673 67.2732 103.42 66.9732 103.24C66.6799 103.06 66.3032 102.97 65.8432 102.97C65.5299 102.97 65.2065 103.017 64.8732 103.11C64.5399 103.197 64.2265 103.327 63.9332 103.5L63.5232 102.45C63.8832 102.257 64.2632 102.113 64.6632 102.02C65.0699 101.92 65.4732 101.87 65.8732 101.87C66.3932 101.87 66.8699 101.95 67.3032 102.11C67.7432 102.27 68.0932 102.5 68.3532 102.8C68.6132 103.093 68.7432 103.44 68.7432 103.84C68.7432 104.187 68.6499 104.49 68.4632 104.75C68.2765 105.01 68.0199 105.21 67.6932 105.35ZM70.5173 102H71.7973V106.97L75.5573 102H76.7673V109H75.4873V104.04L71.7273 109H70.5173V102ZM83.81 103.1H81.49V109H80.2V103.1H77.89V102H83.81V103.1ZM88.1612 104.37C89.0012 104.37 89.6445 104.56 90.0912 104.94C90.5445 105.313 90.7712 105.87 90.7712 106.61C90.7712 107.383 90.5245 107.977 90.0312 108.39C89.5378 108.797 88.8445 109 87.9512 109H84.9412V102H86.2212V104.37H88.1612ZM87.8912 108C88.3978 108 88.7878 107.883 89.0612 107.65C89.3345 107.417 89.4712 107.077 89.4712 106.63C89.4712 105.783 88.9445 105.36 87.8912 105.36H86.2212V108H87.8912ZM102.863 105.49C102.863 106.41 102.543 107.137 101.903 107.67C101.263 108.203 100.353 108.493 99.1728 108.54V109.28H97.9728V108.54C96.7928 108.48 95.8795 108.187 95.2328 107.66C94.5928 107.133 94.2728 106.41 94.2728 105.49C94.2728 104.57 94.5928 103.847 95.2328 103.32C95.8795 102.787 96.7928 102.49 97.9728 102.43V101.72H99.1728V102.43C100.353 102.49 101.263 102.787 101.903 103.32C102.543 103.847 102.863 104.57 102.863 105.49ZM99.1728 107.52C99.9728 107.46 100.579 107.26 100.993 106.92C101.406 106.573 101.613 106.093 101.613 105.48C101.613 104.867 101.403 104.39 100.983 104.05C100.569 103.71 99.9661 103.513 99.1728 103.46V107.52ZM95.5428 105.49C95.5428 106.097 95.7495 106.57 96.1628 106.91C96.5828 107.25 97.1861 107.453 97.9728 107.52V103.46C96.3528 103.58 95.5428 104.257 95.5428 105.49ZM107.468 109.1C106.755 109.1 106.111 108.947 105.538 108.64C104.965 108.327 104.515 107.897 104.188 107.35C103.861 106.797 103.698 106.18 103.698 105.5C103.698 104.82 103.861 104.207 104.188 103.66C104.515 103.107 104.965 102.677 105.538 102.37C106.111 102.057 106.755 101.9 107.468 101.9C108.181 101.9 108.825 102.057 109.398 102.37C109.971 102.677 110.421 103.103 110.748 103.65C111.075 104.197 111.238 104.813 111.238 105.5C111.238 106.187 111.075 106.803 110.748 107.35C110.421 107.897 109.971 108.327 109.398 108.64C108.825 108.947 108.181 109.1 107.468 109.1ZM107.468 107.96C107.935 107.96 108.355 107.857 108.728 107.65C109.101 107.437 109.395 107.143 109.608 106.77C109.821 106.39 109.928 105.967 109.928 105.5C109.928 105.033 109.821 104.613 109.608 104.24C109.395 103.86 109.101 103.567 108.728 103.36C108.355 103.147 107.935 103.04 107.468 103.04C107.001 103.04 106.581 103.147 106.208 103.36C105.835 103.567 105.541 103.86 105.328 104.24C105.115 104.613 105.008 105.033 105.008 105.5C105.008 105.967 105.115 106.39 105.328 106.77C105.541 107.143 105.835 107.437 106.208 107.65C106.581 107.857 107.001 107.96 107.468 107.96ZM117.658 103.1H115.338V109H114.048V103.1H111.738V102H117.658V103.1ZM121.921 109.1C121.208 109.1 120.565 108.947 119.991 108.64C119.418 108.327 118.968 107.897 118.641 107.35C118.315 106.797 118.151 106.18 118.151 105.5C118.151 104.82 118.315 104.207 118.641 103.66C118.968 103.107 119.418 102.677 119.991 102.37C120.565 102.057 121.208 101.9 121.921 101.9C122.635 101.9 123.278 102.057 123.851 102.37C124.425 102.677 124.875 103.103 125.201 103.65C125.528 104.197 125.691 104.813 125.691 105.5C125.691 106.187 125.528 106.803 125.201 107.35C124.875 107.897 124.425 108.327 123.851 108.64C123.278 108.947 122.635 109.1 121.921 109.1ZM121.921 107.96C122.388 107.96 122.808 107.857 123.181 107.65C123.555 107.437 123.848 107.143 124.061 106.77C124.275 106.39 124.381 105.967 124.381 105.5C124.381 105.033 124.275 104.613 124.061 104.24C123.848 103.86 123.555 103.567 123.181 103.36C122.808 103.147 122.388 103.04 121.921 103.04C121.455 103.04 121.035 103.147 120.661 103.36C120.288 103.567 119.995 103.86 119.781 104.24C119.568 104.613 119.461 105.033 119.461 105.5C119.461 105.967 119.568 106.39 119.781 106.77C119.995 107.143 120.288 107.437 120.661 107.65C121.035 107.857 121.455 107.96 121.921 107.96Z" fill="#B8D2FC"/>
<path d="M78 61.8C73.6918 61.8 70.2 65.2934 70.2 69.6C70.2 73.9082 73.6918 77.4 78 77.4C82.3072 77.4 85.8 73.9082 85.8 69.6C85.8 65.2934 82.3072 61.8 78 61.8ZM98.8 54H92.56C91.702 54 90.7774 53.3344 90.5065 52.5201L88.8935 47.6794C88.6215 46.8656 87.698 46.2 86.84 46.2H69.16C68.302 46.2 67.3774 46.8656 67.1065 47.6799L65.4935 52.5206C65.2215 53.3344 64.298 54 63.44 54H57.2C54.34 54 52 56.34 52 59.2V82.6C52 85.46 54.34 87.8 57.2 87.8H98.8C101.66 87.8 104 85.46 104 82.6V59.2C104 56.34 101.66 54 98.8 54ZM78 82.6C70.8204 82.6 65 76.7797 65 69.6C65 62.4209 70.8204 56.6 78 56.6C85.1786 56.6 91 62.4209 91 69.6C91 76.7797 85.1786 82.6 78 82.6ZM96.98 62.8364C95.9754 62.8364 95.16 62.0221 95.16 61.0164C95.16 60.0117 95.9754 59.1964 96.98 59.1964C97.9857 59.1964 98.8 60.0117 98.8 61.0164C98.8 62.0221 97.9852 62.8364 96.98 62.8364Z" fill="#2C78F6" fill-opacity="0.31"/>
</svg>
