<svg width="23" height="24" viewBox="0 0 23 24" fill="none" xmlns="http://www.w3.org/2000/svg">
<path fill-rule="evenodd" clip-rule="evenodd" d="M0 9.78662C0 15.1831 4.44305 19.5736 9.90445 19.5736C12.3481 19.5736 14.5879 18.6945 16.317 17.2395L21.5406 22.8631C21.7063 23.0416 21.9328 23.132 22.1598 23.132C22.3627 23.132 22.5667 23.0595 22.728 22.9137C23.0698 22.6034 23.0923 22.0781 22.7789 21.7404L17.5016 16.0588C18.941 14.3591 19.8084 12.1711 19.8084 9.78662C19.8084 4.3904 15.3654 0 9.90445 0C4.44305 0 0 4.3904 0 9.78662ZM1.68034 9.78662C1.68034 5.3059 5.36952 1.66006 9.90445 1.66006C14.4388 1.66006 18.1281 5.3059 18.1281 9.78662C18.1281 14.2677 14.4388 17.9131 9.90445 17.9131C5.36952 17.9131 1.68034 14.2677 1.68034 9.78662Z" fill="#2C78F6"/>
</svg>
