<svg width="22" height="18" viewBox="0 0 22 18" fill="none" xmlns="http://www.w3.org/2000/svg">
<path d="M20.0896 0H1.36203C0.60986 0 0 0.630854 0 1.40897V15.8511C0 16.6291 0.60986 17.26 1.36203 17.26H20.0896C20.8418 17.26 21.4516 16.6291 21.4516 15.851V1.40897C21.4516 0.630854 20.8418 0 20.0896 0ZM20.0896 1.40897V11.6561L17.4054 9.13159C17.002 8.75222 16.3815 8.76737 15.9961 9.16648L13.2795 11.9763L7.92315 5.35762C7.51826 4.85743 6.77665 4.85251 6.36569 5.3467L1.36203 11.3624V1.40897H20.0896ZM14.3011 5.10755C14.3011 4.03742 15.1393 3.17018 16.1738 3.17018C17.2083 3.17018 18.0466 4.03742 18.0466 5.10755C18.0466 6.17768 17.2083 7.04487 16.1738 7.04487C15.1394 7.04491 14.3011 6.17768 14.3011 5.10755Z" fill="#C5C5C5"/>
</svg>
