<svg width="13" height="12" viewBox="0 0 13 12" fill="none" xmlns="http://www.w3.org/2000/svg">
<path d="M5.61083 0.533116C5.78598 0.134793 6.3511 0.134793 6.52624 0.533115L7.85623 3.55782C7.93035 3.72638 8.09112 3.84056 8.27469 3.85502L11.6606 4.12164C12.1095 4.15699 12.2866 4.72119 11.9384 5.00672L9.40005 7.08834C9.25088 7.21067 9.18539 7.40791 9.23176 7.59517L10.007 10.7252C10.113 11.1533 9.65305 11.4991 9.27125 11.2782L6.31893 9.57005C6.16403 9.48044 5.97304 9.48043 5.81814 9.57005L2.86583 11.2782C2.48402 11.499 2.02405 11.1533 2.1301 10.7252L2.90531 7.59517C2.95169 7.40791 2.8862 7.21067 2.73702 7.08834L0.198624 5.00672C-0.149555 4.72119 0.0275335 4.15699 0.476426 4.12164L3.86238 3.85502C4.04595 3.84056 4.20672 3.72638 4.28084 3.55782L5.61083 0.533116Z" fill="#A4AAB3"/>
</svg>
