<svg width="44" height="40" viewBox="0 0 44 40" fill="none" xmlns="http://www.w3.org/2000/svg">
<path d="M40.376 32.0364L33.2684 28.9578C33.1011 28.8742 32.9156 28.6698 32.7564 28.3971L37.5018 28.3935C37.5847 28.4015 39.5411 28.5804 41.1098 27.9062C41.704 27.6502 42.1462 27.1447 42.3236 26.5193C42.5025 25.888 42.3891 25.2196 42.0138 24.6844C40.6575 22.7542 37.4916 17.7105 37.3927 12.5949C37.3905 12.5069 37.104 3.80727 28.5127 3.73673C27.248 3.74691 26.0785 3.96145 25.0145 4.35709C24.7825 3.76582 24.4407 3.14909 23.9324 2.56873C22.4393 0.864 20.0153 0 16.7273 0C13.4393 0 11.0153 0.864 9.52145 2.56727C7.79927 4.53164 7.95927 6.91346 8 7.31273V11.1811C7.53454 11.7113 7.27273 12.3898 7.27273 13.0902V15.9993C7.27273 16.8844 7.67491 17.7098 8.36145 18.2604C9.02764 20.8982 10.4218 22.8858 10.9091 23.5236V25.9302C10.9091 26.6342 10.5251 27.28 9.90764 27.6175L3.41964 31.1564C1.30982 32.3084 0 34.5149 0 36.9178V40H32H33.4545H43.6364V37.3113C43.6364 35.0625 42.3869 33.0422 40.376 32.0364ZM32 38.5455H1.45455V36.9178C1.45455 35.048 2.47418 33.3295 4.11564 32.4349L10.6036 28.896C11.6895 28.3033 12.3636 27.1665 12.3636 25.9309V23.008L12.1942 22.8058C12.1767 22.7847 10.3942 20.6284 9.71418 17.6676L9.648 17.3796L9.4 17.2196C8.97891 16.9476 8.72727 16.4916 8.72727 16V13.0909C8.72727 12.6829 8.90036 12.3025 9.21455 12.0182L9.45455 11.8022V7.27273L9.448 7.17745C9.44582 7.15782 9.19854 5.14182 10.6153 3.52582C11.8204 2.15127 13.8771 1.45455 16.7273 1.45455C19.5673 1.45455 21.6196 2.14618 22.8262 3.51127C23.4262 4.18909 23.728 4.94618 23.8785 5.59636C23.8902 5.64727 23.9011 5.69745 23.9113 5.74764C23.9215 5.79927 23.9324 5.85091 23.9404 5.90036C23.9498 5.95709 23.9578 6.01091 23.9658 6.06473C23.9716 6.10327 23.9775 6.14255 23.9818 6.17964C23.9927 6.26982 24.0015 6.35709 24.0073 6.43782C24.008 6.44436 24.008 6.45018 24.008 6.45673C24.0131 6.53527 24.0167 6.60945 24.0189 6.67709C24.0189 6.69018 24.0189 6.70109 24.0196 6.71418C24.0211 6.77455 24.0211 6.832 24.0204 6.88218C24.0204 6.88945 24.0204 6.89673 24.0204 6.904C24.0175 7.07491 24.0058 7.17673 24.0058 7.17891L24 11.8022L24.24 12.0189C24.5542 12.3025 24.7273 12.6829 24.7273 13.0909V16C24.7273 16.6349 24.3113 17.1905 23.6931 17.3811L23.3309 17.4924L23.2145 17.8524C22.728 19.3658 22.0349 20.7636 21.1535 22.0073C20.9375 22.3135 20.7273 22.5847 20.5447 22.792L20.3636 22.9985V25.9985C20.3636 26.1825 20.3818 26.3629 20.4102 26.5404C20.416 26.5782 20.4262 26.6145 20.4335 26.6524C20.4618 26.7985 20.4996 26.9418 20.5462 27.0815C20.5571 27.1142 20.5687 27.1455 20.5811 27.1782C20.6378 27.3302 20.704 27.4771 20.7811 27.6182C20.7898 27.6342 20.7978 27.6509 20.8065 27.6669C20.912 27.8531 21.0335 28.0298 21.1731 28.1927L21.3389 28.3971H21.3673C21.6167 28.6429 21.9033 28.8567 22.2291 29.0196L29.1767 32.4931C30.9185 33.3629 32 35.1127 32 37.0596V38.5455ZM42.1818 38.5455H33.4545V37.0596C33.4545 34.5585 32.0647 32.3105 29.8284 31.192L24.8407 28.6975C24.9636 28.4167 24.9796 28.0953 24.872 27.7855C24.6938 27.2727 24.2284 26.9418 23.6865 26.9418H22.0742C22.0407 26.8829 22.0189 26.8182 21.992 26.7556C21.9556 26.672 21.9127 26.5898 21.8887 26.5018C21.8444 26.3404 21.8182 26.1716 21.8182 25.9985V23.5396C21.9847 23.336 22.16 23.104 22.3411 22.848C23.2422 21.5753 23.9644 20.1585 24.4895 18.6305C25.5156 18.16 26.1818 17.1455 26.1818 16V13.0909C26.1818 12.3905 25.92 11.712 25.4545 11.1818V7.31345C25.4735 7.13164 25.5142 6.536 25.3935 5.75782C26.3302 5.38982 27.3796 5.2 28.5135 5.19055C35.6705 5.24945 35.9316 12.3258 35.9389 12.624C36.0458 18.1389 39.3905 23.48 40.824 25.52C40.9469 25.6945 40.984 25.9142 40.9251 26.1215C40.8916 26.2407 40.7956 26.4575 40.536 26.5687C39.3142 27.0945 37.6567 26.9455 37.5716 26.9418H32.5658C32.0982 26.9418 31.672 27.1796 31.4255 27.5775C31.1796 27.9738 31.1564 28.4582 31.3629 28.8742C31.5905 29.3331 31.9927 29.9462 32.6538 30.2756L39.7425 33.3462C41.2473 34.1062 42.1818 35.6233 42.1818 37.3113V38.5455Z" fill="#2C78F6"/>
</svg>
