<svg width="11" height="16" viewBox="0 0 11 16" fill="none" xmlns="http://www.w3.org/2000/svg">
<path d="M10.4044 4.06565C10.3494 3.86908 10.2376 3.65964 10.1548 3.47626C9.16505 1.21046 7.00237 0.398438 5.25611 0.398438C2.91843 0.398438 0.343742 1.89155 0 4.9692V5.59798C0 5.62422 0.00949444 5.85994 0.0229809 5.97785C0.215675 7.44458 1.43071 9.0034 2.33815 10.4701C3.31442 12.0416 4.32745 13.5875 5.33109 15.1327C5.94996 14.1243 6.56659 13.1027 7.17136 12.1204C7.33618 11.8321 7.52751 11.544 7.69251 11.2689C7.80249 11.0857 8.01259 10.9025 8.10858 10.732C9.08481 9.02947 10.6562 7.31379 10.6562 5.62419V4.93008C10.6562 4.74691 10.4178 4.10514 10.4044 4.06565ZM5.29891 7.22212C4.61175 7.22212 3.8596 6.89483 3.48834 5.99097C3.43303 5.84709 3.43749 5.55876 3.43749 5.53234V5.12633C3.43749 3.97408 4.46462 3.45009 5.35817 3.45009C6.45823 3.45009 7.30903 4.28842 7.30903 5.33626C7.30903 6.38407 6.39897 7.22212 5.29891 7.22212Z" fill="white"/>
</svg>
