<svg width="23" height="19" fill="none" xmlns="http://www.w3.org/2000/svg"><path d="M19.646.846c-.637 0-1.185.387-1.646 1.028L2.742 7.234c-.292-.414-.661-.638-1.065-.638C.721 6.596 0 7.832 0 9.47s.72 2.875 1.677 2.875c.404 0 .772-.225 1.065-.64l2.893 1.017-.56.936a1.989 1.989 0 00.964 2.865l3.528 1.41a2.266 2.266 0 002.852-1.084l.742-1.484 4.838 1.7c.461.643 1.01 1.03 1.647 1.03 2.178 0 3.354-4.444 3.354-8.625S21.824.846 19.646.846zm-8.942 15.148a.351.351 0 01-.425.16l-3.528-1.41-.033-.1.764-1.273 3.856 1.355-.634 1.268zm8.942.185c-.43 0-1.438-2.282-1.438-6.708 0-4.427 1.008-6.709 1.438-6.709.43 0 1.437 2.282 1.437 6.709 0 4.426-1.007 6.708-1.437 6.708z" fill="#fff"/></svg>