<svg width="42" height="42" viewBox="0 0 42 42" fill="none" xmlns="http://www.w3.org/2000/svg">
<circle cx="21" cy="21" r="20.5" stroke="#C8C8C8"/>
<path d="M26.1097 20.9927L20.3245 15.2077C20.1907 15.0738 20.0121 15 19.8217 15C19.6312 15 19.4526 15.0738 19.3188 15.2077L18.8928 15.6336C18.6155 15.9112 18.6155 16.3622 18.8928 16.6394L23.7507 21.4973L18.8874 26.3606C18.7536 26.4945 18.6797 26.6731 18.6797 26.8634C18.6797 27.054 18.7536 27.2325 18.8874 27.3665L19.3134 27.7923C19.4473 27.9262 19.6258 28 19.8163 28C20.0067 28 20.1853 27.9262 20.3192 27.7923L26.1097 22.002C26.2438 21.8676 26.3175 21.6883 26.3171 21.4976C26.3175 21.3062 26.2438 21.127 26.1097 20.9927Z" fill="#C8C8C8"/>
</svg>
