<svg width="215" height="11" viewBox="0 0 215 11" fill="none" xmlns="http://www.w3.org/2000/svg">
<path d="M199.486 10C198.101 10 197.023 9.60317 196.25 8.80952C195.487 8.01587 195.105 6.89076 195.105 5.43417V0H197.741V5.35014C197.741 6.91877 198.332 7.70308 199.512 7.70308C200.684 7.70308 201.27 6.91877 201.27 5.35014V0H203.866V5.43417C203.866 6.89076 203.48 8.01587 202.708 8.80952C201.944 9.60317 200.87 10 199.486 10Z" fill="#2C78F6"/>
<path d="M209.912 0C210.755 0 211.488 0.149393 212.109 0.448179C212.73 0.737628 213.209 1.1578 213.547 1.70868C213.884 2.25023 214.053 2.88982 214.053 3.62745C214.053 4.36508 213.884 5.00467 213.547 5.54622C213.209 6.08777 212.73 6.50794 212.109 6.80672C211.488 7.09617 210.755 7.2409 209.912 7.2409H208.288V9.80392H205.652V0H209.912ZM209.752 5.05602C210.294 5.05602 210.702 4.93464 210.977 4.69188C211.252 4.43978 211.39 4.08497 211.39 3.62745C211.39 3.16993 211.252 2.81513 210.977 2.56303C210.702 2.31092 210.294 2.18487 209.752 2.18487H208.288V5.05602H209.752Z" fill="#2C78F6"/>
<path d="M156.971 10C156.208 10 155.468 9.90385 154.75 9.71154C154.032 9.51923 153.449 9.26282 153 8.94231L153.875 6.93681C154.297 7.2207 154.786 7.44963 155.342 7.62363C155.899 7.79762 156.446 7.88461 156.985 7.88461C158.008 7.88461 158.519 7.62363 158.519 7.10165C158.519 6.82692 158.371 6.62546 158.075 6.49725C157.788 6.35989 157.321 6.21795 156.675 6.07143C155.966 5.91575 155.374 5.75092 154.898 5.57692C154.422 5.39377 154.014 5.10531 153.673 4.71154C153.332 4.31777 153.162 3.78663 153.162 3.11813C153.162 2.53205 153.319 2.00549 153.633 1.53846C153.947 1.06227 154.413 0.686813 155.033 0.412088C155.661 0.137363 156.428 0 157.335 0C157.954 0 158.564 0.0732602 159.165 0.219781C159.767 0.357143 160.296 0.563187 160.754 0.837912L159.933 2.85714C159.035 2.36264 158.165 2.11539 157.321 2.11539C156.792 2.11539 156.406 2.1978 156.163 2.36264C155.921 2.51831 155.8 2.72436 155.8 2.98077C155.8 3.23718 155.944 3.42949 156.231 3.55769C156.518 3.6859 156.98 3.81868 157.617 3.95604C158.335 4.11172 158.928 4.28114 159.394 4.46429C159.87 4.63828 160.278 4.92216 160.619 5.31593C160.969 5.70055 161.144 6.22711 161.144 6.8956C161.144 7.47253 160.987 7.9945 160.673 8.46154C160.359 8.92857 159.888 9.30403 159.26 9.58791C158.631 9.86264 157.869 10 156.971 10Z" fill="#505050"/>
<path d="M164.25 2.3489H161.356V0.192308H169.796V2.3489H166.915V9.80769H164.25V2.3489Z" fill="#505050"/>
<path d="M175.41 10C174.413 10 173.516 9.7848 172.717 9.35439C171.927 8.92399 171.304 8.32875 170.846 7.56868C170.397 6.80861 170.173 5.95238 170.173 5C170.173 4.04762 170.397 3.19139 170.846 2.43132C171.304 1.67125 171.927 1.07601 172.717 0.645604C173.516 0.215201 174.413 0 175.41 0C176.406 0 177.299 0.215201 178.088 0.645604C178.887 1.07601 179.511 1.67125 179.96 2.43132C180.417 3.19139 180.646 4.04762 180.646 5C180.646 5.95238 180.417 6.80861 179.96 7.56868C179.511 8.32875 178.887 8.92399 178.088 9.35439C177.299 9.7848 176.406 10 175.41 10ZM175.41 7.74725C175.885 7.74725 176.316 7.63278 176.702 7.40385C177.088 7.17491 177.393 6.85439 177.617 6.44231C177.842 6.02106 177.954 5.54029 177.954 5C177.954 4.45971 177.842 3.98352 177.617 3.57143C177.393 3.15018 177.088 2.82509 176.702 2.59615C176.316 2.36722 175.885 2.25275 175.41 2.25275C174.934 2.25275 174.503 2.36722 174.117 2.59615C173.731 2.82509 173.426 3.15018 173.202 3.57143C172.978 3.98352 172.865 4.45971 172.865 5C172.865 5.54029 172.978 6.02106 173.202 6.44231C173.426 6.85439 173.731 7.17491 174.117 7.40385C174.503 7.63278 174.934 7.74725 175.41 7.74725Z" fill="#505050"/>
<path d="M190.55 9.80769L190.523 4.71154L188.1 8.85989H186.915L184.506 4.8489V9.80769H182.042V0.192308H184.236L187.548 5.74176L190.779 0.192308H192.973L193 9.80769H190.55Z" fill="#505050"/>
<path d="M4.23204 4.73602C5.08804 4.93602 5.51604 5.45202 5.51604 6.28402C5.51604 6.83602 5.31204 7.26002 4.90404 7.55602C4.49604 7.85202 3.88804 8.00002 3.08004 8.00002H0.212036V1.68801H2.99604C3.71604 1.68801 4.28004 1.82802 4.68804 2.10802C5.09604 2.38802 5.30004 2.78801 5.30004 3.30801C5.30004 3.65201 5.20404 3.94801 5.01204 4.19601C4.82804 4.43601 4.56804 4.61602 4.23204 4.73602ZM1.04004 4.49602H2.93604C3.42404 4.49602 3.79604 4.40401 4.05204 4.22001C4.31604 4.03601 4.44804 3.76802 4.44804 3.41602C4.44804 3.06402 4.31604 2.80002 4.05204 2.62402C3.79604 2.44802 3.42404 2.36002 2.93604 2.36002H1.04004V4.49602ZM3.04404 7.32801C3.58804 7.32801 3.99604 7.24001 4.26804 7.06401C4.54004 6.88801 4.67604 6.61202 4.67604 6.23602C4.67604 5.86002 4.55204 5.58401 4.30404 5.40801C4.05604 5.22401 3.66404 5.13202 3.12804 5.13202H1.04004V7.32801H3.04404Z" fill="#505050"/>
<path d="M14.0328 5.10802H8.75282C8.80082 5.76402 9.05282 6.29602 9.50882 6.70402C9.96482 7.10402 10.5408 7.30402 11.2368 7.30402C11.6288 7.30402 11.9888 7.23602 12.3168 7.10002C12.6448 6.95602 12.9288 6.74802 13.1688 6.47602L13.6488 7.02802C13.3688 7.36402 13.0168 7.62001 12.5928 7.79601C12.1768 7.97201 11.7168 8.06001 11.2128 8.06001C10.5648 8.06001 9.98882 7.92402 9.48482 7.65202C8.98882 7.37202 8.60082 6.98802 8.32082 6.50002C8.04082 6.01202 7.90082 5.46002 7.90082 4.84402C7.90082 4.22802 8.03282 3.67602 8.29682 3.18801C8.56882 2.70002 8.93682 2.32002 9.40082 2.04802C9.87282 1.77602 10.4008 1.64001 10.9848 1.64001C11.5688 1.64001 12.0928 1.77602 12.5568 2.04802C13.0208 2.32002 13.3848 2.70002 13.6488 3.18801C13.9128 3.66802 14.0448 4.22002 14.0448 4.84402L14.0328 5.10802ZM10.9848 2.37201C10.3768 2.37201 9.86482 2.56801 9.44882 2.96001C9.04082 3.34401 8.80882 3.84802 8.75282 4.47202H13.2288C13.1728 3.84802 12.9368 3.34401 12.5208 2.96001C12.1128 2.56801 11.6008 2.37201 10.9848 2.37201Z" fill="#505050"/>
<path d="M20.1828 1.64001C20.7748 1.64001 21.3108 1.77602 21.7908 2.04802C22.2708 2.31202 22.6468 2.68802 22.9188 3.17602C23.1908 3.66402 23.3268 4.22002 23.3268 4.84402C23.3268 5.47602 23.1908 6.03602 22.9188 6.52402C22.6468 7.01202 22.2708 7.39201 21.7908 7.66401C21.3188 7.92801 20.7828 8.06001 20.1828 8.06001C19.6708 8.06001 19.2068 7.95601 18.7908 7.74801C18.3828 7.53201 18.0468 7.22002 17.7828 6.81202V10.328H16.9308V1.68801H17.7468V2.93601C18.0028 2.52001 18.3388 2.20002 18.7548 1.97602C19.1788 1.75202 19.6548 1.64001 20.1828 1.64001ZM20.1228 7.30402C20.5628 7.30402 20.9628 7.20401 21.3228 7.00401C21.6828 6.79601 21.9628 6.50402 22.1628 6.12802C22.3708 5.75202 22.4748 5.32402 22.4748 4.84402C22.4748 4.36402 22.3708 3.94002 22.1628 3.57202C21.9628 3.19602 21.6828 2.90401 21.3228 2.69601C20.9628 2.48801 20.5628 2.38401 20.1228 2.38401C19.6748 2.38401 19.2708 2.48801 18.9108 2.69601C18.5588 2.90401 18.2788 3.19602 18.0708 3.57202C17.8708 3.94002 17.7708 4.36402 17.7708 4.84402C17.7708 5.32402 17.8708 5.75202 18.0708 6.12802C18.2788 6.50402 18.5588 6.79601 18.9108 7.00401C19.2708 7.20401 19.6748 7.30402 20.1228 7.30402Z" fill="#505050"/>
<path d="M26.1573 1.68801H27.0093V4.48401H30.9813V1.68801H31.8333V8.00002H30.9813V5.21601H27.0093V8.00002H26.1573V1.68801Z" fill="#505050"/>
<path d="M40.619 1.68801L37.463 8.75602C37.207 9.34802 36.911 9.76802 36.575 10.016C36.239 10.264 35.835 10.388 35.363 10.388C35.059 10.388 34.775 10.34 34.511 10.244C34.247 10.148 34.019 10.004 33.827 9.81202L34.223 9.17602C34.543 9.49602 34.927 9.65602 35.375 9.65602C35.663 9.65602 35.907 9.57602 36.107 9.41602C36.315 9.25602 36.507 8.98402 36.683 8.60002L36.959 7.98802L34.139 1.68801H35.027L37.403 7.05202L39.779 1.68801H40.619Z" fill="#505050"/>
<path d="M47.4098 2.44402H45.0218V8.00002H44.1698V2.44402H41.7818V1.68801H47.4098V2.44402Z" fill="#505050"/>
<path d="M52.3537 3.92002C53.1457 3.92802 53.7457 4.10402 54.1537 4.44802C54.5697 4.79202 54.7777 5.28802 54.7777 5.93602C54.7777 6.60802 54.5537 7.12401 54.1057 7.48401C53.6657 7.84401 53.0257 8.02001 52.1857 8.01201L49.6417 8.00002V1.68801H50.4937V3.89602L52.3537 3.92002ZM52.1377 7.36402C52.7217 7.37202 53.1617 7.25602 53.4577 7.01602C53.7617 6.76802 53.9137 6.40802 53.9137 5.93602C53.9137 5.47202 53.7657 5.12801 53.4697 4.90401C53.1737 4.68001 52.7297 4.56401 52.1377 4.55602L50.4937 4.53201V7.34002L52.1377 7.36402Z" fill="#505050"/>
<path d="M60.0434 8.06001C59.4194 8.06001 58.8594 7.92402 58.3634 7.65202C57.8754 7.38002 57.4914 7.00001 57.2114 6.51201C56.9314 6.01601 56.7914 5.46002 56.7914 4.84402C56.7914 4.22802 56.9314 3.67602 57.2114 3.18801C57.4914 2.70002 57.8754 2.32002 58.3634 2.04802C58.8594 1.77602 59.4194 1.64001 60.0434 1.64001C60.5874 1.64001 61.0714 1.74802 61.4954 1.96402C61.9274 2.17202 62.2674 2.48002 62.5154 2.88802L61.8794 3.32001C61.6714 3.00801 61.4074 2.77602 61.0874 2.62402C60.7674 2.46402 60.4194 2.38401 60.0434 2.38401C59.5874 2.38401 59.1754 2.48801 58.8074 2.69601C58.4474 2.89601 58.1634 3.18401 57.9554 3.56001C57.7554 3.93601 57.6554 4.36402 57.6554 4.84402C57.6554 5.33202 57.7554 5.76401 57.9554 6.14001C58.1634 6.50801 58.4474 6.79601 58.8074 7.00401C59.1754 7.20401 59.5874 7.30402 60.0434 7.30402C60.4194 7.30402 60.7674 7.22802 61.0874 7.07602C61.4074 6.92402 61.6714 6.69201 61.8794 6.38001L62.5154 6.81202C62.2674 7.22002 61.9274 7.53201 61.4954 7.74801C61.0634 7.95601 60.5794 8.06001 60.0434 8.06001Z" fill="#505050"/>
<path d="M69.8022 1.68801V8.00002H69.0222V5.91202H67.0422H66.8022L65.3382 8.00002H64.4142L65.9862 5.79202C65.4982 5.65602 65.1222 5.42402 64.8582 5.09602C64.5942 4.76802 64.4622 4.35201 64.4622 3.84801C64.4622 3.14401 64.7022 2.60802 65.1822 2.24002C65.6622 1.87201 66.3182 1.68801 67.1502 1.68801H69.8022ZM65.3262 3.87201C65.3262 4.80801 65.9222 5.27601 67.1142 5.27601H69.0222V2.44402H67.1742C65.9422 2.44402 65.3262 2.92001 65.3262 3.87201Z" fill="#505050"/>
<path d="M79.6642 5.19201H78.2242V8.00002H77.3722V1.68801H78.2242V4.46001H79.6762L81.8962 1.68801H82.8202L80.3362 4.74801L83.0002 8.00002H81.9922L79.6642 5.19201Z" fill="#505050"/>
<path d="M95.1495 1.68801V8.00002H94.2975V2.44402H90.3375V8.00002H89.4855V1.68801H95.1495Z" fill="#505050"/>
<path d="M101.175 8.06001C100.567 8.06001 100.019 7.92402 99.5314 7.65202C99.0434 7.37202 98.6594 6.98802 98.3794 6.50002C98.0994 6.01202 97.9594 5.46002 97.9594 4.84402C97.9594 4.22802 98.0994 3.67602 98.3794 3.18801C98.6594 2.70002 99.0434 2.32002 99.5314 2.04802C100.019 1.77602 100.567 1.64001 101.175 1.64001C101.783 1.64001 102.331 1.77602 102.819 2.04802C103.307 2.32002 103.687 2.70002 103.959 3.18801C104.239 3.67602 104.379 4.22802 104.379 4.84402C104.379 5.46002 104.239 6.01202 103.959 6.50002C103.687 6.98802 103.307 7.37202 102.819 7.65202C102.331 7.92402 101.783 8.06001 101.175 8.06001ZM101.175 7.30402C101.623 7.30402 102.023 7.20401 102.375 7.00401C102.735 6.79601 103.015 6.50402 103.215 6.12802C103.415 5.75202 103.515 5.32402 103.515 4.84402C103.515 4.36402 103.415 3.93601 103.215 3.56001C103.015 3.18401 102.735 2.89601 102.375 2.69601C102.023 2.48801 101.623 2.38401 101.175 2.38401C100.727 2.38401 100.323 2.48801 99.9634 2.69601C99.6114 2.89601 99.3314 3.18401 99.1234 3.56001C98.9234 3.93601 98.8234 4.36402 98.8234 4.84402C98.8234 5.32402 98.9234 5.75202 99.1234 6.12802C99.3314 6.50402 99.6114 6.79601 99.9634 7.00401C100.323 7.20401 100.727 7.30402 101.175 7.30402Z" fill="#505050"/>
<path d="M110.452 1.64001C111.044 1.64001 111.58 1.77602 112.06 2.04802C112.54 2.31202 112.916 2.68802 113.188 3.17602C113.46 3.66402 113.596 4.22002 113.596 4.84402C113.596 5.47602 113.46 6.03602 113.188 6.52402C112.916 7.01202 112.54 7.39201 112.06 7.66401C111.588 7.92801 111.052 8.06001 110.452 8.06001C109.94 8.06001 109.476 7.95601 109.06 7.74801C108.652 7.53201 108.316 7.22002 108.052 6.81202V10.328H107.2V1.68801H108.016V2.93601C108.272 2.52001 108.608 2.20002 109.024 1.97602C109.448 1.75202 109.924 1.64001 110.452 1.64001ZM110.392 7.30402C110.832 7.30402 111.232 7.20401 111.592 7.00401C111.952 6.79601 112.232 6.50402 112.432 6.12802C112.64 5.75202 112.744 5.32402 112.744 4.84402C112.744 4.36402 112.64 3.94002 112.432 3.57202C112.232 3.19602 111.952 2.90401 111.592 2.69601C111.232 2.48801 110.832 2.38401 110.392 2.38401C109.944 2.38401 109.54 2.48801 109.18 2.69601C108.828 2.90401 108.548 3.19602 108.34 3.57202C108.14 3.94002 108.04 4.36402 108.04 4.84402C108.04 5.32402 108.14 5.75202 108.34 6.12802C108.548 6.50402 108.828 6.79601 109.18 7.00401C109.54 7.20401 109.944 7.30402 110.392 7.30402Z" fill="#505050"/>
<path d="M120.633 2.44402H118.245V8.00002H117.393V2.44402H115.005V1.68801H120.633V2.44402Z" fill="#505050"/>
<path d="M125.036 1.64001C125.86 1.64001 126.492 1.84802 126.932 2.26402C127.372 2.67202 127.592 3.28001 127.592 4.08801V8.00002H126.776V7.01602C126.584 7.34402 126.3 7.60002 125.924 7.78402C125.556 7.96802 125.116 8.06001 124.604 8.06001C123.9 8.06001 123.34 7.89202 122.924 7.55602C122.508 7.22001 122.3 6.77601 122.3 6.22401C122.3 5.68801 122.492 5.25601 122.876 4.92801C123.268 4.60001 123.888 4.43601 124.736 4.43601H126.74V4.05202C126.74 3.50802 126.588 3.09602 126.284 2.81602C125.98 2.52802 125.536 2.38401 124.952 2.38401C124.552 2.38401 124.168 2.45201 123.8 2.58801C123.432 2.71601 123.116 2.89602 122.852 3.12802L122.468 2.49202C122.788 2.22002 123.172 2.01202 123.62 1.86802C124.068 1.71602 124.54 1.64001 125.036 1.64001ZM124.736 7.38802C125.216 7.38802 125.628 7.28001 125.972 7.06401C126.316 6.84001 126.572 6.52002 126.74 6.10402V5.07202H124.76C123.68 5.07202 123.14 5.44802 123.14 6.20002C123.14 6.56802 123.28 6.86002 123.56 7.07602C123.84 7.28402 124.232 7.38802 124.736 7.38802Z" fill="#505050"/>
<path d="M136.02 1.68801V8.00002H135.168V2.44402H132.144L132.06 4.00401C131.996 5.31601 131.844 6.32402 131.604 7.02802C131.364 7.73202 130.936 8.08401 130.32 8.08401C130.152 8.08401 129.948 8.05202 129.708 7.98802L129.768 7.25602C129.912 7.28802 130.012 7.30402 130.068 7.30402C130.396 7.30402 130.644 7.15201 130.812 6.84801C130.98 6.54401 131.092 6.16801 131.148 5.72001C131.204 5.27201 131.252 4.68002 131.292 3.94402L131.4 1.68801H136.02Z" fill="#505050"/>
<path d="M144.807 1.68801L141.65 8.75602C141.394 9.34802 141.098 9.76802 140.762 10.016C140.426 10.264 140.023 10.388 139.551 10.388C139.247 10.388 138.963 10.34 138.699 10.244C138.435 10.148 138.206 10.004 138.014 9.81202L138.41 9.17602C138.73 9.49602 139.114 9.65602 139.562 9.65602C139.85 9.65602 140.094 9.57602 140.294 9.41602C140.502 9.25602 140.694 8.98402 140.87 8.60002L141.146 7.98802L138.326 1.68801H139.214L141.59 7.05202L143.967 1.68801H144.807Z" fill="#505050"/>
</svg>
