<svg width="20" height="16" viewBox="0 0 20 16" fill="none" xmlns="http://www.w3.org/2000/svg">
<path d="M18.7301 0.222168H1.26986C0.56859 0.222168 0 0.790723 0 1.49199V14.5079C0 15.2091 0.56859 15.7777 1.26986 15.7777H18.7301C19.4314 15.7777 20 15.2091 20 14.5079V1.49199C20 0.790723 19.4314 0.222168 18.7301 0.222168ZM18.7301 1.49199V10.7272L16.2276 8.45198C15.8514 8.11008 15.273 8.12373 14.9136 8.48342L12.3809 11.0158L7.38699 5.05071C7.0095 4.59991 6.31807 4.59548 5.93492 5.04087L1.26986 10.4625V1.49199H18.7301ZM13.3333 4.82533C13.3333 3.86088 14.1149 3.07928 15.0793 3.07928C16.0438 3.07928 16.8254 3.86088 16.8254 4.82533C16.8254 5.78978 16.0438 6.57133 15.0793 6.57133C14.1149 6.57137 13.3333 5.78978 13.3333 4.82533Z" fill="white"/>
</svg>
