<svg width="62" height="62" viewBox="0 0 62 62" fill="none" xmlns="http://www.w3.org/2000/svg">
<circle cx="31" cy="31" r="29" stroke="#EFEFEF" stroke-width="4"/>
<path d="M30.9994 23.2725C26.7409 23.2725 23.2764 26.737 23.2764 30.9955C23.2764 35.254 26.7409 38.7186 30.9994 38.7186C35.2579 38.7186 38.7225 35.254 38.7225 30.9955C38.7225 26.737 35.2579 23.2725 30.9994 23.2725ZM34.8249 29.7504L30.7739 33.8014C30.5573 34.018 30.2686 34.1262 29.9889 34.1262C29.7002 34.1262 29.4205 34.018 29.204 33.8014L27.174 31.7804C26.7499 31.3474 26.7409 30.6436 27.174 30.2106C27.607 29.7865 28.3108 29.7775 28.7439 30.2106L29.9889 31.4556L33.255 28.1896C33.688 27.7565 34.3918 27.7565 34.8249 28.1896C35.2489 28.6227 35.2489 29.3174 34.8249 29.7504Z" fill="#FFC24C"/>
<path d="M41.7365 30.996L42.747 29.2366C43.2703 28.3254 42.9545 27.1796 42.0523 26.6473L40.3019 25.6277L40.2929 23.5977C40.2839 22.5512 39.4448 21.7121 38.3983 21.7031L36.3682 21.694L35.3487 19.9437C34.8254 19.0415 33.6706 18.7347 32.7593 19.249L31 20.2595L29.2407 19.249C28.3294 18.7347 27.1746 19.0415 26.6513 19.9437L25.6318 21.694L23.6017 21.7031C22.5552 21.7121 21.7161 22.5512 21.7071 23.5977L21.6981 25.6277L19.9477 26.6473C19.0455 27.1796 18.7388 28.3254 19.253 29.2366L20.2635 30.996L19.253 32.7553C18.7297 33.6666 19.0455 34.8124 19.9477 35.3447L21.6981 36.3642L21.7071 38.3942C21.7161 39.4408 22.5552 40.2799 23.6017 40.2889L25.6318 40.2979L26.6513 42.0573C27.1746 42.9505 28.3294 43.2663 29.2407 42.743L31 41.7415L32.7593 42.743C33.0571 42.9144 33.3819 42.9956 33.7067 42.9956C34.3563 42.9956 34.9969 42.6618 35.3487 42.0573L36.3682 40.2979L38.3983 40.2889C39.4448 40.2799 40.2839 39.4408 40.2929 38.3942L40.3019 36.3642L42.0523 35.3447C42.9545 34.8214 43.2612 33.6666 42.747 32.7553L41.7365 30.996ZM31 39.6213C26.2453 39.6213 22.3747 35.7507 22.3747 30.996C22.3747 26.2413 26.2453 22.3707 31 22.3707C35.7547 22.3707 39.6253 26.2413 39.6253 30.996C39.6253 35.7507 35.7547 39.6213 31 39.6213Z" fill="#FFC24C"/>
</svg>
