<svg width="13" height="14" viewBox="0 0 13 14" fill="none" xmlns="http://www.w3.org/2000/svg">
<path d="M4.68718 7.73171C4.68718 7.57349 4.55245 7.44531 4.38622 7.44531H3.33596C3.16991 7.44531 3.03516 7.57349 3.03516 7.73171V8.73198C3.03516 8.89041 3.16991 9.01864 3.33596 9.01864H4.38622C4.55245 9.01864 4.68718 8.89041 4.68718 8.73198V7.73171Z" fill="white"/>
<path d="M7.31202 7.7278C7.31202 7.56958 7.17727 7.44141 7.01136 7.44141H5.96096C5.79491 7.44141 5.66016 7.56958 5.66016 7.7278V8.72808C5.66016 8.8865 5.79491 9.01473 5.96096 9.01473H7.01136C7.17727 9.01473 7.31202 8.8865 7.31202 8.72808V7.7278Z" fill="white"/>
<path d="M9.93328 7.73171C9.93328 7.57349 9.79852 7.44531 9.63247 7.44531H8.58222C8.41598 7.44531 8.28125 7.57349 8.28125 7.73171V8.73198C8.28125 8.89041 8.41598 9.01864 8.58222 9.01864H9.63247C9.79852 9.01864 9.93328 8.89041 9.93328 8.73198V7.73171Z" fill="white"/>
<path d="M4.68718 10.228C4.68718 10.0695 4.55245 9.94141 4.38622 9.94141H3.33596C3.16991 9.94141 3.03516 10.0695 3.03516 10.228V11.228C3.03516 11.3864 3.16991 11.5146 3.33596 11.5146H4.38622C4.55245 11.5146 4.68718 11.3863 4.68718 11.228V10.228Z" fill="white"/>
<path d="M7.31202 10.2241C7.31202 10.0656 7.17727 9.9375 7.01136 9.9375H5.96096C5.79491 9.9375 5.66016 10.0656 5.66016 10.2241V11.2241C5.66016 11.3825 5.79491 11.5107 5.96096 11.5107H7.01136C7.17727 11.5107 7.31202 11.3824 7.31202 11.2241V10.2241Z" fill="white"/>
<path d="M9.93328 10.228C9.93328 10.0695 9.79852 9.94141 9.63261 9.94141H8.58222C8.41598 9.94141 8.28125 10.0695 8.28125 10.228V11.228C8.28125 11.3864 8.41598 11.5146 8.58222 11.5146H9.63261C9.79852 11.5146 9.93328 11.3863 9.93328 11.228V10.228Z" fill="white"/>
<path d="M11.8116 2.16564V3.69348C11.8116 4.38405 11.2235 4.94054 10.4986 4.94054H9.67035C8.94543 4.94054 8.3495 4.38405 8.3495 3.69348V2.16016H4.61622V3.69348C4.61622 4.38405 4.02031 4.94054 3.2955 4.94054H2.46705C1.74221 4.94054 1.1541 4.38405 1.1541 3.69348V2.16564C0.520579 2.18383 0 2.68317 0 3.29692V12.2508C0 12.8761 0.532069 13.3896 1.18852 13.3896H11.7772C12.4327 13.3896 12.9657 12.875 12.9657 12.2508V3.29692C12.9657 2.68317 12.4452 2.18383 11.8116 2.16564ZM11.4269 11.6932C11.4269 11.9634 11.1969 12.1827 10.9131 12.1827H2.02997C1.74617 12.1827 1.51616 11.9634 1.51616 11.6932V7.06821C1.51616 6.79788 1.74615 6.57865 2.02997 6.57865H10.9131C11.1969 6.57865 11.4269 6.79788 11.4269 7.06821L11.4269 11.6932Z" fill="white"/>
<path d="M2.45812 4.11996H3.27741C3.52609 4.11996 3.72772 3.92818 3.72772 3.69131V1.18662C3.72772 0.949717 3.52609 0.757812 3.27741 0.757812H2.45812C2.20942 0.757812 2.00781 0.949717 2.00781 1.18662V3.69131C2.00781 3.92818 2.20942 4.11996 2.45812 4.11996Z" fill="white"/>
<path d="M9.66512 4.11996H10.4844C10.7329 4.11996 10.9346 3.92818 10.9346 3.69131V1.18662C10.9346 0.949717 10.733 0.757812 10.4844 0.757812H9.66512C9.41647 0.757812 9.21484 0.949717 9.21484 1.18662V3.69131C9.21484 3.92818 9.41647 4.11996 9.66512 4.11996Z" fill="white"/>
</svg>
