<svg width="52" height="52" fill="none" xmlns="http://www.w3.org/2000/svg"><path d="M26 20.8a7.8 7.8 0 10.001 15.601A7.8 7.8 0 0026 20.8zM46.8 13h-6.24c-.858 0-1.783-.666-2.053-1.48l-1.613-4.84c-.273-.814-1.196-1.48-2.054-1.48H17.16c-.858 0-1.783.666-2.053 1.48l-1.614 4.84c-.271.814-1.195 1.48-2.053 1.48H5.2C2.34 13 0 15.34 0 18.2v23.4c0 2.86 2.34 5.2 5.2 5.2h41.6c2.86 0 5.2-2.34 5.2-5.2V18.2c0-2.86-2.34-5.2-5.2-5.2zM26 41.6c-7.18 0-13-5.82-13-13s5.82-13 13-13c7.179 0 13 5.82 13 13s-5.821 13-13 13zm18.98-19.764a1.82 1.82 0 110-3.64 1.82 1.82 0 010 3.64z" fill="#2C78F6"/></svg>