<svg width="23" height="19" fill="none" xmlns="http://www.w3.org/2000/svg"><path d="M8.926 2.746C3.996 2.746 0 5.82 0 9.612c0 1.86.963 3.55 2.525 4.786-.09 1.26-.394 2.802-1.273 3.633 1.75 0 3.538-1.096 4.668-1.953.939.259 1.95.4 3.006.4 4.93 0 8.925-3.072 8.925-6.866 0-3.793-3.996-6.866-8.925-6.866z" fill="#fff"/><path d="M20.79 10.28c.75-1.003 1.18-2.17 1.18-3.414C21.97 3.073 17.975 0 13.045 0c-2.17 0-4.158.596-5.704 1.585a12.254 12.254 0 012.271-.212c5.309 0 9.612 3.382 9.612 7.553 0 1.643-.666 3.166-1.802 4.403 1.128.857 2.918 1.956 4.668 1.956-1.244-1.181-1.334-3.799-1.3-5.004z" fill="#fff"/></svg>