<svg width="13" height="14" viewBox="0 0 13 14" fill="none" xmlns="http://www.w3.org/2000/svg">
<path d="M1.07952 4.54784C1.82739 3.46025 2.99381 2.65821 4.35834 2.34396C4.46348 2.31995 4.55009 2.24905 4.59064 2.15386C4.63148 2.0584 4.62163 1.95025 4.56428 1.86279C4.12749 1.19953 3.35471 0.757812 2.47186 0.757812C1.10704 0.757812 0 1.81175 0 3.11179C0 3.66358 0.200147 4.17041 0.534401 4.57129C0.60131 4.65213 0.705004 4.69683 0.813043 4.69214C0.921082 4.68745 1.02043 4.63365 1.07952 4.54784Z" fill="white"/>
<path d="M10.0058 0.757812C9.127 0.757812 8.35682 1.19539 7.91916 1.85424C7.86123 1.94142 7.85109 2.0504 7.89194 2.14641C7.93307 2.2427 8.01996 2.31333 8.12626 2.33706C9.49456 2.64386 10.665 3.44038 11.4193 4.52439C11.4792 4.61047 11.5792 4.66372 11.6878 4.66731C11.7964 4.67117 11.8995 4.62482 11.9661 4.54288C12.2862 4.14669 12.4776 3.65117 12.4776 3.11206C12.4768 1.81175 11.3706 0.757812 10.0058 0.757812Z" fill="white"/>
<path d="M11.7066 7.96398C11.7066 7.05516 11.4584 6.20098 11.0256 5.45771C10.2236 4.08097 8.78319 3.09132 7.08788 2.84356C6.81763 2.80411 6.54334 2.77734 6.26151 2.77734C5.96723 2.77734 5.68047 2.80604 5.39865 2.84908C3.71057 3.10704 2.27739 4.10083 1.48376 5.47923C1.05884 6.21753 0.816406 7.06399 0.816406 7.96398C0.816406 9.50515 1.52981 10.8877 2.65365 11.8379L2.19484 12.4534C1.9973 12.7185 2.06276 13.0855 2.34112 13.2742C2.44973 13.3476 2.57457 13.3832 2.69825 13.3832C2.89174 13.3832 3.08233 13.2968 3.20253 13.1354L3.66104 12.5202C4.43412 12.9222 5.32015 13.1512 6.26151 13.1512C7.20258 13.1512 8.08861 12.9222 8.86168 12.5202L9.3202 13.1354C9.44069 13.2971 9.63099 13.3832 9.82448 13.3832C9.94816 13.3832 10.0727 13.3476 10.1813 13.2742C10.4597 13.0855 10.5254 12.7185 10.3279 12.4534L9.86908 11.8379C10.9929 10.8877 11.7066 9.50515 11.7066 7.96398ZM6.2618 11.7002C4.0987 11.7002 2.33938 10.0244 2.33938 7.96398C2.33938 7.32168 2.51056 6.71719 2.81122 6.18856C3.38356 5.18319 4.42745 4.45895 5.6573 4.27658C5.85484 4.24734 6.05557 4.22747 6.2618 4.22747C6.45586 4.22747 6.64558 4.2454 6.83241 4.27161C8.07268 4.44488 9.12787 5.16912 9.70688 6.17891C10.011 6.70946 10.1839 7.31727 10.1839 7.9637C10.1839 10.0244 8.4246 11.7002 6.2618 11.7002Z" fill="white"/>
<path d="M8.45888 8.84581L6.96255 7.96569C6.93156 7.79905 6.83684 7.65531 6.7039 7.5535L6.77225 5.76512C6.78065 5.53668 6.59354 5.34493 6.354 5.33637C6.11504 5.32589 5.91287 5.50633 5.90389 5.73477L5.83524 7.52508C5.64958 7.64979 5.52734 7.85506 5.52734 8.08819C5.52734 8.46921 5.85146 8.77767 6.25146 8.77767C6.3653 8.77767 6.4716 8.75035 6.56718 8.70593L8.00239 9.55074C8.07364 9.59212 8.15272 9.61226 8.23034 9.61226C8.37604 9.61226 8.51796 9.54274 8.60051 9.4161C8.7268 9.22104 8.66308 8.96611 8.45888 8.84581Z" fill="white"/>
</svg>
