<svg width="21" height="24" fill="none" xmlns="http://www.w3.org/2000/svg"><path d="M10.369 0a4.695 4.695 0 00-4.69 4.69v2.43a4.695 4.695 0 004.69 4.69 4.695 4.695 0 004.69-4.69V4.69A4.695 4.695 0 0010.368 0zM20.71 17.922a11.895 11.895 0 00-6.759-5.343.187.187 0 00-.187.046c-1.329 1.31-2.98 2.333-3.393 2.58-.44-.282-2.297-1.492-3.4-2.58a.187.187 0 00-.187-.046 11.892 11.892 0 00-6.758 5.343.188.188 0 000 .19C2.157 21.744 6.12 24 10.367 24c4.248 0 8.211-2.256 10.343-5.888a.187.187 0 000-.19zm-3.964 1.398c0 .104-.099.183-.202.183h-1.27c-.104 0-.217.089-.217.193v1.313c0 .103-.055.182-.159.182h-1.14c-.104 0-.201-.079-.201-.182v-1.313c0-.104-.071-.193-.175-.193h-1.325a.185.185 0 01-.189-.183v-1.13c0-.104.086-.187.19-.187h1.324c.104 0 .174-.085.174-.189V16.5c0-.103.098-.185.202-.185h1.128c.103 0 .171.082.171.185v1.32c0 .103.1.183.204.183h1.283c.103 0 .202.088.202.191v1.127z" fill="#fff"/></svg>