<svg width="13" height="15" viewBox="0 0 13 15" fill="none" xmlns="http://www.w3.org/2000/svg">
<path d="M11.7873 13.9358H0.44027C0.201712 13.9358 0.0150146 14.1823 0.0150146 14.4678C0.0150146 14.7533 0.212084 14.9998 0.44027 14.9998H11.7977C12.0363 14.9998 12.223 14.7533 12.223 14.4678C12.223 14.1823 12.0259 13.9358 11.7873 13.9358Z" fill="#A4AAB3"/>
<path d="M0.0129757 9.22575L0 11.756C0 11.8988 0.051903 12.0415 0.155709 12.1453C0.259515 12.2491 0.389272 12.301 0.532006 12.301L3.0493 12.288C3.19203 12.288 3.32179 12.2361 3.4256 12.1323L12.1193 3.43857C12.327 3.23096 12.327 2.89359 12.1193 2.673L9.628 0.155709C9.42039 -0.051903 9.08302 -0.051903 8.86243 0.155709L7.12368 1.90743L0.168685 8.84946C0.0778545 8.95326 0.0129757 9.08302 0.0129757 9.22575ZM9.25171 1.29757L11.0034 3.0493L10.0173 4.03546L8.26555 2.28373L9.25171 1.29757ZM1.08996 9.45932L7.49998 3.0493L9.25171 4.80103L2.84169 11.1981L1.07699 11.211L1.08996 9.45932Z" fill="#A4AAB3"/>
</svg>
