<svg width="61" height="60" fill="none" xmlns="http://www.w3.org/2000/svg"><path d="M59 0H1a1 1 0 00-1 1v20h2V2h56v22H23v2h36a1 1 0 001-1V1a1 1 0 00-1-1z" fill="#2C78F6"/><path d="M53.001 5h-20v2h20V5zM56 11H36v2h20v-2zm-4 6H32v2h20v-2zM31.92 8.621a3.227 3.227 0 00-4.303-1.703l-8.108 4.206c.32-.663.487-1.389.491-2.124a5 5 0 00-10 0 4.951 4.951 0 001.026 3h-.042a6.862 6.862 0 00-6.374 4.44l-2.67 9.2a3.203 3.203 0 004.175 4.126 3.23 3.23 0 001.84-1.922L9 24.514v14.473a4.953 4.953 0 00-3-1.025 4.993 4.993 0 00-3.49 8.57A4.607 4.607 0 000 50.62V59a1 1 0 001 1h10a1 1 0 001-1v-8.38A4.596 4.596 0 0010.216 47h7.569A4.595 4.595 0 0016 50.62V59a1 1 0 001 1h10a1 1 0 001-1v-8.38a4.607 4.607 0 00-2.51-4.087 4.996 4.996 0 00-4.49-8.47V17.608l9.18-4.767a3.227 3.227 0 001.74-4.219zM15 6a3 3 0 110 6 3 3 0 010-6zM6 39.963a3 3 0 110 6 3 3 0 010-6zM10 58H2v-7.38A2.624 2.624 0 014.62 48h2.76A2.624 2.624 0 0110 50.62V58zm16-7.38V58h-8v-7.38A2.624 2.624 0 0120.62 48h2.76A2.624 2.624 0 0126 50.62zm-4-10.657a3 3 0 110 6 3 3 0 010-6zm8.09-29.673a1.286 1.286 0 01-.754.74l-9.796 5.082A1 1 0 0019 17v21.988A4.933 4.933 0 0017.444 45H16V28h-2v17h-3.444c.285-.629.434-1.31.44-2H11V18a1 1 0 00-1.954-.3L6.06 27.202a1.202 1.202 0 01-1.668.665 1.227 1.227 0 01-.558-1.588l2.669-9.201A4.831 4.831 0 0110.983 14h7.082c.16 0 .318-.039.46-.113l9.94-5.159a1.23 1.23 0 011.573.583c.154.305.173.66.052.979zm11.4 36.244a5 5 0 10-6.979 0 4.607 4.607 0 00-2.51 4.086V59A1 1 0 0033 60h10a1 1 0 001-1v-8.38a4.607 4.607 0 00-2.51-4.086zM38 39.963a3 3 0 110 6 3 3 0 010-6zM42 58h-8v-7.38A2.624 2.624 0 0136.622 48h2.759A2.624 2.624 0 0142 50.62V58zm15.49-11.466a5 5 0 10-6.978 0 4.607 4.607 0 00-2.51 4.086V59A1 1 0 0049 60h10a1 1 0 001-1v-8.38a4.607 4.607 0 00-2.51-4.086zm-3.489-6.571a3 3 0 110 6 3 3 0 010-6zm4 18.037h-8v-7.38a2.624 2.624 0 012.62-2.62h2.76A2.624 2.624 0 0158 50.62V58z" fill="#2C78F6"/></svg>