<svg width="30" height="30" fill="none" xmlns="http://www.w3.org/2000/svg"><path d="M29.5 0H.5a.5.5 0 00-.5.5v10h1V1h28v11H11.5v1h18a.5.5 0 00.5-.5V.5a.5.5 0 00-.5-.5z" fill="#fff"/><path d="M26.5 2.5h-10v1h10v-1zm1.5 3H18v1h10v-1zm-2 3H16v1h10v-1zM15.96 4.31a1.614 1.614 0 00-2.152-.851L9.754 5.562c.16-.332.244-.694.246-1.062a2.5 2.5 0 00-5 0c.002.542.182 1.07.513 1.5h-.021a3.431 3.431 0 00-3.188 2.22L.97 12.82a1.601 1.601 0 103.007 1.102l.523-1.664v7.236c-.43-.33-.958-.51-1.5-.513a2.496 2.496 0 00-1.745 4.285A2.304 2.304 0 000 25.31v4.19a.5.5 0 00.5.5h5a.5.5 0 00.5-.5v-4.19a2.298 2.298 0 00-.893-1.81h3.785A2.298 2.298 0 008 25.31v4.19a.5.5 0 00.5.5h5a.5.5 0 00.5-.5v-4.19a2.303 2.303 0 00-1.256-2.043 2.498 2.498 0 00-2.244-4.235V8.803l4.59-2.383a1.614 1.614 0 00.87-2.11zM7.5 3a1.5 1.5 0 110 3 1.5 1.5 0 010-3zM3 19.98a1.5 1.5 0 110 3 1.5 1.5 0 010-3zM5 29H1v-3.69A1.312 1.312 0 012.31 24h1.38c.723 0 1.309.587 1.31 1.31V29zm8-3.69V29H9v-3.69A1.312 1.312 0 0110.31 24h1.38c.723 0 1.309.587 1.31 1.31zm-2-5.329a1.5 1.5 0 110 3 1.5 1.5 0 010-3zm4.045-14.836a.643.643 0 01-.377.37L9.77 8.055a.5.5 0 00-.27.445v10.994a2.466 2.466 0 00-.778 3.006H8V14H7v8.5H5.278c.142-.315.217-.655.22-1H5.5V9a.5.5 0 00-.977-.15L3.03 13.6a.6.6 0 01-.834.333.614.614 0 01-.28-.794l1.335-4.6a2.416 2.416 0 012.24-1.54h3.541c.08 0 .16-.018.23-.055l4.97-2.58a.615.615 0 01.813.78zm5.699 18.122a2.5 2.5 0 10-3.489 0A2.304 2.304 0 0016 25.31v4.19a.5.5 0 00.5.5h5a.5.5 0 00.5-.5v-4.19a2.303 2.303 0 00-1.256-2.043zM19 19.98a1.5 1.5 0 110 3 1.5 1.5 0 010-3zM21 29h-4v-3.69A1.312 1.312 0 0118.31 24h1.38c.723 0 1.309.587 1.31 1.31V29zm7.745-5.733a2.5 2.5 0 10-3.49 0A2.304 2.304 0 0024 25.31v4.19a.5.5 0 00.5.5h5a.5.5 0 00.5-.5v-4.19a2.304 2.304 0 00-1.255-2.043zM27 19.98a1.5 1.5 0 110 3 1.5 1.5 0 010-3zM29 29h-4v-3.69A1.312 1.312 0 0126.31 24h1.38c.723 0 1.31.587 1.31 1.31V29z" fill="#fff"/></svg>