<svg width="40" height="40" fill="none" xmlns="http://www.w3.org/2000/svg"><path d="M39.334 0H.667A.667.667 0 000 .666V14h1.334V1.333h37.333V16H15.334v1.333h24a.667.667 0 00.666-.666v-16A.666.666 0 0039.334 0z" fill="#fff"/><path d="M35.334 3.333H22.001v1.334h13.333V3.334zm1.999 4H24v1.334h13.333V7.334zm-2.666 4H21.333v1.333h13.334v-1.333zM21.28 5.748a2.151 2.151 0 00-2.869-1.136l-5.405 2.804c.213-.442.325-.926.327-1.416a3.333 3.333 0 00-6.666 0 3.3 3.3 0 00.683 2h-.027a4.575 4.575 0 00-4.25 2.96l-1.78 6.134a2.135 2.135 0 104.01 1.468L6 16.344v9.648a3.3 3.3 0 00-2-.684 3.328 3.328 0 00-2.326 5.714A3.071 3.071 0 000 33.747v5.586c0 .368.298.667.666.667h6.667A.667.667 0 008 39.334v-5.587a3.064 3.064 0 00-1.19-2.414h5.046a3.063 3.063 0 00-1.19 2.414v5.586c0 .368.299.667.667.667H18a.667.667 0 00.667-.666v-5.587a3.071 3.071 0 00-1.674-2.725A3.33 3.33 0 0014 25.376V11.738l6.12-3.178a2.151 2.151 0 001.16-2.812zM10 4a2 2 0 110 4 2 2 0 010-4zM4 26.642a2 2 0 110 4 2 2 0 010-4zm2.667 12.025H1.333v-4.92A1.75 1.75 0 013.08 32h1.84a1.75 1.75 0 011.747 1.747v4.92zm10.666-4.92v4.92H12v-4.92A1.75 1.75 0 0113.747 32h1.84a1.75 1.75 0 011.746 1.747zm-2.666-7.105a2 2 0 110 4 2 2 0 010-4zM20.06 6.86a.858.858 0 01-.503.493l-6.53 3.388a.667.667 0 00-.36.592v14.66A3.288 3.288 0 0011.629 30h-.962V18.666H9.333V30H7.037c.19-.42.29-.873.294-1.334h.002V12a.667.667 0 00-1.302-.2L4.04 18.135a.801.801 0 01-1.112.443.818.818 0 01-.372-1.059l1.78-6.134a3.22 3.22 0 012.987-2.052h4.72a.664.664 0 00.307-.075l6.626-3.44A.82.82 0 0120.06 6.86zm7.6 24.163a3.333 3.333 0 10-4.653 0 3.072 3.072 0 00-1.674 2.724v5.587c0 .368.299.666.667.666h6.667a.666.666 0 00.666-.666v-5.587a3.071 3.071 0 00-1.673-2.724zm-2.326-4.38a2 2 0 110 4 2 2 0 010-4zM28 38.666h-5.333v-4.92A1.75 1.75 0 0124.414 32h1.84A1.75 1.75 0 0128 33.747v4.92zm10.327-7.643a3.333 3.333 0 10-4.652 0A3.072 3.072 0 0032 33.747v5.587c0 .368.298.666.666.666h6.667a.666.666 0 00.667-.666v-5.587a3.071 3.071 0 00-1.674-2.724zm-2.326-4.38a2 2 0 110 4 2 2 0 010-4zm2.667 12.024h-5.334v-4.92A1.75 1.75 0 0135.081 32h1.84a1.75 1.75 0 011.747 1.747v4.92z" fill="#fff"/></svg>