<svg width="21" height="21" fill="none" xmlns="http://www.w3.org/2000/svg"><path d="M8.052 13.521l-.328 1.913a.695.695 0 00.282.682.717.717 0 00.745.054l1.749-.899 1.748.899a.722.722 0 00.745-.054.697.697 0 00.283-.682l-.327-1.913 1.407-1.36a.688.688 0 00.178-.714.706.706 0 00-.571-.475l-1.95-.284-.879-1.738a.71.71 0 00-.636-.387.714.714 0 00-.636.387l-.876 1.738-1.95.284a.709.709 0 00-.572.475.689.689 0 00.178.715l1.41 1.36z" fill="#fff"/><path d="M18.882 2.233h-2.234v-1.22A1.02 1.02 0 0015.62 0h-.164c-.567 0-1.029.454-1.029 1.013v1.22h-7.88v-1.22A1.022 1.022 0 005.517 0h-.164a1.02 1.02 0 00-1.027 1.013v1.22H2.118C.95 2.233 0 3.168 0 4.317v14.598C0 20.065.95 21 2.118 21H18.88c1.167 0 2.117-.936 2.117-2.085V4.317c.002-1.149-.948-2.084-2.116-2.084zm-.277 16.41H2.395V7.28h16.21v11.363z" fill="#fff"/></svg>