<svg width="21" height="23" viewBox="0 0 21 23" fill="none" xmlns="http://www.w3.org/2000/svg">
<path d="M9.70538 10.2793C10.0155 9.96927 10.0155 9.46539 9.70538 9.15531C9.3953 8.84524 8.89142 8.84524 8.58134 9.15531L4.37592 13.3607C3.65887 14.0778 3.27127 15.008 3.27127 16.0158C3.27127 17.0235 3.65887 17.9538 4.37592 18.6708C5.84879 20.1437 8.23251 20.1437 9.686 18.6708L19.1821 9.17469C20.1705 8.18632 20.7131 6.86849 20.7131 5.47314C20.7131 4.0778 20.1705 2.75997 19.1821 1.77159C17.1279 -0.28267 13.8139 -0.28267 11.7596 1.77159L2.2829 11.2483C1.00383 12.5274 0.306152 14.2135 0.306152 16.0158C0.306152 17.8181 1.00383 19.5235 2.2829 20.7832C3.56197 22.0623 5.24801 22.76 7.05034 22.76C8.85266 22.76 10.5581 22.0623 11.8178 20.7832L16.0232 16.5778C16.3333 16.2677 16.3333 15.7638 16.0232 15.4538C15.7131 15.1437 15.2093 15.1437 14.8992 15.4538L10.6937 19.6592C9.72476 20.6282 8.42631 21.1708 7.05034 21.1708C5.67437 21.1708 4.37592 20.6282 3.40693 19.6592C2.43794 18.6902 1.8953 17.3917 1.8953 16.0158C1.8953 14.6398 2.43794 13.3414 3.40693 12.3724L12.8837 2.89562C13.5813 2.19795 14.4922 1.82973 15.4612 1.82973C16.4302 1.82973 17.3604 2.21733 18.0387 2.89562C18.7364 3.5933 19.1046 4.50415 19.1046 5.47314C19.1046 6.44214 18.717 7.37237 18.0387 8.05066L8.54259 17.5468C7.70925 18.3801 6.33328 18.3801 5.48057 17.5468C5.07359 17.1398 4.84104 16.5972 4.84104 16.0158C4.84104 15.4344 5.07359 14.8917 5.48057 14.4848L9.70538 10.2793Z" fill="#2C78F6"/>
</svg>
