<svg width="376" height="360" viewBox="0 0 376 360" fill="none" xmlns="http://www.w3.org/2000/svg">
<g filter="url(#filter0_d)">
<rect x="24" y="20" width="328" height="312" rx="10" fill="white"/>
</g>
<path d="M147.8 58.096C146.69 58.096 145.688 57.8507 144.792 57.36C143.906 56.8693 143.208 56.192 142.696 55.328C142.194 54.4533 141.944 53.4773 141.944 52.4C141.944 51.3227 142.194 50.352 142.696 49.488C143.208 48.6133 143.912 47.9307 144.808 47.44C145.704 46.9493 146.706 46.704 147.816 46.704C148.648 46.704 149.416 46.8427 150.12 47.12C150.824 47.3973 151.421 47.8027 151.912 48.336L151.16 49.088C150.285 48.2027 149.181 47.76 147.848 47.76C146.962 47.76 146.157 47.9627 145.432 48.368C144.706 48.7733 144.136 49.328 143.72 50.032C143.314 50.736 143.112 51.5253 143.112 52.4C143.112 53.2747 143.314 54.064 143.72 54.768C144.136 55.472 144.706 56.0267 145.432 56.432C146.157 56.8373 146.962 57.04 147.848 57.04C149.192 57.04 150.296 56.592 151.16 55.696L151.912 56.448C151.421 56.9813 150.818 57.392 150.104 57.68C149.4 57.9573 148.632 58.096 147.8 58.096ZM162.277 56.976V58H154.357V46.8H162.037V47.824H155.541V51.808H161.333V52.816H155.541V56.976H162.277ZM174.264 46.8V58H173.096V52.832H166.088V58H164.904V46.8H166.088V51.792H173.096V46.8H174.264ZM185.372 47.824H181.436V58H180.268V47.824H176.332V46.8H185.372V47.824ZM194.902 46.8V58H193.734V54.608H190.39C190.241 54.608 190.027 54.5973 189.75 54.576L187.398 58H186.134L188.678 54.368C187.857 54.1227 187.227 53.6907 186.79 53.072C186.353 52.4427 186.134 51.6747 186.134 50.768C186.134 49.5093 186.529 48.5333 187.318 47.84C188.118 47.1467 189.195 46.8 190.55 46.8H194.902ZM187.318 50.736C187.318 51.6533 187.585 52.3627 188.118 52.864C188.662 53.3547 189.451 53.6 190.486 53.6H193.734V47.824H190.598C189.553 47.824 188.742 48.0747 188.166 48.576C187.601 49.0667 187.318 49.7867 187.318 50.736ZM198.685 46.8H206.877V47.808H199.853V51.472H203.517C204.84 51.472 205.842 51.744 206.525 52.288C207.218 52.832 207.565 53.6213 207.565 54.656C207.565 55.7333 207.192 56.56 206.445 57.136C205.709 57.712 204.648 58 203.261 58H198.685V46.8ZM203.245 57.056C204.28 57.056 205.058 56.8587 205.581 56.464C206.114 56.0693 206.381 55.4827 206.381 54.704C206.381 53.936 206.12 53.3653 205.597 52.992C205.085 52.608 204.301 52.416 203.245 52.416H199.853V57.056H203.245ZM214.502 46.8C215.931 46.8 217.051 47.1413 217.862 47.824C218.673 48.5067 219.078 49.4453 219.078 50.64C219.078 51.8347 218.673 52.7733 217.862 53.456C217.051 54.128 215.931 54.464 214.502 54.464H211.494V58H210.31V46.8H214.502ZM214.47 53.424C215.579 53.424 216.427 53.184 217.014 52.704C217.601 52.2133 217.894 51.5253 217.894 50.64C217.894 49.7333 217.601 49.04 217.014 48.56C216.427 48.0693 215.579 47.824 214.47 47.824H211.494V53.424H214.47ZM226.201 50.8C227.524 50.8 228.532 51.0987 229.225 51.696C229.929 52.2933 230.281 53.168 230.281 54.32C230.281 55.5253 229.908 56.4427 229.161 57.072C228.425 57.6907 227.358 58 225.961 58H221.513V46.8H222.681V50.8H226.201ZM225.929 57.056C226.964 57.056 227.748 56.8267 228.281 56.368C228.825 55.9093 229.097 55.232 229.097 54.336C229.097 52.6187 228.041 51.76 225.929 51.76H222.681V57.056H225.929Z" fill="black"/>
<path d="M60.6055 92V99H58.9955V93.32H55.8355V99H54.2255V92H60.6055ZM68.7607 92V99H67.1407V96.13H63.9607V99H62.3407V92H63.9607V94.76H67.1407V92H68.7607Z" fill="#3E3E3E"/>
<rect x="62" y="218" width="86" height="30" fill="#AECCFD"/>
<circle cx="64" cy="233" r="15" fill="#2C78F6"/>
<circle cx="147" cy="233" r="15" fill="#2C78F6"/>
<path d="M62.2741 134.232V135H56.3821V134.388L59.8741 130.968C60.3141 130.536 60.6101 130.164 60.7621 129.852C60.9221 129.532 61.0021 129.212 61.0021 128.892C61.0021 128.396 60.8301 128.012 60.4861 127.74C60.1501 127.46 59.6661 127.32 59.0341 127.32C58.0501 127.32 57.2861 127.632 56.7421 128.256L56.1301 127.728C56.4581 127.344 56.8741 127.048 57.3781 126.84C57.8901 126.632 58.4661 126.528 59.1061 126.528C59.9621 126.528 60.6381 126.732 61.1341 127.14C61.6381 127.54 61.8901 128.092 61.8901 128.796C61.8901 129.228 61.7941 129.644 61.6021 130.044C61.4101 130.444 61.0461 130.904 60.5101 131.424L57.6541 134.232H62.2741ZM66.7915 129.972C67.3435 129.972 67.8315 130.076 68.2555 130.284C68.6875 130.492 69.0235 130.788 69.2635 131.172C69.5035 131.548 69.6235 131.988 69.6235 132.492C69.6235 133.004 69.4995 133.456 69.2515 133.848C69.0035 134.24 68.6595 134.544 68.2195 134.76C67.7875 134.968 67.2995 135.072 66.7555 135.072C65.6435 135.072 64.7915 134.708 64.1995 133.98C63.6075 133.244 63.3115 132.208 63.3115 130.872C63.3115 129.936 63.4715 129.144 63.7915 128.496C64.1115 127.848 64.5595 127.36 65.1355 127.032C65.7115 126.696 66.3835 126.528 67.1515 126.528C67.9835 126.528 68.6475 126.68 69.1435 126.984L68.7955 127.68C68.3955 127.416 67.8515 127.284 67.1635 127.284C66.2355 127.284 65.5075 127.58 64.9795 128.172C64.4515 128.756 64.1875 129.608 64.1875 130.728C64.1875 130.928 64.1995 131.156 64.2235 131.412C64.4315 130.956 64.7635 130.604 65.2195 130.356C65.6755 130.1 66.1995 129.972 66.7915 129.972ZM66.7195 134.34C67.3275 134.34 67.8195 134.176 68.1955 133.848C68.5795 133.512 68.7715 133.068 68.7715 132.516C68.7715 131.964 68.5795 131.524 68.1955 131.196C67.8195 130.868 67.3075 130.704 66.6595 130.704C66.2355 130.704 65.8595 130.784 65.5315 130.944C65.2115 131.104 64.9595 131.324 64.7755 131.604C64.5915 131.884 64.4995 132.196 64.4995 132.54C64.4995 132.86 64.5835 133.156 64.7515 133.428C64.9275 133.7 65.1835 133.92 65.5195 134.088C65.8555 134.256 66.2555 134.34 66.7195 134.34Z" fill="#D8D8D8"/>
<path d="M69.5397 168.232V169H63.6477V168.388L67.1397 164.968C67.5797 164.536 67.8757 164.164 68.0277 163.852C68.1877 163.532 68.2677 163.212 68.2677 162.892C68.2677 162.396 68.0957 162.012 67.7517 161.74C67.4157 161.46 66.9317 161.32 66.2997 161.32C65.3157 161.32 64.5517 161.632 64.0077 162.256L63.3957 161.728C63.7237 161.344 64.1397 161.048 64.6437 160.84C65.1557 160.632 65.7317 160.528 66.3717 160.528C67.2277 160.528 67.9037 160.732 68.3997 161.14C68.9037 161.54 69.1557 162.092 69.1557 162.796C69.1557 163.228 69.0597 163.644 68.8677 164.044C68.6757 164.444 68.3117 164.904 67.7757 165.424L64.9197 168.232H69.5397ZM65.9275 194.528C67.0395 194.528 67.8915 194.896 68.4835 195.632C69.0755 196.36 69.3715 197.392 69.3715 198.728C69.3715 199.664 69.2115 200.456 68.8915 201.104C68.5715 201.752 68.1235 202.244 67.5475 202.58C66.9715 202.908 66.2995 203.072 65.5315 203.072C64.6995 203.072 64.0355 202.92 63.5395 202.616L63.8875 201.92C64.2875 202.184 64.8315 202.316 65.5195 202.316C66.4475 202.316 67.1755 202.024 67.7035 201.44C68.2315 200.848 68.4955 199.992 68.4955 198.872C68.4955 198.664 68.4835 198.436 68.4595 198.188C68.2515 198.644 67.9195 199 67.4635 199.256C67.0075 199.504 66.4835 199.628 65.8915 199.628C65.3395 199.628 64.8475 199.524 64.4155 199.316C63.9915 199.108 63.6595 198.816 63.4195 198.44C63.1795 198.056 63.0595 197.612 63.0595 197.108C63.0595 196.596 63.1835 196.144 63.4315 195.752C63.6795 195.36 64.0195 195.06 64.4515 194.852C64.8915 194.636 65.3835 194.528 65.9275 194.528ZM66.0235 198.896C66.4475 198.896 66.8195 198.816 67.1395 198.656C67.4675 198.496 67.7235 198.276 67.9075 197.996C68.0915 197.716 68.1835 197.404 68.1835 197.06C68.1835 196.74 68.0955 196.444 67.9195 196.172C67.7515 195.9 67.4995 195.68 67.1635 195.512C66.8275 195.344 66.4275 195.26 65.9635 195.26C65.3555 195.26 64.8595 195.428 64.4755 195.764C64.0995 196.092 63.9115 196.532 63.9115 197.084C63.9115 197.636 64.0995 198.076 64.4755 198.404C64.8595 198.732 65.3755 198.896 66.0235 198.896ZM62.7663 270.232V271H56.8743V270.388L60.3663 266.968C60.8063 266.536 61.1023 266.164 61.2543 265.852C61.4143 265.532 61.4943 265.212 61.4943 264.892C61.4943 264.396 61.3223 264.012 60.9783 263.74C60.6423 263.46 60.1583 263.32 59.5263 263.32C58.5423 263.32 57.7783 263.632 57.2343 264.256L56.6223 263.728C56.9503 263.344 57.3663 263.048 57.8703 262.84C58.3823 262.632 58.9583 262.528 59.5983 262.528C60.4543 262.528 61.1303 262.732 61.6263 263.14C62.1303 263.54 62.3823 264.092 62.3823 264.796C62.3823 265.228 62.2863 265.644 62.0943 266.044C61.9023 266.444 61.5383 266.904 61.0023 267.424L58.1463 270.232H62.7663ZM66.7066 266.2C67.5866 266.248 68.2546 266.488 68.7106 266.92C69.1746 267.344 69.4066 267.9 69.4066 268.588C69.4066 269.068 69.2906 269.496 69.0586 269.872C68.8266 270.24 68.4826 270.532 68.0266 270.748C67.5706 270.964 67.0146 271.072 66.3586 271.072C65.7506 271.072 65.1746 270.976 64.6306 270.784C64.0946 270.584 63.6626 270.32 63.3346 269.992L63.7546 269.308C64.0346 269.596 64.4066 269.832 64.8706 270.016C65.3346 270.192 65.8306 270.28 66.3586 270.28C67.0466 270.28 67.5786 270.132 67.9546 269.836C68.3306 269.532 68.5186 269.116 68.5186 268.588C68.5186 268.068 68.3306 267.66 67.9546 267.364C67.5786 267.068 67.0106 266.92 66.2506 266.92H65.6506V266.284L67.9786 263.368H63.6826V262.6H69.0826V263.212L66.7066 266.2ZM58.7613 300.2C59.6413 300.248 60.3093 300.488 60.7653 300.92C61.2293 301.344 61.4613 301.9 61.4613 302.588C61.4613 303.068 61.3453 303.496 61.1133 303.872C60.8813 304.24 60.5373 304.532 60.0813 304.748C59.6253 304.964 59.0693 305.072 58.4133 305.072C57.8053 305.072 57.2293 304.976 56.6853 304.784C56.1493 304.584 55.7173 304.32 55.3893 303.992L55.8093 303.308C56.0893 303.596 56.4613 303.832 56.9253 304.016C57.3893 304.192 57.8853 304.28 58.4133 304.28C59.1013 304.28 59.6333 304.132 60.0093 303.836C60.3853 303.532 60.5733 303.116 60.5733 302.588C60.5733 302.068 60.3853 301.66 60.0093 301.364C59.6333 301.068 59.0653 300.92 58.3053 300.92H57.7053V300.284L60.0333 297.368H55.7373V296.6H61.1373V297.212L58.7613 300.2ZM66.0267 305.072C65.3787 305.072 64.7987 304.9 64.2867 304.556C63.7827 304.212 63.3867 303.72 63.0987 303.08C62.8187 302.432 62.6787 301.672 62.6787 300.8C62.6787 299.928 62.8187 299.172 63.0987 298.532C63.3867 297.884 63.7827 297.388 64.2867 297.044C64.7987 296.7 65.3787 296.528 66.0267 296.528C66.6747 296.528 67.2507 296.7 67.7547 297.044C68.2667 297.388 68.6667 297.884 68.9547 298.532C69.2427 299.172 69.3867 299.928 69.3867 300.8C69.3867 301.672 69.2427 302.432 68.9547 303.08C68.6667 303.72 68.2667 304.212 67.7547 304.556C67.2507 304.9 66.6747 305.072 66.0267 305.072ZM66.0267 304.28C66.5147 304.28 66.9427 304.144 67.3107 303.872C67.6867 303.6 67.9787 303.204 68.1867 302.684C68.3947 302.164 68.4987 301.536 68.4987 300.8C68.4987 300.064 68.3947 299.436 68.1867 298.916C67.9787 298.396 67.6867 298 67.3107 297.728C66.9427 297.456 66.5147 297.32 66.0267 297.32C65.5387 297.32 65.1067 297.456 64.7307 297.728C64.3627 298 64.0747 298.396 63.8667 298.916C63.6587 299.436 63.5547 300.064 63.5547 300.8C63.5547 301.536 63.6587 302.164 63.8667 302.684C64.0747 303.204 64.3627 303.6 64.7307 303.872C65.1067 304.144 65.5387 304.28 66.0267 304.28Z" fill="#212121"/>
<path d="M61.3036 228.6V237H60.4396V229.368H58.4596V228.6H61.3036ZM66.7915 231.972C67.3435 231.972 67.8315 232.076 68.2555 232.284C68.6875 232.492 69.0235 232.788 69.2635 233.172C69.5035 233.548 69.6235 233.988 69.6235 234.492C69.6235 235.004 69.4995 235.456 69.2515 235.848C69.0035 236.24 68.6595 236.544 68.2195 236.76C67.7875 236.968 67.2995 237.072 66.7555 237.072C65.6435 237.072 64.7915 236.708 64.1995 235.98C63.6075 235.244 63.3115 234.208 63.3115 232.872C63.3115 231.936 63.4715 231.144 63.7915 230.496C64.1115 229.848 64.5595 229.36 65.1355 229.032C65.7115 228.696 66.3835 228.528 67.1515 228.528C67.9835 228.528 68.6475 228.68 69.1435 228.984L68.7955 229.68C68.3955 229.416 67.8515 229.284 67.1635 229.284C66.2355 229.284 65.5075 229.58 64.9795 230.172C64.4515 230.756 64.1875 231.608 64.1875 232.728C64.1875 232.928 64.1995 233.156 64.2235 233.412C64.4315 232.956 64.7635 232.604 65.2195 232.356C65.6755 232.1 66.1995 231.972 66.7915 231.972ZM66.7195 236.34C67.3275 236.34 67.8195 236.176 68.1955 235.848C68.5795 235.512 68.7715 235.068 68.7715 234.516C68.7715 233.964 68.5795 233.524 68.1955 233.196C67.8195 232.868 67.3075 232.704 66.6595 232.704C66.2355 232.704 65.8595 232.784 65.5315 232.944C65.2115 233.104 64.9595 233.324 64.7755 233.604C64.5915 233.884 64.4995 234.196 64.4995 234.54C64.4995 234.86 64.5835 235.156 64.7515 235.428C64.9275 235.7 65.1835 235.92 65.5195 236.088C65.8555 236.256 66.2555 236.34 66.7195 236.34Z" fill="white"/>
<path d="M103.52 134.232V135H97.6282V134.388L101.12 130.968C101.56 130.536 101.856 130.164 102.008 129.852C102.168 129.532 102.248 129.212 102.248 128.892C102.248 128.396 102.076 128.012 101.732 127.74C101.396 127.46 100.912 127.32 100.28 127.32C99.2962 127.32 98.5322 127.632 97.9882 128.256L97.3762 127.728C97.7042 127.344 98.1202 127.048 98.6242 126.84C99.1362 126.632 99.7122 126.528 100.352 126.528C101.208 126.528 101.884 126.732 102.38 127.14C102.884 127.54 103.136 128.092 103.136 128.796C103.136 129.228 103.04 129.644 102.848 130.044C102.656 130.444 102.292 130.904 101.756 131.424L98.9002 134.232H103.52ZM110.486 126.6V127.212L106.97 135H106.034L109.49 127.368H105.17V128.94H104.318V126.6H110.486ZM109.616 296.6V305H108.752V297.368H106.772V296.6H109.616Z" fill="#D8D8D8"/>
<path d="M107.707 164.2C108.587 164.248 109.255 164.488 109.711 164.92C110.175 165.344 110.407 165.9 110.407 166.588C110.407 167.068 110.291 167.496 110.059 167.872C109.827 168.24 109.483 168.532 109.027 168.748C108.571 168.964 108.015 169.072 107.359 169.072C106.751 169.072 106.175 168.976 105.631 168.784C105.095 168.584 104.663 168.32 104.335 167.992L104.755 167.308C105.035 167.596 105.407 167.832 105.871 168.016C106.335 168.192 106.831 168.28 107.359 168.28C108.047 168.28 108.579 168.132 108.955 167.836C109.331 167.532 109.519 167.116 109.519 166.588C109.519 166.068 109.331 165.66 108.955 165.364C108.579 165.068 108.011 164.92 107.251 164.92H106.651V164.284L108.979 161.368H104.683V160.6H110.083V161.212L107.707 164.2ZM101.671 194.6V203H100.807V195.368H98.8268V194.6H101.671ZM107.027 203.072C106.379 203.072 105.799 202.9 105.287 202.556C104.783 202.212 104.387 201.72 104.099 201.08C103.819 200.432 103.679 199.672 103.679 198.8C103.679 197.928 103.819 197.172 104.099 196.532C104.387 195.884 104.783 195.388 105.287 195.044C105.799 194.7 106.379 194.528 107.027 194.528C107.675 194.528 108.251 194.7 108.755 195.044C109.267 195.388 109.667 195.884 109.955 196.532C110.243 197.172 110.387 197.928 110.387 198.8C110.387 199.672 110.243 200.432 109.955 201.08C109.667 201.72 109.267 202.212 108.755 202.556C108.251 202.9 107.675 203.072 107.027 203.072ZM107.027 202.28C107.515 202.28 107.943 202.144 108.311 201.872C108.687 201.6 108.979 201.204 109.187 200.684C109.395 200.164 109.499 199.536 109.499 198.8C109.499 198.064 109.395 197.436 109.187 196.916C108.979 196.396 108.687 196 108.311 195.728C107.943 195.456 107.515 195.32 107.027 195.32C106.539 195.32 106.107 195.456 105.731 195.728C105.363 196 105.075 196.396 104.867 196.916C104.659 197.436 104.555 198.064 104.555 198.8C104.555 199.536 104.659 200.164 104.867 200.684C105.075 201.204 105.363 201.6 105.731 201.872C106.107 202.144 106.539 202.28 107.027 202.28ZM102.887 270.232V271H96.9953V270.388L100.487 266.968C100.927 266.536 101.223 266.164 101.375 265.852C101.535 265.532 101.615 265.212 101.615 264.892C101.615 264.396 101.443 264.012 101.099 263.74C100.763 263.46 100.279 263.32 99.6473 263.32C98.6633 263.32 97.8993 263.632 97.3553 264.256L96.7433 263.728C97.0713 263.344 97.4873 263.048 97.9913 262.84C98.5033 262.632 99.0793 262.528 99.7193 262.528C100.575 262.528 101.251 262.732 101.747 263.14C102.251 263.54 102.503 264.092 102.503 264.796C102.503 265.228 102.407 265.644 102.215 266.044C102.023 266.444 101.659 266.904 101.123 267.424L98.2673 270.232H102.887ZM110.83 268.792H109.15V271H108.286V268.792H103.546V268.168L107.998 262.6H108.958L104.662 268.024H108.31V266.08H109.15V268.024H110.83V268.792Z" fill="#212121"/>
<path d="M102.55 228.6V237H101.686V229.368H99.7057V228.6H102.55ZM110.486 228.6V229.212L106.97 237H106.034L109.49 229.368H105.17V230.94H104.318V228.6H110.486Z" fill="white"/>
<path d="M144.887 134.232V135H138.995V134.388L142.487 130.968C142.927 130.536 143.223 130.164 143.375 129.852C143.535 129.532 143.615 129.212 143.615 128.892C143.615 128.396 143.443 128.012 143.099 127.74C142.763 127.46 142.279 127.32 141.647 127.32C140.663 127.32 139.899 127.632 139.355 128.256L138.743 127.728C139.071 127.344 139.487 127.048 139.991 126.84C140.503 126.632 141.079 126.528 141.719 126.528C142.575 126.528 143.251 126.732 143.747 127.14C144.251 127.54 144.503 128.092 144.503 128.796C144.503 129.228 144.407 129.644 144.215 130.044C144.023 130.444 143.659 130.904 143.123 131.424L140.267 134.232H144.887ZM150.784 130.596C151.312 130.772 151.716 131.036 151.996 131.388C152.284 131.74 152.428 132.164 152.428 132.66C152.428 133.148 152.296 133.576 152.032 133.944C151.768 134.304 151.388 134.584 150.892 134.784C150.404 134.976 149.828 135.072 149.164 135.072C148.156 135.072 147.364 134.856 146.788 134.424C146.212 133.992 145.924 133.404 145.924 132.66C145.924 132.156 146.06 131.732 146.332 131.388C146.612 131.036 147.016 130.772 147.544 130.596C147.112 130.428 146.784 130.188 146.56 129.876C146.336 129.556 146.224 129.18 146.224 128.748C146.224 128.068 146.488 127.528 147.016 127.128C147.552 126.728 148.268 126.528 149.164 126.528C149.756 126.528 150.272 126.62 150.712 126.804C151.16 126.98 151.508 127.236 151.756 127.572C152.004 127.908 152.128 128.3 152.128 128.748C152.128 129.18 152.012 129.556 151.78 129.876C151.548 130.188 151.216 130.428 150.784 130.596ZM147.088 128.772C147.088 129.236 147.272 129.604 147.64 129.876C148.008 130.148 148.516 130.284 149.164 130.284C149.812 130.284 150.32 130.148 150.688 129.876C151.064 129.604 151.252 129.24 151.252 128.784C151.252 128.312 151.06 127.94 150.676 127.668C150.3 127.396 149.796 127.26 149.164 127.26C148.524 127.26 148.016 127.396 147.64 127.668C147.272 127.94 147.088 128.308 147.088 128.772ZM149.164 134.34C149.908 134.34 150.488 134.188 150.904 133.884C151.328 133.58 151.54 133.168 151.54 132.648C151.54 132.128 151.328 131.72 150.904 131.424C150.488 131.12 149.908 130.968 149.164 130.968C148.428 130.968 147.848 131.12 147.424 131.424C147.008 131.72 146.8 132.128 146.8 132.648C146.8 133.176 147.008 133.592 147.424 133.896C147.84 134.192 148.42 134.34 149.164 134.34ZM152.54 304.232V305H146.648V304.388L150.14 300.968C150.58 300.536 150.876 300.164 151.028 299.852C151.188 299.532 151.268 299.212 151.268 298.892C151.268 298.396 151.096 298.012 150.752 297.74C150.416 297.46 149.932 297.32 149.3 297.32C148.316 297.32 147.552 297.632 147.008 298.256L146.396 297.728C146.724 297.344 147.14 297.048 147.644 296.84C148.156 296.632 148.732 296.528 149.372 296.528C150.228 296.528 150.904 296.732 151.4 297.14C151.904 297.54 152.156 298.092 152.156 298.796C152.156 299.228 152.06 299.644 151.868 300.044C151.676 300.444 151.312 300.904 150.776 301.424L147.92 304.232H152.54Z" fill="#D8D8D8"/>
<path d="M152.83 166.792H151.15V169H150.286V166.792H145.546V166.168L149.998 160.6H150.958L146.662 166.024H150.31V164.08H151.15V166.024H152.83V166.792ZM147.28 194.6V203H146.416V195.368H144.436V194.6H147.28ZM151.616 194.6V203H150.752V195.368H148.772V194.6H151.616ZM145.743 270.232V271H139.851V270.388L143.343 266.968C143.783 266.536 144.079 266.164 144.231 265.852C144.391 265.532 144.471 265.212 144.471 264.892C144.471 264.396 144.299 264.012 143.955 263.74C143.619 263.46 143.135 263.32 142.503 263.32C141.519 263.32 140.755 263.632 140.211 264.256L139.599 263.728C139.927 263.344 140.343 263.048 140.847 262.84C141.359 262.632 141.935 262.528 142.575 262.528C143.431 262.528 144.107 262.732 144.603 263.14C145.107 263.54 145.359 264.092 145.359 264.796C145.359 265.228 145.263 265.644 145.071 266.044C144.879 266.444 144.515 266.904 143.979 267.424L141.123 270.232H145.743ZM149.035 266.044C150.251 266.044 151.135 266.264 151.687 266.704C152.247 267.136 152.527 267.744 152.527 268.528C152.527 269.016 152.411 269.452 152.179 269.836C151.955 270.22 151.615 270.524 151.159 270.748C150.703 270.964 150.143 271.072 149.479 271.072C148.879 271.072 148.307 270.976 147.763 270.784C147.227 270.584 146.795 270.32 146.467 269.992L146.887 269.308C147.167 269.596 147.535 269.832 147.991 270.016C148.447 270.192 148.939 270.28 149.467 270.28C150.163 270.28 150.699 270.124 151.075 269.812C151.459 269.5 151.651 269.084 151.651 268.564C151.651 267.988 151.435 267.552 151.003 267.256C150.579 266.96 149.859 266.812 148.843 266.812H147.055L147.487 262.6H152.083V263.368H148.243L147.955 266.044H149.035Z" fill="#212121"/>
<path d="M143.964 228.6V237H143.1V229.368H141.12V228.6H143.964ZM150.784 232.596C151.312 232.772 151.716 233.036 151.996 233.388C152.284 233.74 152.428 234.164 152.428 234.66C152.428 235.148 152.296 235.576 152.032 235.944C151.768 236.304 151.388 236.584 150.892 236.784C150.404 236.976 149.828 237.072 149.164 237.072C148.156 237.072 147.364 236.856 146.788 236.424C146.212 235.992 145.924 235.404 145.924 234.66C145.924 234.156 146.06 233.732 146.332 233.388C146.612 233.036 147.016 232.772 147.544 232.596C147.112 232.428 146.784 232.188 146.56 231.876C146.336 231.556 146.224 231.18 146.224 230.748C146.224 230.068 146.488 229.528 147.016 229.128C147.552 228.728 148.268 228.528 149.164 228.528C149.756 228.528 150.272 228.62 150.712 228.804C151.16 228.98 151.508 229.236 151.756 229.572C152.004 229.908 152.128 230.3 152.128 230.748C152.128 231.18 152.012 231.556 151.78 231.876C151.548 232.188 151.216 232.428 150.784 232.596ZM147.088 230.772C147.088 231.236 147.272 231.604 147.64 231.876C148.008 232.148 148.516 232.284 149.164 232.284C149.812 232.284 150.32 232.148 150.688 231.876C151.064 231.604 151.252 231.24 151.252 230.784C151.252 230.312 151.06 229.94 150.676 229.668C150.3 229.396 149.796 229.26 149.164 229.26C148.524 229.26 148.016 229.396 147.64 229.668C147.272 229.94 147.088 230.308 147.088 230.772ZM149.164 236.34C149.908 236.34 150.488 236.188 150.904 235.884C151.328 235.58 151.54 235.168 151.54 234.648C151.54 234.128 151.328 233.72 150.904 233.424C150.488 233.12 149.908 232.968 149.164 232.968C148.428 232.968 147.848 233.12 147.424 233.424C147.008 233.72 146.8 234.128 146.8 234.648C146.8 235.176 147.008 235.592 147.424 235.896C147.84 236.192 148.42 236.34 149.164 236.34Z" fill="white"/>
<path d="M187.227 134.232V135H181.335V134.388L184.827 130.968C185.267 130.536 185.563 130.164 185.715 129.852C185.875 129.532 185.955 129.212 185.955 128.892C185.955 128.396 185.783 128.012 185.439 127.74C185.103 127.46 184.619 127.32 183.987 127.32C183.003 127.32 182.239 127.632 181.695 128.256L181.083 127.728C181.411 127.344 181.827 127.048 182.331 126.84C182.843 126.632 183.419 126.528 184.059 126.528C184.915 126.528 185.591 126.732 186.087 127.14C186.591 127.54 186.843 128.092 186.843 128.796C186.843 129.228 186.747 129.644 186.555 130.044C186.363 130.444 185.999 130.904 185.463 131.424L182.607 134.232H187.227ZM190.928 126.528C192.04 126.528 192.892 126.896 193.484 127.632C194.076 128.36 194.372 129.392 194.372 130.728C194.372 131.664 194.212 132.456 193.892 133.104C193.572 133.752 193.124 134.244 192.548 134.58C191.972 134.908 191.3 135.072 190.532 135.072C189.7 135.072 189.036 134.92 188.54 134.616L188.888 133.92C189.288 134.184 189.832 134.316 190.52 134.316C191.448 134.316 192.176 134.024 192.704 133.44C193.232 132.848 193.496 131.992 193.496 130.872C193.496 130.664 193.484 130.436 193.46 130.188C193.252 130.644 192.92 131 192.464 131.256C192.008 131.504 191.484 131.628 190.892 131.628C190.34 131.628 189.848 131.524 189.416 131.316C188.992 131.108 188.66 130.816 188.42 130.44C188.18 130.056 188.06 129.612 188.06 129.108C188.06 128.596 188.184 128.144 188.432 127.752C188.68 127.36 189.02 127.06 189.451 126.852C189.892 126.636 190.384 126.528 190.928 126.528ZM191.024 130.896C191.448 130.896 191.82 130.816 192.14 130.656C192.468 130.496 192.724 130.276 192.908 129.996C193.092 129.716 193.184 129.404 193.184 129.06C193.184 128.74 193.096 128.444 192.92 128.172C192.752 127.9 192.5 127.68 192.164 127.512C191.828 127.344 191.428 127.26 190.964 127.26C190.356 127.26 189.86 127.428 189.476 127.764C189.1 128.092 188.912 128.532 188.912 129.084C188.912 129.636 189.1 130.076 189.476 130.404C189.86 130.732 190.376 130.896 191.024 130.896ZM191.707 300.2C192.587 300.248 193.255 300.488 193.711 300.92C194.175 301.344 194.407 301.9 194.407 302.588C194.407 303.068 194.291 303.496 194.059 303.872C193.827 304.24 193.483 304.532 193.027 304.748C192.571 304.964 192.015 305.072 191.359 305.072C190.751 305.072 190.175 304.976 189.631 304.784C189.095 304.584 188.663 304.32 188.335 303.992L188.755 303.308C189.035 303.596 189.407 303.832 189.871 304.016C190.335 304.192 190.831 304.28 191.359 304.28C192.047 304.28 192.579 304.132 192.955 303.836C193.331 303.532 193.519 303.116 193.519 302.588C193.519 302.068 193.331 301.66 192.955 301.364C192.579 301.068 192.011 300.92 191.251 300.92H190.651V300.284L192.979 297.368H188.683V296.6H194.083V297.212L191.707 300.2Z" fill="#D8D8D8"/>
<path d="M191.035 164.044C192.251 164.044 193.135 164.264 193.687 164.704C194.247 165.136 194.527 165.744 194.527 166.528C194.527 167.016 194.411 167.452 194.179 167.836C193.955 168.22 193.615 168.524 193.159 168.748C192.703 168.964 192.143 169.072 191.479 169.072C190.879 169.072 190.307 168.976 189.763 168.784C189.227 168.584 188.795 168.32 188.467 167.992L188.887 167.308C189.167 167.596 189.535 167.832 189.991 168.016C190.447 168.192 190.939 168.28 191.467 168.28C192.163 168.28 192.699 168.124 193.075 167.812C193.459 167.5 193.651 167.084 193.651 166.564C193.651 165.988 193.435 165.552 193.003 165.256C192.579 164.96 191.859 164.812 190.843 164.812H189.055L189.487 160.6H194.083V161.368H190.243L189.955 164.044H191.035ZM186.796 194.6V203H185.932V195.368H183.952V194.6H186.796ZM194.54 202.232V203H188.648V202.388L192.14 198.968C192.58 198.536 192.876 198.164 193.028 197.852C193.188 197.532 193.268 197.212 193.268 196.892C193.268 196.396 193.096 196.012 192.752 195.74C192.416 195.46 191.932 195.32 191.3 195.32C190.316 195.32 189.552 195.632 189.008 196.256L188.396 195.728C188.724 195.344 189.14 195.048 189.644 194.84C190.156 194.632 190.732 194.528 191.372 194.528C192.228 194.528 192.904 194.732 193.4 195.14C193.904 195.54 194.156 196.092 194.156 196.796C194.156 197.228 194.06 197.644 193.868 198.044C193.676 198.444 193.312 198.904 192.776 199.424L189.92 202.232H194.54ZM186.304 228.6V237H185.44V229.368H183.46V228.6H186.304ZM190.928 228.528C192.04 228.528 192.892 228.896 193.484 229.632C194.076 230.36 194.372 231.392 194.372 232.728C194.372 233.664 194.212 234.456 193.892 235.104C193.572 235.752 193.124 236.244 192.548 236.58C191.972 236.908 191.3 237.072 190.532 237.072C189.7 237.072 189.036 236.92 188.54 236.616L188.888 235.92C189.288 236.184 189.832 236.316 190.52 236.316C191.448 236.316 192.176 236.024 192.704 235.44C193.232 234.848 193.496 233.992 193.496 232.872C193.496 232.664 193.484 232.436 193.46 232.188C193.252 232.644 192.92 233 192.464 233.256C192.008 233.504 191.484 233.628 190.892 233.628C190.34 233.628 189.848 233.524 189.416 233.316C188.992 233.108 188.66 232.816 188.42 232.44C188.18 232.056 188.06 231.612 188.06 231.108C188.06 230.596 188.184 230.144 188.432 229.752C188.68 229.36 189.02 229.06 189.451 228.852C189.892 228.636 190.384 228.528 190.928 228.528ZM191.024 232.896C191.448 232.896 191.82 232.816 192.14 232.656C192.468 232.496 192.724 232.276 192.908 231.996C193.092 231.716 193.184 231.404 193.184 231.06C193.184 230.74 193.096 230.444 192.92 230.172C192.752 229.9 192.5 229.68 192.164 229.512C191.828 229.344 191.428 229.26 190.964 229.26C190.356 229.26 189.86 229.428 189.476 229.764C189.1 230.092 188.912 230.532 188.912 231.084C188.912 231.636 189.1 232.076 189.476 232.404C189.86 232.732 190.376 232.896 191.024 232.896ZM187.274 270.232V271H181.382V270.388L184.874 266.968C185.314 266.536 185.61 266.164 185.762 265.852C185.922 265.532 186.002 265.212 186.002 264.892C186.002 264.396 185.83 264.012 185.486 263.74C185.15 263.46 184.666 263.32 184.034 263.32C183.05 263.32 182.286 263.632 181.742 264.256L181.13 263.728C181.458 263.344 181.874 263.048 182.378 262.84C182.89 262.632 183.466 262.528 184.106 262.528C184.962 262.528 185.638 262.732 186.134 263.14C186.638 263.54 186.89 264.092 186.89 264.796C186.89 265.228 186.794 265.644 186.602 266.044C186.41 266.444 186.046 266.904 185.51 267.424L182.654 270.232H187.274ZM191.792 265.972C192.344 265.972 192.832 266.076 193.256 266.284C193.688 266.492 194.024 266.788 194.264 267.172C194.504 267.548 194.624 267.988 194.624 268.492C194.624 269.004 194.5 269.456 194.252 269.848C194.004 270.24 193.66 270.544 193.22 270.76C192.788 270.968 192.3 271.072 191.756 271.072C190.644 271.072 189.792 270.708 189.2 269.98C188.608 269.244 188.312 268.208 188.312 266.872C188.312 265.936 188.472 265.144 188.792 264.496C189.112 263.848 189.56 263.36 190.136 263.032C190.712 262.696 191.384 262.528 192.152 262.528C192.984 262.528 193.648 262.68 194.144 262.984L193.796 263.68C193.396 263.416 192.852 263.284 192.164 263.284C191.236 263.284 190.508 263.58 189.98 264.172C189.452 264.756 189.188 265.608 189.188 266.728C189.188 266.928 189.2 267.156 189.224 267.412C189.432 266.956 189.764 266.604 190.22 266.356C190.676 266.1 191.2 265.972 191.792 265.972ZM191.72 270.34C192.328 270.34 192.82 270.176 193.196 269.848C193.58 269.512 193.772 269.068 193.772 268.516C193.772 267.964 193.58 267.524 193.196 267.196C192.82 266.868 192.308 266.704 191.66 266.704C191.236 266.704 190.86 266.784 190.532 266.944C190.212 267.104 189.96 267.324 189.776 267.604C189.592 267.884 189.5 268.196 189.5 268.54C189.5 268.86 189.584 269.156 189.752 269.428C189.928 269.7 190.184 269.92 190.52 270.088C190.856 270.256 191.256 270.34 191.72 270.34Z" fill="#212121"/>
<path d="M225.761 130.2C226.641 130.248 227.309 130.488 227.765 130.92C228.229 131.344 228.461 131.9 228.461 132.588C228.461 133.068 228.345 133.496 228.113 133.872C227.881 134.24 227.537 134.532 227.081 134.748C226.625 134.964 226.069 135.072 225.413 135.072C224.805 135.072 224.229 134.976 223.685 134.784C223.149 134.584 222.717 134.32 222.389 133.992L222.809 133.308C223.089 133.596 223.461 133.832 223.925 134.016C224.389 134.192 224.885 134.28 225.413 134.28C226.101 134.28 226.633 134.132 227.009 133.836C227.385 133.532 227.573 133.116 227.573 132.588C227.573 132.068 227.385 131.66 227.009 131.364C226.633 131.068 226.065 130.92 225.305 130.92H224.705V130.284L227.033 127.368H222.737V126.6H228.137V127.212L225.761 130.2ZM233.027 135.072C232.379 135.072 231.799 134.9 231.287 134.556C230.783 134.212 230.387 133.72 230.099 133.08C229.819 132.432 229.679 131.672 229.679 130.8C229.679 129.928 229.819 129.172 230.099 128.532C230.387 127.884 230.783 127.388 231.287 127.044C231.799 126.7 232.379 126.528 233.027 126.528C233.675 126.528 234.251 126.7 234.755 127.044C235.267 127.388 235.667 127.884 235.955 128.532C236.243 129.172 236.387 129.928 236.387 130.8C236.387 131.672 236.243 132.432 235.955 133.08C235.667 133.72 235.267 134.212 234.755 134.556C234.251 134.9 233.675 135.072 233.027 135.072ZM233.027 134.28C233.515 134.28 233.943 134.144 234.311 133.872C234.687 133.6 234.979 133.204 235.187 132.684C235.395 132.164 235.499 131.536 235.499 130.8C235.499 130.064 235.395 129.436 235.187 128.916C234.979 128.396 234.687 128 234.311 127.728C233.943 127.456 233.515 127.32 233.027 127.32C232.539 127.32 232.107 127.456 231.731 127.728C231.363 128 231.075 128.396 230.867 128.916C230.659 129.436 230.555 130.064 230.555 130.8C230.555 131.536 230.659 132.164 230.867 132.684C231.075 133.204 231.363 133.6 231.731 133.872C232.107 134.144 232.539 134.28 233.027 134.28ZM236.83 302.792H235.15V305H234.286V302.792H229.546V302.168L233.998 296.6H234.958L230.662 302.024H234.31V300.08H235.15V302.024H236.83V302.792Z" fill="#D8D8D8"/>
<path d="M233.792 163.972C234.344 163.972 234.832 164.076 235.256 164.284C235.688 164.492 236.024 164.788 236.264 165.172C236.504 165.548 236.624 165.988 236.624 166.492C236.624 167.004 236.5 167.456 236.252 167.848C236.004 168.24 235.66 168.544 235.22 168.76C234.788 168.968 234.3 169.072 233.756 169.072C232.644 169.072 231.792 168.708 231.2 167.98C230.608 167.244 230.312 166.208 230.312 164.872C230.312 163.936 230.472 163.144 230.792 162.496C231.112 161.848 231.56 161.36 232.136 161.032C232.712 160.696 233.384 160.528 234.152 160.528C234.984 160.528 235.648 160.68 236.144 160.984L235.796 161.68C235.396 161.416 234.852 161.284 234.164 161.284C233.236 161.284 232.508 161.58 231.98 162.172C231.452 162.756 231.188 163.608 231.188 164.728C231.188 164.928 231.2 165.156 231.224 165.412C231.432 164.956 231.764 164.604 232.22 164.356C232.676 164.1 233.2 163.972 233.792 163.972ZM233.72 168.34C234.328 168.34 234.82 168.176 235.196 167.848C235.58 167.512 235.772 167.068 235.772 166.516C235.772 165.964 235.58 165.524 235.196 165.196C234.82 164.868 234.308 164.704 233.66 164.704C233.236 164.704 232.86 164.784 232.532 164.944C232.212 165.104 231.96 165.324 231.776 165.604C231.592 165.884 231.5 166.196 231.5 166.54C231.5 166.86 231.584 167.156 231.752 167.428C231.928 167.7 232.184 167.92 232.52 168.088C232.856 168.256 233.256 168.34 233.72 168.34ZM228.843 194.6V203H227.979V195.368H225.999V194.6H228.843ZM233.707 198.2C234.587 198.248 235.255 198.488 235.711 198.92C236.175 199.344 236.407 199.9 236.407 200.588C236.407 201.068 236.291 201.496 236.059 201.872C235.827 202.24 235.483 202.532 235.027 202.748C234.571 202.964 234.015 203.072 233.359 203.072C232.751 203.072 232.175 202.976 231.631 202.784C231.095 202.584 230.663 202.32 230.335 201.992L230.755 201.308C231.035 201.596 231.407 201.832 231.871 202.016C232.335 202.192 232.831 202.28 233.359 202.28C234.047 202.28 234.579 202.132 234.955 201.836C235.331 201.532 235.519 201.116 235.519 200.588C235.519 200.068 235.331 199.66 234.955 199.364C234.579 199.068 234.011 198.92 233.251 198.92H232.651V198.284L234.979 195.368H230.683V194.6H236.083V195.212L233.707 198.2ZM228.641 236.232V237H222.749V236.388L226.241 232.968C226.681 232.536 226.977 232.164 227.129 231.852C227.289 231.532 227.369 231.212 227.369 230.892C227.369 230.396 227.197 230.012 226.853 229.74C226.517 229.46 226.033 229.32 225.401 229.32C224.417 229.32 223.653 229.632 223.109 230.256L222.497 229.728C222.825 229.344 223.241 229.048 223.745 228.84C224.257 228.632 224.833 228.528 225.473 228.528C226.329 228.528 227.005 228.732 227.501 229.14C228.005 229.54 228.257 230.092 228.257 230.796C228.257 231.228 228.161 231.644 227.969 232.044C227.777 232.444 227.413 232.904 226.877 233.424L224.021 236.232H228.641ZM233.027 237.072C232.379 237.072 231.799 236.9 231.287 236.556C230.783 236.212 230.387 235.72 230.099 235.08C229.819 234.432 229.679 233.672 229.679 232.8C229.679 231.928 229.819 231.172 230.099 230.532C230.387 229.884 230.783 229.388 231.287 229.044C231.799 228.7 232.379 228.528 233.027 228.528C233.675 228.528 234.251 228.7 234.755 229.044C235.267 229.388 235.667 229.884 235.955 230.532C236.243 231.172 236.387 231.928 236.387 232.8C236.387 233.672 236.243 234.432 235.955 235.08C235.667 235.72 235.267 236.212 234.755 236.556C234.251 236.9 233.675 237.072 233.027 237.072ZM233.027 236.28C233.515 236.28 233.943 236.144 234.311 235.872C234.687 235.6 234.979 235.204 235.187 234.684C235.395 234.164 235.499 233.536 235.499 232.8C235.499 232.064 235.395 231.436 235.187 230.916C234.979 230.396 234.687 230 234.311 229.728C233.943 229.456 233.515 229.32 233.027 229.32C232.539 229.32 232.107 229.456 231.731 229.728C231.363 230 231.075 230.396 230.867 230.916C230.659 231.436 230.555 232.064 230.555 232.8C230.555 233.536 230.659 234.164 230.867 234.684C231.075 235.204 231.363 235.6 231.731 235.872C232.107 236.144 232.539 236.28 233.027 236.28ZM229.52 270.232V271H223.628V270.388L227.12 266.968C227.56 266.536 227.856 266.164 228.008 265.852C228.168 265.532 228.248 265.212 228.248 264.892C228.248 264.396 228.076 264.012 227.732 263.74C227.396 263.46 226.912 263.32 226.28 263.32C225.296 263.32 224.532 263.632 223.988 264.256L223.376 263.728C223.704 263.344 224.12 263.048 224.624 262.84C225.136 262.632 225.712 262.528 226.352 262.528C227.208 262.528 227.884 262.732 228.38 263.14C228.884 263.54 229.136 264.092 229.136 264.796C229.136 265.228 229.04 265.644 228.848 266.044C228.656 266.444 228.292 266.904 227.756 267.424L224.9 270.232H229.52ZM236.486 262.6V263.212L232.97 271H232.034L235.49 263.368H231.17V264.94H230.318V262.6H236.486Z" fill="#212121"/>
<path d="M271.371 130.2C272.251 130.248 272.919 130.488 273.375 130.92C273.839 131.344 274.071 131.9 274.071 132.588C274.071 133.068 273.955 133.496 273.723 133.872C273.491 134.24 273.147 134.532 272.691 134.748C272.235 134.964 271.679 135.072 271.023 135.072C270.415 135.072 269.839 134.976 269.295 134.784C268.759 134.584 268.327 134.32 267.999 133.992L268.419 133.308C268.699 133.596 269.071 133.832 269.535 134.016C269.999 134.192 270.495 134.28 271.023 134.28C271.711 134.28 272.243 134.132 272.619 133.836C272.995 133.532 273.183 133.116 273.183 132.588C273.183 132.068 272.995 131.66 272.619 131.364C272.243 131.068 271.675 130.92 270.915 130.92H270.315V130.284L272.643 127.368H268.347V126.6H273.747V127.212L271.371 130.2ZM277.616 126.6V135H276.752V127.368H274.772V126.6H277.616ZM275.035 300.044C276.251 300.044 277.135 300.264 277.687 300.704C278.247 301.136 278.527 301.744 278.527 302.528C278.527 303.016 278.411 303.452 278.179 303.836C277.955 304.22 277.615 304.524 277.159 304.748C276.703 304.964 276.143 305.072 275.479 305.072C274.879 305.072 274.307 304.976 273.763 304.784C273.227 304.584 272.795 304.32 272.467 303.992L272.887 303.308C273.167 303.596 273.535 303.832 273.991 304.016C274.447 304.192 274.939 304.28 275.467 304.28C276.163 304.28 276.699 304.124 277.075 303.812C277.459 303.5 277.651 303.084 277.651 302.564C277.651 301.988 277.435 301.552 277.003 301.256C276.579 300.96 275.859 300.812 274.843 300.812H273.055L273.487 296.6H278.083V297.368H274.243L273.955 300.044H275.035Z" fill="#D8D8D8"/>
<path d="M278.486 160.6V161.212L274.97 169H274.034L277.49 161.368H273.17V162.94H272.318V160.6H278.486ZM269.682 194.6V203H268.818V195.368H266.838V194.6H269.682ZM278.83 200.792H277.15V203H276.286V200.792H271.546V200.168L275.998 194.6H276.958L272.662 200.024H276.31V198.08H277.15V200.024H278.83V200.792ZM274.204 236.232V237H268.312V236.388L271.804 232.968C272.244 232.536 272.54 232.164 272.692 231.852C272.852 231.532 272.932 231.212 272.932 230.892C272.932 230.396 272.76 230.012 272.416 229.74C272.08 229.46 271.596 229.32 270.964 229.32C269.98 229.32 269.216 229.632 268.672 230.256L268.06 229.728C268.388 229.344 268.804 229.048 269.308 228.84C269.82 228.632 270.396 228.528 271.036 228.528C271.892 228.528 272.568 228.732 273.064 229.14C273.568 229.54 273.82 230.092 273.82 230.796C273.82 231.228 273.724 231.644 273.532 232.044C273.34 232.444 272.976 232.904 272.44 233.424L269.584 236.232H274.204ZM277.616 228.6V237H276.752V229.368H274.772V228.6H277.616ZM270.887 270.232V271H264.995V270.388L268.487 266.968C268.927 266.536 269.223 266.164 269.375 265.852C269.535 265.532 269.615 265.212 269.615 264.892C269.615 264.396 269.443 264.012 269.099 263.74C268.763 263.46 268.279 263.32 267.647 263.32C266.663 263.32 265.899 263.632 265.355 264.256L264.743 263.728C265.071 263.344 265.487 263.048 265.991 262.84C266.503 262.632 267.079 262.528 267.719 262.528C268.575 262.528 269.251 262.732 269.747 263.14C270.251 263.54 270.503 264.092 270.503 264.796C270.503 265.228 270.407 265.644 270.215 266.044C270.023 266.444 269.659 266.904 269.123 267.424L266.267 270.232H270.887ZM276.784 266.596C277.312 266.772 277.716 267.036 277.996 267.388C278.284 267.74 278.428 268.164 278.428 268.66C278.428 269.148 278.296 269.576 278.032 269.944C277.768 270.304 277.388 270.584 276.892 270.784C276.404 270.976 275.828 271.072 275.164 271.072C274.156 271.072 273.364 270.856 272.788 270.424C272.212 269.992 271.924 269.404 271.924 268.66C271.924 268.156 272.06 267.732 272.332 267.388C272.612 267.036 273.016 266.772 273.544 266.596C273.112 266.428 272.784 266.188 272.56 265.876C272.336 265.556 272.224 265.18 272.224 264.748C272.224 264.068 272.488 263.528 273.016 263.128C273.552 262.728 274.268 262.528 275.164 262.528C275.756 262.528 276.272 262.62 276.712 262.804C277.16 262.98 277.508 263.236 277.756 263.572C278.004 263.908 278.128 264.3 278.128 264.748C278.128 265.18 278.012 265.556 277.78 265.876C277.548 266.188 277.216 266.428 276.784 266.596ZM273.088 264.772C273.088 265.236 273.272 265.604 273.64 265.876C274.008 266.148 274.516 266.284 275.164 266.284C275.812 266.284 276.32 266.148 276.688 265.876C277.064 265.604 277.252 265.24 277.252 264.784C277.252 264.312 277.06 263.94 276.676 263.668C276.3 263.396 275.796 263.26 275.164 263.26C274.524 263.26 274.016 263.396 273.64 263.668C273.272 263.94 273.088 264.308 273.088 264.772ZM275.164 270.34C275.908 270.34 276.488 270.188 276.904 269.884C277.328 269.58 277.54 269.168 277.54 268.648C277.54 268.128 277.328 267.72 276.904 267.424C276.488 267.12 275.908 266.968 275.164 266.968C274.428 266.968 273.848 267.12 273.424 267.424C273.008 267.72 272.8 268.128 272.8 268.648C272.8 269.176 273.008 269.592 273.424 269.896C273.84 270.192 274.42 270.34 275.164 270.34Z" fill="#212121"/>
<path d="M319.616 126.6V135H318.752V127.368H316.772V126.6H319.616ZM318.784 164.596C319.312 164.772 319.716 165.036 319.996 165.388C320.284 165.74 320.428 166.164 320.428 166.66C320.428 167.148 320.296 167.576 320.032 167.944C319.768 168.304 319.388 168.584 318.892 168.784C318.404 168.976 317.828 169.072 317.164 169.072C316.156 169.072 315.364 168.856 314.788 168.424C314.212 167.992 313.924 167.404 313.924 166.66C313.924 166.156 314.06 165.732 314.332 165.388C314.612 165.036 315.016 164.772 315.544 164.596C315.112 164.428 314.784 164.188 314.56 163.876C314.336 163.556 314.224 163.18 314.224 162.748C314.224 162.068 314.488 161.528 315.016 161.128C315.552 160.728 316.268 160.528 317.164 160.528C317.756 160.528 318.272 160.62 318.712 160.804C319.16 160.98 319.508 161.236 319.756 161.572C320.004 161.908 320.128 162.3 320.128 162.748C320.128 163.18 320.012 163.556 319.78 163.876C319.548 164.188 319.216 164.428 318.784 164.596ZM315.088 162.772C315.088 163.236 315.272 163.604 315.64 163.876C316.008 164.148 316.516 164.284 317.164 164.284C317.812 164.284 318.32 164.148 318.688 163.876C319.064 163.604 319.252 163.24 319.252 162.784C319.252 162.312 319.06 161.94 318.676 161.668C318.3 161.396 317.796 161.26 317.164 161.26C316.524 161.26 316.016 161.396 315.64 161.668C315.272 161.94 315.088 162.308 315.088 162.772ZM317.164 168.34C317.908 168.34 318.488 168.188 318.904 167.884C319.328 167.58 319.54 167.168 319.54 166.648C319.54 166.128 319.328 165.72 318.904 165.424C318.488 165.12 317.908 164.968 317.164 164.968C316.428 164.968 315.848 165.12 315.424 165.424C315.008 165.72 314.8 166.128 314.8 166.648C314.8 167.176 315.008 167.592 315.424 167.896C315.84 168.192 316.42 168.34 317.164 168.34ZM312.819 194.6V203H311.955V195.368H309.975V194.6H312.819ZM317.035 198.044C318.251 198.044 319.135 198.264 319.687 198.704C320.247 199.136 320.527 199.744 320.527 200.528C320.527 201.016 320.411 201.452 320.179 201.836C319.955 202.22 319.615 202.524 319.159 202.748C318.703 202.964 318.143 203.072 317.479 203.072C316.879 203.072 316.307 202.976 315.763 202.784C315.227 202.584 314.795 202.32 314.467 201.992L314.887 201.308C315.167 201.596 315.535 201.832 315.991 202.016C316.447 202.192 316.939 202.28 317.467 202.28C318.163 202.28 318.699 202.124 319.075 201.812C319.459 201.5 319.651 201.084 319.651 200.564C319.651 199.988 319.435 199.552 319.003 199.256C318.579 198.96 317.859 198.812 316.843 198.812H315.055L315.487 194.6H320.083V195.368H316.243L315.955 198.044H317.035ZM313.719 236.232V237H307.827V236.388L311.319 232.968C311.759 232.536 312.055 232.164 312.207 231.852C312.367 231.532 312.447 231.212 312.447 230.892C312.447 230.396 312.275 230.012 311.931 229.74C311.595 229.46 311.111 229.32 310.479 229.32C309.495 229.32 308.731 229.632 308.187 230.256L307.575 229.728C307.903 229.344 308.319 229.048 308.823 228.84C309.335 228.632 309.911 228.528 310.551 228.528C311.407 228.528 312.083 228.732 312.579 229.14C313.083 229.54 313.335 230.092 313.335 230.796C313.335 231.228 313.239 231.644 313.047 232.044C312.855 232.444 312.491 232.904 311.955 233.424L309.099 236.232H313.719ZM320.54 236.232V237H314.648V236.388L318.14 232.968C318.58 232.536 318.876 232.164 319.028 231.852C319.188 231.532 319.268 231.212 319.268 230.892C319.268 230.396 319.096 230.012 318.752 229.74C318.416 229.46 317.932 229.32 317.3 229.32C316.316 229.32 315.552 229.632 315.008 230.256L314.396 229.728C314.724 229.344 315.14 229.048 315.644 228.84C316.156 228.632 316.732 228.528 317.372 228.528C318.228 228.528 318.904 228.732 319.4 229.14C319.904 229.54 320.156 230.092 320.156 230.796C320.156 231.228 320.06 231.644 319.868 232.044C319.676 232.444 319.312 232.904 318.776 233.424L315.92 236.232H320.54ZM313.227 270.232V271H307.335V270.388L310.827 266.968C311.267 266.536 311.563 266.164 311.715 265.852C311.875 265.532 311.955 265.212 311.955 264.892C311.955 264.396 311.783 264.012 311.439 263.74C311.103 263.46 310.619 263.32 309.987 263.32C309.003 263.32 308.239 263.632 307.695 264.256L307.083 263.728C307.411 263.344 307.827 263.048 308.331 262.84C308.843 262.632 309.419 262.528 310.059 262.528C310.915 262.528 311.591 262.732 312.087 263.14C312.591 263.54 312.843 264.092 312.843 264.796C312.843 265.228 312.747 265.644 312.555 266.044C312.363 266.444 311.999 266.904 311.463 267.424L308.607 270.232H313.227ZM316.928 262.528C318.04 262.528 318.892 262.896 319.484 263.632C320.076 264.36 320.372 265.392 320.372 266.728C320.372 267.664 320.212 268.456 319.892 269.104C319.572 269.752 319.124 270.244 318.548 270.58C317.972 270.908 317.3 271.072 316.532 271.072C315.7 271.072 315.036 270.92 314.54 270.616L314.888 269.92C315.288 270.184 315.832 270.316 316.52 270.316C317.448 270.316 318.176 270.024 318.704 269.44C319.232 268.848 319.496 267.992 319.496 266.872C319.496 266.664 319.484 266.436 319.46 266.188C319.252 266.644 318.92 267 318.464 267.256C318.008 267.504 317.484 267.628 316.892 267.628C316.34 267.628 315.848 267.524 315.416 267.316C314.992 267.108 314.66 266.816 314.42 266.44C314.18 266.056 314.06 265.612 314.06 265.108C314.06 264.596 314.184 264.144 314.432 263.752C314.68 263.36 315.02 263.06 315.451 262.852C315.892 262.636 316.384 262.528 316.928 262.528ZM317.024 266.896C317.448 266.896 317.82 266.816 318.14 266.656C318.468 266.496 318.724 266.276 318.908 265.996C319.092 265.716 319.184 265.404 319.184 265.06C319.184 264.74 319.096 264.444 318.92 264.172C318.752 263.9 318.5 263.68 318.164 263.512C317.828 263.344 317.428 263.26 316.964 263.26C316.356 263.26 315.86 263.428 315.476 263.764C315.1 264.092 314.912 264.532 314.912 265.084C314.912 265.636 315.1 266.076 315.476 266.404C315.86 266.732 316.376 266.896 317.024 266.896Z" fill="#212121"/>
<path d="M317.792 299.972C318.344 299.972 318.832 300.076 319.256 300.284C319.688 300.492 320.024 300.788 320.264 301.172C320.504 301.548 320.624 301.988 320.624 302.492C320.624 303.004 320.5 303.456 320.252 303.848C320.004 304.24 319.66 304.544 319.22 304.76C318.788 304.968 318.3 305.072 317.756 305.072C316.644 305.072 315.792 304.708 315.2 303.98C314.608 303.244 314.312 302.208 314.312 300.872C314.312 299.936 314.472 299.144 314.792 298.496C315.112 297.848 315.56 297.36 316.136 297.032C316.712 296.696 317.384 296.528 318.152 296.528C318.984 296.528 319.648 296.68 320.144 296.984L319.796 297.68C319.396 297.416 318.852 297.284 318.164 297.284C317.236 297.284 316.508 297.58 315.98 298.172C315.452 298.756 315.188 299.608 315.188 300.728C315.188 300.928 315.2 301.156 315.224 301.412C315.432 300.956 315.764 300.604 316.22 300.356C316.676 300.1 317.2 299.972 317.792 299.972ZM317.72 304.34C318.328 304.34 318.82 304.176 319.196 303.848C319.58 303.512 319.772 303.068 319.772 302.516C319.772 301.964 319.58 301.524 319.196 301.196C318.82 300.868 318.308 300.704 317.66 300.704C317.236 300.704 316.86 300.784 316.532 300.944C316.212 301.104 315.96 301.324 315.776 301.604C315.592 301.884 315.5 302.196 315.5 302.54C315.5 302.86 315.584 303.156 315.752 303.428C315.928 303.7 316.184 303.92 316.52 304.088C316.856 304.256 317.256 304.34 317.72 304.34Z" fill="#D8D8D8"/>
<path d="M102.86 95.35C103.286 95.4767 103.613 95.6833 103.84 95.97C104.066 96.2567 104.18 96.61 104.18 97.03C104.18 97.65 103.943 98.1333 103.47 98.48C103.003 98.8267 102.333 99 101.46 99H98.0096V92H101.27C102.083 92 102.716 92.1567 103.17 92.47C103.623 92.7833 103.85 93.23 103.85 93.81C103.85 94.1567 103.763 94.4633 103.59 94.73C103.416 94.99 103.173 95.1967 102.86 95.35ZM99.6196 94.9H101.13C101.483 94.9 101.75 94.83 101.93 94.69C102.11 94.5433 102.2 94.33 102.2 94.05C102.2 93.7767 102.106 93.5667 101.92 93.42C101.74 93.2733 101.476 93.2 101.13 93.2H99.6196V94.9ZM101.4 97.8C102.16 97.8 102.54 97.5 102.54 96.9C102.54 96.32 102.16 96.03 101.4 96.03H99.6196V97.8H101.4ZM110.713 93.32H108.473V99H106.873V93.32H104.643V92H110.713V93.32Z" fill="#3E3E3E"/>
<path d="M142.434 99.12C141.721 99.12 141.074 98.9667 140.494 98.66C139.921 98.3467 139.467 97.9167 139.134 97.37C138.807 96.8167 138.644 96.1933 138.644 95.5C138.644 94.8067 138.807 94.1867 139.134 93.64C139.467 93.0867 139.921 92.6567 140.494 92.35C141.074 92.0367 141.724 91.88 142.444 91.88C143.051 91.88 143.597 91.9867 144.084 92.2C144.577 92.4133 144.991 92.72 145.324 93.12L144.284 94.08C143.811 93.5333 143.224 93.26 142.524 93.26C142.091 93.26 141.704 93.3567 141.364 93.55C141.024 93.7367 140.757 94 140.564 94.34C140.377 94.68 140.284 95.0667 140.284 95.5C140.284 95.9333 140.377 96.32 140.564 96.66C140.757 97 141.024 97.2667 141.364 97.46C141.704 97.6467 142.091 97.74 142.524 97.74C143.224 97.74 143.811 97.4633 144.284 96.91L145.324 97.87C144.991 98.2767 144.577 98.5867 144.084 98.8C143.591 99.0133 143.041 99.12 142.434 99.12ZM149.41 92C150.03 92 150.566 92.1033 151.02 92.31C151.48 92.5167 151.833 92.81 152.08 93.19C152.326 93.57 152.45 94.02 152.45 94.54C152.45 95.0533 152.326 95.5033 152.08 95.89C151.833 96.27 151.48 96.5633 151.02 96.77C150.566 96.97 150.03 97.07 149.41 97.07H148V99H146.38V92H149.41ZM149.32 95.75C149.806 95.75 150.176 95.6467 150.43 95.44C150.683 95.2267 150.81 94.9267 150.81 94.54C150.81 94.1467 150.683 93.8467 150.43 93.64C150.176 93.4267 149.806 93.32 149.32 93.32H148V95.75H149.32Z" fill="#3E3E3E"/>
<path d="M187.691 92V99H186.091V96.48C185.485 96.7 184.921 96.81 184.401 96.81C183.461 96.81 182.741 96.5867 182.241 96.14C181.741 95.6867 181.491 95.0367 181.491 94.19V92H183.091V94.01C183.091 94.49 183.218 94.8533 183.471 95.1C183.731 95.34 184.105 95.46 184.591 95.46C185.125 95.46 185.625 95.3567 186.091 95.15V92H187.691ZM194.782 93.32H192.542V99H190.942V93.32H188.712V92H194.782V93.32Z" fill="#3E3E3E"/>
<path d="M229.509 92V99H227.899V93.32H224.739V99H223.129V92H229.509ZM236.594 93.32H234.354V99H232.754V93.32H230.524V92H236.594V93.32Z" fill="#3E3E3E"/>
<path d="M268.361 99.12C267.647 99.12 267.001 98.9667 266.421 98.66C265.847 98.3467 265.394 97.9167 265.061 97.37C264.734 96.8167 264.571 96.1933 264.571 95.5C264.571 94.8067 264.734 94.1867 265.061 93.64C265.394 93.0867 265.847 92.6567 266.421 92.35C267.001 92.0367 267.651 91.88 268.371 91.88C268.977 91.88 269.524 91.9867 270.011 92.2C270.504 92.4133 270.917 92.72 271.251 93.12L270.211 94.08C269.737 93.5333 269.151 93.26 268.451 93.26C268.017 93.26 267.631 93.3567 267.291 93.55C266.951 93.7367 266.684 94 266.491 94.34C266.304 94.68 266.211 95.0667 266.211 95.5C266.211 95.9333 266.304 96.32 266.491 96.66C266.684 97 266.951 97.2667 267.291 97.46C267.631 97.6467 268.017 97.74 268.451 97.74C269.151 97.74 269.737 97.4633 270.211 96.91L271.251 97.87C270.917 98.2767 270.504 98.5867 270.011 98.8C269.517 99.0133 268.967 99.12 268.361 99.12ZM272.307 92H277.957V93.29H273.917V94.73H275.857C276.703 94.73 277.347 94.9067 277.787 95.26C278.233 95.6133 278.457 96.1233 278.457 96.79C278.457 97.49 278.21 98.0333 277.717 98.42C277.223 98.8067 276.527 99 275.627 99H272.307V92ZM275.537 97.8C275.95 97.8 276.267 97.72 276.487 97.56C276.707 97.3933 276.817 97.1533 276.817 96.84C276.817 96.2267 276.39 95.92 275.537 95.92H273.917V97.8H275.537Z" fill="#2C78F6"/>
<path d="M311.866 95.35C312.293 95.4767 312.62 95.6833 312.846 95.97C313.073 96.2567 313.186 96.61 313.186 97.03C313.186 97.65 312.95 98.1333 312.476 98.48C312.01 98.8267 311.34 99 310.466 99H307.016V92H310.276C311.09 92 311.723 92.1567 312.176 92.47C312.63 92.7833 312.856 93.23 312.856 93.81C312.856 94.1567 312.77 94.4633 312.596 94.73C312.423 94.99 312.18 95.1967 311.866 95.35ZM308.626 94.9H310.136C310.49 94.9 310.756 94.83 310.936 94.69C311.116 94.5433 311.206 94.33 311.206 94.05C311.206 93.7767 311.113 93.5667 310.926 93.42C310.746 93.2733 310.483 93.2 310.136 93.2H308.626V94.9ZM310.406 97.8C311.166 97.8 311.546 97.5 311.546 96.9C311.546 96.32 311.166 96.03 310.406 96.03H308.626V97.8H310.406ZM317.778 99.12C317.064 99.12 316.418 98.9667 315.838 98.66C315.264 98.3467 314.811 97.9167 314.478 97.37C314.151 96.8167 313.988 96.1933 313.988 95.5C313.988 94.8067 314.151 94.1867 314.478 93.64C314.811 93.0867 315.264 92.6567 315.838 92.35C316.418 92.0367 317.068 91.88 317.788 91.88C318.394 91.88 318.941 91.9867 319.428 92.2C319.921 92.4133 320.334 92.72 320.668 93.12L319.628 94.08C319.154 93.5333 318.568 93.26 317.868 93.26C317.434 93.26 317.048 93.3567 316.708 93.55C316.368 93.7367 316.101 94 315.908 94.34C315.721 94.68 315.628 95.0667 315.628 95.5C315.628 95.9333 315.721 96.32 315.908 96.66C316.101 97 316.368 97.2667 316.708 97.46C317.048 97.6467 317.434 97.74 317.868 97.74C318.568 97.74 319.154 97.4633 319.628 96.91L320.668 97.87C320.334 98.2767 319.921 98.5867 319.428 98.8C318.934 99.0133 318.384 99.12 317.778 99.12Z" fill="#2C78F6"/>
<circle cx="306" cy="52" r="15.5" stroke="#C8C8C8"/>
<g clip-path="url(#clip0)">
<path d="M309.893 51.9956L305.486 47.5879C305.384 47.4859 305.248 47.4297 305.103 47.4297C304.957 47.4297 304.821 47.4859 304.719 47.5879L304.395 47.9124C304.184 48.1239 304.184 48.4676 304.395 48.6787L308.096 52.38L304.391 56.0854C304.289 56.1874 304.232 56.3234 304.232 56.4685C304.232 56.6137 304.289 56.7497 304.391 56.8518L304.715 57.1762C304.817 57.2782 304.953 57.3344 305.098 57.3344C305.244 57.3344 305.38 57.2782 305.482 57.1762L309.893 52.7645C309.996 52.6622 310.052 52.5255 310.051 52.3803C310.052 52.2344 309.996 52.0979 309.893 51.9956Z" fill="#C8C8C8"/>
</g>
<circle cx="67" cy="52" r="15.5" transform="rotate(-180 67 52)" stroke="#C8C8C8"/>
<g clip-path="url(#clip1)">
<path d="M63.1066 52.0044L67.5144 56.4121C67.6163 56.5141 67.7524 56.5703 67.8975 56.5703C68.0426 56.5703 68.1787 56.5141 68.2806 56.4121L68.6052 56.0876C68.8165 55.8761 68.8165 55.5324 68.6052 55.3213L64.9039 51.62L68.6093 47.9146C68.7113 47.8126 68.7676 47.6766 68.7676 47.5315C68.7676 47.3863 68.7113 47.2503 68.6093 47.1482L68.2847 46.8238C68.1827 46.7218 68.0467 46.6656 67.9016 46.6656C67.7565 46.6656 67.6204 46.7218 67.5185 46.8238L63.1066 51.2355C63.0044 51.3378 62.9483 51.4745 62.9486 51.6197C62.9483 51.7656 63.0044 51.9021 63.1066 52.0044Z" fill="#C8C8C8"/>
</g>
<circle cx="104.5" cy="210.5" r="2.5" fill="#2C78F6"/>
<circle cx="148.5" cy="177.5" r="2.5" fill="#FF9D42"/>
<circle cx="235.5" cy="279.5" r="2.5" fill="#2C78F6" stroke="white" stroke-width="0.5"/>
<circle cx="274.5" cy="210.5" r="2.75" fill="#2BC3A8" stroke="white" stroke-width="0.5"/>
<circle cx="316.5" cy="210.5" r="2.5" fill="#FF64DD"/>
<circle cx="232.5" cy="279.5" r="2.5" fill="#84D3FF" stroke="white" stroke-width="0.5"/>
<circle cx="229.5" cy="279.5" r="2.5" fill="#5A6B8B" stroke="white" stroke-width="0.5"/>
<circle cx="226.5" cy="279.5" r="2.5" fill="#FF64DD" stroke="white" stroke-width="0.5"/>
<circle cx="223.5" cy="279.5" r="2.5" fill="#FF9D42" stroke="white" stroke-width="0.5"/>
<circle cx="271.5" cy="210.5" r="2.75" fill="#2C78F6" stroke="white" stroke-width="0.5"/>
<defs>
<filter id="filter0_d" x="0" y="0" width="376" height="360" filterUnits="userSpaceOnUse" color-interpolation-filters="sRGB">
<feFlood flood-opacity="0" result="BackgroundImageFix"/>
<feColorMatrix in="SourceAlpha" type="matrix" values="0 0 0 0 0 0 0 0 0 0 0 0 0 0 0 0 0 0 127 0"/>
<feOffset dy="4"/>
<feGaussianBlur stdDeviation="12"/>
<feColorMatrix type="matrix" values="0 0 0 0 0 0 0 0 0 0 0 0 0 0 0 0 0 0 0.08 0"/>
<feBlend mode="normal" in2="BackgroundImageFix" result="effect1_dropShadow"/>
<feBlend mode="normal" in="SourceGraphic" in2="effect1_dropShadow" result="shape"/>
</filter>
<clipPath id="clip0">
<rect width="9.90476" height="9.90476" fill="white" transform="translate(302.191 47.4297)"/>
</clipPath>
<clipPath id="clip1">
<rect width="9.90476" height="9.90476" fill="white" transform="translate(70.8086 56.5703) rotate(-180)"/>
</clipPath>
</defs>
</svg>
