<svg width="59" height="59" fill="none" xmlns="http://www.w3.org/2000/svg"><g filter="url(#filter0_d)"><circle cx="27.5" cy="27.5" r="22.5" fill="#fff"/></g><path fill-rule="evenodd" clip-rule="evenodd" d="M16.069 37.544c-.911-3.086-4.025-13.718-.235-17.604 3.512-3.603 7.285-1.143 8.343-.343 1.057.8 2.585 1.772 3.642 1.715 1.057-.058.118.914.118.914-.705.029-2.023-.014-4.465-1.828-2.473-1.838-5.006-1.73-6.815.342-1.856 2.126-2.199 8.477.586 16.233.295.828-.381 1.515-1.174.571z" fill="#CC2C2A"/><path fill-rule="evenodd" clip-rule="evenodd" d="M39.262 37.544c.912-3.092 4.029-13.74.236-17.633-3.517-3.609-7.293-1.145-8.351-.344-1.059.802-2.588 1.775-3.647 1.718-1.058-.057-.117.916-.117.916.706.029 2.024-.014 4.469-1.832 2.475-1.84 5.012-1.733 6.822.343 1.858 2.13 2.2 8.491-.588 16.259-.294.83.382 1.517 1.176.573z" fill="#CC2C2A"/><path fill-rule="evenodd" clip-rule="evenodd" d="M19.514 37.584c-.638-2.046-2.82-9.094-.165-11.67 2.462-2.39 5.106-.759 5.847-.228.741.53 1.812 1.174 2.553 1.136.741-.037.082.607.082.607-.494.018-1.417-.01-3.129-1.213-1.733-1.218-3.508-1.147-4.776.227-1.3 1.41-1.54 5.62.412 10.762.206.55-.268 1.005-.824.38z" fill="#4456A1"/><path fill-rule="evenodd" clip-rule="evenodd" d="M35.768 37.584c.64-2.05 2.824-9.11.165-11.69-2.464-2.393-5.11-.76-5.852-.228-.742.53-1.813 1.177-2.555 1.139-.742-.038-.083.607-.083.607.495.018 1.42-.01 3.132-1.215 1.735-1.22 3.512-1.148 4.782.228 1.302 1.412 1.541 5.629-.413 10.779-.206.55.268 1.006.824.38zM20.416 32.57c-.485-3.484 1.163-7.242 4.23-4.801-1.373-.243-3.945-.473-4.23 4.8z" fill="#4456A1"/><defs><filter id="filter0_d" x="0" y="0" width="59" height="59" filterUnits="userSpaceOnUse" color-interpolation-filters="sRGB"><feFlood flood-opacity="0" result="BackgroundImageFix"/><feColorMatrix in="SourceAlpha" values="0 0 0 0 0 0 0 0 0 0 0 0 0 0 0 0 0 0 127 0"/><feOffset dx="2" dy="2"/><feGaussianBlur stdDeviation="3.5"/><feColorMatrix values="0 0 0 0 0 0 0 0 0 0 0 0 0 0 0 0 0 0 0.06 0"/><feBlend in2="BackgroundImageFix" result="effect1_dropShadow"/><feBlend in="SourceGraphic" in2="effect1_dropShadow" result="shape"/></filter></defs></svg>