<svg width="23" height="19" fill="none" xmlns="http://www.w3.org/2000/svg"><path d="M11.5 3.695l-8.203 6.762c0 .01-.002.024-.007.043a.194.194 0 00-.007.043v6.847c0 .247.09.462.271.642a.88.88 0 00.642.272h5.478v-5.479h3.652v5.479h5.478c.248 0 .462-.09.642-.272a.877.877 0 00.272-.642v-6.847a.2.2 0 00-.015-.086L11.5 3.695z" fill="#FDFDFD"/><path d="M22.841 8.916L19.717 6.32V.5a.444.444 0 00-.127-.33.443.443 0 00-.328-.128h-2.74a.445.445 0 00-.328.128.445.445 0 00-.128.328V3.28L12.586.37A1.664 1.664 0 0011.5 0c-.418 0-.78.124-1.084.37L.16 8.917a.414.414 0 00-.157.307c-.01.128.023.24.1.335l.884 1.056a.487.487 0 00.3.157.53.53 0 00.342-.1L11.5 2.44l9.872 8.231a.44.44 0 00.3.1h.043a.487.487 0 00.3-.157l.884-1.056a.462.462 0 00.1-.335.416.416 0 00-.158-.307z" fill="#FDFDFD"/></svg>