<svg width="35" height="35" fill="none" xmlns="http://www.w3.org/2000/svg"><path d="M4.84 2.5h25.135A2.499 2.499 0 0132.473 5v25a2.5 2.5 0 01-2.498 2.5H4.84A2.499 2.499 0 012.342 30V5A2.5 2.5 0 014.84 2.5z" fill="#000" fill-opacity=".01" stroke="#CF446F"/><path d="M20.86 10h-6.72A4.144 4.144 0 0010 14.14v6.72A4.144 4.144 0 0014.14 25h6.72A4.144 4.144 0 0025 20.86v-6.72A4.144 4.144 0 0020.86 10zm2.81 10.86a2.812 2.812 0 01-2.81 2.809h-6.72a2.811 2.811 0 01-2.81-2.809v-6.72a2.812 2.812 0 012.81-2.81h6.72a2.812 2.812 0 012.809 2.81v6.72z" fill="#CF446F"/><path d="M17.5 13.635a3.87 3.87 0 00-3.865 3.865 3.87 3.87 0 003.865 3.865 3.87 3.87 0 003.865-3.865 3.87 3.87 0 00-3.865-3.865zm0 6.4a2.537 2.537 0 01-2.534-2.535 2.537 2.537 0 012.534-2.534 2.537 2.537 0 012.534 2.534 2.537 2.537 0 01-2.534 2.534zm4.027-7.528a.98.98 0 00-.976.976c0 .256.105.508.287.69a.983.983 0 00.69.286.986.986 0 00.69-.286.98.98 0 000-1.38.98.98 0 00-.69-.287z" fill="#CF446F"/></svg>