<svg width="23" height="23" fill="none" xmlns="http://www.w3.org/2000/svg"><path d="M11.733.85h0C5.85.85 1.082 5.618 1.082 11.5c0 5.882 4.768 10.65 10.65 10.65 5.881 0 10.65-4.768 10.65-10.65v0C22.375 5.62 17.611.857 11.732.85zm4.246 5.275h0a24.96 24.96 0 00-3.747-.353V1.889c1.795.258 3.39 1.9 4.353 4.341l-.606-.105zm-8.493 0l-.607.105c.964-2.443 2.559-4.085 4.353-4.343v3.885a24.957 24.957 0 00-3.746.353h0zm0 10.75h0c1.238.212 2.49.33 3.746.355v3.883c-1.794-.258-3.39-1.9-4.353-4.342l.607.104zm8.493 0l.607-.105c-.964 2.443-2.559 4.085-4.354 4.343V17.23a25.032 25.032 0 003.747-.355h0zM21.367 12a9.587 9.587 0 01-.662 3.045l-2.673.461c.295-1.146.46-2.322.491-3.506h2.844zM2.76 15.045c-.385-.972-.608-2-.661-3.045H4.94c.032 1.184.197 2.36.492 3.506l-2.674-.461zM2.098 11a9.585 9.585 0 01.661-3.045l2.674-.461A15.82 15.82 0 004.94 11H2.098zm15.426 0h-5.292V6.772a23.927 23.927 0 013.577.338l1.143.197c.345 1.202.537 2.443.572 3.693zM7.656 7.11s0 0 0 0a23.923 23.923 0 013.576-.338V11h-5.29c.034-1.25.226-2.49.57-3.693l1.144-.197zM5.941 12h5.291v4.228a23.913 23.913 0 01-3.576-.338l-1.143-.197A14.874 14.874 0 015.94 12zm9.868 3.89a23.909 23.909 0 01-3.577.338V12h5.292a14.873 14.873 0 01-.572 3.693l-1.143.197zM21.367 11h-2.844a15.823 15.823 0 00-.49-3.506l2.672.461c.386.972.61 2 .662 3.045zm-3.654-4.576a9.802 9.802 0 00-2.277-3.831 9.697 9.697 0 014.747 4.257l-2.47-.426zm-11.961 0l-2.47.426a9.697 9.697 0 014.747-4.257 9.802 9.802 0 00-2.277 3.831zm0 10.152a9.801 9.801 0 002.277 3.831 9.696 9.696 0 01-4.747-4.257l2.47.426zm9.684 3.831a9.802 9.802 0 002.277-3.831l2.47-.426a9.696 9.696 0 01-4.747 4.257z" fill="#fff" stroke="#fff" stroke-width=".3"/></svg>