<svg width="136" height="136" viewBox="0 0 136 136" fill="none" xmlns="http://www.w3.org/2000/svg">
<rect width="136" height="136" rx="20" fill="#F7FAFF"/>
<path d="M23.66 95.35C24.08 95.4833 24.4067 95.7 24.64 96C24.88 96.2933 25 96.64 25 97.04C25 97.46 24.8633 97.8267 24.59 98.14C24.3167 98.4467 23.95 98.6833 23.49 98.85C23.0367 99.0167 22.54 99.1 22 99.1C21.5333 99.1 21.0633 99.0367 20.59 98.91C20.1233 98.7767 19.69 98.58 19.29 98.32L19.71 97.37C20.0167 97.5767 20.3567 97.7367 20.73 97.85C21.1033 97.9567 21.4733 98.01 21.84 98.01C22.3667 98.01 22.8033 97.9067 23.15 97.7C23.5033 97.4933 23.68 97.21 23.68 96.85C23.68 96.5433 23.5533 96.31 23.3 96.15C23.0467 95.99 22.6967 95.91 22.25 95.91H20.62V94.89H22.15C22.5367 94.89 22.84 94.81 23.06 94.65C23.28 94.49 23.39 94.2733 23.39 94C23.39 93.6733 23.24 93.42 22.94 93.24C22.6467 93.06 22.27 92.97 21.81 92.97C21.4967 92.97 21.1733 93.0167 20.84 93.11C20.5067 93.1967 20.1933 93.3267 19.9 93.5L19.49 92.45C19.85 92.2567 20.23 92.1133 20.63 92.02C21.0367 91.92 21.44 91.87 21.84 91.87C22.36 91.87 22.8367 91.95 23.27 92.11C23.71 92.27 24.06 92.5 24.32 92.8C24.58 93.0933 24.71 93.44 24.71 93.84C24.71 94.1867 24.6167 94.49 24.43 94.75C24.2433 95.01 23.9867 95.21 23.66 95.35ZM31.1141 97.38H27.6141L26.9241 99H25.5841L28.7341 92H30.0141L33.1741 99H31.8141L31.1141 97.38ZM30.6841 96.36L29.3641 93.3L28.0541 96.36H30.6841ZM38.9976 93.1H35.5276L35.5376 99H34.2576V92H39.0076L38.9976 93.1ZM42.9772 92C43.5839 92 44.1105 92.1 44.5572 92.3C45.0105 92.5 45.3572 92.7867 45.5972 93.16C45.8372 93.5333 45.9572 93.9767 45.9572 94.49C45.9572 94.9967 45.8372 95.44 45.5972 95.82C45.3572 96.1933 45.0105 96.48 44.5572 96.68C44.1105 96.88 43.5839 96.98 42.9772 96.98H41.3972V99H40.0972V92H42.9772ZM42.9172 95.88C43.4839 95.88 43.9139 95.76 44.2072 95.52C44.5005 95.28 44.6472 94.9367 44.6472 94.49C44.6472 94.0433 44.5005 93.7 44.2072 93.46C43.9139 93.22 43.4839 93.1 42.9172 93.1H41.3972V95.88H42.9172ZM53.0408 92L50.0008 97.65C49.7341 98.15 49.4141 98.5267 49.0408 98.78C48.6741 99.0267 48.2741 99.15 47.8408 99.15C47.4941 99.15 47.1508 99.0767 46.8108 98.93L47.1308 97.91C47.4041 97.9967 47.6308 98.04 47.8108 98.04C48.2308 98.04 48.5774 97.8233 48.8508 97.39L48.9608 97.22L46.1708 92H47.5608L49.6308 96.11L51.7608 92H53.0408ZM57.6932 95.35C58.1132 95.4833 58.4399 95.7 58.6732 96C58.9132 96.2933 59.0332 96.64 59.0332 97.04C59.0332 97.46 58.8965 97.8267 58.6232 98.14C58.3499 98.4467 57.9832 98.6833 57.5232 98.85C57.0699 99.0167 56.5732 99.1 56.0332 99.1C55.5665 99.1 55.0965 99.0367 54.6232 98.91C54.1565 98.7767 53.7232 98.58 53.3232 98.32L53.7432 97.37C54.0499 97.5767 54.3899 97.7367 54.7632 97.85C55.1365 97.9567 55.5065 98.01 55.8732 98.01C56.3999 98.01 56.8365 97.9067 57.1832 97.7C57.5365 97.4933 57.7132 97.21 57.7132 96.85C57.7132 96.5433 57.5865 96.31 57.3332 96.15C57.0799 95.99 56.7299 95.91 56.2832 95.91H54.6532V94.89H56.1832C56.5699 94.89 56.8732 94.81 57.0932 94.65C57.3132 94.49 57.4232 94.2733 57.4232 94C57.4232 93.6733 57.2732 93.42 56.9732 93.24C56.6799 93.06 56.3032 92.97 55.8432 92.97C55.5299 92.97 55.2065 93.0167 54.8732 93.11C54.5399 93.1967 54.2265 93.3267 53.9332 93.5L53.5232 92.45C53.8832 92.2567 54.2632 92.1133 54.6632 92.02C55.0699 91.92 55.4732 91.87 55.8732 91.87C56.3932 91.87 56.8699 91.95 57.3032 92.11C57.7432 92.27 58.0932 92.5 58.3532 92.8C58.6132 93.0933 58.7432 93.44 58.7432 93.84C58.7432 94.1867 58.6499 94.49 58.4632 94.75C58.2765 95.01 58.0199 95.21 57.6932 95.35ZM60.5173 92H61.7973V96.97L65.5573 92H66.7673V99H65.4873V94.04L61.7273 99H60.5173V92ZM73.81 93.1H71.49V99H70.2V93.1H67.89V92H73.81V93.1ZM78.1612 94.37C79.0012 94.37 79.6445 94.56 80.0912 94.94C80.5445 95.3133 80.7712 95.87 80.7712 96.61C80.7712 97.3833 80.5245 97.9767 80.0312 98.39C79.5378 98.7967 78.8445 99 77.9512 99H74.9412V92H76.2212V94.37H78.1612ZM77.8912 98C78.3978 98 78.7878 97.8833 79.0612 97.65C79.3345 97.4167 79.4712 97.0767 79.4712 96.63C79.4712 95.7833 78.9445 95.36 77.8912 95.36H76.2212V98H77.8912ZM92.8628 95.49C92.8628 96.41 92.5428 97.1367 91.9028 97.67C91.2628 98.2033 90.3528 98.4933 89.1728 98.54V99.28H87.9728V98.54C86.7928 98.48 85.8795 98.1867 85.2328 97.66C84.5928 97.1333 84.2728 96.41 84.2728 95.49C84.2728 94.57 84.5928 93.8467 85.2328 93.32C85.8795 92.7867 86.7928 92.49 87.9728 92.43V91.72H89.1728V92.43C90.3528 92.49 91.2628 92.7867 91.9028 93.32C92.5428 93.8467 92.8628 94.57 92.8628 95.49ZM89.1728 97.52C89.9728 97.46 90.5795 97.26 90.9928 96.92C91.4061 96.5733 91.6128 96.0933 91.6128 95.48C91.6128 94.8667 91.4028 94.39 90.9828 94.05C90.5695 93.71 89.9661 93.5133 89.1728 93.46V97.52ZM85.5428 95.49C85.5428 96.0967 85.7495 96.57 86.1628 96.91C86.5828 97.25 87.1861 97.4533 87.9728 97.52V93.46C86.3528 93.58 85.5428 94.2567 85.5428 95.49ZM97.468 99.1C96.7547 99.1 96.1114 98.9467 95.538 98.64C94.9647 98.3267 94.5147 97.8967 94.188 97.35C93.8614 96.7967 93.698 96.18 93.698 95.5C93.698 94.82 93.8614 94.2067 94.188 93.66C94.5147 93.1067 94.9647 92.6767 95.538 92.37C96.1114 92.0567 96.7547 91.9 97.468 91.9C98.1814 91.9 98.8247 92.0567 99.398 92.37C99.9714 92.6767 100.421 93.1033 100.748 93.65C101.075 94.1967 101.238 94.8133 101.238 95.5C101.238 96.1867 101.075 96.8033 100.748 97.35C100.421 97.8967 99.9714 98.3267 99.398 98.64C98.8247 98.9467 98.1814 99.1 97.468 99.1ZM97.468 97.96C97.9347 97.96 98.3547 97.8567 98.728 97.65C99.1014 97.4367 99.3947 97.1433 99.608 96.77C99.8214 96.39 99.928 95.9667 99.928 95.5C99.928 95.0333 99.8214 94.6133 99.608 94.24C99.3947 93.86 99.1014 93.5667 98.728 93.36C98.3547 93.1467 97.9347 93.04 97.468 93.04C97.0014 93.04 96.5814 93.1467 96.208 93.36C95.8347 93.5667 95.5414 93.86 95.328 94.24C95.1147 94.6133 95.008 95.0333 95.008 95.5C95.008 95.9667 95.1147 96.39 95.328 96.77C95.5414 97.1433 95.8347 97.4367 96.208 97.65C96.5814 97.8567 97.0014 97.96 97.468 97.96ZM107.658 93.1H105.338V99H104.048V93.1H101.738V92H107.658V93.1ZM111.921 99.1C111.208 99.1 110.565 98.9467 109.991 98.64C109.418 98.3267 108.968 97.8967 108.641 97.35C108.315 96.7967 108.151 96.18 108.151 95.5C108.151 94.82 108.315 94.2067 108.641 93.66C108.968 93.1067 109.418 92.6767 109.991 92.37C110.565 92.0567 111.208 91.9 111.921 91.9C112.635 91.9 113.278 92.0567 113.851 92.37C114.425 92.6767 114.875 93.1033 115.201 93.65C115.528 94.1967 115.691 94.8133 115.691 95.5C115.691 96.1867 115.528 96.8033 115.201 97.35C114.875 97.8967 114.425 98.3267 113.851 98.64C113.278 98.9467 112.635 99.1 111.921 99.1ZM111.921 97.96C112.388 97.96 112.808 97.8567 113.181 97.65C113.555 97.4367 113.848 97.1433 114.061 96.77C114.275 96.39 114.381 95.9667 114.381 95.5C114.381 95.0333 114.275 94.6133 114.061 94.24C113.848 93.86 113.555 93.5667 113.181 93.36C112.808 93.1467 112.388 93.04 111.921 93.04C111.455 93.04 111.035 93.1467 110.661 93.36C110.288 93.5667 109.995 93.86 109.781 94.24C109.568 94.6133 109.461 95.0333 109.461 95.5C109.461 95.9667 109.568 96.39 109.781 96.77C109.995 97.1433 110.288 97.4367 110.661 97.65C111.035 97.8567 111.455 97.96 111.921 97.96Z" fill="#B8D2FC"/>
<path d="M68 51.8002C63.6918 51.8002 60.2 55.2936 60.2 59.6002C60.2 63.9084 63.6918 67.4002 68 67.4002C72.3072 67.4002 75.8 63.9084 75.8 59.6002C75.8 55.2936 72.3072 51.8002 68 51.8002ZM88.8 44.0002H82.56C81.702 44.0002 80.7774 43.3346 80.5065 42.5203L78.8935 37.6796C78.6215 36.8658 77.698 36.2002 76.84 36.2002H59.16C58.302 36.2002 57.3774 36.8658 57.1065 37.6801L55.4935 42.5208C55.2215 43.3346 54.298 44.0002 53.44 44.0002H47.2C44.34 44.0002 42 46.3402 42 49.2002V72.6002C42 75.4602 44.34 77.8002 47.2 77.8002H88.8C91.66 77.8002 94 75.4602 94 72.6002V49.2002C94 46.3402 91.66 44.0002 88.8 44.0002ZM68 72.6002C60.8204 72.6002 55 66.7798 55 59.6002C55 52.4211 60.8204 46.6002 68 46.6002C75.1786 46.6002 81 52.4211 81 59.6002C81 66.7798 75.1786 72.6002 68 72.6002ZM86.98 52.8366C85.9754 52.8366 85.16 52.0222 85.16 51.0166C85.16 50.0119 85.9754 49.1966 86.98 49.1966C87.9857 49.1966 88.8 50.0119 88.8 51.0166C88.8 52.0222 87.9852 52.8366 86.98 52.8366Z" fill="#2C78F6" fill-opacity="0.31"/>
</svg>
