<svg width="115" height="22" viewBox="0 0 115 22" fill="none" xmlns="http://www.w3.org/2000/svg">
<path d="M56.7896 0.52112V10.2164H53.9784V2.8278H49.9417V10.2164H47.1484V0.52112H56.7896Z" fill="#2C78F6"/>
<path d="M64.0263 10.3606C63.0051 10.3606 62.0861 10.1503 61.2691 9.72983C60.4642 9.29732 59.8334 8.70263 59.3769 7.94575C58.9204 7.18887 58.6921 6.32987 58.6921 5.36876C58.6921 4.40764 58.9204 3.54864 59.3769 2.79176C59.8334 2.03488 60.4642 1.4462 61.2691 1.02571C62.0861 0.593204 63.0051 0.376953 64.0263 0.376953C65.0475 0.376953 65.9606 0.593204 66.7655 1.02571C67.5704 1.4462 68.2012 2.03488 68.6577 2.79176C69.1142 3.54864 69.3425 4.40764 69.3425 5.36876C69.3425 6.32987 69.1142 7.18887 68.6577 7.94575C68.2012 8.70263 67.5704 9.29732 66.7655 9.72983C65.9606 10.1503 65.0475 10.3606 64.0263 10.3606ZM64.0263 8.05388C64.7472 8.05388 65.3358 7.8136 65.7924 7.33304C66.2609 6.84047 66.4952 6.18571 66.4952 5.36876C66.4952 4.55181 66.2609 3.90305 65.7924 3.42249C65.3358 2.92992 64.7472 2.68363 64.0263 2.68363C63.3055 2.68363 62.7108 2.92992 62.2422 3.42249C61.7737 3.90305 61.5394 4.55181 61.5394 5.36876C61.5394 6.18571 61.7737 6.84047 62.2422 7.33304C62.7108 7.8136 63.3055 8.05388 64.0263 8.05388Z" fill="#2C78F6"/>
<path d="M76.9887 0.376953C77.8898 0.376953 78.7067 0.587197 79.4396 1.00769C80.1844 1.41616 80.7671 1.99884 81.1876 2.75572C81.6081 3.50058 81.8183 4.3716 81.8183 5.36876C81.8183 6.36591 81.6081 7.24294 81.1876 7.99981C80.7671 8.74468 80.1844 9.32736 79.4396 9.74785C78.7067 10.1563 77.8898 10.3606 76.9887 10.3606C75.7513 10.3606 74.7782 9.97011 74.0693 9.1892V13.7125H71.2581V0.52112H73.9432V1.63842C74.64 0.797442 75.6552 0.376953 76.9887 0.376953ZM76.5022 8.05388C77.223 8.05388 77.8117 7.8136 78.2682 7.33304C78.7368 6.84047 78.971 6.18571 78.971 5.36876C78.971 4.55181 78.7368 3.90305 78.2682 3.42249C77.8117 2.92992 77.223 2.68363 76.5022 2.68363C75.7813 2.68363 75.1866 2.92992 74.7181 3.42249C74.2616 3.90305 74.0333 4.55181 74.0333 5.36876C74.0333 6.18571 74.2616 6.84047 74.7181 7.33304C75.1866 7.8136 75.7813 8.05388 76.5022 8.05388Z" fill="#2C78F6"/>
<path d="M91.5822 2.8278H88.3024V10.2164H85.5091V2.8278H82.2293V0.52112H91.5822V2.8278Z" fill="#2C78F6"/>
<path d="M96.8471 0.376953C98.3489 0.376953 99.5022 0.737372 100.307 1.45821C101.112 2.16703 101.515 3.24228 101.515 4.68396V10.2164H98.8835V9.00899C98.3549 9.91004 97.3697 10.3606 95.928 10.3606C95.1832 10.3606 94.5344 10.2344 93.9818 9.98212C93.4411 9.72983 93.0267 9.38142 92.7383 8.9369C92.45 8.49239 92.3058 7.9878 92.3058 7.42314C92.3058 6.5221 92.6422 5.81327 93.315 5.29667C93.9998 4.78007 95.051 4.52177 96.4687 4.52177H98.7033C98.7033 3.90906 98.517 3.44051 98.1446 3.11614C97.7722 2.77975 97.2135 2.61155 96.4687 2.61155C95.9521 2.61155 95.4415 2.69565 94.9369 2.86384C94.4443 3.02003 94.0238 3.23628 93.6754 3.5126L92.6663 1.54831C93.1949 1.17588 93.8256 0.887546 94.5584 0.683309C95.3033 0.479072 96.0662 0.376953 96.8471 0.376953ZM96.6309 8.46836C97.1114 8.46836 97.5379 8.36023 97.9103 8.14398C98.2828 7.91572 98.5471 7.58533 98.7033 7.15283V6.16168H96.775C95.6217 6.16168 95.045 6.54012 95.045 7.297C95.045 7.65742 95.1832 7.94575 95.4595 8.162C95.7478 8.36624 96.1383 8.46836 96.6309 8.46836Z" fill="#2C78F6"/>
<path d="M113.255 0.52112V10.2164H110.444V2.8278H107.381L107.291 4.53979C107.242 5.81327 107.122 6.8705 106.93 7.71148C106.738 8.55246 106.426 9.21322 105.993 9.69378C105.561 10.1743 104.96 10.4146 104.191 10.4146C103.782 10.4146 103.296 10.3425 102.731 10.1984L102.875 7.89169C103.068 7.91572 103.206 7.92773 103.29 7.92773C103.71 7.92773 104.023 7.77756 104.227 7.47721C104.443 7.16484 104.587 6.77439 104.659 6.30584C104.732 5.82529 104.786 5.19455 104.822 4.41365L104.966 0.52112H113.255Z" fill="#2C78F6"/>
<path d="M5.40629 10.3606C4.37308 10.3606 3.442 10.1503 2.61304 9.72983C1.79609 9.29732 1.15334 8.70263 0.684796 7.94575C0.228265 7.18887 0 6.32987 0 5.36876C0 4.40764 0.228265 3.54864 0.684796 2.79176C1.15334 2.03488 1.79609 1.4462 2.61304 1.02571C3.442 0.593204 4.37308 0.376953 5.40629 0.376953C6.42747 0.376953 7.31651 0.593204 8.07339 1.02571C8.84228 1.4462 9.40093 2.0529 9.74933 2.84582L7.5688 4.01718C7.06421 3.12815 6.33737 2.68363 5.38826 2.68363C4.65541 2.68363 4.04871 2.92391 3.56815 3.40447C3.08759 3.88503 2.84731 4.53979 2.84731 5.36876C2.84731 6.19772 3.08759 6.85248 3.56815 7.33304C4.04871 7.8136 4.65541 8.05388 5.38826 8.05388C6.34938 8.05388 7.07623 7.60936 7.5688 6.72033L9.74933 7.90971C9.40093 8.6786 8.84228 9.2793 8.07339 9.7118C7.31651 10.1443 6.42747 10.3606 5.40629 10.3606Z" fill="#30353E"/>
<path d="M19.5679 2.8278H16.2881V10.2164H13.4949V2.8278H10.2151V0.52112H19.5679V2.8278Z" fill="#30353E"/>
<path d="M25.203 10.3606C24.1818 10.3606 23.2627 10.1503 22.4458 9.72983C21.6409 9.29732 21.0101 8.70263 20.5536 7.94575C20.0971 7.18887 19.8688 6.32987 19.8688 5.36876C19.8688 4.40764 20.0971 3.54864 20.5536 2.79176C21.0101 2.03488 21.6409 1.4462 22.4458 1.02571C23.2627 0.593204 24.1818 0.376953 25.203 0.376953C26.2242 0.376953 27.1373 0.593204 27.9422 1.02571C28.7471 1.4462 29.3779 2.03488 29.8344 2.79176C30.2909 3.54864 30.5192 4.40764 30.5192 5.36876C30.5192 6.32987 30.2909 7.18887 29.8344 7.94575C29.3779 8.70263 28.7471 9.29732 27.9422 9.72983C27.1373 10.1503 26.2242 10.3606 25.203 10.3606ZM25.203 8.05388C25.9238 8.05388 26.5125 7.8136 26.9691 7.33304C27.4376 6.84047 27.6719 6.18571 27.6719 5.36876C27.6719 4.55181 27.4376 3.90305 26.9691 3.42249C26.5125 2.92992 25.9238 2.68363 25.203 2.68363C24.4822 2.68363 23.8875 2.92992 23.4189 3.42249C22.9504 3.90305 22.7161 4.55181 22.7161 5.36876C22.7161 6.18571 22.9504 6.84047 23.4189 7.33304C23.8875 7.8136 24.4822 8.05388 25.203 8.05388Z" fill="#30353E"/>
<path d="M41.9138 10.2164V4.41365L39.0124 9.2793H37.823L34.9937 4.39562V10.2164H32.4528V0.52112H35.3902L38.4898 6.12563L41.7876 0.52112H44.4187L44.4547 10.2164H41.9138Z" fill="#30353E"/>
<path d="M2.88697 20.2802C2.43 20.2802 2.0193 20.179 1.65487 19.9765C1.29045 19.7741 1.00412 19.4964 0.795874 19.1436C0.593416 18.7849 0.492188 18.38 0.492188 17.9288C0.492188 17.4776 0.593416 17.0756 0.795874 16.7228C1.00412 16.3641 1.29045 16.0865 1.65487 15.8898C2.0193 15.6873 2.43 15.5861 2.88697 15.5861C3.34395 15.5861 3.75175 15.6873 4.11039 15.8898C4.47482 16.0865 4.75826 16.3641 4.96072 16.7228C5.16896 17.0756 5.27308 17.4776 5.27308 17.9288C5.27308 18.38 5.16896 18.7849 4.96072 19.1436C4.75826 19.4964 4.47482 19.7741 4.11039 19.9765C3.75175 20.179 3.34395 20.2802 2.88697 20.2802ZM2.88697 19.5514C3.18198 19.5514 3.44518 19.4849 3.67656 19.3518C3.91372 19.213 4.09882 19.0221 4.23187 18.7791C4.36491 18.5304 4.43143 18.247 4.43143 17.9288C4.43143 17.6107 4.36491 17.3301 4.23187 17.0872C4.09882 16.8384 3.91372 16.6476 3.67656 16.5145C3.44518 16.3815 3.18198 16.3149 2.88697 16.3149C2.59196 16.3149 2.32587 16.3815 2.08871 16.5145C1.85733 16.6476 1.67223 16.8384 1.5334 17.0872C1.40035 17.3301 1.33383 17.6107 1.33383 17.9288C1.33383 18.247 1.40035 18.5304 1.5334 18.7791C1.67223 19.0221 1.85733 19.213 2.08871 19.3518C2.32587 19.4849 2.59196 19.5514 2.88697 19.5514Z" fill="#909AAB"/>
<path d="M9.09894 15.7857C9.52699 15.7857 9.90877 15.8811 10.2443 16.072C10.5798 16.2629 10.8401 16.529 11.0252 16.8703C11.2161 17.2058 11.3115 17.5904 11.3115 18.0243C11.3115 18.4697 11.2103 18.8659 11.0078 19.213C10.8112 19.5543 10.5306 19.8204 10.1662 20.0112C9.80754 20.2021 9.39684 20.2976 8.93408 20.2976C8.15318 20.2976 7.5487 20.0315 7.12064 19.4993C6.69837 18.9614 6.48724 18.2065 6.48724 17.2347C6.48724 16.2918 6.68102 15.5543 7.06858 15.0221C7.45614 14.4842 8.04906 14.1284 8.84732 13.9549L10.9471 13.4863L11.0686 14.2499L9.13365 14.6664C8.53206 14.7994 8.08376 15.025 7.78875 15.3432C7.49374 15.6613 7.32599 16.1183 7.2855 16.7141C7.48217 16.4191 7.73669 16.1906 8.04905 16.0286C8.36142 15.8667 8.71138 15.7857 9.09894 15.7857ZM8.95144 19.6034C9.24645 19.6034 9.50675 19.5369 9.73235 19.4039C9.96373 19.2708 10.143 19.0886 10.2703 18.8572C10.3976 18.6201 10.4612 18.3511 10.4612 18.0503C10.4612 17.5933 10.3224 17.226 10.0447 16.9484C9.76705 16.6707 9.40263 16.5319 8.95144 16.5319C8.50025 16.5319 8.13293 16.6707 7.84949 16.9484C7.57183 17.226 7.433 17.5933 7.433 18.0503C7.433 18.3511 7.49664 18.6201 7.62389 18.8572C7.75694 19.0886 7.93915 19.2708 8.17053 19.4039C8.40191 19.5369 8.66221 19.6034 8.95144 19.6034Z" fill="#909AAB"/>
<path d="M16.7585 15.6295L14.5286 20.688C14.3319 21.1566 14.1005 21.4863 13.8344 21.6772C13.5741 21.8681 13.2589 21.9635 12.8887 21.9635C12.6631 21.9635 12.4433 21.9259 12.2292 21.8507C12.021 21.7813 11.8475 21.6772 11.7086 21.5384L12.0644 20.9136C12.3015 21.1392 12.5763 21.252 12.8887 21.252C13.0911 21.252 13.2589 21.1971 13.3919 21.0872C13.5308 20.983 13.6551 20.8008 13.765 20.5405L13.9125 20.2195L11.8822 15.6295H12.7498L14.355 19.3084L15.9429 15.6295H16.7585Z" fill="#909AAB"/>
<path d="M21.5619 15.6295V20.2282H20.729V18.3713C20.2315 18.6027 19.7369 18.7184 19.2452 18.7184C18.6726 18.7184 18.2301 18.5854 17.9177 18.3193C17.6053 18.0532 17.4491 17.6541 17.4491 17.1219V15.6295H18.2821V17.0698C18.2821 17.388 18.3805 17.628 18.5771 17.79C18.7796 17.952 19.0601 18.0329 19.4188 18.0329C19.8237 18.0329 20.2604 17.9317 20.729 17.7293V15.6295H21.5619Z" fill="#909AAB"/>
<path d="M27.6156 17.9549C27.6156 18.0185 27.6098 18.1024 27.5982 18.2065H23.8672C23.9193 18.6114 24.0957 18.9382 24.3965 19.187C24.7031 19.4299 25.0819 19.5514 25.5331 19.5514C26.0827 19.5514 26.5252 19.3663 26.8607 18.9961L27.3205 19.534C27.1123 19.777 26.852 19.9621 26.5396 20.0893C26.2331 20.2166 25.8889 20.2802 25.5071 20.2802C25.0212 20.2802 24.5903 20.1819 24.2143 19.9852C23.8383 19.7828 23.5462 19.5022 23.3379 19.1436C23.1355 18.7849 23.0342 18.38 23.0342 17.9288C23.0342 17.4834 23.1326 17.0814 23.3292 16.7228C23.5317 16.3641 23.8065 16.0865 24.1535 15.8898C24.5064 15.6873 24.9026 15.5861 25.3422 15.5861C25.7819 15.5861 26.1723 15.6873 26.5136 15.8898C26.8607 16.0865 27.1297 16.3641 27.3205 16.7228C27.5172 17.0814 27.6156 17.4921 27.6156 17.9549ZM25.3422 16.2889C24.9431 16.2889 24.6076 16.4104 24.3357 16.6533C24.0697 16.8963 23.9135 17.2144 23.8672 17.6078H26.8173C26.771 17.2202 26.6119 16.905 26.3401 16.662C26.074 16.4133 25.7414 16.2889 25.3422 16.2889Z" fill="#909AAB"/>
<path d="M29.1881 15.6295H30.0211V17.5818H32.6414V15.6295H33.4744V20.2282H32.6414V18.3019H30.0211V20.2282H29.1881V15.6295Z" fill="#909AAB"/>
<path d="M35.3744 15.6295H36.2074V18.9787L39.0273 15.6295H39.7822V20.2282H38.9492V16.8789L36.1379 20.2282H35.3744V15.6295Z" fill="#909AAB"/>
<path d="M45.8355 17.9549C45.8355 18.0185 45.8297 18.1024 45.8181 18.2065H42.0871C42.1392 18.6114 42.3156 18.9382 42.6164 19.187C42.923 19.4299 43.3018 19.5514 43.753 19.5514C44.3026 19.5514 44.7451 19.3663 45.0806 18.9961L45.5404 19.534C45.3322 19.777 45.0719 19.9621 44.7595 20.0893C44.453 20.2166 44.1088 20.2802 43.727 20.2802C43.2411 20.2802 42.8102 20.1819 42.4342 19.9852C42.0582 19.7828 41.7661 19.5022 41.5578 19.1436C41.3554 18.7849 41.2541 18.38 41.2541 17.9288C41.2541 17.4834 41.3525 17.0814 41.5491 16.7228C41.7516 16.3641 42.0264 16.0865 42.3734 15.8898C42.7263 15.6873 43.1225 15.5861 43.5621 15.5861C44.0018 15.5861 44.3922 15.6873 44.7335 15.8898C45.0806 16.0865 45.3496 16.3641 45.5404 16.7228C45.7371 17.0814 45.8355 17.4921 45.8355 17.9549ZM43.5621 16.2889C43.163 16.2889 42.8275 16.4104 42.5556 16.6533C42.2896 16.8963 42.1334 17.2144 42.0871 17.6078H45.0372C44.9909 17.2202 44.8318 16.905 44.56 16.662C44.2939 16.4133 43.9613 16.2889 43.5621 16.2889Z" fill="#909AAB"/>
<path d="M52.0228 20.2802C51.5543 20.2802 51.1349 20.179 50.7647 19.9765C50.4003 19.7741 50.114 19.4964 49.9057 19.1436C49.6975 18.7849 49.5933 18.38 49.5933 17.9288C49.5933 17.4776 49.6975 17.0756 49.9057 16.7228C50.114 16.3641 50.4003 16.0865 50.7647 15.8898C51.1349 15.6873 51.5543 15.5861 52.0228 15.5861C52.4393 15.5861 52.8095 15.67 53.1335 15.8377C53.4632 16.0055 53.7177 16.2484 53.897 16.5666L53.2636 16.9744C53.119 16.7546 52.9397 16.5897 52.7257 16.4798C52.5116 16.3699 52.2745 16.3149 52.0142 16.3149C51.7134 16.3149 51.4415 16.3815 51.1985 16.5145C50.9614 16.6476 50.7734 16.8384 50.6346 17.0872C50.5015 17.3301 50.435 17.6107 50.435 17.9288C50.435 18.2528 50.5015 18.5391 50.6346 18.7878C50.7734 19.0308 50.9614 19.2188 51.1985 19.3518C51.4415 19.4849 51.7134 19.5514 52.0142 19.5514C52.2745 19.5514 52.5116 19.4964 52.7257 19.3865C52.9397 19.2766 53.119 19.1118 53.2636 18.8919L53.897 19.2911C53.7177 19.6092 53.4632 19.8551 53.1335 20.0286C52.8095 20.1964 52.4393 20.2802 52.0228 20.2802Z" fill="#909AAB"/>
<path d="M58.6238 16.3583H56.9405V20.2282H56.1075V16.3583H54.4242V15.6295H58.6238V16.3583Z" fill="#909AAB"/>
<path d="M61.5221 20.2802C61.0651 20.2802 60.6544 20.179 60.29 19.9765C59.9256 19.7741 59.6393 19.4964 59.431 19.1436C59.2286 18.7849 59.1273 18.38 59.1273 17.9288C59.1273 17.4776 59.2286 17.0756 59.431 16.7228C59.6393 16.3641 59.9256 16.0865 60.29 15.8898C60.6544 15.6873 61.0651 15.5861 61.5221 15.5861C61.9791 15.5861 62.3869 15.6873 62.7455 15.8898C63.11 16.0865 63.3934 16.3641 63.5959 16.7228C63.8041 17.0756 63.9082 17.4776 63.9082 17.9288C63.9082 18.38 63.8041 18.7849 63.5959 19.1436C63.3934 19.4964 63.11 19.7741 62.7455 19.9765C62.3869 20.179 61.9791 20.2802 61.5221 20.2802ZM61.5221 19.5514C61.8171 19.5514 62.0803 19.4849 62.3117 19.3518C62.5489 19.213 62.734 19.0221 62.867 18.7791C63.0001 18.5304 63.0666 18.247 63.0666 17.9288C63.0666 17.6107 63.0001 17.3301 62.867 17.0872C62.734 16.8384 62.5489 16.6476 62.3117 16.5145C62.0803 16.3815 61.8171 16.3149 61.5221 16.3149C61.2271 16.3149 60.961 16.3815 60.7238 16.5145C60.4925 16.6476 60.3074 16.8384 60.1685 17.0872C60.0355 17.3301 59.969 17.6107 59.969 17.9288C59.969 18.247 60.0355 18.5304 60.1685 18.7791C60.3074 19.0221 60.4925 19.213 60.7238 19.3518C60.961 19.4849 61.2271 19.5514 61.5221 19.5514Z" fill="#909AAB"/>
<path d="M70.6929 15.6295V20.2282H69.938V16.8703L68.22 19.7076H67.8556L66.1549 16.8616V20.2282H65.3914V15.6295H66.2504L68.0551 18.7358L69.9119 15.6295H70.6929Z" fill="#909AAB"/>
<path d="M74.2344 15.5861C74.8706 15.5861 75.3565 15.7423 75.692 16.0546C76.0333 16.367 76.204 16.8327 76.204 17.4516V20.2282H75.4144V19.6208C75.2756 19.8348 75.076 19.9997 74.8157 20.1154C74.5612 20.2253 74.2575 20.2802 73.9046 20.2802C73.3898 20.2802 72.9762 20.1559 72.6639 19.9071C72.3573 19.6584 72.204 19.3316 72.204 18.9267C72.204 18.5217 72.3515 18.1978 72.6465 17.9549C72.9415 17.7061 73.4101 17.5818 74.0521 17.5818H75.371V17.4169C75.371 17.0583 75.2669 16.7835 75.0586 16.5926C74.8504 16.4017 74.5438 16.3063 74.1389 16.3063C73.867 16.3063 73.6009 16.3525 73.3406 16.4451C73.0803 16.5319 72.8605 16.6505 72.6812 16.8008L72.3341 16.1761C72.5713 15.9852 72.8547 15.8406 73.1845 15.7423C73.5142 15.6382 73.8641 15.5861 74.2344 15.5861ZM74.0435 19.6381C74.3616 19.6381 74.6364 19.5687 74.8678 19.4299C75.0991 19.2853 75.2669 19.0828 75.371 18.8225V18.1805H74.0868C73.3811 18.1805 73.0283 18.4176 73.0283 18.8919C73.0283 19.1233 73.1179 19.3055 73.2973 19.4386C73.4766 19.5716 73.7253 19.6381 74.0435 19.6381Z" fill="#909AAB"/>
<path d="M81.4115 16.3583H79.7282V20.2282H78.8953V16.3583H77.212V15.6295H81.4115V16.3583Z" fill="#909AAB"/>
<path d="M84.3099 20.2802C83.8529 20.2802 83.4422 20.179 83.0778 19.9765C82.7134 19.7741 82.427 19.4964 82.2188 19.1436C82.0163 18.7849 81.9151 18.38 81.9151 17.9288C81.9151 17.4776 82.0163 17.0756 82.2188 16.7228C82.427 16.3641 82.7134 16.0865 83.0778 15.8898C83.4422 15.6873 83.8529 15.5861 84.3099 15.5861C84.7669 15.5861 85.1747 15.6873 85.5333 15.8898C85.8977 16.0865 86.1812 16.3641 86.3836 16.7228C86.5919 17.0756 86.696 17.4776 86.696 17.9288C86.696 18.38 86.5919 18.7849 86.3836 19.1436C86.1812 19.4964 85.8977 19.7741 85.5333 19.9765C85.1747 20.179 84.7669 20.2802 84.3099 20.2802ZM84.3099 19.5514C84.6049 19.5514 84.8681 19.4849 85.0995 19.3518C85.3366 19.213 85.5217 19.0221 85.6548 18.7791C85.7878 18.5304 85.8543 18.247 85.8543 17.9288C85.8543 17.6107 85.7878 17.3301 85.6548 17.0872C85.5217 16.8384 85.3366 16.6476 85.0995 16.5145C84.8681 16.3815 84.6049 16.3149 84.3099 16.3149C84.0149 16.3149 83.7488 16.3815 83.5116 16.5145C83.2802 16.6476 83.0951 16.8384 82.9563 17.0872C82.8233 17.3301 82.7567 17.6107 82.7567 17.9288C82.7567 18.247 82.8233 18.5304 82.9563 18.7791C83.0951 19.0221 83.2802 19.213 83.5116 19.3518C83.7488 19.4849 84.0149 19.5514 84.3099 19.5514Z" fill="#909AAB"/>
<path d="M92.0931 15.6295V20.2282H91.2602V16.3583H89.2819L89.2298 17.3822C89.2009 18.0011 89.1459 18.5188 89.065 18.9353C88.984 19.346 88.8509 19.6757 88.6658 19.9245C88.4807 20.1732 88.2233 20.2976 87.8936 20.2976C87.7432 20.2976 87.5726 20.2715 87.3817 20.2195L87.4337 19.5167C87.5089 19.534 87.5783 19.5427 87.642 19.5427C87.8734 19.5427 88.0469 19.4415 88.1626 19.239C88.2783 19.0366 88.3535 18.7965 88.3882 18.5188C88.4229 18.2412 88.4547 17.8449 88.4836 17.3301L88.5617 15.6295H92.0931Z" fill="#909AAB"/>
<path d="M95.9537 20.2802C95.4967 20.2802 95.086 20.179 94.7216 19.9765C94.3572 19.7741 94.0709 19.4964 93.8626 19.1436C93.6602 18.7849 93.5589 18.38 93.5589 17.9288C93.5589 17.4776 93.6602 17.0756 93.8626 16.7228C94.0709 16.3641 94.3572 16.0865 94.7216 15.8898C95.086 15.6873 95.4967 15.5861 95.9537 15.5861C96.4107 15.5861 96.8185 15.6873 97.1771 15.8898C97.5416 16.0865 97.825 16.3641 98.0275 16.7228C98.2357 17.0756 98.3398 17.4776 98.3398 17.9288C98.3398 18.38 98.2357 18.7849 98.0275 19.1436C97.825 19.4964 97.5416 19.7741 97.1771 19.9765C96.8185 20.179 96.4107 20.2802 95.9537 20.2802ZM95.9537 19.5514C96.2487 19.5514 96.5119 19.4849 96.7433 19.3518C96.9805 19.213 97.1656 19.0221 97.2986 18.7791C97.4317 18.5304 97.4982 18.247 97.4982 17.9288C97.4982 17.6107 97.4317 17.3301 97.2986 17.0872C97.1656 16.8384 96.9805 16.6476 96.7433 16.5145C96.5119 16.3815 96.2487 16.3149 95.9537 16.3149C95.6587 16.3149 95.3926 16.3815 95.1555 16.5145C94.9241 16.6476 94.739 16.8384 94.6001 17.0872C94.4671 17.3301 94.4006 17.6107 94.4006 17.9288C94.4006 18.247 94.4671 18.5304 94.6001 18.7791C94.739 19.0221 94.9241 19.213 95.1555 19.3518C95.3926 19.4849 95.6587 19.5514 95.9537 19.5514Z" fill="#909AAB"/>
<path d="M103.207 16.3583H100.656V20.2282H99.823V15.6295H103.207V16.3583Z" fill="#909AAB"/>
<path d="M106.106 20.2802C105.649 20.2802 105.239 20.179 104.874 19.9765C104.51 19.7741 104.223 19.4964 104.015 19.1436C103.813 18.7849 103.711 18.38 103.711 17.9288C103.711 17.4776 103.813 17.0756 104.015 16.7228C104.223 16.3641 104.51 16.0865 104.874 15.8898C105.239 15.6873 105.649 15.5861 106.106 15.5861C106.563 15.5861 106.971 15.6873 107.33 15.8898C107.694 16.0865 107.978 16.3641 108.18 16.7228C108.388 17.0756 108.492 17.4776 108.492 17.9288C108.492 18.38 108.388 18.7849 108.18 19.1436C107.978 19.4964 107.694 19.7741 107.33 19.9765C106.971 20.179 106.563 20.2802 106.106 20.2802ZM106.106 19.5514C106.401 19.5514 106.664 19.4849 106.896 19.3518C107.133 19.213 107.318 19.0221 107.451 18.7791C107.584 18.5304 107.651 18.247 107.651 17.9288C107.651 17.6107 107.584 17.3301 107.451 17.0872C107.318 16.8384 107.133 16.6476 106.896 16.5145C106.664 16.3815 106.401 16.3149 106.106 16.3149C105.811 16.3149 105.545 16.3815 105.308 16.5145C105.077 16.6476 104.892 16.8384 104.753 17.0872C104.62 17.3301 104.553 17.6107 104.553 17.9288C104.553 18.247 104.62 18.5304 104.753 18.7791C104.892 19.0221 105.077 19.213 105.308 19.3518C105.545 19.4849 105.811 19.5514 106.106 19.5514Z" fill="#909AAB"/>
<path d="M113.108 17.8421C113.704 17.9925 114.002 18.3656 114.002 18.9614C114.002 19.3663 113.848 19.6786 113.542 19.8984C113.241 20.1183 112.79 20.2282 112.188 20.2282H109.975V15.6295H112.11C112.654 15.6295 113.079 15.7336 113.385 15.9418C113.692 16.1443 113.845 16.4335 113.845 16.8095C113.845 17.0525 113.779 17.2636 113.646 17.4429C113.519 17.6165 113.339 17.7495 113.108 17.8421ZM110.791 17.6078H112.041C112.359 17.6078 112.599 17.5499 112.761 17.4343C112.928 17.3186 113.012 17.1508 113.012 16.931C113.012 16.4914 112.688 16.2716 112.041 16.2716H110.791V17.6078ZM112.127 19.5861C112.474 19.5861 112.735 19.5311 112.908 19.4212C113.082 19.3113 113.169 19.1407 113.169 18.9093C113.169 18.6721 113.088 18.4957 112.926 18.38C112.769 18.2643 112.521 18.2065 112.179 18.2065H110.791V19.5861H112.127Z" fill="#909AAB"/>
</svg>
