<svg width="171" height="21" fill="none" xmlns="http://www.w3.org/2000/svg"><path d="M8.937 15.716c-1.548 0-2.943-.315-4.185-.945-1.224-.648-2.187-1.539-2.889-2.673C1.179 10.964.837 9.677.837 8.237c0-1.44.342-2.727 1.026-3.861.702-1.134 1.665-2.016 2.889-2.646C5.994 1.082 7.389.758 8.937.758c1.53 0 2.862.324 3.996.972a5.601 5.601 0 012.511 2.727l-3.267 1.755c-.756-1.332-1.845-1.998-3.267-1.998-1.098 0-2.007.36-2.727 1.08-.72.72-1.08 1.701-1.08 2.943s.36 2.223 1.08 2.943c.72.72 1.629 1.08 2.727 1.08 1.44 0 2.529-.666 3.267-1.998l3.267 1.782c-.522 1.152-1.359 2.052-2.511 2.7-1.134.648-2.466.972-3.996.972zM30.155 4.43H25.24V15.5h-4.185V4.43h-4.914V.974h14.013V4.43zm8.443 11.286c-1.53 0-2.907-.315-4.131-.945-1.206-.648-2.151-1.539-2.835-2.673-.684-1.134-1.026-2.421-1.026-3.861 0-1.44.342-2.727 1.026-3.861a7.053 7.053 0 012.835-2.646c1.224-.648 2.6-.972 4.13-.972 1.53 0 2.899.324 4.105.972a7.053 7.053 0 012.835 2.646c.684 1.134 1.026 2.421 1.026 3.861 0 1.44-.342 2.727-1.026 3.861-.684 1.134-1.63 2.025-2.835 2.673-1.206.63-2.574.945-4.104.945zm0-3.456c1.08 0 1.962-.36 2.646-1.08.702-.738 1.053-1.719 1.053-2.943s-.351-2.196-1.053-2.916c-.684-.738-1.566-1.107-2.646-1.107-1.08 0-1.971.369-2.673 1.107-.702.72-1.053 1.692-1.053 2.916s.35 2.205 1.053 2.943c.702.72 1.593 1.08 2.673 1.08zm25.037 3.24V6.806l-4.347 7.29h-1.782l-4.24-7.317V15.5H49.46V.974h4.4l4.645 8.397 4.94-8.397h3.943l.054 14.526h-3.807z" fill="#30353E"/><path d="M85.921.974V15.5H81.71V4.43h-6.048V15.5h-4.185V.974h14.445zm10.843 14.742c-1.53 0-2.907-.315-4.131-.945-1.206-.648-2.151-1.539-2.835-2.673-.684-1.134-1.026-2.421-1.026-3.861 0-1.44.342-2.727 1.026-3.861a7.053 7.053 0 012.835-2.646c1.224-.648 2.6-.972 4.13-.972 1.53 0 2.899.324 4.105.972a7.053 7.053 0 012.835 2.646c.684 1.134 1.026 2.421 1.026 3.861 0 1.44-.342 2.727-1.026 3.861-.684 1.134-1.629 2.025-2.835 2.673-1.206.63-2.574.945-4.104.945zm0-3.456c1.08 0 1.962-.36 2.646-1.08.702-.738 1.053-1.719 1.053-2.943s-.351-2.196-1.053-2.916c-.684-.738-1.566-1.107-2.646-1.107-1.08 0-1.971.369-2.673 1.107-.702.72-1.053 1.692-1.053 2.916s.35 2.205 1.053 2.943c.702.72 1.593 1.08 2.673 1.08zM116.185.758c1.35 0 2.574.315 3.672.945a6.549 6.549 0 012.619 2.619c.63 1.116.945 2.421.945 3.915 0 1.494-.315 2.808-.945 3.942a6.782 6.782 0 01-2.619 2.619c-1.098.612-2.322.918-3.672.918-1.854 0-3.312-.585-4.374-1.755v6.777h-4.212V.974h4.023v1.674c1.044-1.26 2.565-1.89 4.563-1.89zm-.729 11.502c1.08 0 1.962-.36 2.646-1.08.702-.738 1.053-1.719 1.053-2.943s-.351-2.196-1.053-2.916c-.684-.738-1.566-1.107-2.646-1.107-1.08 0-1.971.369-2.673 1.107-.684.72-1.026 1.692-1.026 2.916s.342 2.205 1.026 2.943c.702.72 1.593 1.08 2.673 1.08zm22.593-7.83h-4.914V15.5h-4.185V4.43h-4.914V.974h14.013V4.43zm7.889-3.672c2.25 0 3.978.54 5.184 1.62 1.206 1.062 1.809 2.673 1.809 4.833V15.5h-3.942v-1.809c-.792 1.35-2.268 2.025-4.428 2.025-1.116 0-2.088-.189-2.916-.567-.81-.378-1.431-.9-1.863-1.566-.432-.666-.648-1.422-.648-2.268 0-1.35.504-2.412 1.512-3.186 1.026-.774 2.601-1.161 4.725-1.161h3.348c0-.918-.279-1.62-.837-2.106-.558-.504-1.395-.756-2.511-.756-.774 0-1.539.126-2.295.378-.738.234-1.368.558-1.89.972l-1.512-2.943c.792-.558 1.737-.99 2.835-1.296a12.909 12.909 0 013.429-.459zm-.324 12.123c.72 0 1.359-.162 1.917-.486.558-.342.954-.837 1.188-1.485V9.425h-2.889c-1.728 0-2.592.567-2.592 1.701 0 .54.207.972.621 1.296.432.306 1.017.459 1.755.459zM170.521.974V15.5h-4.212V4.43h-4.59l-.135 2.565c-.072 1.908-.252 3.492-.54 4.752-.288 1.26-.756 2.25-1.404 2.97-.648.72-1.548 1.08-2.7 1.08-.612 0-1.341-.108-2.187-.324l.216-3.456c.288.036.495.054.621.054.63 0 1.098-.225 1.404-.675.324-.468.54-1.053.648-1.755.108-.72.189-1.665.243-2.835l.216-5.832h12.42z" fill="#2C78F6"/></svg>