<svg width="21" height="21" fill="none" xmlns="http://www.w3.org/2000/svg"><path d="M20.315 11.155H7.075a.685.685 0 010-1.37h13.24a.685.685 0 010 1.37z" fill="#fff"/><path d="M10.728 14.807a.68.68 0 01-.484-.2l-3.652-3.653a.685.685 0 010-.969l3.652-3.652a.685.685 0 01.969.969L8.045 10.47l3.168 3.169a.685.685 0 01-.485 1.168z" fill="#fff"/><path d="M10.043 20.514C4.506 20.514 0 16.008 0 10.47 0 4.933 4.506.427 10.043.427c4.156 0 7.824 2.5 9.348 6.37a.686.686 0 01-1.274.5 8.63 8.63 0 00-8.074-5.5c-4.782 0-8.673 3.89-8.673 8.673 0 4.783 3.89 8.674 8.674 8.674a8.63 8.63 0 008.073-5.5.686.686 0 011.274.501 9.992 9.992 0 01-9.347 6.369z" fill="#fff"/></svg>