<svg width="139" height="36" viewBox="0 0 139 36" fill="none" xmlns="http://www.w3.org/2000/svg">
<path d="M105.835 22.7672C102.682 22.7672 100.227 21.8638 98.4689 20.0569C96.731 18.2499 95.8621 15.6884 95.8621 12.3721V0H101.864V12.1808C101.864 15.7521 103.208 17.5378 105.895 17.5378C108.563 17.5378 109.897 15.7521 109.897 12.1808V0H115.807V12.3721C115.807 15.6884 114.928 18.2499 113.17 20.0569C111.432 21.8638 108.987 22.7672 105.835 22.7672Z" fill="#2C78F6"/>
<path d="M129.573 0C131.493 0 133.16 0.340127 134.574 1.02038C135.989 1.67938 137.08 2.63598 137.848 3.8902C138.616 5.12316 139 6.57933 139 8.2587C139 9.93808 138.616 11.3942 137.848 12.6272C137.08 13.8602 135.989 14.8168 134.574 15.497C133.16 16.156 131.493 16.4855 129.573 16.4855H125.875V22.3208H119.873V0H129.573ZM129.209 11.5112C130.442 11.5112 131.371 11.2348 131.998 10.6821C132.624 10.1081 132.938 9.30034 132.938 8.2587C132.938 7.21707 132.624 6.40927 131.998 5.8353C131.371 5.26134 130.442 4.97436 129.209 4.97436H125.875V11.5112H129.209Z" fill="#2C78F6"/>
<path d="M9.04131 22.7672C7.30456 22.7672 5.6189 22.5483 3.98431 22.1105C2.34972 21.6727 1.02162 21.0889 0 20.3592L1.99215 15.7932C2.95247 16.4395 4.06604 16.9608 5.33284 17.3569C6.59965 17.753 7.84602 17.9511 9.07196 17.9511C11.4012 17.9511 12.5659 17.3569 12.5659 16.1685C12.5659 15.543 12.2288 15.0843 11.5545 14.7924C10.9007 14.4797 9.83818 14.1566 8.36705 13.823C6.75289 13.4685 5.40436 13.0932 4.32144 12.6971C3.23853 12.2801 2.30886 11.6234 1.53243 10.7269C0.755997 9.83036 0.367782 8.62111 0.367782 7.09912C0.367782 5.76478 0.725348 4.56596 1.44048 3.50265C2.15561 2.4185 3.21809 1.56368 4.62793 0.938211C6.05819 0.312737 7.80516 0 9.86882 0C11.2787 0 12.6681 0.166793 14.037 0.50038C15.406 0.813116 16.6115 1.28222 17.6535 1.90769L15.784 6.50492C13.7408 5.37907 11.7588 4.81615 9.83818 4.81615C8.63267 4.81615 7.75408 5.00379 7.2024 5.37907C6.65073 5.73351 6.37489 6.20261 6.37489 6.78639C6.37489 7.37016 6.70181 7.808 7.35565 8.09988C8.00948 8.39177 9.06175 8.69408 10.5124 9.00682C12.147 9.36125 13.4956 9.74696 14.558 10.1639C15.641 10.5601 16.5706 11.2064 17.3471 12.1029C18.1439 12.9786 18.5424 14.1774 18.5424 15.6994C18.5424 17.0129 18.1848 18.2013 17.4697 19.2646C16.7545 20.3279 15.6818 21.1827 14.2516 21.829C12.8213 22.4545 11.0845 22.7672 9.04131 22.7672Z" fill="#30353E"/>
<path d="M25.6128 5.3478H19.0234V0.437832H38.24V5.3478H31.6812V22.3294H25.6128V5.3478Z" fill="#30353E"/>
<path d="M51.0204 22.7672C48.7525 22.7672 46.7092 22.2773 44.8907 21.2974C43.0927 20.3175 41.6726 18.9623 40.6306 17.2318C39.609 15.5013 39.0982 13.5519 39.0982 11.3836C39.0982 9.21531 39.609 7.26592 40.6306 5.53544C41.6726 3.80497 43.0927 2.44977 44.8907 1.46986C46.7092 0.489954 48.7525 0 51.0204 0C53.2884 0 55.3215 0.489954 57.1195 1.46986C58.938 2.44977 60.358 3.80497 61.3796 5.53544C62.4217 7.26592 62.9427 9.21531 62.9427 11.3836C62.9427 13.5519 62.4217 15.5013 61.3796 17.2318C60.358 18.9623 58.938 20.3175 57.1195 21.2974C55.3215 22.2773 53.2884 22.7672 51.0204 22.7672ZM51.0204 17.6384C52.1034 17.6384 53.0841 17.3777 53.9627 16.8565C54.8413 16.3353 55.536 15.6056 56.0468 14.6674C56.5576 13.7083 56.813 12.6137 56.813 11.3836C56.813 10.1535 56.5576 9.06937 56.0468 8.13116C55.536 7.1721 54.8413 6.43195 53.9627 5.91072C53.0841 5.3895 52.1034 5.12888 51.0204 5.12888C49.9375 5.12888 48.9568 5.3895 48.0782 5.91072C47.1996 6.43195 46.5049 7.1721 45.9941 8.13116C45.4833 9.06937 45.2279 10.1535 45.2279 11.3836C45.2279 12.6137 45.4833 13.7083 45.9941 14.6674C46.5049 15.6056 47.1996 16.3353 48.0782 16.8565C48.9568 17.3777 49.9375 17.6384 51.0204 17.6384Z" fill="#30353E"/>
<path d="M85.4909 22.3294L85.4296 10.7269L79.9129 20.1715H77.2158L71.7298 11.0396V22.3294H66.1211V0.437832H71.1168L78.6563 13.0724L86.012 0.437832H91.0077L91.069 22.3294H85.4909Z" fill="#30353E"/>
<path d="M2.25423 33.4904C1.82806 33.4904 1.44394 33.3968 1.10188 33.2097C0.759822 33.0171 0.49066 32.7529 0.294396 32.4171C0.098132 32.0814 0 31.7016 0 31.2778C0 30.854 0.098132 30.4742 0.294396 30.1385C0.49066 29.8028 0.759822 29.5413 1.10188 29.3542C1.44394 29.1671 1.82806 29.0735 2.25423 29.0735C2.6804 29.0735 3.06452 29.1671 3.40658 29.3542C3.74864 29.5413 4.015 29.8028 4.20565 30.1385C4.40192 30.4742 4.50005 30.854 4.50005 31.2778C4.50005 31.7016 4.40192 32.0814 4.20565 32.4171C4.015 32.7529 3.74864 33.0171 3.40658 33.2097C3.06452 33.3968 2.6804 33.4904 2.25423 33.4904ZM2.25423 32.9703C2.56825 32.9703 2.84863 32.9015 3.09536 32.7639C3.3477 32.6208 3.54397 32.4199 3.68415 32.1612C3.82434 31.9025 3.89444 31.6081 3.89444 31.2778C3.89444 30.9476 3.82434 30.6531 3.68415 30.3944C3.54397 30.1357 3.3477 29.9376 3.09536 29.8C2.84863 29.6569 2.56825 29.5854 2.25423 29.5854C1.94021 29.5854 1.65703 29.6569 1.40469 29.8C1.15796 29.9376 0.961693 30.1357 0.815897 30.3944C0.675708 30.6531 0.605614 30.9476 0.605614 31.2778C0.605614 31.6081 0.675708 31.9025 0.815897 32.1612C0.961693 32.4199 1.15796 32.6208 1.40469 32.7639C1.65703 32.9015 1.94021 32.9703 2.25423 32.9703Z" fill="#7B869A"/>
<path d="M8.42596 29.2138C8.83531 29.2138 9.1998 29.3047 9.51943 29.4863C9.84467 29.6624 10.097 29.9128 10.2765 30.2376C10.4559 30.5568 10.5456 30.9228 10.5456 31.3356C10.5456 31.7594 10.4503 32.1364 10.2596 32.4667C10.0746 32.7914 9.81383 33.0446 9.47738 33.2262C9.14092 33.4079 8.754 33.4987 8.31662 33.4987C7.58203 33.4987 7.01286 33.2455 6.60912 32.7391C6.20538 32.2328 6.00351 31.5338 6.00351 30.6421C6.00351 29.7119 6.18295 28.9992 6.54183 28.5038C6.90632 28.0085 7.47268 27.6727 8.24091 27.4966L10.226 27.0508L10.3269 27.5874L8.45961 28.0085C7.82596 28.1461 7.36053 28.391 7.06333 28.7432C6.76613 29.09 6.60351 29.6046 6.57547 30.2871C6.75492 29.9514 7.00445 29.6899 7.32408 29.5028C7.64371 29.3102 8.011 29.2138 8.42596 29.2138ZM8.33344 33.0116C8.64185 33.0116 8.91662 32.9428 9.15775 32.8052C9.40448 32.6621 9.59513 32.4639 9.72972 32.2107C9.8699 31.9576 9.94 31.6714 9.94 31.3521C9.94 31.0329 9.87271 30.7522 9.73813 30.51C9.60355 30.2678 9.41289 30.0807 9.16616 29.9486C8.92503 29.811 8.64746 29.7422 8.33344 29.7422C8.01942 29.7422 7.73904 29.811 7.49231 29.9486C7.25118 30.0807 7.06053 30.2678 6.92034 30.51C6.78576 30.7522 6.71847 31.0329 6.71847 31.3521C6.71847 31.6714 6.78576 31.9576 6.92034 32.2107C7.06053 32.4639 7.25399 32.6621 7.50072 32.8052C7.74745 32.9428 8.02502 33.0116 8.33344 33.0116Z" fill="#7B869A"/>
<path d="M14.6098 29.0735C15.0247 29.0735 15.4004 29.1671 15.7369 29.3542C16.0734 29.5358 16.3369 29.7945 16.5276 30.1302C16.7182 30.466 16.8135 30.8485 16.8135 31.2778C16.8135 31.7126 16.7182 32.0979 16.5276 32.4337C16.3369 32.7694 16.0734 33.0308 15.7369 33.218C15.4061 33.3996 15.0304 33.4904 14.6098 33.4904C14.2509 33.4904 13.9257 33.4189 13.6341 33.2758C13.3481 33.1271 13.1126 32.9125 12.9275 32.6318V35.0508H12.3303V29.1065H12.9023V29.9651C13.0817 29.6789 13.3172 29.4588 13.6088 29.3047C13.906 29.1505 14.2397 29.0735 14.6098 29.0735ZM14.5677 32.9703C14.8761 32.9703 15.1565 32.9015 15.4089 32.7639C15.6612 32.6208 15.8575 32.4199 15.9977 32.1612C16.1434 31.9025 16.2163 31.6081 16.2163 31.2778C16.2163 30.9476 16.1434 30.6559 15.9977 30.4027C15.8575 30.144 15.6612 29.9431 15.4089 29.8C15.1565 29.6569 14.8761 29.5854 14.5677 29.5854C14.2537 29.5854 13.9705 29.6569 13.7182 29.8C13.4715 29.9431 13.2752 30.144 13.1294 30.4027C12.9892 30.6559 12.9191 30.9476 12.9191 31.2778C12.9191 31.6081 12.9892 31.9025 13.1294 32.1612C13.2752 32.4199 13.4715 32.6208 13.7182 32.7639C13.9705 32.9015 14.2537 32.9703 14.5677 32.9703Z" fill="#7B869A"/>
<path d="M20.0991 29.0735C20.6767 29.0735 21.1197 29.2166 21.4281 29.5028C21.7366 29.7835 21.8908 30.2018 21.8908 30.7577V33.4491H21.3188V32.7721C21.1842 32.9978 20.9851 33.1739 20.7216 33.3005C20.4636 33.4271 20.1552 33.4904 19.7963 33.4904C19.3029 33.4904 18.9104 33.3748 18.6188 33.1437C18.3272 32.9125 18.1814 32.607 18.1814 32.2273C18.1814 31.8585 18.316 31.5613 18.5851 31.3356C18.8599 31.1099 19.2945 30.9971 19.8889 30.9971H21.2936V30.7329C21.2936 30.3587 21.187 30.0752 20.9739 29.8826C20.7608 29.6844 20.4496 29.5854 20.0403 29.5854C19.7599 29.5854 19.4907 29.6321 19.2328 29.7257C18.9748 29.8138 18.7533 29.9376 18.5683 30.0972L18.2991 29.6597C18.5234 29.4725 18.7926 29.3294 19.1066 29.2303C19.4206 29.1258 19.7515 29.0735 20.0991 29.0735ZM19.8889 33.0281C20.2253 33.0281 20.5141 32.9538 20.7552 32.8052C20.9964 32.6511 21.1758 32.4309 21.2936 32.1447V31.4347H19.9057C19.1487 31.4347 18.7702 31.6934 18.7702 32.2107C18.7702 32.4639 18.8683 32.6648 19.0646 32.8134C19.2608 32.9565 19.5356 33.0281 19.8889 33.0281Z" fill="#7B869A"/>
<path d="M26.0482 31.187C26.3622 31.2586 26.6033 31.3824 26.7716 31.5585C26.9454 31.7346 27.0323 31.9493 27.0323 32.2025C27.0323 32.4557 26.9426 32.6813 26.7631 32.8795C26.5893 33.0776 26.351 33.2317 26.0482 33.3418C25.7454 33.4464 25.4117 33.4987 25.0472 33.4987C24.7276 33.4987 24.4136 33.4546 24.1052 33.3666C23.7968 33.273 23.5276 33.1382 23.2977 32.962L23.4996 32.5245C23.7014 32.6731 23.9369 32.7887 24.2061 32.8712C24.4753 32.9538 24.7472 32.9951 25.022 32.9951C25.4314 32.9951 25.765 32.9208 26.0229 32.7721C26.2865 32.618 26.4183 32.4116 26.4183 32.1529C26.4183 31.9218 26.3117 31.7429 26.0986 31.6163C25.8856 31.4842 25.594 31.4182 25.2239 31.4182H24.4669V30.9889H25.1902C25.5211 30.9889 25.7874 30.9283 25.9893 30.8072C26.1912 30.6806 26.2921 30.5128 26.2921 30.3036C26.2921 30.0725 26.1772 29.8908 25.9472 29.7587C25.7229 29.6266 25.4285 29.5606 25.0641 29.5606C24.5874 29.5606 24.1164 29.6789 23.651 29.9156L23.4827 29.4615C24.0098 29.1918 24.5566 29.057 25.1229 29.057C25.4594 29.057 25.7622 29.1065 26.0314 29.2056C26.3061 29.2991 26.5192 29.434 26.6706 29.6101C26.8276 29.7862 26.9061 29.9899 26.9061 30.2211C26.9061 30.4412 26.8276 30.6366 26.6706 30.8072C26.5192 30.9779 26.3117 31.1044 26.0482 31.187Z" fill="#7B869A"/>
<path d="M30.718 33.4904C30.2918 33.4904 29.9077 33.3968 29.5656 33.2097C29.2236 33.0171 28.9544 32.7529 28.7581 32.4171C28.5619 32.0814 28.4637 31.7016 28.4637 31.2778C28.4637 30.854 28.5619 30.4742 28.7581 30.1385C28.9544 29.8028 29.2236 29.5413 29.5656 29.3542C29.9077 29.1671 30.2918 29.0735 30.718 29.0735C31.1441 29.0735 31.5283 29.1671 31.8703 29.3542C32.2124 29.5413 32.4787 29.8028 32.6694 30.1385C32.8657 30.4742 32.9638 30.854 32.9638 31.2778C32.9638 31.7016 32.8657 32.0814 32.6694 32.4171C32.4787 32.7529 32.2124 33.0171 31.8703 33.2097C31.5283 33.3968 31.1441 33.4904 30.718 33.4904ZM30.718 32.9703C31.032 32.9703 31.3124 32.9015 31.5591 32.7639C31.8114 32.6208 32.0077 32.4199 32.1479 32.1612C32.2881 31.9025 32.3582 31.6081 32.3582 31.2778C32.3582 30.9476 32.2881 30.6531 32.1479 30.3944C32.0077 30.1357 31.8114 29.9376 31.5591 29.8C31.3124 29.6569 31.032 29.5854 30.718 29.5854C30.4039 29.5854 30.1208 29.6569 29.8684 29.8C29.6217 29.9376 29.4254 30.1357 29.2796 30.3944C29.1394 30.6531 29.0693 30.9476 29.0693 31.2778C29.0693 31.6081 29.1394 31.9025 29.2796 32.1612C29.4254 32.4199 29.6217 32.6208 29.8684 32.7639C30.1208 32.9015 30.4039 32.9703 30.718 32.9703Z" fill="#7B869A"/>
<path d="M37.5626 31.2035C38.1626 31.3411 38.4626 31.6961 38.4626 32.2685C38.4626 32.6483 38.3196 32.94 38.0336 33.1437C37.7477 33.3473 37.3215 33.4491 36.7551 33.4491H34.7448V29.1065H36.6962C37.2009 29.1065 37.5962 29.2028 37.8822 29.3955C38.1682 29.5881 38.3112 29.8633 38.3112 30.2211C38.3112 30.4577 38.2439 30.6614 38.1093 30.832C37.9804 30.9971 37.7981 31.121 37.5626 31.2035ZM35.3252 31.0384H36.6542C36.9962 31.0384 37.257 30.9751 37.4364 30.8485C37.6215 30.7219 37.714 30.5375 37.714 30.2954C37.714 30.0532 37.6215 29.8716 37.4364 29.7505C37.257 29.6294 36.9962 29.5688 36.6542 29.5688H35.3252V31.0384ZM36.7299 32.9868C37.1112 32.9868 37.3972 32.9263 37.5878 32.8052C37.7785 32.6841 37.8738 32.4942 37.8738 32.2355C37.8738 31.9768 37.7869 31.7869 37.6131 31.6658C37.4392 31.5393 37.1645 31.476 36.7888 31.476H35.3252V32.9868H36.7299Z" fill="#7B869A"/>
<path d="M41.8894 29.0735C42.4669 29.0735 42.9099 29.2166 43.2184 29.5028C43.5268 29.7835 43.681 30.2018 43.681 30.7577V33.4491H43.109V32.7721C42.9744 32.9978 42.7754 33.1739 42.5118 33.3005C42.2539 33.4271 41.9454 33.4904 41.5866 33.4904C41.0931 33.4904 40.7006 33.3748 40.409 33.1437C40.1174 32.9125 39.9716 32.607 39.9716 32.2273C39.9716 31.8585 40.1062 31.5613 40.3753 31.3356C40.6501 31.1099 41.0847 30.9971 41.6791 30.9971H43.0838V30.7329C43.0838 30.3587 42.9772 30.0752 42.7641 29.8826C42.5511 29.6844 42.2398 29.5854 41.8305 29.5854C41.5501 29.5854 41.2809 29.6321 41.023 29.7257C40.7651 29.8138 40.5436 29.9376 40.3585 30.0972L40.0893 29.6597C40.3136 29.4725 40.5828 29.3294 40.8968 29.2303C41.2109 29.1258 41.5417 29.0735 41.8894 29.0735ZM41.6791 33.0281C42.0155 33.0281 42.3043 32.9538 42.5454 32.8052C42.7866 32.6511 42.966 32.4309 43.0838 32.1447V31.4347H41.6959C40.9389 31.4347 40.5604 31.6934 40.5604 32.2107C40.5604 32.4639 40.6585 32.6648 40.8548 32.8134C41.051 32.9565 41.3258 33.0281 41.6791 33.0281Z" fill="#7B869A"/>
<path d="M48.8876 29.6266H47.2138V33.4491H46.6166V29.6266H44.9427V29.1065H48.8876V29.6266Z" fill="#7B869A"/>
<path d="M53.9196 31.4594H50.2187C50.2523 31.9108 50.429 32.2768 50.7486 32.5575C51.0682 32.8327 51.472 32.9703 51.9598 32.9703C52.2346 32.9703 52.4869 32.9235 52.7168 32.8299C52.9467 32.7309 53.1458 32.5878 53.314 32.4006L53.6505 32.7804C53.4542 33.0116 53.2075 33.1877 52.9103 33.3088C52.6187 33.4299 52.2963 33.4904 51.943 33.4904C51.4888 33.4904 51.085 33.3968 50.7318 33.2097C50.3841 33.0171 50.1121 32.7529 49.9159 32.4171C49.7196 32.0814 49.6215 31.7016 49.6215 31.2778C49.6215 30.854 49.714 30.4742 49.899 30.1385C50.0897 29.8028 50.3476 29.5413 50.6729 29.3542C51.0037 29.1671 51.3738 29.0735 51.7832 29.0735C52.1925 29.0735 52.5598 29.1671 52.8851 29.3542C53.2103 29.5413 53.4654 29.8028 53.6505 30.1385C53.8355 30.4687 53.9281 30.8485 53.9281 31.2778L53.9196 31.4594ZM51.7832 29.5771C51.357 29.5771 50.9981 29.7119 50.7065 29.9816C50.4205 30.2458 50.2579 30.5926 50.2187 31.0219H53.3561C53.3168 30.5926 53.1514 30.2458 52.8598 29.9816C52.5738 29.7119 52.2149 29.5771 51.7832 29.5771Z" fill="#7B869A"/>
<path d="M59.2812 29.1065V33.4491H58.684V29.6266H56.5643L56.5055 30.6999C56.4606 31.6026 56.3541 32.2961 56.1858 32.7804C56.0176 33.2647 55.7176 33.5069 55.2858 33.5069C55.1681 33.5069 55.0251 33.4849 54.8568 33.4409L54.8989 32.9373C54.9998 32.9593 55.0699 32.9703 55.1092 32.9703C55.3391 32.9703 55.5129 32.8657 55.6307 32.6566C55.7484 32.4474 55.827 32.1887 55.8662 31.8805C55.9055 31.5723 55.9391 31.165 55.9671 30.6586L56.0428 29.1065H59.2812Z" fill="#7B869A"/>
<path d="M63.3845 30.6421C63.9397 30.6476 64.3602 30.7687 64.6462 31.0054C64.9378 31.242 65.0836 31.5833 65.0836 32.0291C65.0836 32.4914 64.9266 32.8464 64.6126 33.0941C64.3042 33.3418 63.8556 33.4629 63.2668 33.4574L61.4836 33.4491V29.1065H62.0808V30.6256L63.3845 30.6421ZM63.2331 33.0116C63.6425 33.0171 63.9509 32.9373 64.1584 32.7721C64.3715 32.6015 64.478 32.3538 64.478 32.0291C64.478 31.7099 64.3743 31.4732 64.1668 31.3191C63.9593 31.165 63.6481 31.0852 63.2331 31.0797L62.0808 31.0632V32.9951L63.2331 33.0116Z" fill="#7B869A"/>
<path d="M66.7278 29.1065H67.325V31.0301H70.1092V29.1065H70.7064V33.4491H70.1092V31.5338H67.325V33.4491H66.7278V29.1065Z" fill="#7B869A"/>
<path d="M74.4309 29.0735C75.0085 29.0735 75.4515 29.2166 75.7599 29.5028C76.0683 29.7835 76.2225 30.2018 76.2225 30.7577V33.4491H75.6506V32.7721C75.516 32.9978 75.3169 33.1739 75.0534 33.3005C74.7954 33.4271 74.487 33.4904 74.1281 33.4904C73.6347 33.4904 73.2421 33.3748 72.9506 33.1437C72.659 32.9125 72.5132 32.607 72.5132 32.2273C72.5132 31.8585 72.6478 31.5613 72.9169 31.3356C73.1917 31.1099 73.6263 30.9971 74.2207 30.9971H75.6254V30.7329C75.6254 30.3587 75.5188 30.0752 75.3057 29.8826C75.0926 29.6844 74.7814 29.5854 74.3721 29.5854C74.0917 29.5854 73.8225 29.6321 73.5646 29.7257C73.3066 29.8138 73.0851 29.9376 72.9001 30.0972L72.6309 29.6597C72.8552 29.4725 73.1244 29.3294 73.4384 29.2303C73.7524 29.1258 74.0833 29.0735 74.4309 29.0735ZM74.2207 33.0281C74.5571 33.0281 74.8459 32.9538 75.087 32.8052C75.3281 32.6511 75.5076 32.4309 75.6254 32.1447V31.4347H74.2375C73.4805 31.4347 73.102 31.6934 73.102 32.2107C73.102 32.4639 73.2001 32.6648 73.3964 32.8134C73.5926 32.9565 73.8674 33.0281 74.2207 33.0281Z" fill="#7B869A"/>
<path d="M81.7152 29.1065V33.4491H81.1685V32.0126H79.7806H79.6124L78.5862 33.4491H77.9385L79.0404 31.93C78.6983 31.8365 78.4348 31.6769 78.2497 31.4512C78.0647 31.2255 77.9722 30.9393 77.9722 30.5926C77.9722 30.1082 78.1404 29.7395 78.4768 29.4863C78.8133 29.2331 79.2731 29.1065 79.8563 29.1065H81.7152ZM78.5778 30.6091C78.5778 31.2531 78.9955 31.575 79.8311 31.575H81.1685V29.6266H79.8731C79.0096 29.6266 78.5778 29.9541 78.5778 30.6091Z" fill="#7B869A"/>
<path d="M90.5989 29.1065V33.4491H90.0017V29.6266H87.226V33.4491H86.6288V29.1065H90.5989Z" fill="#7B869A"/>
<path d="M96.4181 29.1065V33.4491H95.8209V29.6266H93.7013L93.6424 30.6999C93.5975 31.6026 93.491 32.2961 93.3227 32.7804C93.1545 33.2647 92.8545 33.5069 92.4227 33.5069C92.305 33.5069 92.162 33.4849 91.9938 33.4409L92.0358 32.9373C92.1367 32.9593 92.2068 32.9703 92.2461 32.9703C92.476 32.9703 92.6498 32.8657 92.7676 32.6566C92.8854 32.4474 92.9639 32.1887 93.0031 31.8805C93.0424 31.5723 93.076 31.165 93.104 30.6586L93.1798 29.1065H96.4181Z" fill="#7B869A"/>
<path d="M100.143 29.0735C100.721 29.0735 101.164 29.2166 101.472 29.5028C101.78 29.7835 101.935 30.2018 101.935 30.7577V33.4491H101.363V32.7721C101.228 32.9978 101.029 33.1739 100.765 33.3005C100.507 33.4271 100.199 33.4904 99.8401 33.4904C99.3467 33.4904 98.9541 33.3748 98.6625 33.1437C98.3709 32.9125 98.2252 32.607 98.2252 32.2273C98.2252 31.8585 98.3597 31.5613 98.6289 31.3356C98.9037 31.1099 99.3383 30.9971 99.9327 30.9971H101.337V30.7329C101.337 30.3587 101.231 30.0752 101.018 29.8826C100.805 29.6844 100.493 29.5854 100.084 29.5854C99.8037 29.5854 99.5345 29.6321 99.2766 29.7257C99.0186 29.8138 98.7971 29.9376 98.6121 30.0972L98.3429 29.6597C98.5672 29.4725 98.8364 29.3294 99.1504 29.2303C99.4644 29.1258 99.7953 29.0735 100.143 29.0735ZM99.9327 33.0281C100.269 33.0281 100.558 32.9538 100.799 32.8052C101.04 32.6511 101.22 32.4309 101.337 32.1447V31.4347H99.9495C99.1925 31.4347 98.8139 31.6934 98.8139 32.2107C98.8139 32.4639 98.9121 32.6648 99.1083 32.8134C99.3046 32.9565 99.5794 33.0281 99.9327 33.0281Z" fill="#7B869A"/>
<path d="M107.141 29.6266H105.467V33.4491H104.87V29.6266H103.196V29.1065H107.141V29.6266Z" fill="#7B869A"/>
<path d="M113.645 31.2696C113.645 31.9466 113.418 32.4777 112.964 32.863C112.51 33.2482 111.868 33.4574 111.038 33.4904V35.0508H110.457V33.4987C109.633 33.4656 108.994 33.2565 108.54 32.8712C108.091 32.4804 107.867 31.9466 107.867 31.2696C107.867 30.5981 108.091 30.0725 108.54 29.6927C108.994 29.3129 109.633 29.1065 110.457 29.0735V27.3232H111.038V29.0735C111.868 29.112 112.51 29.3212 112.964 29.7009C113.418 30.0807 113.645 30.6036 113.645 31.2696ZM108.455 31.2696C108.455 31.7869 108.624 32.1915 108.96 32.4832C109.302 32.7749 109.801 32.94 110.457 32.9785V29.5936C109.807 29.6266 109.311 29.789 108.969 30.0807C108.626 30.3669 108.455 30.7632 108.455 31.2696ZM111.038 32.9785C111.694 32.9455 112.193 32.7832 112.535 32.4914C112.883 32.1997 113.056 31.7924 113.056 31.2696C113.056 30.7577 112.883 30.3587 112.535 30.0725C112.193 29.7862 111.694 29.6266 111.038 29.5936V32.9785Z" fill="#7B869A"/>
<path d="M117.238 33.4904C116.812 33.4904 116.428 33.3968 116.086 33.2097C115.744 33.0171 115.475 32.7529 115.278 32.4171C115.082 32.0814 114.984 31.7016 114.984 31.2778C114.984 30.854 115.082 30.4742 115.278 30.1385C115.475 29.8028 115.744 29.5413 116.086 29.3542C116.428 29.1671 116.812 29.0735 117.238 29.0735C117.664 29.0735 118.048 29.1671 118.39 29.3542C118.733 29.5413 118.999 29.8028 119.19 30.1385C119.386 30.4742 119.484 30.854 119.484 31.2778C119.484 31.7016 119.386 32.0814 119.19 32.4171C118.999 32.7529 118.733 33.0171 118.39 33.2097C118.048 33.3968 117.664 33.4904 117.238 33.4904ZM117.238 32.9703C117.552 32.9703 117.833 32.9015 118.079 32.7639C118.332 32.6208 118.528 32.4199 118.668 32.1612C118.808 31.9025 118.878 31.6081 118.878 31.2778C118.878 30.9476 118.808 30.6531 118.668 30.3944C118.528 30.1357 118.332 29.9376 118.079 29.8C117.833 29.6569 117.552 29.5854 117.238 29.5854C116.924 29.5854 116.641 29.6569 116.389 29.8C116.142 29.9376 115.946 30.1357 115.8 30.3944C115.66 30.6531 115.59 30.9476 115.59 31.2778C115.59 31.6081 115.66 31.9025 115.8 32.1612C115.946 32.4199 116.142 32.6208 116.389 32.7639C116.641 32.9015 116.924 32.9703 117.238 32.9703Z" fill="#7B869A"/>
<path d="M123.544 29.0735C123.959 29.0735 124.335 29.1671 124.672 29.3542C125.008 29.5358 125.272 29.7945 125.462 30.1302C125.653 30.466 125.748 30.8485 125.748 31.2778C125.748 31.7126 125.653 32.0979 125.462 32.4337C125.272 32.7694 125.008 33.0308 124.672 33.218C124.341 33.3996 123.965 33.4904 123.544 33.4904C123.186 33.4904 122.86 33.4189 122.569 33.2758C122.283 33.1271 122.047 32.9125 121.862 32.6318V35.0508H121.265V29.1065H121.837V29.9651C122.016 29.6789 122.252 29.4588 122.543 29.3047C122.841 29.1505 123.174 29.0735 123.544 29.0735ZM123.502 32.9703C123.811 32.9703 124.091 32.9015 124.344 32.7639C124.596 32.6208 124.792 32.4199 124.932 32.1612C125.078 31.9025 125.151 31.6081 125.151 31.2778C125.151 30.9476 125.078 30.6559 124.932 30.4027C124.792 30.144 124.596 29.9431 124.344 29.8C124.091 29.6569 123.811 29.5854 123.502 29.5854C123.188 29.5854 122.905 29.6569 122.653 29.8C122.406 29.9431 122.21 30.144 122.064 30.4027C121.924 30.6559 121.854 30.9476 121.854 31.2778C121.854 31.6081 121.924 31.9025 122.064 32.1612C122.21 32.4199 122.406 32.6208 122.653 32.7639C122.905 32.9015 123.188 32.9703 123.502 32.9703Z" fill="#7B869A"/>
<path d="M132.482 29.1065V33.4491H131.935V30.0147L130.144 32.9208H129.874L128.083 30.0064V33.4491H127.536V29.1065H128.142L130.017 32.2355L131.927 29.1065H132.482Z" fill="#7B869A"/>
<path d="M136.208 29.0735C136.786 29.0735 137.229 29.2166 137.537 29.5028C137.846 29.7835 138 30.2018 138 30.7577V33.4491H137.428V32.7721C137.293 32.9978 137.094 33.1739 136.831 33.3005C136.573 33.4271 136.264 33.4904 135.906 33.4904C135.412 33.4904 135.02 33.3748 134.728 33.1437C134.436 32.9125 134.291 32.607 134.291 32.2273C134.291 31.8585 134.425 31.5613 134.694 31.3356C134.969 31.1099 135.404 30.9971 135.998 30.9971H137.403V30.7329C137.403 30.3587 137.296 30.0752 137.083 29.8826C136.87 29.6844 136.559 29.5854 136.15 29.5854C135.869 29.5854 135.6 29.6321 135.342 29.7257C135.084 29.8138 134.863 29.9376 134.678 30.0972L134.408 29.6597C134.633 29.4725 134.902 29.3294 135.216 29.2303C135.53 29.1258 135.861 29.0735 136.208 29.0735ZM135.998 33.0281C136.335 33.0281 136.623 32.9538 136.864 32.8052C137.106 32.6511 137.285 32.4309 137.403 32.1447V31.4347H136.015C135.258 31.4347 134.879 31.6934 134.879 32.2107C134.879 32.4639 134.978 32.6648 135.174 32.8134C135.37 32.9565 135.645 33.0281 135.998 33.0281Z" fill="#7B869A"/>
</svg>
