<svg width="21" height="21" viewBox="0 0 21 21" fill="none" xmlns="http://www.w3.org/2000/svg">
<path d="M17.3916 5.22669C17.3169 4.94653 17.1651 4.64802 17.0528 4.38666C15.709 1.15733 12.773 0 10.4023 0C7.22864 0 3.73326 2.12805 3.2666 6.51447V7.41064C3.2666 7.44804 3.27949 7.784 3.2978 7.95205C3.5594 10.0425 5.20893 12.2642 6.44086 14.3547C7.76625 16.5944 9.14153 18.7976 10.5041 20.9999C11.3442 19.5628 12.1814 18.1067 13.0024 16.7067C13.2262 16.2958 13.4859 15.8852 13.7099 15.4931C13.8592 15.2319 14.1445 14.9708 14.2748 14.7279C15.6001 12.3014 17.7334 9.8561 17.7334 7.44799V6.45872C17.7334 6.19765 17.4098 5.28298 17.3916 5.22669ZM10.4604 9.72545C9.52748 9.72545 8.50637 9.25898 8.00236 7.97075C7.92727 7.76569 7.93332 7.35474 7.93332 7.31709V6.73843C7.93332 5.09618 9.32774 4.34936 10.5408 4.34936C12.0343 4.34936 13.1893 5.54419 13.1893 7.03762C13.1893 8.53101 11.9538 9.72545 10.4604 9.72545Z" fill="#C5C5C5"/>
</svg>
