<svg width="114" height="22" fill="none" xmlns="http://www.w3.org/2000/svg"><path d="M56.789.521v9.695h-2.812V2.828h-4.036v7.388h-2.794V.521h9.642zm7.236 9.839c-1.02 0-1.94-.21-2.757-.63a4.835 4.835 0 01-1.892-1.784c-.457-.757-.685-1.616-.685-2.577 0-.961.228-1.82.685-2.577a4.708 4.708 0 011.892-1.766c.817-.433 1.736-.65 2.757-.65 1.021 0 1.935.217 2.74.65a4.707 4.707 0 011.892 1.766c.456.757.684 1.616.684 2.577 0 .96-.228 1.82-.684 2.577a4.834 4.834 0 01-1.892 1.784c-.805.42-1.719.63-2.74.63zm0-2.306c.721 0 1.31-.24 1.766-.721.469-.493.703-1.147.703-1.964s-.234-1.466-.703-1.947c-.456-.492-1.045-.738-1.766-.738-.72 0-1.315.246-1.784.738-.468.48-.703 1.13-.703 1.947 0 .817.235 1.471.703 1.964.469.48 1.063.72 1.784.72zM76.988.377c.9 0 1.718.21 2.45.63a4.37 4.37 0 011.749 1.749c.42.744.63 1.615.63 2.613 0 .997-.21 1.874-.63 2.63a4.526 4.526 0 01-1.748 1.749c-.733.408-1.55.612-2.451.612-1.238 0-2.21-.39-2.92-1.17v4.522h-2.81V.521h2.684v1.117C74.64.798 75.654.377 76.988.377zM76.5 8.054c.721 0 1.31-.24 1.766-.721.469-.493.703-1.147.703-1.964s-.234-1.466-.703-1.947c-.456-.492-1.045-.738-1.766-.738-.72 0-1.315.246-1.784.738-.456.48-.685 1.13-.685 1.947 0 .817.229 1.471.685 1.964.469.48 1.063.72 1.784.72zm15.081-5.226h-3.28v7.388h-2.793V2.828h-3.28V.52h9.353v2.307zM96.846.377c1.502 0 2.655.36 3.46 1.081.805.709 1.208 1.784 1.208 3.226v5.532h-2.632V9.01c-.528.9-1.513 1.351-2.955 1.351-.745 0-1.394-.126-1.946-.378-.54-.252-.955-.6-1.244-1.045a2.72 2.72 0 01-.432-1.514c0-.901.336-1.61 1.009-2.126.685-.517 1.736-.775 3.154-.775h2.234c0-.613-.186-1.082-.558-1.406-.373-.336-.931-.505-1.676-.505-.517 0-1.028.085-1.532.253a3.91 3.91 0 00-1.262.648l-1.009-1.964c.529-.372 1.16-.66 1.892-.865a8.615 8.615 0 012.29-.306zm-.216 8.091c.48 0 .907-.108 1.28-.324.372-.228.636-.559.792-.991v-.991h-1.928c-1.153 0-1.73.378-1.73 1.135 0 .36.138.649.415.865.288.204.678.306 1.17.306zM113.254.521v9.695h-2.811V2.828h-3.063l-.09 1.712c-.049 1.273-.169 2.33-.361 3.171-.192.841-.504 1.502-.937 1.983-.432.48-1.033.72-1.802.72-.409 0-.895-.072-1.46-.216l.144-2.306c.193.024.331.036.415.036.42 0 .733-.15.937-.45.216-.313.36-.704.432-1.172.073-.48.127-1.112.163-1.892l.144-3.893h8.289z" fill="#2C78F6"/><path d="M5.406 10.36c-1.033 0-1.964-.21-2.793-.63A4.934 4.934 0 01.685 7.946C.228 7.189 0 6.33 0 5.369c0-.961.228-1.82.685-2.577a4.805 4.805 0 011.928-1.766c.829-.433 1.76-.65 2.793-.65 1.021 0 1.91.217 2.667.65a3.739 3.739 0 011.676 1.82L7.57 4.017c-.505-.889-1.232-1.333-2.18-1.333-.734 0-1.34.24-1.82.72-.481.48-.722 1.136-.722 1.965 0 .829.24 1.483.721 1.964.48.48 1.087.72 1.82.72.961 0 1.688-.444 2.18-1.333L9.75 7.91c-.348.768-.907 1.37-1.676 1.802-.756.432-1.646.648-2.667.648zm14.162-7.532h-3.28v7.388h-2.793V2.828h-3.28V.52h9.353v2.307zm5.635 7.532c-1.021 0-1.94-.21-2.757-.63a4.835 4.835 0 01-1.892-1.784c-.457-.757-.685-1.616-.685-2.577 0-.961.228-1.82.685-2.577a4.708 4.708 0 011.892-1.766c.817-.433 1.736-.65 2.757-.65 1.021 0 1.934.217 2.74.65a4.708 4.708 0 011.891 1.766c.457.757.685 1.616.685 2.577 0 .96-.228 1.82-.685 2.577a4.835 4.835 0 01-1.892 1.784c-.805.42-1.718.63-2.739.63zm0-2.306c.72 0 1.31-.24 1.766-.721.469-.493.703-1.147.703-1.964s-.234-1.466-.703-1.947c-.457-.492-1.045-.738-1.766-.738-.72 0-1.316.246-1.784.738-.469.48-.703 1.13-.703 1.947 0 .817.234 1.471.703 1.964.468.48 1.063.72 1.784.72zm16.711 2.162V4.414l-2.902 4.865h-1.189l-2.83-4.883v5.82h-2.54V.521h2.937l3.1 5.605L41.788.52h2.63l.037 9.695h-2.541z" fill="#30353E"/><path d="M2.886 20.28c-.457 0-.868-.101-1.233-.304a2.244 2.244 0 01-.859-.833 2.428 2.428 0 01-.303-1.214c0-.451.101-.854.303-1.206.209-.36.495-.637.86-.833a2.493 2.493 0 011.232-.304c.456 0 .864.101 1.223.304.364.196.648.474.85.833.208.352.313.755.313 1.206 0 .45-.105.856-.313 1.214-.202.353-.486.63-.85.833a2.446 2.446 0 01-1.223.304zm0-.729c.295 0 .558-.066.79-.2.236-.138.421-.33.554-.572.133-.249.2-.532.2-.85 0-.319-.067-.6-.2-.842a1.395 1.395 0 00-.555-.573 1.556 1.556 0 00-.79-.2c-.294 0-.56.067-.798.2a1.471 1.471 0 00-.555.573c-.133.243-.2.523-.2.842 0 .318.067.601.2.85.139.243.324.434.555.573.237.133.503.2.799.2zm6.211-3.765c.429 0 .81.095 1.146.286.335.19.596.457.78.798.192.336.287.72.287 1.154 0 .445-.101.842-.304 1.189a2.04 2.04 0 01-.841.798c-.359.191-.77.286-1.232.286-.781 0-1.386-.266-1.814-.798-.422-.538-.633-1.293-.633-2.264 0-.943.194-1.68.581-2.213.388-.538.98-.894 1.779-1.067l2.1-.469.121.764-1.935.416c-.601.133-1.05.359-1.345.677-.295.318-.462.775-.503 1.37a2.03 2.03 0 01.764-.685 2.247 2.247 0 011.05-.242zm-.147 3.817c.295 0 .555-.066.78-.2.232-.132.412-.315.539-.546a1.68 1.68 0 00.19-.807c0-.457-.138-.824-.416-1.102-.277-.277-.642-.416-1.093-.416-.451 0-.819.139-1.102.416-.278.278-.416.645-.416 1.102 0 .3.063.57.19.807.133.231.316.414.547.547.231.133.492.2.781.2zm7.807-3.973l-2.23 5.058c-.197.468-.428.798-.694.989-.26.19-.576.286-.946.286-.225 0-.445-.037-.66-.113a1.306 1.306 0 01-.52-.312l.356-.625c.237.226.512.339.824.339.203 0 .37-.055.503-.165.14-.104.264-.286.374-.547l.147-.32-2.03-4.59h.867l1.606 3.678 1.587-3.679h.816zm4.803 0v4.598h-.832v-1.857a3.496 3.496 0 01-1.484.347c-.573 0-1.015-.133-1.328-.399-.312-.266-.468-.665-.468-1.197v-1.493h.833v1.44c0 .319.098.559.295.72.202.163.483.244.841.244.405 0 .842-.102 1.31-.304v-2.1h.834zm6.054 2.325c0 .063-.006.147-.017.251h-3.731c.052.405.228.732.529.98.307.244.686.365 1.137.365.55 0 .992-.185 1.327-.555l.46.538a2.009 2.009 0 01-.78.555 2.682 2.682 0 01-1.033.191c-.486 0-.917-.098-1.293-.295a2.193 2.193 0 01-.877-.842 2.428 2.428 0 01-.303-1.214c0-.446.098-.848.295-1.206.202-.36.477-.637.824-.833.353-.203.75-.304 1.189-.304.44 0 .83.101 1.171.304.347.196.616.474.807.833.197.358.295.769.295 1.232zm-2.273-1.666c-.4 0-.735.121-1.007.364-.266.243-.422.561-.468.955h2.95a1.453 1.453 0 00-.477-.946c-.266-.249-.6-.373-.998-.373zm3.846-.659h.833v1.952h2.62v-1.953h.833v4.599h-.833v-1.926h-2.62v1.926h-.833v-4.599zm6.186 0h.833v3.348l2.82-3.349h.755v4.599h-.833v-3.35l-2.812 3.35h-.763v-4.599zm10.461 2.325c0 .063-.006.147-.017.251h-3.731c.052.405.228.732.529.98.306.244.685.365 1.137.365.55 0 .992-.185 1.327-.555l.46.538a2.009 2.009 0 01-.78.555 2.683 2.683 0 01-1.034.191c-.485 0-.916-.098-1.292-.295a2.193 2.193 0 01-.877-.842 2.428 2.428 0 01-.303-1.214c0-.446.098-.848.295-1.206.202-.36.477-.637.824-.833.353-.203.75-.304 1.189-.304.44 0 .83.101 1.171.304.347.196.616.474.807.833.197.358.295.769.295 1.232zm-2.273-1.666c-.4 0-.735.121-1.007.364-.266.243-.422.561-.468.955h2.95a1.452 1.452 0 00-.477-.946c-.267-.249-.6-.373-.998-.373zm8.46 3.991a2.58 2.58 0 01-1.258-.304 2.243 2.243 0 01-.859-.833 2.374 2.374 0 01-.312-1.214c0-.451.104-.854.312-1.206.208-.36.495-.637.86-.833a2.57 2.57 0 011.257-.304c.417 0 .787.084 1.111.252.33.167.584.41.764.728l-.634.408a1.416 1.416 0 00-.538-.494 1.534 1.534 0 00-.711-.165 1.66 1.66 0 00-.816.2 1.452 1.452 0 00-.564.572c-.133.243-.2.523-.2.842 0 .324.067.61.2.859.139.243.327.43.564.564.243.133.515.2.816.2.26 0 .497-.056.711-.166.214-.11.394-.274.538-.494l.634.399a1.84 1.84 0 01-.764.737 2.38 2.38 0 01-1.11.252zm6.601-3.922H56.94v3.87h-.833v-3.87h-1.683v-.729h4.2v.73zm2.898 3.922c-.456 0-.867-.101-1.232-.304a2.243 2.243 0 01-.858-.833 2.427 2.427 0 01-.304-1.214c0-.451.101-.854.304-1.206.208-.36.494-.637.858-.833a2.494 2.494 0 011.233-.304c.457 0 .864.101 1.223.304.364.196.648.474.85.833.209.352.313.755.313 1.206 0 .45-.104.856-.313 1.214-.202.353-.486.63-.85.833a2.446 2.446 0 01-1.223.304zm0-.729c.296 0 .559-.066.79-.2.237-.138.422-.33.555-.572.134-.249.2-.532.2-.85 0-.319-.066-.6-.2-.842a1.395 1.395 0 00-.555-.573 1.556 1.556 0 00-.79-.2c-.294 0-.56.067-.798.2a1.47 1.47 0 00-.555.573c-.133.243-.2.523-.2.842 0 .318.067.601.2.85.139.243.324.434.555.573.237.133.504.2.799.2zm9.171-3.921v4.598h-.755V16.87l-1.718 2.837h-.364l-1.7-2.846v3.367h-.764v-4.599h.859l1.805 3.107 1.856-3.107h.781zm3.542-.044c.636 0 1.122.156 1.458.469.34.312.511.777.511 1.396v2.777h-.79v-.607a1.34 1.34 0 01-.598.494c-.254.11-.558.165-.91.165-.516 0-.93-.124-1.242-.373a1.201 1.201 0 01-.46-.98c0-.405.148-.73.443-.972.295-.25.764-.373 1.406-.373h1.319v-.165c0-.359-.105-.634-.313-.825-.208-.19-.515-.286-.92-.286a2.36 2.36 0 00-.798.139c-.26.087-.48.205-.66.356l-.346-.625c.237-.19.52-.336.85-.434.33-.104.68-.156 1.05-.156zm-.191 4.052c.318 0 .593-.07.824-.208.232-.145.4-.347.504-.608v-.642h-1.285c-.705 0-1.058.237-1.058.712 0 .231.09.413.269.546.18.133.428.2.746.2zm7.368-3.28h-1.683v3.87h-.833v-3.87H77.21v-.729h4.2v.73zm2.898 3.922a2.49 2.49 0 01-1.232-.304 2.244 2.244 0 01-.859-.833 2.428 2.428 0 01-.303-1.214c0-.451.1-.854.303-1.206.209-.36.495-.637.86-.833a2.493 2.493 0 011.231-.304c.457 0 .865.101 1.224.304.364.196.648.474.85.833.208.352.313.755.313 1.206 0 .45-.105.856-.313 1.214a2.18 2.18 0 01-.85.833 2.445 2.445 0 01-1.224.304zm0-.729c.295 0 .559-.066.79-.2.237-.138.422-.33.555-.572.133-.249.2-.532.2-.85 0-.319-.067-.6-.2-.842a1.395 1.395 0 00-.555-.573 1.556 1.556 0 00-.79-.2c-.295 0-.56.067-.798.2a1.472 1.472 0 00-.555.573c-.133.243-.2.523-.2.842 0 .318.067.601.2.85.139.243.324.434.555.573.237.133.503.2.798.2zm7.784-3.921v4.598h-.833v-3.87H89.28l-.052 1.024a11.04 11.04 0 01-.164 1.553c-.081.41-.214.74-.4.99-.185.248-.442.372-.772.372-.15 0-.32-.026-.512-.078l.052-.703a.934.934 0 00.209.027.563.563 0 00.52-.304c.116-.203.191-.443.226-.72.034-.278.066-.674.095-1.19l.078-1.7h3.532zm3.86 4.65a2.49 2.49 0 01-1.232-.304 2.244 2.244 0 01-.859-.833 2.428 2.428 0 01-.303-1.214c0-.451.1-.854.303-1.206.208-.36.495-.637.86-.833a2.494 2.494 0 011.231-.304c.457 0 .865.101 1.224.304.364.196.647.474.85.833.208.352.312.755.312 1.206 0 .45-.104.856-.312 1.214-.203.353-.486.63-.85.833a2.446 2.446 0 01-1.224.304zm0-.729c.295 0 .558-.066.79-.2.237-.138.422-.33.555-.572.133-.249.2-.532.2-.85 0-.319-.067-.6-.2-.842a1.395 1.395 0 00-.555-.573 1.555 1.555 0 00-.79-.2c-.295 0-.56.067-.798.2a1.47 1.47 0 00-.555.573c-.133.243-.2.523-.2.842 0 .318.067.601.2.85.138.243.324.434.555.573.237.133.503.2.798.2zm7.253-3.193h-2.551v3.87h-.832v-4.599h3.383v.73zm2.9 3.922c-.457 0-.868-.101-1.232-.304a2.238 2.238 0 01-.859-.833 2.422 2.422 0 01-.304-1.214c0-.451.101-.854.304-1.206.208-.36.494-.637.859-.833a2.492 2.492 0 011.232-.304c.457 0 .865.101 1.223.304a2.1 2.1 0 01.851.833c.208.352.312.755.312 1.206 0 .45-.104.856-.312 1.214-.203.353-.486.63-.851.833a2.442 2.442 0 01-1.223.304zm0-.729c.295 0 .558-.066.789-.2.238-.138.423-.33.556-.572.133-.249.199-.532.199-.85 0-.319-.066-.6-.199-.842a1.392 1.392 0 00-.556-.573 1.552 1.552 0 00-.789-.2c-.295 0-.561.067-.798.2a1.47 1.47 0 00-.556.573 1.724 1.724 0 00-.199.842c0 .318.066.601.199.85.139.243.324.434.556.573.237.133.503.2.798.2zm7.001-1.709c.596.15.894.523.894 1.12 0 .404-.153.716-.46.936-.301.22-.752.33-1.353.33h-2.213v-4.599h2.135c.543 0 .968.104 1.275.313.307.202.46.491.46.867 0 .243-.067.454-.2.634a1.194 1.194 0 01-.538.399zm-2.316-.234h1.249c.318 0 .558-.058.72-.174a.573.573 0 00.252-.503c0-.44-.324-.66-.972-.66h-1.249v1.337zm1.336 1.978c.347 0 .607-.055.781-.165.173-.11.26-.28.26-.512 0-.237-.081-.413-.243-.53-.156-.115-.405-.173-.746-.173h-1.388v1.38h1.336z" fill="#909AAB"/></svg>