<svg width="19" height="20" viewBox="0 0 19 20" fill="none" xmlns="http://www.w3.org/2000/svg">
<path d="M6.7121 10.4855C6.7121 10.2475 6.51903 10.0547 6.28081 10.0547H4.77578C4.53783 10.0547 4.34473 10.2475 4.34473 10.4855V11.9904C4.34473 12.2287 4.53783 12.4216 4.77578 12.4216H6.28081C6.51903 12.4216 6.7121 12.2287 6.7121 11.9904V10.4855Z" fill="#C5C5C5"/>
<path d="M10.4765 10.4855C10.4765 10.2475 10.2834 10.0547 10.0457 10.0547H8.54043C8.30248 10.0547 8.10938 10.2475 8.10938 10.4855V11.9904C8.10938 12.2287 8.30248 12.4216 8.54043 12.4216H10.0457C10.2834 12.4216 10.4765 12.2287 10.4765 11.9904V10.4855Z" fill="#C5C5C5"/>
<path d="M14.2346 10.4855C14.2346 10.2475 14.0415 10.0547 13.8035 10.0547H12.2985C12.0603 10.0547 11.8672 10.2475 11.8672 10.4855V11.9904C11.8672 12.2287 12.0603 12.4216 12.2985 12.4216H13.8035C14.0415 12.4216 14.2346 12.2287 14.2346 11.9904V10.4855Z" fill="#C5C5C5"/>
<path d="M6.7121 14.2475C6.7121 14.0091 6.51903 13.8164 6.28081 13.8164H4.77578C4.53783 13.8164 4.34473 14.0091 4.34473 14.2475V15.7521C4.34473 15.9902 4.53783 16.1831 4.77578 16.1831H6.28081C6.51903 16.1831 6.7121 15.9902 6.7121 15.7521V14.2475Z" fill="#C5C5C5"/>
<path d="M10.4765 14.2475C10.4765 14.0091 10.2834 13.8164 10.0457 13.8164H8.54043C8.30248 13.8164 8.10938 14.0091 8.10938 14.2475V15.7521C8.10938 15.9902 8.30248 16.1831 8.54043 16.1831H10.0457C10.2834 16.1831 10.4765 15.9902 10.4765 15.7521V14.2475Z" fill="#C5C5C5"/>
<path d="M14.2346 14.2475C14.2346 14.0091 14.0415 13.8164 13.8037 13.8164H12.2985C12.0603 13.8164 11.8672 14.0091 11.8672 14.2475V15.7521C11.8672 15.9902 12.0603 16.1831 12.2985 16.1831H13.8037C14.0415 16.1831 14.2346 15.9902 14.2346 15.7521V14.2475Z" fill="#C5C5C5"/>
<path d="M16.9262 2.11763V4.41614C16.9262 5.45505 16.0834 6.29225 15.0447 6.29225H13.8577C12.8189 6.29225 11.9649 5.45505 11.9649 4.41614V2.10938H6.61509V4.41614C6.61509 5.45505 5.76115 6.29225 4.72248 6.29225H3.53531C2.4966 6.29225 1.65384 5.45505 1.65384 4.41614V2.11763C0.745995 2.14499 0 2.8962 0 3.81954V17.2899C0 18.2306 0.762461 19.0032 1.70316 19.0032H16.8769C17.8161 19.0032 18.58 18.229 18.58 17.2899V3.81954C18.58 2.8962 17.8341 2.14499 16.9262 2.11763ZM16.3749 16.4511C16.3749 16.8576 16.0453 17.1874 15.6386 17.1874H2.90897C2.50229 17.1874 2.17267 16.8576 2.17267 16.4511V9.49316C2.17267 9.08647 2.50225 8.75666 2.90897 8.75666H15.6386C16.0453 8.75666 16.3749 9.08647 16.3749 9.49316L16.3749 16.4511Z" fill="#C5C5C5"/>
<path d="M3.52713 5.05809H4.70119C5.05754 5.05809 5.34648 4.76958 5.34648 4.41323V0.645102C5.34648 0.288706 5.05754 0 4.70119 0H3.52713C3.17074 0 2.88184 0.288706 2.88184 0.645102V4.41323C2.88184 4.76958 3.17074 5.05809 3.52713 5.05809Z" fill="#C5C5C5"/>
<path d="M13.8445 5.05809H15.0185C15.3747 5.05809 15.6636 4.76958 15.6636 4.41323V0.645102C15.6636 0.288706 15.3747 0 15.0185 0H13.8445C13.4882 0 13.1992 0.288706 13.1992 0.645102V4.41323C13.1992 4.76958 13.4882 5.05809 13.8445 5.05809Z" fill="#C5C5C5"/>
</svg>
