<svg width="43" height="53" viewBox="0 0 43 53" fill="none" xmlns="http://www.w3.org/2000/svg">
<path d="M34.451 22.082H12.3677C11.8801 22.082 11.4844 22.4769 11.4844 22.9654C11.4844 23.4538 11.8801 23.8487 12.3677 23.8487H34.451C34.9386 23.8487 35.3344 23.4538 35.3344 22.9654C35.3344 22.4769 34.9386 22.082 34.451 22.082Z" fill="#2C78F6"/>
<path d="M12.3667 16.783H21.2001C21.6877 16.783 22.0834 16.3882 22.0834 15.8997C22.0834 15.4112 21.6877 15.0164 21.2001 15.0164H12.3667C11.8791 15.0164 11.4834 15.4112 11.4834 15.8997C11.4834 16.3882 11.8791 16.783 12.3667 16.783Z" fill="#2C78F6"/>
<path d="M34.451 29.1484H12.3677C11.8801 29.1484 11.4844 29.5433 11.4844 30.0318C11.4844 30.5203 11.8801 30.9151 12.3677 30.9151H34.451C34.9386 30.9151 35.3344 30.5203 35.3344 30.0318C35.3344 29.5433 34.9386 29.1484 34.451 29.1484Z" fill="#2C78F6"/>
<path d="M34.451 36.2148H12.3677C11.8801 36.2148 11.4844 36.6097 11.4844 37.0982C11.4844 37.5867 11.8801 37.9815 12.3677 37.9815H34.451C34.9386 37.9815 35.3344 37.5867 35.3344 37.0982C35.3344 36.6097 34.9386 36.2148 34.451 36.2148Z" fill="#2C78F6"/>
<path d="M34.451 43.2852H12.3677C11.8801 43.2852 11.4844 43.68 11.4844 44.1685C11.4844 44.657 11.8801 45.0518 12.3677 45.0518H34.451C34.9386 45.0518 35.3344 44.657 35.3344 44.1685C35.3344 43.68 34.9386 43.2852 34.451 43.2852Z" fill="#2C78F6"/>
<path d="M37.9833 12.8843V0H0V48.5833H4.41667V53H42.4V17.301L37.9833 12.8843ZM30.0333 7.43237L37.9833 15.3824L39.3843 16.7833H30.0333V7.43237ZM1.76667 46.8167V1.76667H36.2167V11.1176L29.5157 4.41667H4.41667V46.8167H1.76667ZM6.18333 51.2333V48.5833V6.18333H28.2667V18.55H40.6333V51.2333H6.18333Z" fill="#2C78F6"/>
</svg>
