<svg width="21" height="21" viewBox="0 0 21 21" fill="none" xmlns="http://www.w3.org/2000/svg">
<path fill-rule="evenodd" clip-rule="evenodd" d="M0.643555 8.88008C0.643555 13.7771 4.57218 17.7612 9.40124 17.7612C11.5619 17.7612 13.5424 16.9635 15.0713 15.6431L19.6902 20.7463C19.8366 20.9083 20.0369 20.9903 20.2377 20.9903C20.4171 20.9903 20.5974 20.9245 20.7401 20.7923C21.0423 20.5106 21.0622 20.034 20.7851 19.7275L16.1188 14.5717C17.3915 13.0293 18.1585 11.0438 18.1585 8.88008C18.1585 3.98332 14.2299 -0.000732422 9.40124 -0.000732422C4.57218 -0.000732422 0.643555 3.98332 0.643555 8.88008ZM2.12934 8.88008C2.12934 4.81408 5.39137 1.50568 9.40124 1.50568C13.4106 1.50568 16.6727 4.81408 16.6727 8.88008C16.6727 12.9464 13.4106 16.2544 9.40124 16.2544C5.39137 16.2544 2.12934 12.9464 2.12934 8.88008Z" fill="#909AAB"/>
</svg>
