<svg width="23" height="22" viewBox="0 0 23 22" fill="none" xmlns="http://www.w3.org/2000/svg">
<path d="M21.0011 11C21.0011 16.5228 16.5238 21 11.0006 21C5.47735 21 1 16.5228 1 11C1 5.4772 5.47735 1 11.0006 1C16.5238 1 21.0011 5.4772 21.0011 11Z" stroke="#C5C5C5" stroke-width="2"/>
<mask id="mask0" mask-type="alpha" maskUnits="userSpaceOnUse" x="0" y="0" width="23" height="22">
<ellipse cx="11.0006" cy="11" rx="11.0006" ry="11" fill="#C5C5C5"/>
</mask>
<g mask="url(#mask0)">
<path d="M13.319 7.93728C13.319 9.22161 12.2778 10.2629 10.9932 10.2629C9.70871 10.2629 8.66748 9.22161 8.66748 7.93728C8.66748 6.65294 9.70871 5.61169 10.9932 5.61169C12.2778 5.61169 13.319 6.65294 13.319 7.93728Z" stroke="#C5C5C5" stroke-width="2"/>
<path d="M17.9355 19.9502C17.9355 23.6057 14.8637 26.6246 11.0048 26.6246C7.14596 26.6246 4.07422 23.6057 4.07422 19.9502C4.07422 16.2947 7.14596 13.2758 11.0048 13.2758C14.8637 13.2758 17.9355 16.2947 17.9355 19.9502Z" stroke="#C5C5C5" stroke-width="2"/>
</g>
</svg>
