<svg width="23" height="17" viewBox="0 0 23 17" fill="none" xmlns="http://www.w3.org/2000/svg">
<path fill-rule="evenodd" clip-rule="evenodd" d="M3.61781 7.35149C3.56175 7.26262 3.4942 7.18154 3.41695 7.11035C2.80743 6.50839 1.82619 6.5096 1.21817 7.11401C0.924811 7.40562 0.759077 7.80165 0.757369 8.21528L0.757324 8.21528L0.757393 8.21999C0.760372 8.4226 0.799435 8.62298 0.872686 8.81185L0.872576 8.81189L0.875577 8.81898C0.914077 8.90985 0.960337 8.99718 1.01377 9.08001L1.01362 9.08011L1.01903 9.08784C1.07703 9.17072 1.14323 9.24761 1.21666 9.3173C1.28616 9.3919 1.36486 9.45749 1.45097 9.5124C1.53398 9.57207 1.62369 9.62191 1.71837 9.66083C1.81383 9.7009 1.91358 9.73002 2.01564 9.74756C2.11134 9.7685 2.20907 9.77888 2.30705 9.77849C2.40575 9.78867 2.50529 9.78808 2.60389 9.77671L2.60394 9.77709L2.6175 9.77476C2.71933 9.75731 2.81878 9.7279 2.91373 9.68716C3.01007 9.64862 3.10159 9.59905 3.18648 9.53952C3.27277 9.48466 3.35165 9.41907 3.42131 9.34445C3.4955 9.27519 3.56076 9.19682 3.61543 9.1111C3.67336 9.03068 3.72197 8.94391 3.76028 8.85239C3.8127 8.7485 3.85156 8.63828 3.87592 8.52449L3.87835 8.51314L3.87971 8.50162C3.89098 8.40672 3.89202 8.31094 3.88284 8.21588C3.89166 8.12142 3.89065 8.02625 3.87983 7.93195L3.87772 7.91362L3.87295 7.89579C3.84615 7.79573 3.80763 7.69924 3.75817 7.60828C3.71952 7.51844 3.6725 7.43247 3.61781 7.35149Z" fill="#C5C5C5"/>
<path fill-rule="evenodd" clip-rule="evenodd" d="M7.16674 6.6543C6.35302 6.6543 5.69336 7.35365 5.69336 8.21634C5.69336 9.07903 6.35302 9.77839 7.16674 9.77839H20.78C21.5937 9.77839 22.2534 9.07903 22.2534 8.21634C22.2534 7.35365 21.5937 6.6543 20.78 6.6543H7.16674Z" fill="#C5C5C5"/>
<path fill-rule="evenodd" clip-rule="evenodd" d="M3.61781 0.697193C3.56175 0.608325 3.4942 0.527243 3.41695 0.456056C2.80743 -0.145911 1.82619 -0.144694 1.21817 0.459717C0.924811 0.751324 0.759077 1.14736 0.757369 1.56098L0.757324 1.56098L0.757393 1.56569C0.760372 1.7683 0.799435 1.96869 0.872686 2.15755L0.872576 2.1576L0.875577 2.16468C0.914077 2.25555 0.960337 2.34288 1.01377 2.42572L1.01362 2.42581L1.01903 2.43354C1.07703 2.51642 1.14323 2.59331 1.21666 2.663C1.28616 2.7376 1.36486 2.8032 1.45097 2.85811C1.53398 2.91777 1.62369 2.96761 1.71837 3.00653C1.81383 3.04661 1.91358 3.07572 2.01564 3.09326C2.11134 3.1142 2.20907 3.12458 2.30705 3.12419C2.40575 3.13438 2.50529 3.13378 2.60389 3.12242L2.60394 3.12279L2.6175 3.12047C2.71933 3.10301 2.81878 3.0736 2.91373 3.03286C3.01007 2.99432 3.10159 2.94476 3.18648 2.88522C3.27277 2.83036 3.35165 2.76478 3.42131 2.69016C3.4955 2.62089 3.56076 2.54252 3.61543 2.45681C3.67336 2.37638 3.72197 2.28961 3.76028 2.1981C3.8127 2.0942 3.85156 1.98398 3.87592 1.87019L3.87835 1.85884L3.87971 1.84732C3.89098 1.75242 3.89202 1.65664 3.88284 1.56158C3.89166 1.46712 3.89065 1.37195 3.87983 1.27765L3.87772 1.25932L3.87295 1.2415C3.84615 1.14144 3.80763 1.04495 3.75817 0.953986C3.71952 0.864143 3.6725 0.778172 3.61781 0.697193Z" fill="#C5C5C5"/>
<path fill-rule="evenodd" clip-rule="evenodd" d="M7.16674 0C6.35302 0 5.69336 0.699356 5.69336 1.56205C5.69336 2.42473 6.35302 3.12409 7.16674 3.12409H20.78C21.5937 3.12409 22.2534 2.42473 22.2534 1.56205C22.2534 0.699356 21.5937 0 20.78 0H7.16674Z" fill="#C5C5C5"/>
<path fill-rule="evenodd" clip-rule="evenodd" d="M3.61781 13.6972C3.56175 13.6083 3.4942 13.5272 3.41695 13.4561C2.80743 12.8541 1.82619 12.8553 1.21817 13.4597C0.924811 13.7513 0.759077 14.1474 0.757369 14.561L0.757324 14.561L0.757393 14.5657C0.760372 14.7683 0.799435 14.9687 0.872686 15.1576L0.872576 15.1576L0.875577 15.1647C0.914077 15.2556 0.960337 15.3429 1.01377 15.4257L1.01362 15.4258L1.01903 15.4335C1.07703 15.5164 1.14323 15.5933 1.21666 15.663C1.28616 15.7376 1.36486 15.8032 1.45097 15.8581C1.53398 15.9178 1.62369 15.9676 1.71837 16.0065C1.81383 16.0466 1.91358 16.0757 2.01564 16.0933C2.11134 16.1142 2.20907 16.1246 2.30705 16.1242C2.40575 16.1344 2.50529 16.1338 2.60389 16.1224L2.60394 16.1228L2.6175 16.1205C2.71933 16.103 2.81878 16.0736 2.91373 16.0329C3.01007 15.9943 3.10159 15.9448 3.18648 15.8852C3.27277 15.8304 3.35165 15.7648 3.42131 15.6902C3.4955 15.6209 3.56076 15.5425 3.61543 15.4568C3.67336 15.3764 3.72197 15.2896 3.76028 15.1981C3.8127 15.0942 3.85156 14.984 3.87592 14.8702L3.87835 14.8588L3.87971 14.8473C3.89098 14.7524 3.89202 14.6566 3.88284 14.5616C3.89166 14.4671 3.89065 14.372 3.87983 14.2777L3.87772 14.2593L3.87295 14.2415C3.84615 14.1414 3.80763 14.0449 3.75817 13.954C3.71952 13.8641 3.6725 13.7782 3.61781 13.6972Z" fill="#C5C5C5"/>
<path fill-rule="evenodd" clip-rule="evenodd" d="M7.16674 13C6.35302 13 5.69336 13.6994 5.69336 14.562C5.69336 15.4247 6.35302 16.1241 7.16674 16.1241H20.78C21.5937 16.1241 22.2534 15.4247 22.2534 14.562C22.2534 13.6994 21.5937 13 20.78 13H7.16674Z" fill="#C5C5C5"/>
</svg>
