<svg width="25" height="23" viewBox="0 0 25 23" fill="none" xmlns="http://www.w3.org/2000/svg">
<path d="M24.8725 0.0910622C24.7611 -0.00626325 24.6027 -0.0285515 24.4689 0.0331127L0.215526 11.2352C0.0847337 11.2954 0.00102671 11.4246 -0.000468056 11.568C-0.00196282 11.7114 0.079502 11.8422 0.2088 11.9053L7.07203 15.2538C7.19759 15.3154 7.34781 15.3013 7.46067 15.2181L14.1341 10.2605L8.89565 15.6171C8.82091 15.6936 8.78279 15.7983 8.79101 15.9046L9.31269 22.6572C9.3239 22.8065 9.42479 22.935 9.56829 22.9818C9.60641 22.9945 9.64602 23.0004 9.68488 23.0004C9.79176 23.0004 9.89565 22.9551 9.96814 22.8719L13.6109 18.6758L18.1146 20.8147C18.2125 20.8607 18.3254 20.863 18.4248 20.8199C18.5242 20.7768 18.5997 20.6936 18.6318 20.5903L24.9823 0.48185C25.0264 0.341434 24.9838 0.188388 24.8725 0.0910622Z" fill="white"/>
</svg>
