<svg width="88" height="88" viewBox="0 0 88 88" fill="none" xmlns="http://www.w3.org/2000/svg">
<path d="M72.677 22.7581H15.3236C14.2777 22.7581 13.4297 23.6059 13.4297 24.652V53.2561C13.4297 54.3022 14.2777 55.15 15.3236 55.15C16.3694 55.15 17.2175 54.3022 17.2175 53.2561V26.5457H70.7831V53.256C70.7831 54.302 71.6311 55.1499 72.677 55.1499C73.7229 55.1499 74.5709 54.302 74.5709 53.256V24.6518C74.5707 23.6059 73.7227 22.7581 72.677 22.7581Z" fill="#2C78F6"/>
<path d="M86.2957 60.0194H82.8075V20.2466C82.8075 17.0899 80.2393 14.5217 77.0827 14.5217H10.9175C7.76069 14.5217 5.1927 17.0899 5.1927 20.2466V60.0194H1.70449C0.763126 60.0194 0 60.7823 0 61.7239V65.0699C0 69.7066 3.77215 73.4787 8.40883 73.4787H79.5912C84.2279 73.4787 88 69.7066 88 65.0699V61.7239C88.0002 60.7823 87.2372 60.0194 86.2957 60.0194ZM8.98032 20.2466C8.98032 19.1785 9.84949 18.3093 10.9175 18.3093H77.0823C78.1507 18.3093 79.0195 19.1783 79.0195 20.2466V60.0194H53.3757C53.2549 60.0154 53.1303 60.0257 53.0065 60.0496C52.2042 60.204 51.6245 60.9062 51.6245 61.7232C51.6245 63.1619 50.454 64.3322 49.0156 64.3322H38.9848C37.546 64.3322 36.3759 63.1618 36.3759 61.7232C36.3759 60.7687 35.5851 59.9986 34.6319 60.019H8.98032V20.2466ZM84.5912 65.0699C84.5912 67.827 82.3481 70.0698 79.5913 70.0698H8.40883C5.65195 70.0698 3.40898 67.827 3.40898 65.0699V63.4283H33.2127C33.9495 65.919 36.2583 67.7414 38.9846 67.7414H49.0154C51.7417 67.7414 54.0505 65.9188 54.7875 63.4283H84.5914V65.0699H84.5912Z" fill="#2C78F6"/>
<path d="M46.8072 33.7664C46.0675 33.0268 44.8686 33.0268 44.1287 33.7664L32.2183 45.6773C31.4787 46.4169 31.4787 47.6161 32.2183 48.3556C32.5881 48.7255 33.0728 48.9103 33.5573 48.9103C34.042 48.9103 34.5265 48.7252 34.8964 48.3556L46.8072 36.4449C47.5468 35.7053 47.5468 34.5061 46.8072 33.7664Z" fill="#2C78F6"/>
<path d="M53.867 40.6691C53.1272 39.9295 51.9284 39.9295 51.1886 40.6691L46.4438 45.4139C45.7043 46.1534 45.7043 47.3526 46.4438 48.0924C46.8137 48.4622 47.2984 48.647 47.7829 48.647C48.2678 48.647 48.7521 48.4622 49.122 48.0924L53.8668 43.3476C54.6065 42.608 54.6065 41.4088 53.867 40.6691Z" fill="#2C78F6"/>
</svg>
