<svg width="92" height="15" viewBox="0 0 92 15" fill="none" xmlns="http://www.w3.org/2000/svg">
<path d="M69.7286 15C67.6516 15 66.034 14.4048 64.8757 13.2143C63.7307 12.0238 63.1582 10.3361 63.1582 8.15126V0H67.1124V8.02521C67.1124 10.3782 67.9978 11.5546 69.7685 11.5546C71.526 11.5546 72.4047 10.3782 72.4047 8.02521V0H76.299V8.15126C76.299 10.3361 75.7198 12.0238 74.5615 13.2143C73.4165 14.4048 71.8056 15 69.7286 15Z" fill="#2C78F6"/>
<path d="M85.3684 0C86.6332 0 87.7316 0.22409 88.6635 0.672269C89.5955 1.10644 90.3144 1.73669 90.8204 2.56303C91.3263 3.37535 91.5793 4.33473 91.5793 5.44118C91.5793 6.54762 91.3263 7.507 90.8204 8.31933C90.3144 9.13165 89.5955 9.7619 88.6635 10.2101C87.7316 10.6443 86.6332 10.8613 85.3684 10.8613H82.9319V14.7059H78.9777V0H85.3684ZM85.1287 7.58403C85.9408 7.58403 86.5533 7.40196 86.966 7.03781C87.3787 6.65966 87.5851 6.12745 87.5851 5.44118C87.5851 4.7549 87.3787 4.22269 86.966 3.84454C86.5533 3.46639 85.9408 3.27731 85.1287 3.27731H82.9319V7.58403H85.1287Z" fill="#2C78F6"/>
<path d="M5.95679 15C4.81255 15 3.70196 14.8558 2.62503 14.5673C1.54809 14.2788 0.673084 13.8942 0 13.4135L1.31251 10.4052C1.94521 10.831 2.67887 11.1744 3.5135 11.4354C4.34812 11.6964 5.16928 11.8269 5.97698 11.8269C7.51162 11.8269 8.27893 11.4354 8.27893 10.6525C8.27893 10.2404 8.05681 9.93819 7.61258 9.74588C7.1818 9.53983 6.4818 9.32692 5.51256 9.10714C4.44908 8.87363 3.56061 8.62637 2.84714 8.36538C2.13368 8.09066 1.52117 7.65797 1.00963 7.06731C0.498082 6.47665 0.24231 5.67994 0.24231 4.6772C0.24231 3.79808 0.477889 3.00824 0.949048 2.30769C1.42021 1.59341 2.12021 1.03022 3.04907 0.618132C3.99139 0.206044 5.14236 0 6.50199 0C7.43085 0 8.34624 0.10989 9.24817 0.329671C10.1501 0.535715 10.9443 0.84478 11.6309 1.25687L10.3991 4.28571C9.05298 3.54396 7.74719 3.17308 6.4818 3.17308C5.68756 3.17308 5.10871 3.2967 4.74524 3.54395C4.38178 3.77747 4.20004 4.08654 4.20004 4.47115C4.20004 4.85577 4.41543 5.14423 4.8462 5.33654C5.27698 5.52885 5.97025 5.72802 6.92603 5.93407C8.00297 6.16758 8.89144 6.4217 9.59144 6.69643C10.3049 6.95742 10.9174 7.38324 11.429 7.9739C11.954 8.55082 12.2165 9.34066 12.2165 10.3434C12.2165 11.2088 11.9809 11.9918 11.5097 12.6923C11.0386 13.3929 10.3318 13.956 9.38952 14.3819C8.4472 14.794 7.30296 15 5.95679 15Z" fill="#30353E"/>
<path d="M16.8748 3.52335H12.5334V0.288462H25.1941V3.52335H20.8729V14.7115H16.8748V3.52335Z" fill="#30353E"/>
<path d="M33.6144 15C32.1201 15 30.774 14.6772 29.5759 14.0316C28.3912 13.386 27.4557 12.4931 26.7691 11.353C26.096 10.2129 25.7595 8.92857 25.7595 7.5C25.7595 6.07143 26.096 4.78709 26.7691 3.64698C27.4557 2.50687 28.3912 1.61401 29.5759 0.968406C30.774 0.322802 32.1201 0 33.6144 0C35.1086 0 36.4481 0.322802 37.6327 0.968406C38.8308 1.61401 39.7664 2.50687 40.4394 3.64698C41.126 4.78709 41.4693 6.07143 41.4693 7.5C41.4693 8.92857 41.126 10.2129 40.4394 11.353C39.7664 12.4931 38.8308 13.386 37.6327 14.0316C36.4481 14.6772 35.1086 15 33.6144 15ZM33.6144 11.6209C34.3279 11.6209 34.974 11.4492 35.5529 11.1058C36.1317 10.7624 36.5894 10.2816 36.926 9.66346C37.2625 9.03159 37.4308 8.31044 37.4308 7.5C37.4308 6.68956 37.2625 5.97527 36.926 5.35714C36.5894 4.72527 36.1317 4.23764 35.5529 3.89423C34.974 3.55082 34.3279 3.37912 33.6144 3.37912C32.9009 3.37912 32.2547 3.55082 31.6759 3.89423C31.097 4.23764 30.6394 4.72527 30.3028 5.35714C29.9663 5.97527 29.798 6.68956 29.798 7.5C29.798 8.31044 29.9663 9.03159 30.3028 9.66346C30.6394 10.2816 31.097 10.7624 31.6759 11.1058C32.2547 11.4492 32.9009 11.6209 33.6144 11.6209Z" fill="#30353E"/>
<path d="M56.325 14.7115L56.2846 7.06731L52.6499 13.2898H50.873L47.2585 7.27335V14.7115H43.5633V0.288462H46.8547L51.822 8.61264L56.6682 0.288462H59.9596L60 14.7115H56.325Z" fill="#30353E"/>
</svg>
