<svg width="13" height="13" viewBox="0 0 13 13" fill="none" xmlns="http://www.w3.org/2000/svg">
<path d="M10.1097 5.99274L4.32454 0.207681C4.19074 0.0737718 4.01212 0 3.82167 0C3.63122 0 3.4526 0.0737718 3.3188 0.207681L2.89276 0.633613C2.61553 0.911155 2.61553 1.36224 2.89276 1.63936L7.7507 6.4973L2.88737 11.3606C2.75356 11.4945 2.67969 11.6731 2.67969 11.8634C2.67969 12.054 2.75356 12.2325 2.88737 12.3665L3.31341 12.7923C3.44731 12.9262 3.62583 13 3.81628 13C4.00673 13 4.18535 12.9262 4.31915 12.7923L10.1097 7.00198C10.2438 6.86764 10.3175 6.68829 10.3171 6.49762C10.3175 6.30622 10.2438 6.12697 10.1097 5.99274Z" fill="#C8C8C8"/>
</svg>
