<svg width="18" height="18" viewBox="0 0 18 18" fill="none" xmlns="http://www.w3.org/2000/svg">
<path d="M8.53882 1.1011C8.71017 0.691981 9.28983 0.691981 9.46118 1.1011L11.5395 6.06312C11.6116 6.23524 11.7735 6.35289 11.9595 6.36826L17.3208 6.81148C17.7629 6.84802 17.942 7.39931 17.6059 7.6887L13.5289 11.1986C13.3875 11.3204 13.3257 11.5107 13.3685 11.6923L14.6037 16.9283C14.7056 17.36 14.2366 17.7007 13.8575 17.4704L9.25957 14.6777C9.10008 14.5808 8.89992 14.5808 8.74043 14.6777L4.14246 17.4704C3.76336 17.7007 3.29441 17.36 3.39625 16.9283L4.63149 11.6923C4.67434 11.5107 4.61249 11.3204 4.47107 11.1986L0.394131 7.6887C0.0579867 7.39931 0.23711 6.84802 0.679157 6.81148L6.04055 6.36826C6.22651 6.35289 6.38845 6.23524 6.46054 6.06312L8.53882 1.1011Z" fill="#FFC24C"/>
</svg>
