<svg width="20" height="20" viewBox="0 0 20 20" fill="none" xmlns="http://www.w3.org/2000/svg">
<path d="M17.7109 5.24449L17.4919 5.46352C17.0847 5.87074 16.7854 5.99105 16.1684 5.99105C14.9159 5.99105 14.0089 5.08407 14.0089 3.83156C14.0089 3.21148 14.1262 2.91532 14.5365 2.5081L14.7555 2.28906L12.4664 0L0 12.4664L2.28598 14.7524L2.50501 14.5334C2.91223 14.1262 3.21148 14.0059 3.82847 14.0059C5.08098 14.0059 5.98797 14.9128 5.98797 16.1654C5.98797 16.7854 5.87074 17.0816 5.46043 17.4888L5.24449 17.7109L7.53046 19.9969L19.9969 7.53046L17.7109 5.24449ZM6.10828 17.7017C6.4754 17.2636 6.60497 16.841 6.60497 16.1684C6.60497 14.5858 5.41107 13.3919 3.82847 13.3919C3.15595 13.3919 2.7333 13.5215 2.29523 13.8886L0.873053 12.4664L8.15055 5.18896L9.16551 6.20392L9.60049 5.76893L8.58553 4.75397L12.4664 0.873053L13.8886 2.29523C13.5215 2.7333 13.3919 3.15595 13.3919 3.82847C13.3919 5.41107 14.5858 6.60497 16.1684 6.60497C16.841 6.60497 17.2636 6.4754 17.7017 6.10828L19.1269 7.53046L15.2429 11.4145L14.228 10.3995L13.793 10.8345L14.808 11.8495L7.53046 19.1269L6.10828 17.7017Z" fill="#2C78F6"/>
<path d="M11.0165 8.05803L9.78253 6.82403L10.2175 6.38905L11.4515 7.62304L11.0165 8.05803Z" fill="#2C78F6"/>
<path d="M13.176 10.2175L11.942 8.98352L12.377 8.54854L13.611 9.78253L13.176 10.2175Z" fill="#2C78F6"/>
</svg>
