<svg width="33" height="30" fill="none" xmlns="http://www.w3.org/2000/svg"><path d="M30.282 24.027l-5.33-2.309c-.126-.062-.265-.216-.385-.42l3.56-.003c.062.006 1.529.14 2.705-.365a1.618 1.618 0 00.678-2.416c-1.017-1.448-3.391-5.231-3.466-9.068-.001-.066-.216-6.59-6.66-6.643a7.664 7.664 0 00-2.623.465 4.537 4.537 0 00-.812-1.341C16.83.648 15.011 0 12.545 0 10.08 0 8.262.648 7.142 1.925 5.85 3.4 5.97 5.185 6 5.485v2.9c-.35.398-.545.907-.545 1.433v2.181c0 .664.301 1.283.816 1.696.5 1.979 1.545 3.47 1.91 3.948v1.805a1.44 1.44 0 01-.75 1.265l-4.866 2.654A4.92 4.92 0 000 27.688V30h32.727v-2.017a4.399 4.399 0 00-2.445-3.956zM24 28.91H1.09v-1.22c0-1.403.766-2.692 1.997-3.363l4.866-2.654a2.533 2.533 0 001.32-2.224v-2.192l-.127-.152c-.013-.015-1.35-1.633-1.86-3.853l-.05-.216-.186-.12A1.088 1.088 0 016.545 12V9.818c0-.306.13-.591.366-.804l.18-.162V5.455l-.005-.072c-.002-.015-.187-1.527.875-2.739.904-1.03 2.447-1.553 4.585-1.553 2.13 0 3.669.519 4.574 1.542a3.544 3.544 0 01.813 1.678 6.886 6.886 0 01.04.238 4.223 4.223 0 01.04.613c.002.005.002.01.002.016-.002.128-.01.205-.01.206L18 8.852l.18.162c.236.213.366.498.366.804V12c0 .476-.313.893-.776 1.036l-.272.083-.087.27a11.42 11.42 0 01-1.546 3.117 7.17 7.17 0 01-.457.588l-.135.155v2.25c0 .138.013.273.035.406.004.029.012.056.017.084a2.565 2.565 0 00.26.725l.02.036c.079.14.17.272.275.395l.124.153h.021c.188.184.402.345.647.467l5.21 2.605A3.807 3.807 0 0124 27.795v1.114zm7.636 0h-6.545v-1.114a4.894 4.894 0 00-2.72-4.401l-3.74-1.87a.932.932 0 00.023-.685.93.93 0 00-.89-.633h-1.208c-.026-.044-.042-.092-.062-.14-.027-.062-.06-.124-.078-.19a1.427 1.427 0 01-.052-.377v-1.844c.124-.153.256-.327.392-.519a12.483 12.483 0 001.611-3.163A2.164 2.164 0 0019.637 12V9.818c0-.525-.197-1.034-.546-1.432v-2.9a4.8 4.8 0 00-.046-1.168c.703-.276 1.49-.418 2.34-.425 5.368.044 5.564 5.351 5.57 5.575.08 4.136 2.588 8.142 3.663 9.672a.53.53 0 01-.216.787c-.916.394-2.16.282-2.223.28h-3.755a1 1 0 00-.855.476.994.994 0 00-.047.973c.17.344.473.804.968 1.05l5.317 2.304a3.313 3.313 0 011.83 2.973v.926z" fill="#2C78F6"/></svg>