<svg width="156" height="156" fill="none" xmlns="http://www.w3.org/2000/svg"><rect width="156" height="156" rx="20" fill="#fff"/><path d="M33.66 105.35c.42.133.747.35.98.65.24.293.36.64.36 1.04 0 .42-.137.787-.41 1.1-.273.307-.64.543-1.1.71a4.28 4.28 0 01-1.49.25c-.467 0-.937-.063-1.41-.19a4.77 4.77 0 01-1.3-.59l.42-.95c.307.207.647.367 1.02.48.373.107.743.16 1.11.16.527 0 .963-.103 1.31-.31.353-.207.53-.49.53-.85a.777.777 0 00-.38-.7c-.253-.16-.603-.24-1.05-.24h-1.63v-1.02h1.53c.387 0 .69-.08.91-.24.22-.16.33-.377.33-.65 0-.327-.15-.58-.45-.76-.293-.18-.67-.27-1.13-.27-.313 0-.637.047-.97.14a3.66 3.66 0 00-.94.39l-.41-1.05c.36-.193.74-.337 1.14-.43.407-.1.81-.15 1.21-.15.52 0 .997.08 1.43.24.44.16.79.39 1.05.69.26.293.39.64.39 1.04 0 .347-.093.65-.28.91a1.79 1.79 0 01-.77.6zm7.454 2.03h-3.5l-.69 1.62h-1.34l3.15-7h1.28l3.16 7h-1.36l-.7-1.62zm-.43-1.02l-1.32-3.06-1.31 3.06h2.63zm8.314-3.26h-3.47l.01 5.9h-1.28v-7h4.75l-.01 1.1zm3.98-1.1c.606 0 1.133.1 1.58.3.453.2.8.487 1.04.86s.36.817.36 1.33c0 .507-.12.95-.36 1.33-.24.373-.587.66-1.04.86-.447.2-.974.3-1.58.3h-1.58V109h-1.3v-7h2.88zm-.06 3.88c.566 0 .996-.12 1.29-.36.293-.24.44-.583.44-1.03 0-.447-.148-.79-.44-1.03-.294-.24-.724-.36-1.29-.36h-1.52v2.78h1.52zM63.04 102L60 107.65c-.267.5-.587.877-.96 1.13-.367.247-.767.37-1.2.37-.347 0-.69-.073-1.03-.22l.32-1.02c.273.087.5.13.68.13.42 0 .766-.217 1.04-.65l.11-.17-2.79-5.22h1.39l2.07 4.11 2.13-4.11h1.28zm4.652 3.35c.42.133.747.35.98.65.24.293.36.64.36 1.04 0 .42-.136.787-.41 1.1-.273.307-.64.543-1.1.71a4.28 4.28 0 01-1.49.25 5.43 5.43 0 01-1.41-.19 4.77 4.77 0 01-1.3-.59l.42-.95c.307.207.647.367 1.02.48.373.107.743.16 1.11.16.527 0 .963-.103 1.31-.31.353-.207.53-.49.53-.85a.777.777 0 00-.38-.7c-.253-.16-.603-.24-1.05-.24h-1.63v-1.02h1.53c.387 0 .69-.08.91-.24.22-.16.33-.377.33-.65 0-.327-.15-.58-.45-.76-.293-.18-.67-.27-1.13-.27a3.61 3.61 0 00-.97.14 3.66 3.66 0 00-.94.39l-.41-1.05c.36-.193.74-.337 1.14-.43.407-.1.81-.15 1.21-.15.52 0 .997.08 1.43.24.44.16.79.39 1.05.69.26.293.39.64.39 1.04 0 .347-.093.65-.28.91a1.79 1.79 0 01-.77.6zm2.824-3.35h1.28v4.97l3.76-4.97h1.21v7h-1.28v-4.96l-3.76 4.96h-1.21v-7zm13.293 1.1h-2.32v5.9H80.2v-5.9h-2.31V102h5.92v1.1zm4.351 1.27c.84 0 1.483.19 1.93.57.454.373.68.93.68 1.67 0 .773-.246 1.367-.74 1.78-.493.407-1.187.61-2.08.61h-3.01v-7h1.28v2.37h1.94zm-.27 3.63c.507 0 .897-.117 1.17-.35.273-.233.41-.573.41-1.02 0-.847-.526-1.27-1.58-1.27h-1.67V108h1.67zm14.972-2.51c0 .92-.32 1.647-.96 2.18-.64.533-1.55.823-2.73.87v.74h-1.2v-.74c-1.18-.06-2.094-.353-2.74-.88-.64-.527-.96-1.25-.96-2.17 0-.92.32-1.643.96-2.17.646-.533 1.56-.83 2.74-.89v-.71h1.2v.71c1.18.06 2.09.357 2.73.89.64.527.96 1.25.96 2.17zm-3.69 2.03c.8-.06 1.406-.26 1.82-.6.413-.347.62-.827.62-1.44s-.21-1.09-.63-1.43c-.414-.34-1.017-.537-1.81-.59v4.06zm-3.63-2.03c0 .607.206 1.08.62 1.42.42.34 1.023.543 1.81.61v-4.06c-1.62.12-2.43.797-2.43 2.03zm11.925 3.61c-.713 0-1.357-.153-1.93-.46a3.49 3.49 0 01-1.35-1.29 3.567 3.567 0 01-.49-1.85c0-.68.163-1.293.49-1.84a3.407 3.407 0 011.35-1.29c.573-.313 1.217-.47 1.93-.47.713 0 1.357.157 1.93.47a3.424 3.424 0 011.35 1.28c.327.547.49 1.163.49 1.85s-.163 1.303-.49 1.85a3.49 3.49 0 01-1.35 1.29c-.573.307-1.217.46-1.93.46zm0-1.14c.467 0 .887-.103 1.26-.31.373-.213.667-.507.88-.88.213-.38.32-.803.32-1.27 0-.467-.107-.887-.32-1.26a2.237 2.237 0 00-.88-.88 2.496 2.496 0 00-1.26-.32c-.467 0-.887.107-1.26.32-.373.207-.667.5-.88.88-.213.373-.32.793-.32 1.26 0 .467.107.89.32 1.27.213.373.507.667.88.88.373.207.793.31 1.26.31zm10.19-4.86h-2.32v5.9h-1.29v-5.9h-2.31V102h5.92v1.1zm4.263 6c-.713 0-1.356-.153-1.93-.46a3.49 3.49 0 01-1.35-1.29 3.576 3.576 0 01-.49-1.85c0-.68.164-1.293.49-1.84a3.407 3.407 0 011.35-1.29 3.964 3.964 0 011.93-.47c.714 0 1.357.157 1.93.47a3.41 3.41 0 011.35 1.28c.327.547.49 1.163.49 1.85s-.163 1.303-.49 1.85a3.477 3.477 0 01-1.35 1.29c-.573.307-1.216.46-1.93.46zm0-1.14c.467 0 .887-.103 1.26-.31.374-.213.667-.507.88-.88.214-.38.32-.803.32-1.27 0-.467-.106-.887-.32-1.26a2.23 2.23 0 00-.88-.88 2.496 2.496 0 00-1.26-.32 2.5 2.5 0 00-1.26.32c-.373.207-.666.5-.88.88-.213.373-.32.793-.32 1.26 0 .467.107.89.32 1.27.214.373.507.667.88.88.374.207.794.31 1.26.31z" fill="#B8D2FC"/><path d="M78 61.8a7.8 7.8 0 10.001 15.601A7.8 7.8 0 0078 61.8zM98.8 54h-6.24c-.858 0-1.783-.666-2.053-1.48l-1.614-4.84c-.272-.814-1.195-1.48-2.053-1.48H69.16c-.858 0-1.783.666-2.053 1.48l-1.614 4.84c-.271.814-1.195 1.48-2.053 1.48H57.2c-2.86 0-5.2 2.34-5.2 5.2v23.4c0 2.86 2.34 5.2 5.2 5.2h41.6c2.86 0 5.2-2.34 5.2-5.2V59.2c0-2.86-2.34-5.2-5.2-5.2zM78 82.6c-7.18 0-13-5.82-13-13s5.82-13 13-13c7.179 0 13 5.82 13 13s-5.821 13-13 13zm18.98-19.764a1.82 1.82 0 110-3.64 1.82 1.82 0 010 3.64z" fill="#2C78F6" fill-opacity=".31"/></svg>