<svg width="40" height="40" viewBox="0 0 40 40" fill="none" xmlns="http://www.w3.org/2000/svg">
<g clip-path="url(#clip0)">
<path d="M6.00065 40H31.334C31.7021 40 32.0007 39.7015 32.0007 39.3333V30.2552C32.6462 29.5016 34.6673 26.7633 34.6673 22C34.6673 17.2367 32.6462 14.4984 32.0007 13.7451V11.3333C32.0007 10.9652 31.7021 10.6667 31.334 10.6667H26.2767L30.472 6.47135C30.7324 6.21126 30.7324 5.78906 30.472 5.52865L30.2767 5.33333L31.8053 3.80469C32.0658 3.54427 32.0658 3.1224 31.8053 2.86198L29.1387 0.195312C28.8786 -0.0651042 28.4564 -0.0651042 28.196 0.195312L26.6673 1.72396L26.472 1.52865C26.2116 1.26823 25.7897 1.26823 25.5293 1.52865L14.8626 12.1953C14.6022 12.4557 14.6022 12.8779 14.8626 13.138L15.0579 13.3333L12.8626 15.5286C12.6022 15.7891 12.6022 16.2113 12.8626 16.4714L15.5293 19.138C15.7897 19.3984 16.2116 19.3984 16.472 19.138L18.6673 16.9427L18.8626 17.138C19.123 17.3984 19.5452 17.3984 19.8053 17.138L21.4987 15.4447C22.9421 16.4082 24.8851 16.0892 25.9443 14.7145C26.8021 15.1641 30.0007 17.165 30.0007 22C30.0007 26.3838 26.5319 28.8639 25.8086 29.3333H22.6673V24.6667C22.6673 24.2985 22.3688 24 22.0007 24H10.0007C9.63249 24 9.33398 24.2985 9.33398 24.6667V27.3333C9.33398 27.7015 9.63249 28 10.0007 28H18.6673V29.3333H16.6673C16.2992 29.3333 16.0007 29.6318 16.0007 30V34.6667H8.66732C6.82715 34.6689 5.33626 36.1602 5.33398 38V39.3333C5.33398 39.7015 5.63249 40 6.00065 40ZM28.6673 1.60938L30.3913 3.33333L29.334 4.39062L27.61 2.66667L28.6673 1.60938ZM16.0007 17.724L14.2767 16L16.0007 14.276L17.7246 16L16.0007 17.724ZM23.334 14.6667C22.2295 14.6667 21.334 13.7712 21.334 12.6667C21.334 11.5622 22.2295 10.6667 23.334 10.6667C24.4385 10.6667 25.334 11.5622 25.334 12.6667C25.3327 13.7708 24.4382 14.6654 23.334 14.6667ZM25.1693 9.88867C23.8496 9.0127 22.0954 9.18815 20.9756 10.3083C19.8555 11.4281 19.68 13.1823 20.556 14.502L19.334 15.724L16.2767 12.6667L26.0007 2.94271L29.0579 6L25.1693 9.88867ZM26.5999 13.3333C26.6898 12.8936 26.6898 12.4401 26.5999 12H30.6673V13.3333H26.5999ZM31.334 22C31.4271 19.2093 30.2738 16.5218 28.1868 14.6667H31.0322C32.61 16.7786 33.4219 19.3652 33.334 22C33.4219 24.6348 32.61 27.2214 31.0326 29.3333H27.9727C30.0827 27.4762 31.3044 24.8105 31.334 22ZM10.6673 26.6667V25.3333H21.334V26.6667H10.6673ZM21.334 28V32.6667C21.334 33.0348 21.0355 33.3333 20.6673 33.3333C20.2992 33.3333 20.0007 33.0348 20.0007 32.6667V28H21.334ZM17.334 30.6667H18.6673V32.6667C18.6673 33.7712 19.5628 34.6667 20.6673 34.6667C21.7718 34.6667 22.6673 33.7712 22.6673 32.6667V30.6667H30.6673V34.6667H17.334V30.6667ZM6.66732 38C6.66862 36.8958 7.56315 36.0013 8.66732 36H30.6673V38.6667H6.66732V38Z" fill="#2BC4A8"/>
<path d="M28 31.9994H29.3333V33.3327H28V31.9994Z" fill="#2BC4A8"/>
<path d="M25.334 31.9994H26.6673V33.3327H25.334V31.9994Z" fill="#2BC4A8"/>
</g>
<defs>
<clipPath id="clip0">
<rect width="40" height="40" fill="white"/>
</clipPath>
</defs>
</svg>
