<svg width="13" height="13" viewBox="0 0 13 13" fill="none" xmlns="http://www.w3.org/2000/svg">
<g clip-path="url(#clip0)">
<path d="M2.8903 7.00726L8.67546 12.7923C8.80926 12.9262 8.98788 13 9.17833 13C9.36878 13 9.5474 12.9262 9.6812 12.7923L10.1072 12.3664C10.3845 12.0888 10.3845 11.6378 10.1072 11.3606L5.2493 6.5027L10.1126 1.63936C10.2464 1.50545 10.3203 1.32694 10.3203 1.13659C10.3203 0.946033 10.2464 0.767522 10.1126 0.633507L9.6866 0.207681C9.55269 0.0737714 9.37418 -8.2714e-08 9.18372 -9.9364e-08C8.99327 -1.16014e-07 8.81465 0.0737713 8.68085 0.207681L2.8903 5.99802C2.75618 6.13236 2.68251 6.31171 2.68293 6.50238C2.68251 6.69378 2.75618 6.87303 2.8903 7.00726Z" fill="#C8C8C8"/>
</g>
<defs>
<clipPath id="clip0">
<rect x="13" y="13" width="13" height="13" transform="rotate(-180 13 13)" fill="white"/>
</clipPath>
</defs>
</svg>
