<svg width="39" height="37" viewBox="0 0 39 37" fill="none" xmlns="http://www.w3.org/2000/svg">
<path d="M38.4859 18.5C38.4859 28.7173 29.8706 37 19.243 37C8.61537 37 0 28.7173 0 18.5C0 8.28273 8.61537 0 19.243 0C29.8706 0 38.4859 8.28273 38.4859 18.5Z" fill="#2C78F6"/>
<path d="M14.7323 12.542C15.7123 12.542 16.5243 12.864 17.1683 13.508C17.8123 14.152 18.1343 14.978 18.1343 15.986C18.1343 16.49 18.0643 16.98 17.9243 17.456C17.8123 17.932 17.5743 18.646 17.2103 19.598L15.0263 25.562H11.6243L13.3043 19.094C12.6883 18.87 12.1983 18.492 11.8343 17.96C11.4983 17.4 11.3303 16.742 11.3303 15.986C11.3303 14.978 11.6523 14.152 12.2963 13.508C12.9403 12.864 13.7523 12.542 14.7323 12.542ZM23.6363 12.542C24.6163 12.542 25.4283 12.864 26.0723 13.508C26.7163 14.152 27.0383 14.978 27.0383 15.986C27.0383 16.49 26.9683 16.98 26.8283 17.456C26.7163 17.932 26.4783 18.646 26.1143 19.598L23.9303 25.562H20.5283L22.2083 19.094C21.5923 18.87 21.1023 18.492 20.7383 17.96C20.4023 17.4 20.2343 16.742 20.2343 15.986C20.2343 14.978 20.5563 14.152 21.2003 13.508C21.8443 12.864 22.6563 12.542 23.6363 12.542Z" fill="white"/>
</svg>
