<svg width="42" height="42" viewBox="0 0 42 42" fill="none" xmlns="http://www.w3.org/2000/svg">
<circle cx="21" cy="21" r="20.5" stroke="#C8C8C8"/>
<path d="M26.43 19.9927L20.6449 14.2077C20.5111 14.0738 20.3324 14 20.142 14C19.9515 14 19.7729 14.0738 19.6391 14.2077L19.2131 14.6336C18.9358 14.9112 18.9358 15.3622 19.2131 15.6394L24.071 20.4973L19.2077 25.3606C19.0739 25.4945 19 25.6731 19 25.8634C19 26.054 19.0739 26.2325 19.2077 26.3665L19.6337 26.7923C19.7676 26.9262 19.9461 27 20.1366 27C20.327 27 20.5057 26.9262 20.6395 26.7923L26.43 21.002C26.5641 20.8676 26.6378 20.6883 26.6374 20.4976C26.6378 20.3062 26.5641 20.127 26.43 19.9927Z" fill="#C8C8C8"/>
</svg>
