<svg width="15" height="16" viewBox="0 0 15 16" fill="none" xmlns="http://www.w3.org/2000/svg">
<path fill-rule="evenodd" clip-rule="evenodd" d="M0.00195312 6.35004C0.00195312 9.8494 2.88305 12.6964 6.4245 12.6964C8.00906 12.6964 9.46147 12.1263 10.5827 11.1828L13.97 14.8295C14.0774 14.9453 14.2243 15.0039 14.3715 15.0039C14.5031 15.0039 14.6354 14.9569 14.74 14.8624C14.9616 14.6611 14.9762 14.3205 14.773 14.1015L11.3509 10.4172C12.2843 9.31507 12.8467 7.89624 12.8467 6.35004C12.8467 2.85087 9.96562 0.00390625 6.4245 0.00390625C2.88305 0.00390625 0.00195312 2.85087 0.00195312 6.35004ZM1.09157 6.35004C1.09157 3.44452 3.48382 1.08037 6.4245 1.08037C9.36479 1.08037 11.7571 3.44452 11.7571 6.35004C11.7571 9.2558 9.36479 11.6196 6.4245 11.6196C3.48382 11.6196 1.09157 9.2558 1.09157 6.35004Z" fill="#909AAB"/>
</svg>
