<svg width="18" height="19" viewBox="0 0 18 19" fill="none" xmlns="http://www.w3.org/2000/svg">
<path fill-rule="evenodd" clip-rule="evenodd" d="M0 8.61341C0 12.8126 3.45732 16.229 7.70706 16.229C9.60853 16.229 11.3514 15.545 12.6969 14.4128L16.7617 18.7888C16.8906 18.9277 17.0668 18.998 17.2435 18.998C17.4014 18.998 17.5601 18.9416 17.6856 18.8282C17.9516 18.5867 17.9691 18.178 17.7253 17.9152L13.6187 13.494C14.7388 12.1714 15.4137 10.4688 15.4137 8.61341C15.4137 4.4144 11.9564 0.998047 7.70706 0.998047C3.45732 0.998047 0 4.4144 0 8.61341ZM1.30754 8.61341C1.30754 5.12678 4.17824 2.2898 7.70706 2.2898C11.2354 2.2898 14.1062 5.12678 14.1062 8.61341C14.1062 12.1003 11.2354 14.9369 7.70706 14.9369C4.17824 14.9369 1.30754 12.1003 1.30754 8.61341Z" fill="#909AAB"/>
</svg>
