<svg width="21" height="21" fill="none" xmlns="http://www.w3.org/2000/svg"><path fill-rule="evenodd" clip-rule="evenodd" d="M0 8.88c0 4.897 4.032 8.881 8.988 8.881 2.217 0 4.25-.798 5.819-2.118l4.74 5.103a.768.768 0 001.078.046.748.748 0 00.046-1.065l-4.79-5.155a8.779 8.779 0 002.094-5.692c0-4.897-4.032-8.881-8.987-8.881C4.032-.001 0 3.983 0 8.879zm1.525 0c0-4.066 3.348-7.375 7.463-7.375 4.114 0 7.462 3.309 7.462 7.375s-3.348 7.374-7.462 7.374c-4.115 0-7.463-3.308-7.463-7.374z" fill="#909AAB"/></svg>