<svg width="14" height="13" viewBox="0 0 14 13" fill="none" xmlns="http://www.w3.org/2000/svg">
<path d="M6.60106 2.71875C4.3268 2.71875 2.47656 4.48116 2.47656 6.64747C2.47656 8.81377 4.3268 10.5762 6.60106 10.5762C8.87532 10.5762 10.7256 8.81377 10.7256 6.64747C10.7256 4.48116 8.87532 2.71875 6.60106 2.71875ZM8.64404 6.0141L6.4806 8.07484C6.36496 8.18499 6.21077 8.24006 6.06141 8.24006C5.90722 8.24006 5.75785 8.18499 5.64221 8.07484L4.55808 7.04676C4.33162 6.82646 4.3268 6.46847 4.55808 6.24817C4.78937 6.03246 5.1652 6.02787 5.39648 6.24817L6.06141 6.88154L7.80564 5.22009C8.03692 4.99979 8.41276 4.99979 8.64404 5.22009C8.8705 5.4404 8.8705 5.7938 8.64404 6.0141Z" fill="#A4AAB3"/>
<path d="M12.3299 6.65314L12.8696 5.75816C13.149 5.29461 12.9804 4.71173 12.4986 4.44094L11.5638 3.92232L11.559 2.88965C11.5542 2.35725 11.1061 1.93042 10.5471 1.92583L9.46302 1.92124L8.91854 1.03085C8.63908 0.571892 8.02233 0.415845 7.53568 0.677454L6.59611 1.19149L5.65653 0.677454C5.16988 0.415845 4.55313 0.571892 4.27366 1.03085L3.72919 1.92124L2.64507 1.92583C2.08614 1.93042 1.63803 2.35725 1.63321 2.88965L1.6284 3.92232L0.693638 4.44094C0.211804 4.71173 0.0479807 5.29461 0.322626 5.75816L0.86228 6.65314L0.322626 7.54812C0.0431624 8.01167 0.211804 8.59455 0.693638 8.86534L1.6284 9.38396L1.63321 10.4166C1.63803 10.949 2.08614 11.3759 2.64507 11.3804L3.72919 11.385L4.27366 12.28C4.55313 12.7344 5.16988 12.895 5.65653 12.6288L6.59611 12.1194L7.53568 12.6288C7.69469 12.716 7.86815 12.7573 8.04161 12.7573C8.38853 12.7573 8.73063 12.5875 8.91854 12.28L9.46302 11.385L10.5471 11.3804C11.1061 11.3759 11.5542 10.949 11.559 10.4166L11.5638 9.38396L12.4986 8.86534C12.9804 8.59914 13.1442 8.01167 12.8696 7.54812L12.3299 6.65314ZM6.59611 11.0408C4.05684 11.0408 1.98977 9.07187 1.98977 6.65314C1.98977 4.23441 4.05684 2.26546 6.59611 2.26546C9.13537 2.26546 11.2024 4.23441 11.2024 6.65314C11.2024 9.07187 9.13537 11.0408 6.59611 11.0408Z" fill="#A4AAB3"/>
</svg>
