<svg width="22" height="18" fill="none" xmlns="http://www.w3.org/2000/svg"><path d="M20.09 0H1.362C.61 0 0 .63 0 1.409v14.442c0 .778.61 1.409 1.362 1.409H20.09c.752 0 1.362-.63 1.362-1.409V1.409C21.452.631 20.842 0 20.09 0zm0 1.409v10.247l-2.685-2.524a.997.997 0 00-1.409.034l-2.716 2.81-5.357-6.618a1 1 0 00-1.557-.011l-5.004 6.015V1.41H20.09zM14.3 5.108c0-1.07.838-1.938 1.873-1.938 1.034 0 1.873.867 1.873 1.938 0 1.07-.839 1.937-1.873 1.937-1.035 0-1.873-.867-1.873-1.937z" fill="#C5C5C5"/></svg>