<svg width="23" height="18" viewBox="0 0 23 18" fill="none" xmlns="http://www.w3.org/2000/svg">
<path d="M19.6458 0C19.0095 0 18.4613 0.387182 18.0004 1.02831L2.74181 6.38919C2.4495 5.97425 2.08056 5.75 1.67707 5.75C0.720682 5.75 0 6.98625 0 8.625C0 10.2638 0.720682 11.5 1.67707 11.5C2.08051 11.5 2.4495 11.2758 2.74176 10.8608L5.63496 11.8776L5.07433 12.8129C4.88939 13.1215 4.79164 13.4751 4.79164 13.8345C4.79164 14.6519 5.28133 15.3755 6.03939 15.6783L9.56701 17.089C9.83632 17.1963 10.1171 17.2481 10.3941 17.2481C11.2269 17.2481 12.0299 16.7852 12.419 16.0051L13.1608 14.5207L17.9994 16.2208C18.4604 16.8628 19.0095 17.25 19.6458 17.25C21.8241 17.25 23 12.8062 23 8.625C23 4.44381 21.8241 0 19.6458 0ZM10.7036 15.1484C10.6318 15.2921 10.4296 15.3717 10.2791 15.3084L6.75144 13.8977L6.71789 13.7981L7.48169 12.5254L11.338 13.8805L10.7036 15.1484ZM19.6458 15.3333C19.2155 15.3333 18.2083 13.0515 18.2083 8.625C18.2083 4.19849 19.2155 1.91668 19.6458 1.91668C20.0761 1.91668 21.0833 4.19849 21.0833 8.625C21.0833 13.0515 20.0761 15.3333 19.6458 15.3333Z" fill="#C5C5C5"/>
</svg>
