<svg width="23" height="23" viewBox="0 0 23 23" fill="none" xmlns="http://www.w3.org/2000/svg">
<path d="M11.7326 0.85H11.7324C5.85065 0.85 1.08242 5.61823 1.08242 11.5C1.08242 17.3818 5.85065 22.15 11.7324 22.15C17.6142 22.15 22.3824 17.3818 22.3824 11.5V11.4998C22.3758 5.62093 17.6115 0.856587 11.7326 0.85ZM15.9795 6.12461L15.979 6.12453C14.7408 5.91295 13.4883 5.79496 12.2324 5.77194V1.88868C14.0271 2.14695 15.6218 3.78857 16.5854 6.2302L15.9795 6.12461ZM7.48583 6.12458L6.87926 6.22953C7.8429 3.78696 9.43768 2.14463 11.2324 1.88707V5.77194C9.97658 5.79496 8.72435 5.91295 7.48614 6.12453L7.48583 6.12458ZM7.48559 16.8754L7.48576 16.8755C8.724 17.0874 9.97641 17.2059 11.2324 17.2298V21.1132C9.43759 20.8547 7.84282 19.2129 6.87921 16.771L7.48559 16.8754ZM15.979 16.8754L16.5856 16.7705C15.6219 19.213 14.0272 20.8554 12.2324 21.1129V17.2298C13.4883 17.2059 14.7405 17.0874 15.9787 16.8755L15.979 16.8754ZM21.3672 12C21.3141 13.0441 21.0906 14.0727 20.7054 15.0448L18.0322 15.5061C18.3266 14.3595 18.4914 13.1835 18.5235 12H21.3672ZM2.75941 15.0448C2.3742 14.0727 2.15069 13.0441 2.09767 12H4.94139C4.97344 13.1835 5.13827 14.3595 5.43269 15.5061L2.75941 15.0448ZM2.09767 11C2.15069 9.95587 2.3742 8.92728 2.75941 7.95516L5.43269 7.49388C5.13827 8.64047 4.97344 9.81654 4.94139 11H2.09767ZM17.5237 11H12.2324V6.77206C13.4313 6.79499 14.6269 6.90793 15.8091 7.11015C15.8092 7.11015 15.8092 7.11015 15.8092 7.11016L16.952 7.30729C17.2971 8.50932 17.4891 9.74997 17.5237 11ZM7.65598 7.11016C7.65603 7.11015 7.65607 7.11014 7.65612 7.11013C8.83812 6.90793 10.0336 6.79499 11.2324 6.77206V11H5.94113C5.97571 9.74997 6.16776 8.50933 6.51281 7.3073L7.65598 7.11016ZM5.94113 12H11.2324V16.2279C10.0335 16.205 8.83785 16.0921 7.65564 15.8898L6.51281 15.6927C6.16776 14.4907 5.97571 13.25 5.94113 12ZM15.8089 15.8898C14.6268 16.0921 13.4313 16.205 12.2324 16.2279V12H17.5237C17.4891 13.25 17.2971 14.4907 16.952 15.6927L15.8089 15.8898ZM21.3672 11H18.5235C18.4914 9.81654 18.3266 8.64047 18.0322 7.49388L20.7054 7.95516C21.0906 8.92728 21.3141 9.95587 21.3672 11ZM17.7129 6.42403C17.2574 4.98652 16.4773 3.67619 15.4363 2.59297C17.4493 3.43468 19.1242 4.93325 20.1831 6.85026L17.7129 6.42403ZM5.75197 6.42403L3.28174 6.85026C4.34063 4.93325 6.0155 3.43468 8.02857 2.59297C6.98755 3.67619 6.20747 4.98652 5.75197 6.42403ZM5.75197 16.576C6.20747 18.0135 6.98754 19.3238 8.02856 20.407C6.01549 19.5653 4.34063 18.0668 3.28174 16.1497L5.75197 16.576ZM15.4363 20.407C16.4773 19.3238 17.2574 18.0135 17.7129 16.576L20.1831 16.1497C19.1242 18.0668 17.4494 19.5653 15.4363 20.407Z" fill="#C5C5C5" stroke="#C5C5C5" stroke-width="0.3"/>
</svg>
