<svg width="21" height="21" viewBox="0 0 21 21" fill="none" xmlns="http://www.w3.org/2000/svg">
<path d="M8.05227 13.5212L7.72409 15.4343C7.67965 15.6968 7.78905 15.9593 8.00612 16.1157C8.22491 16.2722 8.51377 16.2924 8.75136 16.1696L10.4999 15.2711L12.2485 16.1696C12.3528 16.2217 12.4656 16.2487 12.5767 16.2487C12.7237 16.2487 12.8707 16.2032 12.9938 16.1157C13.2108 15.9593 13.3202 15.6951 13.2758 15.4343L12.9493 13.5212L14.356 12.1617C14.5492 11.9767 14.6176 11.699 14.5338 11.4466C14.45 11.1943 14.2295 11.0109 13.9629 10.9722L12.0126 10.6878L11.1341 8.94973C11.0144 8.71249 10.7683 8.56274 10.4982 8.56274C10.2299 8.56274 9.98374 8.71249 9.86238 8.94973L8.98553 10.6878L7.03526 10.9722C6.76862 11.0109 6.54812 11.1959 6.46437 11.4466C6.38061 11.699 6.44898 11.9767 6.64213 12.1617L8.05227 13.5212Z" fill="#C5C5C5"/>
<path d="M18.8822 2.23275H16.6482V1.0129C16.6482 0.454291 16.1884 0 15.6192 0H15.4552C14.8877 0 14.4262 0.454291 14.4262 1.0129V2.23275H6.54648V1.0129C6.54648 0.452608 6.08498 0 5.5175 0H5.35341C4.78594 0 4.32614 0.454291 4.32614 1.0129V2.23275H2.11778C0.95035 2.23275 0 3.16826 0 4.31744V18.9153C0 20.0645 0.95035 21 2.11778 21H18.8805C20.0479 21 20.9983 20.0645 20.9983 18.9153V4.31744C21 3.16826 20.0497 2.23275 18.8822 2.23275ZM18.6053 18.6427H2.39468V7.28043H18.6053V18.6427Z" fill="#C5C5C5"/>
</svg>
