<svg width="23" height="19" viewBox="0 0 23 19" fill="none" xmlns="http://www.w3.org/2000/svg">
<path d="M11.5002 3.69495L3.29735 10.4573C3.29735 10.4669 3.29495 10.4809 3.29015 10.5001C3.28546 10.519 3.28296 10.5328 3.28296 10.5426V17.3903C3.28296 17.6375 3.37335 17.8518 3.55408 18.0322C3.73477 18.2127 3.94873 18.3036 4.19602 18.3036H9.67397V12.8253H13.3265V18.3038H18.8044C19.0516 18.3038 19.2659 18.2131 19.4463 18.0322C19.627 17.852 19.7177 17.6375 19.7177 17.3903V10.5426C19.7177 10.5046 19.7125 10.476 19.7033 10.4573L11.5002 3.69495Z" fill="#C5C5C5"/>
<path d="M22.8413 8.91644L19.7173 6.32002V0.499427C19.7173 0.366363 19.6745 0.256934 19.5886 0.171289C19.5035 0.0857447 19.3941 0.0429723 19.2607 0.0429723H16.5217C16.3885 0.0429723 16.2791 0.0857447 16.1934 0.171289C16.1079 0.256934 16.0652 0.366413 16.0652 0.499427V3.28128L12.5843 0.370911C12.2803 0.12362 11.9189 0 11.5003 0C11.0818 0 10.7204 0.12362 10.4161 0.370911L0.158525 8.91644C0.0634368 8.99239 0.0113205 9.09463 0.00162682 9.22304C-0.00801693 9.35136 0.0252115 9.46344 0.101412 9.55848L0.985889 10.6142C1.06209 10.6997 1.16183 10.7521 1.28549 10.7712C1.39967 10.7808 1.51385 10.7474 1.62802 10.6714L11.5 2.43957L21.3721 10.6713C21.4484 10.7377 21.5481 10.7708 21.6717 10.7708H21.7146C21.8381 10.752 21.9376 10.6993 22.0142 10.614L22.8988 9.55843C22.9748 9.46319 23.0082 9.35131 22.9983 9.22285C22.9885 9.09478 22.9362 8.99254 22.8413 8.91644Z" fill="#C5C5C5"/>
</svg>
