<svg width="16" height="23" viewBox="0 0 16 23" fill="none" xmlns="http://www.w3.org/2000/svg">
<path d="M15.4703 5.72448C15.3884 5.41764 15.2222 5.0907 15.0992 4.80445C13.6274 1.26756 10.4118 0 7.81527 0C4.33939 0 0.511107 2.33073 0 7.13492V8.11644C0 8.1574 0.0141172 8.52536 0.0341701 8.70942C0.320685 10.999 2.12732 13.4323 3.47658 15.7218C4.92819 18.1749 6.43446 20.5879 7.92676 23C8.84695 21.4259 9.76382 19.8312 10.663 18.2978C10.9081 17.8479 11.1926 17.3981 11.4379 16.9686C11.6015 16.6826 11.9139 16.3967 12.0566 16.1306C13.5081 13.473 15.8446 10.7948 15.8446 8.15735V7.07385C15.8447 6.78792 15.4902 5.78614 15.4703 5.72448ZM7.8789 10.6517C6.85717 10.6517 5.73881 10.1408 5.18679 8.7299C5.10455 8.5053 5.11118 8.05521 5.11118 8.01398V7.38021C5.11118 5.58154 6.63841 4.7636 7.96703 4.7636C9.6027 4.7636 10.8677 6.07222 10.8677 7.7079C10.8677 9.34351 9.51458 10.6517 7.8789 10.6517Z" fill="#C5C5C5"/>
</svg>
