<svg width="23" height="19" viewBox="0 0 23 19" fill="none" xmlns="http://www.w3.org/2000/svg">
<path d="M8.92553 2.74634C3.99589 2.74634 0 5.81947 0 9.61213C0 11.4714 0.962584 13.1617 2.52524 14.3976C2.43461 15.6582 2.13114 17.2002 1.25232 18.031C3.00172 18.031 4.78958 16.9352 5.91969 16.0783C6.85893 16.3365 7.86957 16.4779 8.92553 16.4779C13.8552 16.4779 17.8511 13.4062 17.8511 9.61213C17.8511 5.81947 13.8552 2.74634 8.92553 2.74634Z" fill="#C5C5C5"/>
<path d="M20.7895 10.2808C21.5406 9.27706 21.9704 8.10987 21.9704 6.86579C21.9704 3.07313 17.9745 0 13.0449 0C10.8753 0 8.88695 0.595951 7.34077 1.58462C8.06855 1.44731 8.82928 1.37316 9.61198 1.37316C14.9206 1.37316 19.2241 4.75525 19.2241 8.92553C19.2241 10.5692 18.5581 12.092 17.4225 13.3293C18.5499 14.1861 20.3405 15.2846 22.0899 15.2846C20.8458 14.1037 20.7565 11.4865 20.7895 10.2808Z" fill="#C5C5C5"/>
</svg>
