<svg width="21" height="21" viewBox="0 0 21 21" fill="none" xmlns="http://www.w3.org/2000/svg">
<path d="M20.315 11.3117H7.07573C6.69773 11.3117 6.39095 11.0049 6.39095 10.6269C6.39095 10.2489 6.69773 9.94214 7.07573 9.94214H20.315C20.693 9.94214 20.9997 10.2489 20.9997 10.6269C20.9997 11.0049 20.693 11.3117 20.315 11.3117Z" fill="#C5C5C5"/>
<path d="M10.7274 14.9645C10.552 14.9645 10.3768 14.898 10.2434 14.7637L6.59124 11.1116C6.32375 10.8439 6.32375 10.4103 6.59124 10.1428L10.2434 6.49066C10.5109 6.22317 10.9445 6.22317 11.2122 6.49066C11.4797 6.75815 11.4797 7.19183 11.2122 7.45932L8.0439 10.6276L11.2122 13.7959C11.4797 14.0634 11.4797 14.4971 11.2122 14.7646C11.0779 14.898 10.9026 14.9645 10.7274 14.9645Z" fill="#C5C5C5"/>
<path d="M10.0435 20.6701C4.50592 20.6701 0 16.1642 0 10.6265C0 5.08893 4.50592 0.583008 10.0435 0.583008C14.1987 0.583008 17.8674 3.0829 19.3913 6.95252C19.53 7.30394 19.3565 7.70117 19.0051 7.84077C18.6535 7.97786 18.2562 7.807 18.1166 7.45374C16.8009 4.11191 13.6318 1.95257 10.0435 1.95257C5.26092 1.95257 1.36957 5.8441 1.36957 10.6265C1.36957 15.409 5.26092 19.3005 10.0435 19.3005C13.6318 19.3005 16.8009 17.1412 18.1166 13.8003C18.2554 13.4469 18.6526 13.2762 19.0051 13.4132C19.3565 13.5519 19.53 13.95 19.3913 14.3016C17.8674 18.1702 14.1987 20.6701 10.0435 20.6701Z" fill="#C5C5C5"/>
</svg>
