<svg width="23" height="17" viewBox="0 0 23 17" fill="none" xmlns="http://www.w3.org/2000/svg">
<path d="M15.8271 3.74846H3.07904L4.86441 1.95567C5.10419 1.71491 5.10337 1.32534 4.86261 1.08557C4.6218 0.845748 4.23228 0.84661 3.99254 1.08737L1.17932 3.91232C1.05754 4.03463 0.998154 4.19529 1.00045 4.35529C1.00037 4.35812 1 4.36087 1 4.3637C1 4.57702 1.10865 4.76487 1.27353 4.87525L3.99254 7.60557C4.23236 7.84633 4.62184 7.84711 4.86261 7.60738C5.10337 7.3676 5.10419 6.97803 4.86441 6.73727L3.11337 4.97893H15.8271C18.5524 4.97893 20.7695 7.19607 20.7695 9.92132C20.7695 12.6466 18.5524 14.8637 15.8271 14.8637H1.61523C1.27546 14.8637 1 15.1392 1 15.4789C1 15.8187 1.27546 16.0942 1.61523 16.0942H15.8271C19.2309 16.0942 22 13.325 22 9.92132C22 6.51759 19.2309 3.74846 15.8271 3.74846Z" fill="#C5C5C5"/>
<path fill-rule="evenodd" clip-rule="evenodd" d="M5.03902 0.908428C4.70038 0.571168 4.15255 0.572374 3.8154 0.910963L5.03902 0.908428ZM3.8154 0.910963L1.00218 3.73591C0.833316 3.90551 0.749795 4.12781 0.75039 4.34873C0.750201 4.35243 0.75 4.35762 0.75 4.3637C0.75 4.65438 0.893603 4.91121 1.11238 5.06771L3.8154 7.78198C4.15264 8.12055 4.70041 8.12168 5.039 7.78453C5.37758 7.44734 5.37877 6.89947 5.04155 6.56086L3.71515 5.22893H15.8271C18.4143 5.22893 20.5195 7.33414 20.5195 9.92132C20.5195 12.5085 18.4143 14.6137 15.8271 14.6137H1.61523C1.13739 14.6137 0.75 15.0011 0.75 15.4789C0.75 15.9568 1.13739 16.3442 1.61523 16.3442H15.8271C19.3689 16.3442 22.25 13.4631 22.25 9.92132C22.25 6.37952 19.3689 3.49846 15.8271 3.49846H3.68083L5.04155 2.13209C5.37876 1.79348 5.3776 1.24562 5.03902 0.908428M4.68619 1.2627C4.54323 1.12033 4.31201 1.12085 4.16969 1.26377L1.35648 4.08871C1.28439 4.16113 1.24905 4.25596 1.25043 4.3517L1.25058 4.36254L1.25004 4.36898C1.25179 4.49309 1.31536 4.6024 1.4126 4.6675L1.43319 4.68128L4.16966 7.42914C4.31205 7.57207 4.54326 7.57254 4.68619 7.43024C4.82913 7.28788 4.82961 7.05661 4.68727 6.91369L2.51159 4.72893H15.8271C18.6905 4.72893 21.0195 7.058 21.0195 9.92132C21.0195 12.7846 18.6905 15.1137 15.8271 15.1137H1.61523C1.41353 15.1137 1.25 15.2772 1.25 15.4789C1.25 15.6806 1.41353 15.8442 1.61523 15.8442H15.8271C19.0928 15.8442 21.75 13.187 21.75 9.92132C21.75 6.65566 19.0928 3.99846 15.8271 3.99846H2.47725L4.68727 1.77926C4.8296 1.63634 4.82913 1.40506 4.68619 1.2627Z" fill="#C5C5C5"/>
</svg>
