<svg width="227" height="63" viewBox="0 0 227 63" fill="none" xmlns="http://www.w3.org/2000/svg">
<path d="M172.782 37.2407C167.636 37.2407 163.627 35.7658 160.757 32.8158C157.92 29.8659 156.501 25.684 156.501 20.27V0.0717773H166.299V19.9577C166.299 25.7881 168.493 28.7033 172.881 28.7033C177.236 28.7033 179.413 25.7881 179.413 19.9577V0.0717773H189.063V20.27C189.063 25.684 187.628 29.8659 184.758 32.8158C181.921 35.7658 177.929 37.2407 172.782 37.2407Z" fill="white"/>
<path d="M211.536 0.0717773C214.67 0.0717773 217.392 0.627055 219.702 1.73761C222.011 2.81346 223.792 4.37518 225.046 6.42277C226.3 8.43565 226.927 10.8129 226.927 13.5546C226.927 16.2963 226.3 18.6736 225.046 20.6865C223.792 22.6994 222.011 24.2611 219.702 25.3716C217.392 26.4475 214.67 26.9854 211.536 26.9854H205.499V36.5119H195.701V0.0717773H211.536ZM210.943 18.8645C212.955 18.8645 214.473 18.4133 215.495 17.511C216.518 16.5739 217.029 15.2552 217.029 13.5546C217.029 11.8541 216.518 10.5353 215.495 9.59827C214.473 8.66124 212.955 8.19272 210.943 8.19272H205.499V18.8645H210.943Z" fill="white"/>
<path d="M14.7605 37.2407C11.9252 37.2407 9.1732 36.8833 6.50463 36.1685C3.83606 35.4537 1.66785 34.5007 0 33.3094L3.25232 25.8552C4.8201 26.9103 6.63806 27.7613 8.7062 28.408C10.7743 29.0547 12.8091 29.3781 14.8105 29.3781C18.6132 29.3781 20.5146 28.408 20.5146 26.4678C20.5146 25.4467 19.9642 24.6979 18.8634 24.2214C17.796 23.7108 16.0614 23.1832 13.6597 22.6386C11.0245 22.06 8.82295 21.4473 7.05502 20.8006C5.2871 20.1199 3.76935 19.0477 2.50178 17.5841C1.23421 16.1205 0.600427 14.1463 0.600427 11.6615C0.600427 9.48314 1.18418 7.52599 2.35167 5.79007C3.51917 4.02013 5.25374 2.62459 7.55538 1.60347C9.89037 0.58234 12.7424 0.0717773 16.1115 0.0717773C18.4131 0.0717773 20.6814 0.344078 22.9163 0.888679C25.1512 1.39924 27.1193 2.16508 28.8205 3.18621L25.7683 10.6915C22.4326 8.85345 19.197 7.93444 16.0614 7.93444C14.0934 7.93444 12.659 8.24077 11.7584 8.85345C10.8577 9.43209 10.4074 10.1979 10.4074 11.151C10.4074 12.104 10.9411 12.8188 12.0085 13.2953C13.076 13.7719 14.7939 14.2654 17.1622 14.776C19.8308 15.3546 22.0324 15.9843 23.7669 16.6651C25.5348 17.3118 27.0526 18.3669 28.3202 19.8305C29.6211 21.2601 30.2715 23.2173 30.2715 25.702C30.2715 27.8464 29.6878 29.7865 28.5203 31.5224C27.3528 33.2583 25.6016 34.6539 23.2666 35.709C20.9316 36.7302 18.0962 37.2407 14.7605 37.2407Z" fill="white"/>
<path d="M41.8145 8.80239H31.0569V0.786565H62.4292V8.80239H51.7216V36.5259H41.8145V8.80239Z" fill="white"/>
<path d="M83.294 37.2407C79.5914 37.2407 76.2557 36.4408 73.2869 34.8411C70.3515 33.2413 68.0332 31.0289 66.332 28.2038C64.6641 25.3786 63.8302 22.1961 63.8302 18.6562C63.8302 15.1163 64.6641 11.9338 66.332 9.10873C68.0332 6.28362 70.3515 4.07118 73.2869 2.47142C76.2557 0.871658 79.5914 0.0717773 83.294 0.0717773C86.9967 0.0717773 90.3157 0.871658 93.2511 2.47142C96.2199 4.07118 98.5382 6.28362 100.206 9.10873C101.907 11.9338 102.758 15.1163 102.758 18.6562C102.758 22.1961 101.907 25.3786 100.206 28.2038C98.5382 31.0289 96.2199 33.2413 93.2511 34.8411C90.3157 36.4408 86.9967 37.2407 83.294 37.2407ZM83.294 28.8675C85.062 28.8675 86.6631 28.442 88.0975 27.5911C89.5318 26.7401 90.666 25.5488 91.4999 24.0171C92.3338 22.4514 92.7508 20.6645 92.7508 18.6562C92.7508 16.648 92.3338 14.8781 91.4999 13.3464C90.666 11.7807 89.5318 10.5723 88.0975 9.7214C86.6631 8.87047 85.062 8.445 83.294 8.445C81.5261 8.445 79.925 8.87047 78.4906 9.7214C77.0563 10.5723 75.9221 11.7807 75.0882 13.3464C74.2543 14.8781 73.8373 16.648 73.8373 18.6562C73.8373 20.6645 74.2543 22.4514 75.0882 24.0171C75.9221 25.5488 77.0563 26.7401 78.4906 27.5911C79.925 28.442 81.5261 28.8675 83.294 28.8675Z" fill="white"/>
<path d="M139.569 36.5259L139.469 17.5841L130.463 33.003H126.06L117.103 18.0946V36.5259H107.947V0.786565H116.103L128.411 21.4133L140.42 0.786565H148.576L148.676 36.5259H139.569Z" fill="white"/>
<path d="M3.70805 60.0743C3.00702 60.0743 2.37518 59.8989 1.81252 59.548C1.24985 59.1868 0.8071 58.6914 0.48426 58.0619C0.16142 57.4324 0 56.7203 0 55.9257C0 55.1311 0.16142 54.419 0.48426 53.7895C0.8071 53.16 1.24985 52.6698 1.81252 52.3189C2.37518 51.968 3.00702 51.7926 3.70805 51.7926C4.40907 51.7926 5.04091 51.968 5.60358 52.3189C6.16624 52.6698 6.60438 53.16 6.918 53.7895C7.24084 54.419 7.40226 55.1311 7.40226 55.9257C7.40226 56.7203 7.24084 57.4324 6.918 58.0619C6.60438 58.6914 6.16624 59.1868 5.60358 59.548C5.04091 59.8989 4.40907 60.0743 3.70805 60.0743ZM3.70805 59.0991C4.22459 59.0991 4.68579 58.9701 5.09165 58.7121C5.50673 58.4438 5.82957 58.0671 6.06017 57.582C6.29076 57.097 6.40606 56.5449 6.40606 55.9257C6.40606 55.3065 6.29076 54.7544 6.06017 54.2694C5.82957 53.7843 5.50673 53.4128 5.09165 53.1548C4.68579 52.8865 4.22459 52.7523 3.70805 52.7523C3.1915 52.7523 2.72569 52.8865 2.31061 53.1548C1.90475 53.4128 1.58192 53.7843 1.34209 54.2694C1.11149 54.7544 0.996192 55.3065 0.996192 55.9257C0.996192 56.5449 1.11149 57.097 1.34209 57.582C1.58192 58.0671 1.90475 58.4438 2.31061 58.7121C2.72569 58.9701 3.1915 59.0991 3.70805 59.0991Z" fill="white"/>
<path d="M13.8601 52.0557C14.5334 52.0557 15.133 52.226 15.6588 52.5666C16.1938 52.8968 16.6088 53.3664 16.904 53.9752C17.1992 54.5738 17.3468 55.2601 17.3468 56.0341C17.3468 56.8287 17.19 57.5356 16.8763 58.1548C16.5719 58.7637 16.143 59.2384 15.5896 59.5789C15.0362 59.9195 14.3997 60.0898 13.6802 60.0898C12.4719 60.0898 11.5357 59.6151 10.8715 58.6656C10.2074 57.7162 9.87533 56.4056 9.87533 54.7337C9.87533 52.9897 10.1705 51.6533 10.7608 50.7245C11.3604 49.7957 12.292 49.1662 13.5557 48.8359L16.821 48L16.987 49.0062L13.9154 49.7957C12.8731 50.0537 12.1075 50.5129 11.6187 51.1734C11.1298 51.8235 10.8623 52.7884 10.8162 54.0681C11.1113 53.4386 11.5218 52.9484 12.0476 52.5975C12.5733 52.2363 13.1775 52.0557 13.8601 52.0557ZM13.7079 59.1765C14.2152 59.1765 14.6672 59.0475 15.0638 58.7895C15.4697 58.5212 15.7833 58.1496 16.0047 57.6749C16.2353 57.2002 16.3506 56.6636 16.3506 56.065C16.3506 55.4665 16.2399 54.9401 16.0185 54.4861C15.7971 54.032 15.4835 53.6811 15.0777 53.4334C14.681 53.1754 14.2244 53.0464 13.7079 53.0464C13.1914 53.0464 12.7302 53.1754 12.3243 53.4334C11.9277 53.6811 11.6141 54.032 11.3835 54.4861C11.1621 54.9401 11.0514 55.4665 11.0514 56.065C11.0514 56.6636 11.1621 57.2002 11.3835 57.6749C11.6141 58.1496 11.9323 58.5212 12.3381 58.7895C12.744 59.0475 13.2006 59.1765 13.7079 59.1765Z" fill="white"/>
<path d="M24.032 51.7926C24.7146 51.7926 25.3326 51.968 25.8861 52.3189C26.4395 52.6594 26.873 53.1445 27.1866 53.774C27.5003 54.4035 27.6571 55.1207 27.6571 55.9257C27.6571 56.741 27.5003 57.4634 27.1866 58.0929C26.873 58.7224 26.4395 59.2126 25.8861 59.5635C25.3418 59.904 24.7238 60.0743 24.032 60.0743C23.4417 60.0743 22.9067 59.9401 22.4271 59.6718C21.9566 59.3932 21.5692 58.9907 21.2648 58.4644V63H20.2825V51.8545H21.2233V53.4644C21.5185 52.9278 21.9059 52.515 22.3856 52.226C22.8744 51.937 23.4233 51.7926 24.032 51.7926ZM23.9629 59.0991C24.4702 59.0991 24.9314 58.9701 25.3465 58.7121C25.7615 58.4438 26.0844 58.0671 26.315 57.582C26.5548 57.097 26.6747 56.5449 26.6747 55.9257C26.6747 55.3065 26.5548 54.7595 26.315 54.2848C26.0844 53.7998 25.7615 53.4231 25.3465 53.1548C24.9314 52.8865 24.4702 52.7523 23.9629 52.7523C23.4463 52.7523 22.9805 52.8865 22.5654 53.1548C22.1596 53.4231 21.8367 53.7998 21.5969 54.2848C21.3663 54.7595 21.251 55.3065 21.251 55.9257C21.251 56.5449 21.3663 57.097 21.5969 57.582C21.8367 58.0671 22.1596 58.4438 22.5654 58.7121C22.9805 58.9701 23.4463 59.0991 23.9629 59.0991Z" fill="white"/>
<path d="M33.0616 51.7926C34.0117 51.7926 34.7404 52.0609 35.2477 52.5975C35.755 53.1238 36.0087 53.9082 36.0087 54.9505V59.9969H35.0679V58.7276C34.8465 59.1507 34.519 59.4809 34.0855 59.7183C33.6612 59.9556 33.1539 60.0743 32.5635 60.0743C31.7518 60.0743 31.1062 59.8576 30.6265 59.4242C30.1469 58.9907 29.907 58.418 29.907 57.7059C29.907 57.0144 30.1284 56.4572 30.5712 56.0341C31.0231 55.6109 31.738 55.3994 32.7157 55.3994H35.0264V54.904C35.0264 54.2023 34.8511 53.6708 34.5006 53.3096C34.1501 52.9381 33.6381 52.7523 32.9648 52.7523C32.5036 52.7523 32.0608 52.84 31.6365 53.0155C31.2122 53.1806 30.8479 53.4128 30.5435 53.7121L30.1007 52.8916C30.4697 52.5408 30.9125 52.2724 31.429 52.0867C31.9455 51.8906 32.4898 51.7926 33.0616 51.7926ZM32.7157 59.2074C33.2692 59.2074 33.7442 59.0681 34.1409 58.7895C34.5375 58.5005 34.8326 58.0877 35.0264 57.5511V56.2198H32.7434C31.4982 56.2198 30.8756 56.7049 30.8756 57.6749C30.8756 58.1496 31.037 58.5263 31.3598 58.805C31.6827 59.0733 32.1346 59.2074 32.7157 59.2074Z" fill="white"/>
<path d="M42.8474 55.7554C43.3639 55.8896 43.7605 56.1218 44.0373 56.452C44.3232 56.7823 44.4662 57.1847 44.4662 57.6594C44.4662 58.1342 44.3186 58.5573 44.0234 58.9288C43.7375 59.3003 43.3455 59.5893 42.8474 59.7957C42.3493 59.9917 41.8004 60.0898 41.2009 60.0898C40.6751 60.0898 40.1586 60.0072 39.6512 59.8421C39.1439 59.6667 38.7012 59.4138 38.323 59.0836L38.6551 58.2632C38.9871 58.5418 39.3745 58.7585 39.8173 58.9133C40.26 59.0681 40.7074 59.1455 41.1594 59.1455C41.8327 59.1455 42.3816 59.0062 42.8059 58.7276C43.2394 58.4386 43.4561 58.0516 43.4561 57.5666C43.4561 57.1331 43.2809 56.7977 42.9304 56.5604C42.5799 56.3127 42.1002 56.1889 41.4914 56.1889H40.2462V55.3839H41.4361C41.9803 55.3839 42.4184 55.2704 42.7505 55.0433C43.0826 54.806 43.2486 54.4912 43.2486 54.0991C43.2486 53.6656 43.0595 53.3251 42.6813 53.0774C42.3124 52.8297 41.8281 52.7059 41.2286 52.7059C40.4445 52.7059 39.6697 52.9278 38.9041 53.3715L38.6274 52.5201C39.4944 52.0144 40.3938 51.7616 41.3254 51.7616C41.8788 51.7616 42.3769 51.8545 42.8197 52.0402C43.2717 52.2157 43.6222 52.4685 43.8712 52.7988C44.1295 53.129 44.2586 53.5108 44.2586 53.9443C44.2586 54.3571 44.1295 54.7234 43.8712 55.0433C43.6222 55.3633 43.2809 55.6006 42.8474 55.7554Z" fill="white"/>
<path d="M50.5288 60.0743C49.8278 60.0743 49.196 59.8989 48.6333 59.548C48.0706 59.1868 47.6279 58.6914 47.305 58.0619C46.9822 57.4324 46.8208 56.7203 46.8208 55.9257C46.8208 55.1311 46.9822 54.419 47.305 53.7895C47.6279 53.16 48.0706 52.6698 48.6333 52.3189C49.196 51.968 49.8278 51.7926 50.5288 51.7926C51.2299 51.7926 51.8617 51.968 52.4244 52.3189C52.987 52.6698 53.4252 53.16 53.7388 53.7895C54.0616 54.419 54.223 55.1311 54.223 55.9257C54.223 56.7203 54.0616 57.4324 53.7388 58.0619C53.4252 58.6914 52.987 59.1868 52.4244 59.548C51.8617 59.8989 51.2299 60.0743 50.5288 60.0743ZM50.5288 59.0991C51.0454 59.0991 51.5066 58.9701 51.9124 58.7121C52.3275 58.4438 52.6503 58.0671 52.8809 57.582C53.1115 57.097 53.2268 56.5449 53.2268 55.9257C53.2268 55.3065 53.1115 54.7544 52.8809 54.2694C52.6503 53.7843 52.3275 53.4128 51.9124 53.1548C51.5066 52.8865 51.0454 52.7523 50.5288 52.7523C50.0123 52.7523 49.5465 52.8865 49.1314 53.1548C48.7255 53.4128 48.4027 53.7843 48.1629 54.2694C47.9323 54.7544 47.817 55.3065 47.817 55.9257C47.817 56.5449 47.9323 57.097 48.1629 57.582C48.4027 58.0671 48.7255 58.4438 49.1314 58.7121C49.5465 58.9701 50.0123 59.0991 50.5288 59.0991Z" fill="white"/>
<path d="M61.7878 55.7864C62.7747 56.0444 63.2682 56.71 63.2682 57.7833C63.2682 58.4954 63.033 59.0423 62.5626 59.4242C62.0921 59.806 61.3911 59.9969 60.4595 59.9969H57.1527V51.8545H60.3626C61.1928 51.8545 61.8431 52.0351 62.3135 52.3963C62.784 52.7575 63.0192 53.2735 63.0192 53.9443C63.0192 54.388 62.9085 54.7699 62.6871 55.0898C62.4749 55.3994 62.1752 55.6316 61.7878 55.7864ZM58.1074 55.4768H60.2935C60.8561 55.4768 61.285 55.3581 61.5802 55.1207C61.8846 54.8834 62.0368 54.5377 62.0368 54.0836C62.0368 53.6295 61.8846 53.289 61.5802 53.0619C61.285 52.8349 60.8561 52.7214 60.2935 52.7214H58.1074V55.4768ZM60.418 59.13C61.0452 59.13 61.5156 59.0165 61.8293 58.7895C62.1429 58.5624 62.2997 58.2064 62.2997 57.7214C62.2997 57.2363 62.1567 56.8803 61.8708 56.6533C61.5848 56.4159 61.1329 56.2972 60.5148 56.2972H58.1074V59.13H60.418Z" fill="white"/>
<path d="M68.905 51.7926C69.855 51.7926 70.5837 52.0609 71.0911 52.5975C71.5984 53.1238 71.852 53.9082 71.852 54.9505V59.9969H70.9112V58.7276C70.6898 59.1507 70.3624 59.4809 69.9288 59.7183C69.5045 59.9556 68.9972 60.0743 68.4069 60.0743C67.5952 60.0743 66.9495 59.8576 66.4698 59.4242C65.9902 58.9907 65.7504 58.418 65.7504 57.7059C65.7504 57.0144 65.9717 56.4572 66.4145 56.0341C66.8665 55.6109 67.5813 55.3994 68.5591 55.3994H70.8697V54.904C70.8697 54.2023 70.6944 53.6708 70.3439 53.3096C69.9934 52.9381 69.4815 52.7523 68.8081 52.7523C68.3469 52.7523 67.9042 52.84 67.4799 53.0155C67.0556 53.1806 66.6912 53.4128 66.3868 53.7121L65.9441 52.8916C66.313 52.5408 66.7558 52.2724 67.2723 52.0867C67.7889 51.8906 68.3331 51.7926 68.905 51.7926ZM68.5591 59.2074C69.1125 59.2074 69.5875 59.0681 69.9842 58.7895C70.3808 58.5005 70.676 58.0877 70.8697 57.5511V56.2198H68.5867C67.3415 56.2198 66.7189 56.7049 66.7189 57.6749C66.7189 58.1496 66.8803 58.5263 67.2031 58.805C67.526 59.0733 67.978 59.2074 68.5591 59.2074Z" fill="white"/>
<path d="M80.4166 52.8297H77.6633V59.9969H76.6809V52.8297H73.9275V51.8545H80.4166V52.8297Z" fill="white"/>
<path d="M88.6939 56.2663H82.6061C82.6614 57.1125 82.952 57.7988 83.4777 58.3251C84.0035 58.8411 84.6676 59.0991 85.4701 59.0991C85.9221 59.0991 86.3372 59.0114 86.7153 58.8359C87.0935 58.6502 87.421 58.3818 87.6977 58.031L88.2511 58.743C87.9283 59.1765 87.5225 59.5067 87.0336 59.7337C86.5539 59.9608 86.0236 60.0743 85.4424 60.0743C84.6953 60.0743 84.0312 59.8989 83.4501 59.548C82.8782 59.1868 82.4308 58.6914 82.108 58.0619C81.7851 57.4324 81.6237 56.7203 81.6237 55.9257C81.6237 55.1311 81.7759 54.419 82.0803 53.7895C82.3939 53.16 82.8182 52.6698 83.3532 52.3189C83.8974 51.968 84.5062 51.7926 85.1796 51.7926C85.8529 51.7926 86.4571 51.968 86.9921 52.3189C87.5271 52.6698 87.9468 53.16 88.2511 53.7895C88.5555 54.4087 88.7077 55.1207 88.7077 55.9257L88.6939 56.2663ZM85.1796 52.7368C84.4785 52.7368 83.8882 52.9897 83.4085 53.4954C82.9381 53.9907 82.6706 54.6409 82.6061 55.4458H87.7669C87.7023 54.6409 87.4302 53.9907 86.9506 53.4954C86.4801 52.9897 85.8898 52.7368 85.1796 52.7368Z" fill="white"/>
<path d="M97.5133 51.8545V59.9969H96.5309V52.8297H93.0442L92.9474 54.8421C92.8736 56.5346 92.6983 57.8349 92.4216 58.743C92.1449 59.6512 91.6514 60.1053 90.9412 60.1053C90.7475 60.1053 90.5123 60.064 90.2355 59.9814L90.3047 59.0372C90.4707 59.0784 90.586 59.0991 90.6506 59.0991C91.0288 59.0991 91.3147 58.903 91.5084 58.5108C91.7021 58.1187 91.8313 57.6336 91.8959 57.0557C91.9604 56.4778 92.0158 55.7141 92.0619 54.7647L92.1864 51.8545H97.5133Z" fill="white"/>
<path d="M104.263 54.7337C105.176 54.7441 105.868 54.9711 106.338 55.4149C106.818 55.8586 107.058 56.4985 107.058 57.3344C107.058 58.2012 106.8 58.8669 106.283 59.3313C105.776 59.7957 105.038 60.0227 104.069 60.0124L101.136 59.9969V51.8545H102.118V54.7028L104.263 54.7337ZM104.014 59.1765C104.687 59.1868 105.195 59.0372 105.536 58.7276C105.886 58.4076 106.062 57.9432 106.062 57.3344C106.062 56.7358 105.891 56.2921 105.55 56.0031C105.208 55.7141 104.696 55.5645 104.014 55.5542L102.118 55.5232V59.1455L104.014 59.1765Z" fill="white"/>
<path d="M109.762 51.8545H110.745V55.4613H115.325V51.8545H116.307V59.9969H115.325V56.4056H110.745V59.9969H109.762V51.8545Z" fill="white"/>
<path d="M122.434 51.7926C123.384 51.7926 124.112 52.0609 124.62 52.5975C125.127 53.1238 125.381 53.9082 125.381 54.9505V59.9969H124.44V58.7276C124.218 59.1507 123.891 59.4809 123.457 59.7183C123.033 59.9556 122.526 60.0743 121.935 60.0743C121.124 60.0743 120.478 59.8576 119.998 59.4242C119.519 58.9907 119.279 58.418 119.279 57.7059C119.279 57.0144 119.5 56.4572 119.943 56.0341C120.395 55.6109 121.11 55.3994 122.088 55.3994H124.398V54.904C124.398 54.2023 124.223 53.6708 123.872 53.3096C123.522 52.9381 123.01 52.7523 122.337 52.7523C121.875 52.7523 121.433 52.84 121.008 53.0155C120.584 53.1806 120.22 53.4128 119.915 53.7121L119.473 52.8916C119.842 52.5408 120.284 52.2724 120.801 52.0867C121.317 51.8906 121.862 51.7926 122.434 51.7926ZM122.088 59.2074C122.641 59.2074 123.116 59.0681 123.513 58.7895C123.909 58.5005 124.205 58.0877 124.398 57.5511V56.2198H122.115C120.87 56.2198 120.247 56.7049 120.247 57.6749C120.247 58.1496 120.409 58.5263 120.732 58.805C121.055 59.0733 121.506 59.2074 122.088 59.2074Z" fill="white"/>
<path d="M134.416 51.8545V59.9969H133.516V57.3034H131.233H130.957L129.269 59.9969H128.203L130.016 57.1486C129.453 56.9732 129.02 56.6739 128.715 56.2508C128.411 55.8277 128.259 55.291 128.259 54.6409C128.259 53.7327 128.535 53.0413 129.089 52.5666C129.642 52.0918 130.399 51.8545 131.358 51.8545H134.416ZM129.255 54.6718C129.255 55.8793 129.942 56.483 131.316 56.483H133.516V52.8297H131.385C129.965 52.8297 129.255 53.4438 129.255 54.6718Z" fill="white"/>
<path d="M149.029 51.8545V59.9969H148.046V52.8297H143.48V59.9969H142.498V51.8545H149.029Z" fill="white"/>
<path d="M158.601 51.8545V59.9969H157.618V52.8297H154.132L154.035 54.8421C153.961 56.5346 153.786 57.8349 153.509 58.743C153.232 59.6512 152.739 60.1053 152.029 60.1053C151.835 60.1053 151.6 60.064 151.323 59.9814L151.392 59.0372C151.558 59.0784 151.674 59.0991 151.738 59.0991C152.116 59.0991 152.402 58.903 152.596 58.5108C152.79 58.1187 152.919 57.6336 152.983 57.0557C153.048 56.4778 153.103 55.7141 153.149 54.7647L153.274 51.8545H158.601Z" fill="white"/>
<path d="M164.728 51.7926C165.678 51.7926 166.407 52.0609 166.914 52.5975C167.421 53.1238 167.675 53.9082 167.675 54.9505V59.9969H166.734V58.7276C166.513 59.1507 166.185 59.4809 165.752 59.7183C165.327 59.9556 164.82 60.0743 164.23 60.0743C163.418 60.0743 162.772 59.8576 162.293 59.4242C161.813 58.9907 161.573 58.418 161.573 57.7059C161.573 57.0144 161.795 56.4572 162.237 56.0341C162.689 55.6109 163.404 55.3994 164.382 55.3994H166.693V54.904C166.693 54.2023 166.517 53.6708 166.167 53.3096C165.816 52.9381 165.304 52.7523 164.631 52.7523C164.17 52.7523 163.727 52.84 163.303 53.0155C162.878 53.1806 162.514 53.4128 162.21 53.7121L161.767 52.8916C162.136 52.5408 162.579 52.2724 163.095 52.0867C163.612 51.8906 164.156 51.7926 164.728 51.7926ZM164.382 59.2074C164.935 59.2074 165.41 59.0681 165.807 58.7895C166.204 58.5005 166.499 58.0877 166.693 57.5511V56.2198H164.41C163.164 56.2198 162.542 56.7049 162.542 57.6749C162.542 58.1496 162.703 58.5263 163.026 58.805C163.349 59.0733 163.801 59.2074 164.382 59.2074Z" fill="white"/>
<path d="M176.24 52.8297H173.486V59.9969H172.504V52.8297H169.75V51.8545H176.24V52.8297Z" fill="white"/>
<path d="M186.938 55.9102C186.938 57.1796 186.565 58.1754 185.817 58.8978C185.07 59.6202 184.014 60.0124 182.649 60.0743V63H181.694V60.0898C180.338 60.0279 179.287 59.6357 178.54 58.9133C177.802 58.1806 177.433 57.1796 177.433 55.9102C177.433 54.6512 177.802 53.6656 178.54 52.9536C179.287 52.2415 180.338 51.8545 181.694 51.7926V48.5108H182.649V51.7926C184.014 51.8648 185.07 52.257 185.817 52.969C186.565 53.6811 186.938 54.6615 186.938 55.9102ZM178.401 55.9102C178.401 56.8803 178.678 57.6388 179.231 58.1858C179.794 58.7327 180.615 59.0423 181.694 59.1146V52.7678C180.624 52.8297 179.808 53.1342 179.245 53.6811C178.683 54.2178 178.401 54.9608 178.401 55.9102ZM182.649 59.1146C183.728 59.0526 184.549 58.7482 185.112 58.2012C185.684 57.6543 185.97 56.8906 185.97 55.9102C185.97 54.9505 185.684 54.2023 185.112 53.6656C184.549 53.129 183.728 52.8297 182.649 52.7678V59.1146Z" fill="white"/>
<path d="M192.848 60.0743C192.147 60.0743 191.515 59.8989 190.953 59.548C190.39 59.1868 189.947 58.6914 189.624 58.0619C189.302 57.4324 189.14 56.7203 189.14 55.9257C189.14 55.1311 189.302 54.419 189.624 53.7895C189.947 53.16 190.39 52.6698 190.953 52.3189C191.515 51.968 192.147 51.7926 192.848 51.7926C193.549 51.7926 194.181 51.968 194.744 52.3189C195.306 52.6698 195.745 53.16 196.058 53.7895C196.381 54.419 196.542 55.1311 196.542 55.9257C196.542 56.7203 196.381 57.4324 196.058 58.0619C195.745 58.6914 195.306 59.1868 194.744 59.548C194.181 59.8989 193.549 60.0743 192.848 60.0743ZM192.848 59.0991C193.365 59.0991 193.826 58.9701 194.232 58.7121C194.647 58.4438 194.97 58.0671 195.2 57.582C195.431 57.097 195.546 56.5449 195.546 55.9257C195.546 55.3065 195.431 54.7544 195.2 54.2694C194.97 53.7843 194.647 53.4128 194.232 53.1548C193.826 52.8865 193.365 52.7523 192.848 52.7523C192.332 52.7523 191.866 52.8865 191.451 53.1548C191.045 53.4128 190.722 53.7843 190.482 54.2694C190.252 54.7544 190.136 55.3065 190.136 55.9257C190.136 56.5449 190.252 57.097 190.482 57.582C190.722 58.0671 191.045 58.4438 191.451 58.7121C191.866 58.9701 192.332 59.0991 192.848 59.0991Z" fill="white"/>
<path d="M203.222 51.7926C203.904 51.7926 204.522 51.968 205.076 52.3189C205.629 52.6594 206.063 53.1445 206.376 53.774C206.69 54.4035 206.847 55.1207 206.847 55.9257C206.847 56.741 206.69 57.4634 206.376 58.0929C206.063 58.7224 205.629 59.2126 205.076 59.5635C204.531 59.904 203.913 60.0743 203.222 60.0743C202.631 60.0743 202.096 59.9401 201.617 59.6718C201.146 59.3932 200.759 58.9907 200.454 58.4644V63H199.472V51.8545H200.413V53.4644C200.708 52.9278 201.096 52.515 201.575 52.226C202.064 51.937 202.613 51.7926 203.222 51.7926ZM203.152 59.0991C203.66 59.0991 204.121 58.9701 204.536 58.7121C204.951 58.4438 205.274 58.0671 205.505 57.582C205.744 57.097 205.864 56.5449 205.864 55.9257C205.864 55.3065 205.744 54.7595 205.505 54.2848C205.274 53.7998 204.951 53.4231 204.536 53.1548C204.121 52.8865 203.66 52.7523 203.152 52.7523C202.636 52.7523 202.17 52.8865 201.755 53.1548C201.349 53.4231 201.026 53.7998 200.787 54.2848C200.556 54.7595 200.441 55.3065 200.441 55.9257C200.441 56.5449 200.556 57.097 200.787 57.582C201.026 58.0671 201.349 58.4438 201.755 58.7121C202.17 58.9701 202.636 59.0991 203.152 59.0991Z" fill="white"/>
<path d="M217.923 51.8545V59.9969H217.024V53.5573L214.077 59.0062H213.634L210.687 53.5418V59.9969H209.787V51.8545H210.784L213.869 57.7214L217.01 51.8545H217.923Z" fill="white"/>
<path d="M224.053 51.7926C225.003 51.7926 225.732 52.0609 226.239 52.5975C226.746 53.1238 227 53.9082 227 54.9505V59.9969H226.059V58.7276C225.838 59.1507 225.51 59.4809 225.077 59.7183C224.652 59.9556 224.145 60.0743 223.555 60.0743C222.743 60.0743 222.097 59.8576 221.618 59.4242C221.138 58.9907 220.898 58.418 220.898 57.7059C220.898 57.0144 221.12 56.4572 221.562 56.0341C222.014 55.6109 222.729 55.3994 223.707 55.3994H226.018V54.904C226.018 54.2023 225.842 53.6708 225.492 53.3096C225.141 52.9381 224.629 52.7523 223.956 52.7523C223.495 52.7523 223.052 52.84 222.628 53.0155C222.204 53.1806 221.839 53.4128 221.535 53.7121L221.092 52.8916C221.461 52.5408 221.904 52.2724 222.42 52.0867C222.937 51.8906 223.481 51.7926 224.053 51.7926ZM223.707 59.2074C224.26 59.2074 224.735 59.0681 225.132 58.7895C225.529 58.5005 225.824 58.0877 226.018 57.5511V56.2198H223.735C222.489 56.2198 221.867 56.7049 221.867 57.6749C221.867 58.1496 222.028 58.5263 222.351 58.805C222.674 59.0733 223.126 59.2074 223.707 59.2074Z" fill="white"/>
</svg>
