<svg width="25" height="25" viewBox="0 0 25 25" fill="none" xmlns="http://www.w3.org/2000/svg">
<path d="M20.7037 6.22225C20.6147 5.88873 20.434 5.53336 20.3003 5.22222C18.7006 1.37777 15.2053 0 12.383 0C8.6049 0 4.44373 2.5334 3.88818 7.75533V8.8222C3.88818 8.86672 3.90353 9.26667 3.92532 9.46673C4.23675 11.9554 6.20048 14.6003 7.66707 17.0889C9.2449 19.7552 10.8821 22.3781 12.5042 24.9999C13.5044 23.289 14.501 21.5556 15.4784 19.8889C15.7448 19.3998 16.054 18.911 16.3207 18.4441C16.4984 18.1333 16.838 17.8224 16.9931 17.5332C18.5709 14.6445 21.1105 11.7335 21.1105 8.86666V7.68895C21.1106 7.37816 20.7253 6.28926 20.7037 6.22225ZM12.4522 11.5779C11.3416 11.5779 10.126 11.0226 9.52599 9.489C9.4366 9.24487 9.4438 8.75564 9.4438 8.71083V8.02194C9.4438 6.06688 11.1038 5.17781 12.548 5.17781C14.3259 5.17781 15.7009 6.60023 15.7009 8.37813C15.7009 10.156 14.2301 11.5779 12.4522 11.5779Z" fill="#2C78F6" fill-opacity="0.2"/>
</svg>
