<svg width="16" height="16" viewBox="0 0 16 16" fill="none" xmlns="http://www.w3.org/2000/svg">
<path fill-rule="evenodd" clip-rule="evenodd" d="M0 6.76921C0 10.5019 3.09082 13.5387 6.89005 13.5387C8.58997 13.5387 10.1481 12.9306 11.351 11.9242L14.9848 15.814C15.1001 15.9374 15.2576 16 15.4156 16C15.5567 16 15.6986 15.9498 15.8108 15.849C16.0486 15.6343 16.0643 15.271 15.8463 15.0374L12.175 11.1075C13.1764 9.93189 13.7798 8.41848 13.7798 6.76921C13.7798 3.03676 10.6889 0 6.89005 0C3.09082 0 0 3.03676 0 6.76921ZM1.16893 6.76921C1.16893 3.66999 3.73532 1.14823 6.89005 1.14823C10.0444 1.14823 12.6108 3.66999 12.6108 6.76921C12.6108 9.86868 10.0444 12.3901 6.89005 12.3901C3.73532 12.3901 1.16893 9.86868 1.16893 6.76921Z" fill="#909AAB"/>
</svg>
