<svg width="21" height="21" viewBox="0 0 21 21" fill="none" xmlns="http://www.w3.org/2000/svg">
<path fill-rule="evenodd" clip-rule="evenodd" d="M0.00146484 8.88008C0.00146484 13.7771 4.03329 17.7612 8.98921 17.7612C11.2067 17.7612 13.2392 16.9635 14.8082 15.6431L19.5484 20.7463C19.6987 20.9083 19.9043 20.9903 20.1103 20.9903C20.2945 20.9903 20.4795 20.9245 20.6259 20.7923C20.9361 20.5106 20.9565 20.034 20.6721 19.7275L15.8832 14.5717C17.1894 13.0293 17.9765 11.0438 17.9765 8.88008C17.9765 3.98332 13.9447 -0.000732422 8.98921 -0.000732422C4.03329 -0.000732422 0.00146484 3.98332 0.00146484 8.88008ZM1.52628 8.88008C1.52628 4.81408 4.874 1.50568 8.98921 1.50568C13.1039 1.50568 16.4517 4.81408 16.4517 8.88008C16.4517 12.9464 13.1039 16.2544 8.98921 16.2544C4.874 16.2544 1.52628 12.9464 1.52628 8.88008Z" fill="#909AAB"/>
</svg>
