<svg width="287" height="17" viewBox="0 0 287 17" fill="none" xmlns="http://www.w3.org/2000/svg">
<path d="M6.34884 12.9784C5.13551 12.9784 4.0421 12.7261 3.06861 12.2216C2.10923 11.7027 1.35442 10.9892 0.804187 10.0811C0.268062 9.17297 0 8.14234 0 6.98919C0 5.83604 0.268062 4.80541 0.804187 3.8973C1.35442 2.98919 2.10923 2.28288 3.06861 1.77838C4.0421 1.25946 5.13551 1 6.34884 1C7.54807 1 8.5921 1.25946 9.48094 1.77838C10.3839 2.28288 11.0399 3.01081 11.4491 3.96216L8.88838 5.36757C8.29582 4.3009 7.44226 3.76757 6.32768 3.76757C5.46706 3.76757 4.75458 4.05586 4.19024 4.63243C3.6259 5.20901 3.34372 5.99459 3.34372 6.98919C3.34372 7.98378 3.6259 8.76937 4.19024 9.34595C4.75458 9.92252 5.46706 10.2108 6.32768 10.2108C7.45636 10.2108 8.30993 9.67748 8.88838 8.61081L11.4491 10.0378C11.0399 10.9604 10.3839 11.6811 9.48094 12.2C8.5921 12.7189 7.54807 12.9784 6.34884 12.9784Z" fill="white"/>
<path d="M22.9795 3.94054H19.1279V12.8054H15.8476V3.94054H11.996V1.17297H22.9795V3.94054Z" fill="white"/>
<path d="M29.597 12.9784C28.3978 12.9784 27.3185 12.7261 26.3591 12.2216C25.4138 11.7027 24.6731 10.9892 24.137 10.0811C23.6009 9.17297 23.3328 8.14234 23.3328 6.98919C23.3328 5.83604 23.6009 4.80541 24.137 3.8973C24.6731 2.98919 25.4138 2.28288 26.3591 1.77838C27.3185 1.25946 28.3978 1 29.597 1C30.7962 1 31.8685 1.25946 32.8138 1.77838C33.759 2.28288 34.4997 2.98919 35.0359 3.8973C35.572 4.80541 35.84 5.83604 35.84 6.98919C35.84 8.14234 35.572 9.17297 35.0359 10.0811C34.4997 10.9892 33.759 11.7027 32.8138 12.2216C31.8685 12.7261 30.7962 12.9784 29.597 12.9784ZM29.597 10.2108C30.4435 10.2108 31.1348 9.92252 31.671 9.34595C32.2212 8.75496 32.4963 7.96937 32.4963 6.98919C32.4963 6.00901 32.2212 5.23063 31.671 4.65405C31.1348 4.06306 30.4435 3.76757 29.597 3.76757C28.7505 3.76757 28.0521 4.06306 27.5019 4.65405C26.9517 5.23063 26.6765 6.00901 26.6765 6.98919C26.6765 7.96937 26.9517 8.75496 27.5019 9.34595C28.0521 9.92252 28.7505 10.2108 29.597 10.2108Z" fill="white"/>
<path d="M49.2212 12.8054V5.84324L45.814 11.6811H44.4173L41.0947 5.82162V12.8054H38.1108V1.17297H41.5603L45.2003 7.8973L49.0731 1.17297H52.1629L52.2052 12.8054H49.2212Z" fill="white"/>
<path d="M66.6896 1.17297V12.8054H63.3882V3.94054H58.6478V12.8054H55.3675V1.17297H66.6896Z" fill="white"/>
<path d="M75.188 12.9784C73.9888 12.9784 72.9095 12.7261 71.9501 12.2216C71.0048 11.7027 70.2641 10.9892 69.728 10.0811C69.1919 9.17297 68.9238 8.14234 68.9238 6.98919C68.9238 5.83604 69.1919 4.80541 69.728 3.8973C70.2641 2.98919 71.0048 2.28288 71.9501 1.77838C72.9095 1.25946 73.9888 1 75.188 1C76.3872 1 77.4595 1.25946 78.4047 1.77838C79.35 2.28288 80.0907 2.98919 80.6268 3.8973C81.163 4.80541 81.431 5.83604 81.431 6.98919C81.431 8.14234 81.163 9.17297 80.6268 10.0811C80.0907 10.9892 79.35 11.7027 78.4047 12.2216C77.4595 12.7261 76.3872 12.9784 75.188 12.9784ZM75.188 10.2108C76.0345 10.2108 76.7258 9.92252 77.2619 9.34595C77.8122 8.75496 78.0873 7.96937 78.0873 6.98919C78.0873 6.00901 77.8122 5.23063 77.2619 4.65405C76.7258 4.06306 76.0345 3.76757 75.188 3.76757C74.3415 3.76757 73.6431 4.06306 73.0929 4.65405C72.5426 5.23063 72.2675 6.00901 72.2675 6.98919C72.2675 7.96937 72.5426 8.75496 73.0929 9.34595C73.6431 9.92252 74.3415 10.2108 75.188 10.2108Z" fill="white"/>
<path d="M90.4103 1C91.4685 1 92.4279 1.25225 93.2885 1.75676C94.1632 2.24685 94.8475 2.94594 95.3413 3.85405C95.8351 4.74775 96.082 5.79279 96.082 6.98919C96.082 8.18559 95.8351 9.23784 95.3413 10.1459C94.8475 11.0396 94.1632 11.7387 93.2885 12.2432C92.4279 12.7333 91.4685 12.9784 90.4103 12.9784C88.9572 12.9784 87.8144 12.5099 86.982 11.573V17H83.6806V1.17297H86.8338V2.51351C87.6521 1.5045 88.8443 1 90.4103 1ZM89.839 10.2108C90.6855 10.2108 91.3768 9.92252 91.9129 9.34595C92.4631 8.75496 92.7383 7.96937 92.7383 6.98919C92.7383 6.00901 92.4631 5.23063 91.9129 4.65405C91.3768 4.06306 90.6855 3.76757 89.839 3.76757C88.9924 3.76757 88.2941 4.06306 87.7438 4.65405C87.2077 5.23063 86.9396 6.00901 86.9396 6.98919C86.9396 7.96937 87.2077 8.75496 87.7438 9.34595C88.2941 9.92252 88.9924 10.2108 89.839 10.2108Z" fill="white"/>
<path d="M107.548 3.94054H103.696V12.8054H100.416V3.94054H96.5646V1.17297H107.548V3.94054Z" fill="white"/>
<path d="M113.731 1C115.494 1 116.849 1.43243 117.794 2.2973C118.739 3.14775 119.212 4.43784 119.212 6.16757V12.8054H116.122V11.3568C115.502 12.4378 114.345 12.9784 112.652 12.9784C111.777 12.9784 111.015 12.827 110.366 12.5243C109.731 12.2216 109.244 11.8036 108.906 11.2703C108.567 10.7369 108.398 10.1315 108.398 9.45405C108.398 8.37297 108.793 7.52252 109.583 6.9027C110.387 6.28288 111.622 5.97297 113.287 5.97297H115.911C115.911 5.23784 115.692 4.67568 115.255 4.28649C114.817 3.88288 114.161 3.68108 113.287 3.68108C112.68 3.68108 112.08 3.78198 111.488 3.98378C110.909 4.17117 110.415 4.43063 110.006 4.76216L108.821 2.4054C109.442 1.95856 110.183 1.61261 111.043 1.36757C111.918 1.12252 112.814 1 113.731 1ZM113.477 10.7081C114.041 10.7081 114.542 10.5784 114.98 10.3189C115.417 10.045 115.727 9.64865 115.911 9.12973V7.94054H113.646C112.292 7.94054 111.615 8.39459 111.615 9.3027C111.615 9.73513 111.777 10.0811 112.101 10.3405C112.44 10.5856 112.899 10.7081 113.477 10.7081Z" fill="white"/>
<path d="M133 1.17297V12.8054H129.699V3.94054H126.101L125.995 5.99459C125.939 7.52252 125.798 8.79099 125.572 9.8C125.346 10.809 124.979 11.6018 124.471 12.1784C123.963 12.755 123.258 13.0432 122.355 13.0432C121.875 13.0432 121.304 12.9568 120.641 12.7838L120.81 10.0162C121.036 10.045 121.198 10.0595 121.297 10.0595C121.791 10.0595 122.158 9.87928 122.397 9.51892C122.651 9.14414 122.821 8.67567 122.905 8.11351C122.99 7.53694 123.053 6.78018 123.096 5.84324L123.265 1.17297H133Z" fill="white"/>
<path d="M155.827 11.0143C155.288 11.0143 154.803 10.8949 154.373 10.6561C153.942 10.4173 153.604 10.0897 153.359 9.67349C153.12 9.25043 153 8.77277 153 8.24053C153 7.70829 153.12 7.23405 153.359 6.81781C153.604 6.39474 153.942 6.06721 154.373 5.83521C154.803 5.59638 155.288 5.47697 155.827 5.47697C156.367 5.47697 156.848 5.59638 157.271 5.83521C157.702 6.06721 158.036 6.39474 158.275 6.81781C158.521 7.23405 158.644 7.70829 158.644 8.24053C158.644 8.77277 158.521 9.25043 158.275 9.67349C158.036 10.0897 157.702 10.4173 157.271 10.6561C156.848 10.8949 156.367 11.0143 155.827 11.0143ZM155.827 10.1546C156.175 10.1546 156.486 10.0761 156.759 9.91914C157.039 9.75537 157.258 9.53019 157.415 9.2436C157.572 8.95019 157.65 8.61583 157.65 8.24053C157.65 7.86523 157.572 7.53429 157.415 7.2477C157.258 6.95428 157.039 6.7291 156.759 6.57216C156.486 6.41522 156.175 6.33674 155.827 6.33674C155.479 6.33674 155.165 6.41522 154.885 6.57216C154.612 6.7291 154.393 6.95428 154.229 7.2477C154.072 7.53429 153.994 7.86523 153.994 8.24053C153.994 8.61583 154.072 8.95019 154.229 9.2436C154.393 9.53019 154.612 9.75537 154.885 9.91914C155.165 10.0761 155.479 10.1546 155.827 10.1546Z" fill="white"/>
<path d="M163.16 5.71238C163.666 5.71238 164.116 5.82497 164.513 6.05015C164.909 6.27533 165.216 6.58922 165.434 6.99181C165.66 7.38758 165.772 7.84135 165.772 8.35312C165.772 8.87854 165.653 9.34596 165.414 9.75537C165.182 10.158 164.851 10.4719 164.42 10.697C163.997 10.9222 163.512 11.0348 162.966 11.0348C162.044 11.0348 161.33 10.7209 160.825 10.0931C160.327 9.45855 160.077 8.56807 160.077 7.4217C160.077 6.30945 160.306 5.43944 160.764 4.81167C161.221 4.17707 161.921 3.75742 162.863 3.55271L165.342 3L165.486 3.90072L163.201 4.39202C162.491 4.54896 161.962 4.81508 161.614 5.19038C161.265 5.56568 161.067 6.10474 161.02 6.80757C161.252 6.45957 161.552 6.19004 161.921 5.99898C162.29 5.80792 162.703 5.71238 163.16 5.71238ZM162.986 10.216C163.335 10.216 163.642 10.1375 163.908 9.98055C164.181 9.82361 164.393 9.60866 164.543 9.33572C164.693 9.05595 164.769 8.73866 164.769 8.38383C164.769 7.84476 164.605 7.41146 164.277 7.08393C163.949 6.7564 163.519 6.59263 162.986 6.59263C162.454 6.59263 162.02 6.7564 161.685 7.08393C161.358 7.41146 161.194 7.84476 161.194 8.38383C161.194 8.73866 161.269 9.05595 161.419 9.33572C161.576 9.60866 161.791 9.82361 162.064 9.98055C162.338 10.1375 162.645 10.216 162.986 10.216Z" fill="white"/>
<path d="M172.203 5.52815L169.57 11.4954C169.338 12.0481 169.065 12.4371 168.751 12.6622C168.444 12.8874 168.071 13 167.634 13C167.368 13 167.108 12.9556 166.856 12.8669C166.61 12.7851 166.405 12.6622 166.241 12.4985L166.661 11.7615C166.941 12.0276 167.266 12.1607 167.634 12.1607C167.873 12.1607 168.071 12.0959 168.228 11.9662C168.392 11.8434 168.539 11.6285 168.669 11.3214L168.843 10.9427L166.446 5.52815H167.47L169.365 9.86796L171.24 5.52815H172.203Z" fill="white"/>
<path d="M177.873 5.52815V10.9529H176.89V8.76254C176.303 9.03548 175.719 9.17195 175.138 9.17195C174.462 9.17195 173.94 9.01501 173.571 8.70113C173.202 8.38724 173.018 7.91641 173.018 7.28864V5.52815H174.001V7.22723C174.001 7.60252 174.117 7.8857 174.35 8.07677C174.589 8.26783 174.92 8.36336 175.343 8.36336C175.821 8.36336 176.337 8.24394 176.89 8.00512V5.52815H177.873Z" fill="white"/>
<path d="M185.02 8.27124C185.02 8.3463 185.013 8.44524 184.999 8.56807H180.595C180.656 9.04572 180.864 9.43125 181.219 9.72467C181.581 10.0113 182.029 10.1546 182.561 10.1546C183.21 10.1546 183.732 9.9362 184.129 9.49949L184.671 10.1341C184.426 10.4207 184.118 10.639 183.75 10.7892C183.388 10.9393 182.981 11.0143 182.531 11.0143C181.957 11.0143 181.448 10.8983 181.004 10.6663C180.561 10.4275 180.216 10.0966 179.97 9.67349C179.731 9.25043 179.611 8.77277 179.611 8.24053C179.611 7.71511 179.727 7.24087 179.96 6.81781C180.199 6.39474 180.523 6.06721 180.933 5.83521C181.349 5.59638 181.817 5.47697 182.336 5.47697C182.855 5.47697 183.316 5.59638 183.719 5.83521C184.129 6.06721 184.446 6.39474 184.671 6.81781C184.904 7.24087 185.02 7.72535 185.02 8.27124ZM182.336 6.30604C181.865 6.30604 181.469 6.44933 181.148 6.73593C180.834 7.02252 180.649 7.39782 180.595 7.86182H184.077C184.023 7.40464 183.835 7.03275 183.514 6.74616C183.2 6.45275 182.807 6.30604 182.336 6.30604Z" fill="white"/>
<path d="M186.876 5.52815H187.859V7.83112H190.953V5.52815H191.936V10.9529H190.953V8.68066H187.859V10.9529H186.876V5.52815Z" fill="white"/>
<path d="M194.179 5.52815H195.162V9.47902L198.491 5.52815H199.383V10.9529H198.399V7.00205L195.081 10.9529H194.179V5.52815Z" fill="white"/>
<path d="M206.529 8.27124C206.529 8.3463 206.522 8.44524 206.508 8.56807H202.104C202.165 9.04572 202.373 9.43125 202.728 9.72467C203.09 10.0113 203.538 10.1546 204.07 10.1546C204.719 10.1546 205.241 9.9362 205.637 9.49949L206.18 10.1341C205.935 10.4207 205.627 10.639 205.258 10.7892C204.897 10.9393 204.49 11.0143 204.04 11.0143C203.466 11.0143 202.957 10.8983 202.513 10.6663C202.069 10.4275 201.725 10.0966 201.479 9.67349C201.24 9.25043 201.12 8.77277 201.12 8.24053C201.12 7.71511 201.236 7.24087 201.469 6.81781C201.708 6.39474 202.032 6.06721 202.442 5.83521C202.858 5.59638 203.326 5.47697 203.845 5.47697C204.364 5.47697 204.825 5.59638 205.228 5.83521C205.637 6.06721 205.955 6.39474 206.18 6.81781C206.413 7.24087 206.529 7.72535 206.529 8.27124ZM203.845 6.30604C203.374 6.30604 202.978 6.44933 202.657 6.73593C202.343 7.02252 202.158 7.39782 202.104 7.86182H205.586C205.532 7.40464 205.344 7.03275 205.023 6.74616C204.709 6.45275 204.316 6.30604 203.845 6.30604Z" fill="white"/>
<path d="M213.833 11.0143C213.28 11.0143 212.785 10.8949 212.348 10.6561C211.918 10.4173 211.579 10.0897 211.334 9.67349C211.088 9.25043 210.965 8.77277 210.965 8.24053C210.965 7.70829 211.088 7.23405 211.334 6.81781C211.579 6.39474 211.918 6.06721 212.348 5.83521C212.785 5.59638 213.28 5.47697 213.833 5.47697C214.325 5.47697 214.762 5.57591 215.144 5.7738C215.533 5.97168 215.834 6.25827 216.045 6.63357L215.298 7.11464C215.127 6.85534 214.915 6.66087 214.663 6.53122C214.41 6.40157 214.13 6.33674 213.823 6.33674C213.468 6.33674 213.147 6.41522 212.86 6.57216C212.58 6.7291 212.358 6.95428 212.194 7.2477C212.037 7.53429 211.958 7.86523 211.958 8.24053C211.958 8.62265 212.037 8.96042 212.194 9.25384C212.358 9.54043 212.58 9.7622 212.86 9.91914C213.147 10.0761 213.468 10.1546 213.823 10.1546C214.13 10.1546 214.41 10.0897 214.663 9.96008C214.915 9.83043 215.127 9.63596 215.298 9.37666L216.045 9.84749C215.834 10.2228 215.533 10.5128 215.144 10.7175C214.762 10.9154 214.325 11.0143 213.833 11.0143Z" fill="white"/>
<path d="M221.625 6.38792H219.638V10.9529H218.655V6.38792H216.668V5.52815H221.625V6.38792Z" fill="white"/>
<path d="M225.047 11.0143C224.508 11.0143 224.023 10.8949 223.593 10.6561C223.162 10.4173 222.824 10.0897 222.578 9.67349C222.339 9.25043 222.22 8.77277 222.22 8.24053C222.22 7.70829 222.339 7.23405 222.578 6.81781C222.824 6.39474 223.162 6.06721 223.593 5.83521C224.023 5.59638 224.508 5.47697 225.047 5.47697C225.587 5.47697 226.068 5.59638 226.491 5.83521C226.922 6.06721 227.256 6.39474 227.495 6.81781C227.741 7.23405 227.864 7.70829 227.864 8.24053C227.864 8.77277 227.741 9.25043 227.495 9.67349C227.256 10.0897 226.922 10.4173 226.491 10.6561C226.068 10.8949 225.587 11.0143 225.047 11.0143ZM225.047 10.1546C225.395 10.1546 225.706 10.0761 225.979 9.91914C226.259 9.75537 226.478 9.53019 226.635 9.2436C226.792 8.95019 226.87 8.61583 226.87 8.24053C226.87 7.86523 226.792 7.53429 226.635 7.2477C226.478 6.95428 226.259 6.7291 225.979 6.57216C225.706 6.41522 225.395 6.33674 225.047 6.33674C224.699 6.33674 224.385 6.41522 224.105 6.57216C223.832 6.7291 223.613 6.95428 223.449 7.2477C223.292 7.53429 223.214 7.86523 223.214 8.24053C223.214 8.61583 223.292 8.95019 223.449 9.2436C223.613 9.53019 223.832 9.75537 224.105 9.91914C224.385 10.0761 224.699 10.1546 225.047 10.1546Z" fill="white"/>
<path d="M235.873 5.52815V10.9529H234.982V6.99181L232.954 10.3388H232.524L230.516 6.98158V10.9529H229.615V5.52815H230.629L232.759 9.19243L234.951 5.52815H235.873Z" fill="white"/>
<path d="M240.054 5.47697C240.805 5.47697 241.379 5.66121 241.775 6.02968C242.178 6.39816 242.379 6.94746 242.379 7.67758V10.9529H241.447V10.2364C241.283 10.4889 241.048 10.6834 240.74 10.8199C240.44 10.9495 240.081 11.0143 239.665 11.0143C239.057 11.0143 238.569 10.8676 238.2 10.5742C237.838 10.2808 237.657 9.89526 237.657 9.4176C237.657 8.93995 237.831 8.55783 238.18 8.27124C238.528 7.97782 239.081 7.83112 239.839 7.83112H241.396V7.63664C241.396 7.21358 241.273 6.88946 241.027 6.66428C240.781 6.4391 240.419 6.32651 239.941 6.32651C239.62 6.32651 239.306 6.3811 238.999 6.49028C238.692 6.59263 238.432 6.73251 238.221 6.90993L237.811 6.17298C238.091 5.9478 238.425 5.77721 238.815 5.66121C239.204 5.53838 239.617 5.47697 240.054 5.47697ZM239.829 10.2569C240.204 10.2569 240.529 10.175 240.802 10.0113C241.075 9.84067 241.273 9.60184 241.396 9.29478V8.53736H239.88C239.047 8.53736 238.63 8.81713 238.63 9.37666C238.63 9.64961 238.736 9.86455 238.948 10.0215C239.16 10.1784 239.453 10.2569 239.829 10.2569Z" fill="white"/>
<path d="M248.527 6.38792H246.54V10.9529H245.556V6.38792H243.569V5.52815H248.527V6.38792Z" fill="white"/>
<path d="M251.948 11.0143C251.409 11.0143 250.924 10.8949 250.494 10.6561C250.064 10.4173 249.726 10.0897 249.48 9.67349C249.241 9.25043 249.121 8.77277 249.121 8.24053C249.121 7.70829 249.241 7.23405 249.48 6.81781C249.726 6.39474 250.064 6.06721 250.494 5.83521C250.924 5.59638 251.409 5.47697 251.948 5.47697C252.488 5.47697 252.969 5.59638 253.393 5.83521C253.823 6.06721 254.158 6.39474 254.397 6.81781C254.642 7.23405 254.765 7.70829 254.765 8.24053C254.765 8.77277 254.642 9.25043 254.397 9.67349C254.158 10.0897 253.823 10.4173 253.393 10.6561C252.969 10.8949 252.488 11.0143 251.948 11.0143ZM251.948 10.1546C252.297 10.1546 252.607 10.0761 252.881 9.91914C253.161 9.75537 253.379 9.53019 253.536 9.2436C253.693 8.95019 253.772 8.61583 253.772 8.24053C253.772 7.86523 253.693 7.53429 253.536 7.2477C253.379 6.95428 253.161 6.7291 252.881 6.57216C252.607 6.41522 252.297 6.33674 251.948 6.33674C251.6 6.33674 251.286 6.41522 251.006 6.57216C250.733 6.7291 250.514 6.95428 250.351 7.2477C250.193 7.53429 250.115 7.86523 250.115 8.24053C250.115 8.61583 250.193 8.95019 250.351 9.2436C250.514 9.53019 250.733 9.75537 251.006 9.91914C251.286 10.0761 251.6 10.1546 251.948 10.1546Z" fill="white"/>
<path d="M261.137 5.52815V10.9529H260.153V6.38792H257.818L257.757 7.5957C257.722 8.32583 257.658 8.93654 257.562 9.42784C257.466 9.91232 257.309 10.3013 257.091 10.5947C256.872 10.8881 256.568 11.0348 256.179 11.0348C256.002 11.0348 255.8 11.0041 255.575 10.9427L255.636 10.1136C255.725 10.1341 255.807 10.1443 255.882 10.1443C256.155 10.1443 256.36 10.0249 256.497 9.78608C256.633 9.54725 256.722 9.26407 256.763 8.93654C256.804 8.60901 256.841 8.14159 256.876 7.53429L256.968 5.52815H261.137Z" fill="white"/>
<path d="M265.694 11.0143C265.155 11.0143 264.67 10.8949 264.24 10.6561C263.809 10.4173 263.471 10.0897 263.226 9.67349C262.987 9.25043 262.867 8.77277 262.867 8.24053C262.867 7.70829 262.987 7.23405 263.226 6.81781C263.471 6.39474 263.809 6.06721 264.24 5.83521C264.67 5.59638 265.155 5.47697 265.694 5.47697C266.234 5.47697 266.715 5.59638 267.138 5.83521C267.569 6.06721 267.903 6.39474 268.142 6.81781C268.388 7.23405 268.511 7.70829 268.511 8.24053C268.511 8.77277 268.388 9.25043 268.142 9.67349C267.903 10.0897 267.569 10.4173 267.138 10.6561C266.715 10.8949 266.234 11.0143 265.694 11.0143ZM265.694 10.1546C266.042 10.1546 266.353 10.0761 266.626 9.91914C266.906 9.75537 267.125 9.53019 267.282 9.2436C267.439 8.95019 267.517 8.61583 267.517 8.24053C267.517 7.86523 267.439 7.53429 267.282 7.2477C267.125 6.95428 266.906 6.7291 266.626 6.57216C266.353 6.41522 266.042 6.33674 265.694 6.33674C265.346 6.33674 265.032 6.41522 264.752 6.57216C264.479 6.7291 264.26 6.95428 264.096 7.2477C263.939 7.53429 263.861 7.86523 263.861 8.24053C263.861 8.61583 263.939 8.95019 264.096 9.2436C264.26 9.53019 264.479 9.75537 264.752 9.91914C265.032 10.0761 265.346 10.1546 265.694 10.1546Z" fill="white"/>
<path d="M274.257 6.38792H271.245V10.9529H270.262V5.52815H274.257V6.38792Z" fill="white"/>
<path d="M277.679 11.0143C277.14 11.0143 276.655 10.8949 276.225 10.6561C275.795 10.4173 275.457 10.0897 275.211 9.67349C274.972 9.25043 274.852 8.77277 274.852 8.24053C274.852 7.70829 274.972 7.23405 275.211 6.81781C275.457 6.39474 275.795 6.06721 276.225 5.83521C276.655 5.59638 277.14 5.47697 277.679 5.47697C278.219 5.47697 278.7 5.59638 279.124 5.83521C279.554 6.06721 279.889 6.39474 280.128 6.81781C280.373 7.23405 280.496 7.70829 280.496 8.24053C280.496 8.77277 280.373 9.25043 280.128 9.67349C279.889 10.0897 279.554 10.4173 279.124 10.6561C278.7 10.8949 278.219 11.0143 277.679 11.0143ZM277.679 10.1546C278.028 10.1546 278.338 10.0761 278.612 9.91914C278.892 9.75537 279.11 9.53019 279.267 9.2436C279.424 8.95019 279.503 8.61583 279.503 8.24053C279.503 7.86523 279.424 7.53429 279.267 7.2477C279.11 6.95428 278.892 6.7291 278.612 6.57216C278.338 6.41522 278.028 6.33674 277.679 6.33674C277.331 6.33674 277.017 6.41522 276.737 6.57216C276.464 6.7291 276.245 6.95428 276.082 7.2477C275.925 7.53429 275.846 7.86523 275.846 8.24053C275.846 8.61583 275.925 8.95019 276.082 9.2436C276.245 9.53019 276.464 9.75537 276.737 9.91914C277.017 10.0761 277.331 10.1546 277.679 10.1546Z" fill="white"/>
<path d="M285.945 8.13818C286.648 8.31559 287 8.75571 287 9.45855C287 9.9362 286.819 10.3047 286.457 10.564C286.102 10.8233 285.569 10.9529 284.859 10.9529H282.247V5.52815H284.767C285.409 5.52815 285.911 5.65097 286.273 5.89662C286.635 6.13545 286.816 6.47663 286.816 6.92016C286.816 7.20676 286.737 7.45582 286.58 7.66735C286.43 7.87206 286.218 8.029 285.945 8.13818ZM283.21 7.86182H284.685C285.061 7.86182 285.344 7.79358 285.535 7.65711C285.733 7.52064 285.832 7.32276 285.832 7.06346C285.832 6.54486 285.45 6.28557 284.685 6.28557H283.21V7.86182ZM284.787 10.1955C285.197 10.1955 285.505 10.1307 285.709 10.001C285.914 9.87138 286.017 9.67008 286.017 9.39713C286.017 9.11737 285.921 8.90925 285.73 8.77277C285.545 8.6363 285.252 8.56807 284.849 8.56807H283.21V10.1955H284.787Z" fill="white"/>
<rect x="144" width="1" height="15" fill="white"/>
</svg>
