<svg width="24" height="17" viewBox="0 0 24 17" fill="none" xmlns="http://www.w3.org/2000/svg">
<path d="M23.5637 1.38888C23.5628 0.622605 23.0211 0 22.3559 0C22.3553 0 22.3548 0 22.3543 0L1.20618 0.0334635C0.883562 0.0339408 0.580383 0.179092 0.35255 0.442134C0.124763 0.70523 -0.000413467 1.05477 1.02608e-06 1.42616L0.0163505 15.1101C0.016765 15.4816 0.142817 15.8308 0.371249 16.0931C0.599266 16.355 0.902076 16.4991 1.22414 16.4991C1.22469 16.4991 1.22529 16.4991 1.22575 16.4991L22.3738 16.4656C23.0397 16.4646 23.5808 15.8399 23.58 15.0729L23.5637 1.38888ZM21.0291 1.39291L11.7909 8.78801L2.53486 1.42218L21.0291 1.39291ZM15.6976 10.1837L21.1768 15.0767L2.38771 15.1064L7.90028 10.1837C8.16381 9.94826 8.2118 9.51148 8.00741 9.20792C7.80297 8.90447 7.42366 8.84921 7.16004 9.08457L1.22326 14.3862L1.20852 2.05741L11.4485 10.2063C11.5519 10.2885 11.6718 10.3296 11.7919 10.3296C11.9124 10.3296 12.033 10.288 12.1366 10.2051L22.3567 2.0241L22.3722 14.3842L16.4377 9.08462C16.1743 8.84931 15.7949 8.90452 15.5905 9.20797C15.386 9.51143 15.434 9.94831 15.6976 10.1837Z" fill="#2C78F6"/>
</svg>
