<svg width="16" height="22" viewBox="0 0 16 22" fill="none" xmlns="http://www.w3.org/2000/svg">
<path d="M15.6188 5.47559C15.5405 5.18209 15.3815 4.86937 15.2638 4.59556C13.8561 1.21244 10.7802 0 8.29664 0C4.97188 0 1.31005 2.2294 0.821167 6.8247V7.76355C0.821167 7.80273 0.83467 8.15469 0.853851 8.33075C1.12791 10.5208 2.85599 12.8483 4.14659 15.0383C5.53509 17.3846 6.97586 19.6928 8.40329 22C9.28347 20.4944 10.1605 18.9689 11.0206 17.5023C11.255 17.0719 11.5271 16.6417 11.7618 16.2309C11.9182 15.9573 12.217 15.6838 12.3536 15.4293C13.742 12.8872 15.9769 10.3255 15.9769 7.80268V6.76629C15.9769 6.4928 15.6379 5.53456 15.6188 5.47559ZM8.35751 10.1886C7.3802 10.1886 6.31046 9.69991 5.78245 8.35034C5.70378 8.13551 5.71012 7.70498 5.71012 7.66555V7.05933C5.71012 5.33887 7.17095 4.55649 8.4418 4.55649C10.0064 4.55649 11.2164 5.80821 11.2164 7.37277C11.2164 8.93727 9.92207 10.1886 8.35751 10.1886Z" fill="#2C78F6" fill-opacity="0.2"/>
</svg>
