<svg width="25" height="17" viewBox="0 0 25 17" fill="none" xmlns="http://www.w3.org/2000/svg">
<path d="M24.2792 1.43129C24.2782 0.641752 23.7201 0.000244141 23.0346 0.000244141C23.034 0.000244141 23.0335 0.000244141 23.033 0.000244141L1.2428 0.0347236C0.910387 0.0352154 0.598004 0.184773 0.363254 0.455802C0.128551 0.726885 -0.00042602 1.08704 1.05723e-06 1.4697L0.0168469 15.5691C0.017274 15.9519 0.147153 16.3116 0.38252 16.582C0.61746 16.8518 0.929463 17.0002 1.2613 17.0002C1.26187 17.0002 1.26249 17.0002 1.26296 17.0002L23.0531 16.9658C23.7392 16.9647 24.2967 16.321 24.2959 15.5308L24.2792 1.43129ZM21.6676 1.43544L12.1489 9.05506L2.61182 1.4656L21.6676 1.43544ZM16.1742 10.4931L21.8197 15.5347L2.4602 15.5653L8.14014 10.4931C8.41167 10.2505 8.46111 9.8005 8.25052 9.48772C8.03987 9.17506 7.64905 9.11812 7.37743 9.36062L1.2604 14.8232L1.24522 2.12012L11.7961 10.5164C11.9026 10.6011 12.0262 10.6434 12.1499 10.6434C12.2741 10.6434 12.3983 10.6006 12.5051 10.5152L23.0355 2.0858L23.0514 14.8212L16.9368 9.36068C16.6654 9.11823 16.2744 9.17511 16.0638 9.48778C15.8532 9.80044 15.9026 10.2506 16.1742 10.4931Z" fill="#61656B"/>
</svg>
