<svg width="23" height="23" viewBox="0 0 23 23" fill="none" xmlns="http://www.w3.org/2000/svg">
<path d="M11.5 1.43774C17.0479 1.43774 21.5625 5.95239 21.5625 11.5002C21.5625 17.0481 17.0479 21.5627 11.5 21.5627C5.95215 21.5627 1.4375 17.0481 1.4375 11.5002C1.4375 5.95239 5.95215 1.43774 11.5 1.43774ZM11.5 0.000244141C5.14917 0.000244141 0 5.14941 0 11.5002C0 17.8511 5.14917 23.0002 11.5 23.0002C17.8508 23.0002 23 17.8511 23 11.5002C23 5.14941 17.8508 0.000244141 11.5 0.000244141ZM17.9112 15.3453L17.8466 15.1488C17.695 14.6967 17.1952 14.2251 16.7348 14.0987L15.0348 13.634C14.5744 13.5091 13.9174 13.6776 13.5791 14.0159L12.9642 14.6308C10.7294 14.0257 8.97602 12.2724 8.37236 10.0375L8.98725 9.42261C9.32416 9.08569 9.49262 8.42871 9.36769 7.96687L8.90437 6.26685C8.77944 5.8064 8.30493 5.30664 7.85293 5.15503L7.65918 5.09043C7.20574 4.93882 6.55859 5.09182 6.22168 5.43018L5.30078 6.35107C5.13655 6.51392 5.03125 6.98137 5.03125 6.98281C5.00034 9.90556 6.1459 12.7202 8.2123 14.788C10.2731 16.8488 13.0779 17.9929 15.9908 17.9676C16.0062 17.9676 16.4878 17.8651 16.652 17.7009L17.5729 16.78C17.9098 16.4444 18.0614 15.7973 17.9112 15.3453Z" fill="#61656B"/>
</svg>
