<svg width="40" height="40" viewBox="0 0 40 40" fill="none" xmlns="http://www.w3.org/2000/svg">
<path d="M20.0013 23.3345C21.8423 23.3345 23.3347 21.8421 23.3347 20.0011C23.3347 18.1601 21.8423 16.6677 20.0013 16.6677C18.1604 16.6677 16.668 18.1601 16.668 20.0011C16.668 21.8421 18.1604 23.3345 20.0013 23.3345Z" fill="#2C78F6"/>
<path d="M38.117 26.4282C37.5891 24.4582 36.102 22.228 33.9285 19.9897C35.017 18.868 35.9278 17.7499 36.6358 16.6603C36.6468 16.6605 36.6559 16.6666 36.667 16.6666C37.5866 16.6666 38.3336 15.9187 38.3336 15C38.3336 14.6081 38.1774 14.2629 37.9503 13.978C38.4681 12.3977 38.4354 11.0259 37.7835 9.92023C36.3149 7.42828 32.101 6.93531 26.7679 8.22062C25.2674 3.21516 22.8224 0 20.0014 0C17.1804 0 14.7352 3.21547 13.2349 8.22133C12.0433 7.93102 10.9028 7.72922 9.82595 7.61852C9.55649 7.06047 8.99626 6.66664 8.33556 6.66664C7.68407 6.66664 7.13345 7.0518 6.85939 7.59734C4.62478 7.8057 3.00642 8.58266 2.21939 9.92023C1.62048 10.9351 1.50978 12.1639 1.88571 13.5718C2.41282 15.5387 3.89618 17.765 6.06431 20C3.89618 22.235 2.41282 24.4613 1.88571 26.4282C1.50978 27.8361 1.6204 29.0649 2.21939 30.0798C3.16985 31.6927 5.26767 32.4723 8.07673 32.4723C9.60563 32.4723 11.3513 32.2319 13.2304 31.7792C13.4376 32.4727 13.6668 33.1312 13.9124 33.7623C13.5651 34.068 13.3352 34.5022 13.3352 35.0001C13.3352 35.9188 14.0822 36.6667 15.0017 36.6667C15.1034 36.6667 15.192 36.6261 15.2887 36.6086C16.6544 38.8231 18.2704 40 20.0014 40C22.8224 40 25.2679 36.7845 26.7681 31.7784C28.649 32.2317 30.3958 32.4723 31.926 32.4723C34.7351 32.4716 36.8329 31.6927 37.7834 30.0798C38.3823 29.0649 38.493 27.8361 38.117 26.4282ZM3.65376 29.2334C3.29079 28.6182 3.23712 27.8198 3.49423 26.8596C3.94907 25.163 5.29103 23.1828 7.2529 21.1655C8.61563 22.4309 10.1834 23.6847 11.9183 24.8819C12.1062 26.7448 12.3992 28.5177 12.7952 30.1606C8.10048 31.2814 4.62939 30.8902 3.65376 29.2334ZM11.75 22.7126C10.5461 21.8255 9.44329 20.9137 8.45228 20C9.44329 19.0862 10.5459 18.1745 11.7499 17.2875C11.7017 18.1754 11.6681 19.0755 11.6681 20C11.6681 20.9188 11.7017 21.8205 11.75 22.7126ZM11.9185 15.118C10.1834 16.3153 8.61571 17.5691 7.2529 18.8345C5.29103 16.8172 3.94907 14.837 3.49423 13.1405C3.23704 12.1802 3.29079 11.3819 3.65376 10.7658C4.26704 9.72531 5.69548 9.34797 6.96603 9.22875C7.26407 9.68203 7.75235 10 8.33478 10C8.89618 10 9.36884 9.70305 9.67095 9.27695C10.6591 9.37898 11.7052 9.56187 12.8013 9.82687C12.4081 11.452 12.1097 13.227 11.9185 15.118ZM26.269 13.9295C25.6175 13.521 24.9537 13.1186 24.2674 12.7303C23.5218 12.3084 22.7722 11.9148 22.0222 11.538C23.259 11.035 24.4533 10.6107 25.5901 10.2746C25.8626 11.4059 26.0932 12.6244 26.269 13.9295ZM20.0014 1.66664C21.8595 1.66664 23.8374 4.29625 25.1531 8.65547C23.5063 9.14203 21.7763 9.78648 20.0014 10.5798C18.2479 9.79664 16.5157 9.15109 14.8498 8.65547C16.1655 4.29617 18.1434 1.66664 20.0014 1.66664ZM14.4159 10.2616C15.5783 10.6089 16.776 11.0323 17.9952 11.5309C17.245 11.908 16.4919 12.302 15.7355 12.7303C15.0492 13.1186 14.3852 13.521 13.7338 13.9295C13.9103 12.6195 14.142 11.3966 14.4159 10.2616ZM13.7396 26.0742C14.3892 26.4814 15.0512 26.8825 15.7355 27.2697C16.4884 27.6958 17.2398 28.0966 17.9865 28.4721C16.746 28.977 15.5532 29.3905 14.4133 29.7277C14.1382 28.5734 13.9115 27.3512 13.7396 26.0742ZM20.0014 38.3334C18.8439 38.3334 17.634 37.3252 16.5665 35.5023C16.6184 35.3412 16.6681 35.178 16.6681 35.0001C16.6681 34.2834 16.2084 33.6838 15.572 33.4489C15.3063 32.7925 15.0659 32.0825 14.8441 31.3386C16.4945 30.8513 18.2222 30.2189 20.0014 29.4236C21.7795 30.2183 23.5059 30.8506 25.1551 31.3377C23.8394 35.701 21.8603 38.3334 20.0014 38.3334ZM25.5894 29.7282C24.4495 29.391 23.2567 28.9773 22.0162 28.4722C22.763 28.0967 23.5143 27.6958 24.2674 27.2697C24.9503 26.8832 25.6166 26.4823 26.2687 26.0727C26.0928 27.378 25.8621 28.5967 25.5894 29.7282ZM26.5076 23.9216C25.5264 24.5763 24.5127 25.2165 23.4471 25.8195C22.2784 26.4809 21.127 27.0698 20.0013 27.5942C18.8756 27.0697 17.7245 26.4809 16.5558 25.8195C15.4945 25.2191 14.4768 24.586 13.5016 23.9351C13.3931 22.6508 13.3348 21.3331 13.3348 20.0001C13.3348 18.634 13.3917 17.3213 13.4963 16.0686C14.4732 15.4164 15.4926 14.7822 16.5558 14.1805C17.7303 13.5159 18.8802 12.9426 20.0113 12.4162C21.1549 12.95 22.3048 13.5342 23.447 14.1805C24.5102 14.7822 25.5297 15.4164 26.5065 16.0686C26.6111 17.3213 26.6681 18.634 26.6681 20.0001C26.6681 21.3624 26.6115 22.672 26.5076 23.9216ZM31.9741 9.19438C34.186 9.19438 35.7436 9.73961 36.3491 10.7666C36.7371 11.427 36.7397 12.3146 36.401 13.3874C35.6135 13.52 35.0014 14.1759 35.0014 15C35.0014 15.2875 35.0938 15.5448 35.2224 15.7812C34.5747 16.7748 33.7396 17.7975 32.742 18.827C31.3811 17.5642 29.8159 16.313 28.0842 15.118C27.8934 13.2305 27.5959 11.4583 27.2037 9.83547C28.9945 9.40711 30.6112 9.19438 31.9741 9.19438ZM28.253 17.2874C29.4541 18.1724 30.5545 19.082 31.5439 19.9937C30.5534 20.9091 29.4517 21.8145 28.2539 22.6975C28.3016 21.8145 28.3348 20.9192 28.3348 20.0001C28.3348 19.0755 28.3012 18.1752 28.253 17.2874ZM36.3491 29.2334C35.3714 30.8915 31.8998 31.2825 27.2048 30.1607C27.5974 28.5355 27.8949 26.7605 28.0855 24.87C29.8083 23.678 31.3677 22.4239 32.7366 21.1521C34.7056 23.174 36.0527 25.1593 36.5085 26.8596C36.7657 27.8198 36.712 28.6182 36.3491 29.2334Z" fill="#2C78F6"/>
</svg>
