<svg width="44" height="40" fill="none" xmlns="http://www.w3.org/2000/svg"><mask id="a" fill="#fff"><path d="M40.376 32.036l-7.108-3.078c-.167-.084-.352-.288-.512-.56l4.746-.005c.083.008 2.04.187 3.608-.487a2.137 2.137 0 001.214-1.387c.178-.631.065-1.3-.31-1.835-1.357-1.93-4.522-6.974-4.621-12.09-.002-.087-.289-8.787-8.88-8.857-1.265.01-2.435.224-3.498.62a6.049 6.049 0 00-1.083-1.788C22.44.864 20.015 0 16.727 0c-3.288 0-5.712.864-7.206 2.567C7.8 4.532 7.96 6.913 8 7.313v3.868a2.9 2.9 0 00-.727 1.91v2.908c0 .885.402 1.71 1.088 2.261.667 2.638 2.06 4.626 2.548 5.264v2.406c0 .704-.384 1.35-1.001 1.688L3.42 31.155A6.56 6.56 0 000 36.918V40h43.636v-2.689a5.868 5.868 0 00-3.26-5.275zM32 38.546H1.455v-1.628c0-1.87 1.02-3.588 2.66-4.483l6.489-3.539a3.377 3.377 0 001.76-2.965v-2.923l-.17-.202c-.017-.021-1.8-2.178-2.48-5.138l-.066-.288-.248-.16A1.451 1.451 0 018.727 16v-2.91c0-.407.173-.787.488-1.072l.24-.216v-4.53l-.007-.095c-.002-.02-.25-2.035 1.167-3.651 1.205-1.375 3.262-2.071 6.112-2.071 2.84 0 4.893.691 6.1 2.056a4.725 4.725 0 011.084 2.237l.03.152.025.165.016.115a5.407 5.407 0 01.038.702v.022c-.003.17-.014.273-.014.275L24 11.802l.24.217c.314.284.487.664.487 1.072V16c0 .635-.416 1.19-1.034 1.381l-.362.111-.116.36a15.227 15.227 0 01-2.061 4.155 9.557 9.557 0 01-.61.785l-.18.206v3c0 .184.018.365.046.542.006.038.016.075.023.112a3.399 3.399 0 00.348.966l.026.049c.105.186.227.363.366.526l.166.204h.028c.25.246.536.46.862.623l6.948 3.473A5.076 5.076 0 0132 37.06v1.485zm10.182 0h-8.727V37.06c0-2.502-1.39-4.75-3.627-5.868l-4.987-2.494c.123-.281.139-.603.031-.913a1.24 1.24 0 00-1.186-.843h-1.612c-.033-.06-.055-.124-.082-.186-.036-.084-.08-.166-.103-.254a1.9 1.9 0 01-.07-.503v-2.46c.166-.203.341-.435.522-.691a16.644 16.644 0 002.148-4.217A2.886 2.886 0 0026.183 16v-2.91a2.9 2.9 0 00-.727-1.908V7.313c.019-.181.06-.777-.061-1.555.936-.368 1.986-.558 3.12-.567 7.156.058 7.418 7.135 7.425 7.433.107 5.515 3.452 10.856 4.885 12.896a.706.706 0 01-.288 1.049c-1.222.526-2.88.377-2.964.373h-5.006c-.468 0-.894.238-1.14.636-.246.396-.27.88-.063 1.296.227.46.63 1.072 1.29 1.402l7.09 3.07a4.418 4.418 0 012.439 3.965v1.234z"/></mask><path d="M40.376 32.036l-7.108-3.078c-.167-.084-.352-.288-.512-.56l4.746-.005c.083.008 2.04.187 3.608-.487a2.137 2.137 0 001.214-1.387c.178-.631.065-1.3-.31-1.835-1.357-1.93-4.522-6.974-4.621-12.09-.002-.087-.289-8.787-8.88-8.857-1.265.01-2.435.224-3.498.62a6.049 6.049 0 00-1.083-1.788C22.44.864 20.015 0 16.727 0c-3.288 0-5.712.864-7.206 2.567C7.8 4.532 7.96 6.913 8 7.313v3.868a2.9 2.9 0 00-.727 1.91v2.908c0 .885.402 1.71 1.088 2.261.667 2.638 2.06 4.626 2.548 5.264v2.406c0 .704-.384 1.35-1.001 1.688L3.42 31.155A6.56 6.56 0 000 36.918V40h43.636v-2.689a5.868 5.868 0 00-3.26-5.275zM32 38.546H1.455v-1.628c0-1.87 1.02-3.588 2.66-4.483l6.489-3.539a3.377 3.377 0 001.76-2.965v-2.923l-.17-.202c-.017-.021-1.8-2.178-2.48-5.138l-.066-.288-.248-.16A1.451 1.451 0 018.727 16v-2.91c0-.407.173-.787.488-1.072l.24-.216v-4.53l-.007-.095c-.002-.02-.25-2.035 1.167-3.651 1.205-1.375 3.262-2.071 6.112-2.071 2.84 0 4.893.691 6.1 2.056a4.725 4.725 0 011.084 2.237l.03.152.025.165.016.115a5.407 5.407 0 01.038.702v.022c-.003.17-.014.273-.014.275L24 11.802l.24.217c.314.284.487.664.487 1.072V16c0 .635-.416 1.19-1.034 1.381l-.362.111-.116.36a15.227 15.227 0 01-2.061 4.155 9.557 9.557 0 01-.61.785l-.18.206v3c0 .184.018.365.046.542.006.038.016.075.023.112a3.399 3.399 0 00.348.966l.026.049c.105.186.227.363.366.526l.166.204h.028c.25.246.536.46.862.623l6.948 3.473A5.076 5.076 0 0132 37.06v1.485zm10.182 0h-8.727V37.06c0-2.502-1.39-4.75-3.627-5.868l-4.987-2.494c.123-.281.139-.603.031-.913a1.24 1.24 0 00-1.186-.843h-1.612c-.033-.06-.055-.124-.082-.186-.036-.084-.08-.166-.103-.254a1.9 1.9 0 01-.07-.503v-2.46c.166-.203.341-.435.522-.691a16.644 16.644 0 002.148-4.217A2.886 2.886 0 0026.183 16v-2.91a2.9 2.9 0 00-.727-1.908V7.313c.019-.181.06-.777-.061-1.555.936-.368 1.986-.558 3.12-.567 7.156.058 7.418 7.135 7.425 7.433.107 5.515 3.452 10.856 4.885 12.896a.706.706 0 01-.288 1.049c-1.222.526-2.88.377-2.964.373h-5.006c-.468 0-.894.238-1.14.636-.246.396-.27.88-.063 1.296.227.46.63 1.072 1.29 1.402l7.09 3.07a4.418 4.418 0 012.439 3.965v1.234z" fill="#fff" stroke="#fff" stroke-width="2" mask="url(#a)"/></svg>