<svg width="66" height="60" fill="none" xmlns="http://www.w3.org/2000/svg"><path d="M60.564 48.054l-10.661-4.617c-.251-.126-.53-.432-.768-.841l7.118-.006c.124.012 3.059.28 5.412-.73a3.206 3.206 0 001.82-2.081 3.237 3.237 0 00-.464-2.752c-2.035-2.896-6.784-10.461-6.932-18.135-.003-.132-.433-13.181-13.32-13.287-1.897.015-3.651.337-5.247.93a9.07 9.07 0 00-1.623-2.682C33.658 1.296 30.022 0 25.09 0c-4.932 0-8.568 1.296-10.809 3.85C11.7 6.798 11.94 10.37 12 10.97v5.802a4.35 4.35 0 00-1.09 2.863V24c0 1.328.602 2.566 1.632 3.392 1 3.956 3.09 6.938 3.822 7.895v3.61a2.883 2.883 0 01-1.503 2.53L5.13 46.734A9.84 9.84 0 000 55.377V60h65.454v-4.033a8.798 8.798 0 00-4.89-7.913zM48 57.819H2.182v-2.441a7.654 7.654 0 013.991-6.725l9.733-5.308a5.066 5.066 0 002.64-4.448v-4.384l-.255-.303c-.026-.032-2.7-3.267-3.72-7.708l-.099-.431-.372-.24A2.177 2.177 0 0113.09 24v-4.364c0-.612.26-1.182.732-1.609l.36-.324V10.91l-.01-.143c-.003-.03-.374-3.053 1.75-5.477 1.808-2.062 4.894-3.107 9.169-3.107 4.26 0 7.338 1.037 9.148 3.085.9 1.017 1.353 2.152 1.579 3.128.017.076.034.151.049.226.015.078.032.155.044.23a13.77 13.77 0 01.062.418c.016.136.03.267.038.388l.001.028a10.469 10.469 0 01.017.386c.003.09.003.177.002.252v.033c-.005.256-.022.41-.022.412L36 17.703l.36.325c.471.426.73.996.73 1.608V24a2.17 2.17 0 01-1.55 2.072l-.544.166-.174.54a22.835 22.835 0 01-3.092 6.233c-.324.46-.64.866-.913 1.177l-.271.31v4.5c0 .276.027.546.07.813.008.056.023.11.034.167a5.115 5.115 0 00.222.79c.085.227.184.448.3.66l.038.072c.158.28.34.545.55.79l.248.306h.043c.374.368.804.69 1.293.934l10.421 5.21A7.614 7.614 0 0148 55.59v2.228zm15.273 0H50.182V55.59a9.787 9.787 0 00-5.44-8.802l-7.48-3.742c.184-.42.207-.903.046-1.368a1.86 1.86 0 00-1.778-1.265h-2.42c-.05-.089-.083-.186-.123-.28-.054-.125-.119-.248-.155-.38a2.845 2.845 0 01-.106-.755V35.31c.25-.306.513-.654.785-1.038a24.967 24.967 0 003.222-6.326A4.328 4.328 0 0039.273 24v-4.364a4.35 4.35 0 00-1.091-2.863V10.97a9.573 9.573 0 00-.092-2.333c1.405-.552 2.98-.837 4.68-.851 10.736.088 11.127 10.703 11.138 11.15.16 8.272 5.178 16.284 7.328 19.344.184.262.24.591.152.902-.05.18-.194.504-.584.671-1.833.789-4.319.565-4.447.56H48.85a2 2 0 00-1.71.953 1.988 1.988 0 00-.095 1.945c.342.689.945 1.608 1.937 2.102l10.633 4.606a6.627 6.627 0 013.659 5.948v1.851z" fill="#fff"/></svg>