<svg width="35" height="35" fill="none" xmlns="http://www.w3.org/2000/svg"><path d="M5.807 2.5h25.135A2.499 2.499 0 0133.439 5v25c0 1.381-1.118 2.5-2.497 2.5H5.807A2.499 2.499 0 013.309 30V5a2.5 2.5 0 012.498-2.5z" fill="#000" fill-opacity=".01" stroke="#5B80B4"/><path d="M26.824 21.33a1.183 1.183 0 00-.058-.11c-.295-.532-.858-1.184-1.69-1.957l-.018-.018-.009-.008-.009-.01h-.008c-.378-.36-.617-.601-.717-.725-.184-.236-.225-.475-.125-.717.071-.183.337-.57.797-1.16.242-.312.434-.563.575-.752 1.021-1.357 1.464-2.224 1.328-2.602l-.053-.088c-.035-.053-.127-.102-.274-.146a1.396 1.396 0 00-.566-.023l-2.55.018a.33.33 0 00-.177.005l-.115.026-.044.022-.035.027a.395.395 0 00-.098.093.607.607 0 00-.088.155 14.457 14.457 0 01-.947 1.991c-.219.366-.42.683-.602.952a4.578 4.578 0 01-.46.593 3.212 3.212 0 01-.337.305c-.1.077-.177.11-.23.098a6.478 6.478 0 01-.15-.036.59.59 0 01-.2-.217.971.971 0 01-.101-.345 3.815 3.815 0 01-.031-.358c-.003-.1-.002-.242.004-.425s.01-.307.01-.372c0-.224.003-.468.012-.73.01-.263.016-.471.023-.624.006-.154.008-.316.008-.487 0-.171-.01-.306-.03-.403a1.383 1.383 0 00-.093-.283.477.477 0 00-.182-.213c-.08-.05-.178-.09-.296-.12a5.898 5.898 0 00-1.195-.114c-1.098-.012-1.803.059-2.116.212a1.192 1.192 0 00-.336.266c-.106.13-.121.2-.044.212.354.053.604.18.752.38l.053.107c.041.077.083.212.124.407.041.195.068.41.08.646.029.431.029.8 0 1.107-.03.306-.058.545-.085.717a1.434 1.434 0 01-.225.61.153.153 0 01-.044.044.665.665 0 01-.24.045c-.082 0-.182-.041-.3-.124a2.12 2.12 0 01-.368-.341 4.546 4.546 0 01-.429-.606 10.81 10.81 0 01-.496-.92l-.141-.258c-.089-.165-.21-.405-.363-.72-.154-.317-.29-.622-.407-.917a.583.583 0 00-.213-.283l-.044-.027a.605.605 0 00-.141-.075.946.946 0 00-.204-.058l-2.425.018c-.248 0-.416.056-.505.168l-.035.053a.286.286 0 00-.027.142c0 .065.018.145.053.239.354.832.74 1.635 1.155 2.407.416.774.778 1.396 1.084 1.868.307.472.62.918.939 1.337.318.418.53.687.633.805.103.118.184.206.243.265l.221.213c.142.142.35.311.624.509.275.198.579.392.912.584a4.96 4.96 0 001.164.47c.442.12.873.169 1.292.145h1.018c.207-.018.363-.082.47-.195l.034-.044a.588.588 0 00.067-.163.9.9 0 00.03-.244 2.916 2.916 0 01.058-.686c.044-.203.095-.357.15-.46a1.132 1.132 0 01.342-.39.597.597 0 01.07-.03c.142-.047.309-.002.5.137.192.139.372.31.54.513.169.204.37.433.607.686.236.254.442.443.62.567l.176.106c.119.07.272.136.46.195a.993.993 0 00.496.044l2.266-.035c.224 0 .399-.037.522-.111.124-.074.198-.155.222-.243a.688.688 0 00.004-.302 1.112 1.112 0 00-.062-.234z" fill="#5B80B4"/></svg>