<svg width="88" height="88" viewBox="0 0 88 88" fill="none" xmlns="http://www.w3.org/2000/svg">
<path d="M72.677 22.7578H15.3236C14.2777 22.7578 13.4297 23.6057 13.4297 24.6517V53.2559C13.4297 54.3019 14.2777 55.1498 15.3236 55.1498C16.3694 55.1498 17.2175 54.3019 17.2175 53.2559V26.5454H70.7831V53.2557C70.7831 54.3018 71.6311 55.1496 72.677 55.1496C73.7229 55.1496 74.5709 54.3018 74.5709 53.2557V24.6515C74.5707 23.6057 73.7227 22.7578 72.677 22.7578Z" fill="#2C78F6"/>
<path d="M86.2957 60.0191H82.8075V20.2463C82.8075 17.0896 80.2393 14.5215 77.0827 14.5215H10.9175C7.76069 14.5215 5.1927 17.0896 5.1927 20.2463V60.0191H1.70449C0.763126 60.0191 0 60.7821 0 61.7236V65.0697C0 69.7064 3.77215 73.4785 8.40883 73.4785H79.5912C84.2279 73.4785 88 69.7064 88 65.0697V61.7236C88.0002 60.7821 87.2372 60.0191 86.2957 60.0191ZM8.98032 20.2463C8.98032 19.1783 9.84949 18.3091 10.9175 18.3091H77.0823C78.1507 18.3091 79.0195 19.1781 79.0195 20.2463V60.0191H53.3757C53.2549 60.0152 53.1303 60.0255 53.0065 60.0494C52.2042 60.2037 51.6245 60.906 51.6245 61.7229C51.6245 63.1617 50.454 64.332 49.0156 64.332H38.9848C37.546 64.332 36.3759 63.1615 36.3759 61.7229C36.3759 60.7685 35.5851 59.9983 34.6319 60.0188H8.98032V20.2463ZM84.5912 65.0697C84.5912 67.8267 82.3481 70.0695 79.5913 70.0695H8.40883C5.65195 70.0695 3.40898 67.8267 3.40898 65.0697V63.4281H33.2127C33.9495 65.9187 36.2583 67.7411 38.9846 67.7411H49.0154C51.7417 67.7411 54.0505 65.9186 54.7875 63.4281H84.5914V65.0697H84.5912Z" fill="#2C78F6"/>
<path d="M46.8077 33.7666C46.068 33.027 44.8691 33.027 44.1292 33.7666L32.2187 45.6776C31.4792 46.4171 31.4792 47.6163 32.2187 48.3559C32.5886 48.7258 33.0733 48.9105 33.5578 48.9105C34.0425 48.9105 34.527 48.7254 34.8969 48.3559L46.8077 36.4451C47.5473 35.7055 47.5473 34.5064 46.8077 33.7666Z" fill="#2C78F6"/>
<path d="M53.8684 40.6689C53.1287 39.9294 51.9298 39.9294 51.1901 40.6689L46.4453 45.4137C45.7057 46.1533 45.7057 47.3525 46.4453 48.0922C46.8152 48.4621 47.2999 48.6469 47.7844 48.6469C48.2692 48.6469 48.7536 48.4621 49.1235 48.0922L53.8683 43.3474C54.608 42.6079 54.608 41.4087 53.8684 40.6689Z" fill="#2C78F6"/>
</svg>
