<svg width="40" height="40" viewBox="0 0 40 40" fill="none" xmlns="http://www.w3.org/2000/svg">
<circle cx="20" cy="20" r="19.5" stroke="white"/>
<path d="M25.8226 27.3438H12.5163C12.2365 27.3438 12.0176 27.6329 12.0176 27.9676C12.0176 28.3024 12.2487 28.5915 12.5163 28.5915H25.8347C26.1145 28.5915 26.3334 28.3024 26.3334 27.9676C26.3334 27.6329 26.1023 27.3438 25.8226 27.3438Z" fill="white"/>
<path d="M12.0152 21.8187L12 24.7859C12 24.9533 12.0609 25.1207 12.1826 25.2424C12.3043 25.3641 12.4565 25.425 12.6239 25.425L15.5758 25.4098C15.7432 25.4098 15.8954 25.3489 16.0171 25.2272L26.212 15.0323C26.4554 14.7888 26.4554 14.3932 26.212 14.1345L23.2904 11.1826C23.047 10.9391 22.6514 10.9391 22.3927 11.1826L20.3537 13.2368L12.1978 21.3775C12.0913 21.4992 12.0152 21.6514 12.0152 21.8187ZM22.8492 12.5216L24.9034 14.5758L23.7469 15.7322L21.6927 13.6781L22.8492 12.5216ZM13.2782 22.0926L20.795 14.5758L22.8492 16.63L15.3324 24.1316L13.2629 24.1468L13.2782 22.0926Z" fill="white"/>
</svg>
