<svg width="25" height="17" viewBox="0 0 25 17" fill="none" xmlns="http://www.w3.org/2000/svg">
<path d="M24.2792 1.43104C24.2782 0.641508 23.7201 0 23.0346 0C23.034 0 23.0335 0 23.033 0L1.2428 0.0344795C0.910387 0.0349713 0.598004 0.184529 0.363254 0.455558C0.128551 0.726641 -0.00042602 1.08679 1.05723e-06 1.46946L0.0168469 15.5689C0.017274 15.9517 0.147153 16.3114 0.38252 16.5817C0.61746 16.8515 0.929463 17 1.2613 17C1.26187 17 1.26249 17 1.26296 17L23.0531 16.9655C23.7392 16.9644 24.2967 16.3208 24.2959 15.5305L24.2792 1.43104ZM21.6676 1.4352L12.1489 9.05482L2.61182 1.46536L21.6676 1.4352ZM16.1742 10.4929L21.8197 15.5345L2.4602 15.5651L8.14014 10.4929C8.41167 10.2503 8.46111 9.80025 8.25052 9.48748C8.03987 9.17481 7.64905 9.11787 7.37743 9.36038L1.2604 14.823L1.24522 2.11987L11.7961 10.5161C11.9026 10.6009 12.0262 10.6432 12.1499 10.6432C12.2741 10.6432 12.3983 10.6004 12.5051 10.515L23.0355 2.08555L23.0514 14.821L16.9368 9.36043C16.6654 9.11798 16.2744 9.17487 16.0638 9.48753C15.8532 9.8002 15.9026 10.2503 16.1742 10.4929Z" fill="#2C78F6"/>
</svg>
