<svg width="37" height="37" viewBox="0 0 37 37" fill="none" xmlns="http://www.w3.org/2000/svg">
<circle cx="18.5" cy="18.5" r="18.5" fill="#2C78F6"/>
<path d="M14.1657 12.542C15.1457 12.542 15.9577 12.864 16.6017 13.508C17.2457 14.152 17.5677 14.978 17.5677 15.986C17.5677 16.49 17.4977 16.98 17.3577 17.456C17.2457 17.932 17.0077 18.646 16.6437 19.598L14.4597 25.562H11.0577L12.7377 19.094C12.1217 18.87 11.6317 18.492 11.2677 17.96C10.9317 17.4 10.7637 16.742 10.7637 15.986C10.7637 14.978 11.0857 14.152 11.7297 13.508C12.3737 12.864 13.1857 12.542 14.1657 12.542ZM23.0697 12.542C24.0497 12.542 24.8617 12.864 25.5057 13.508C26.1497 14.152 26.4717 14.978 26.4717 15.986C26.4717 16.49 26.4017 16.98 26.2617 17.456C26.1497 17.932 25.9117 18.646 25.5477 19.598L23.3637 25.562H19.9617L21.6417 19.094C21.0257 18.87 20.5357 18.492 20.1717 17.96C19.8357 17.4 19.6677 16.742 19.6677 15.986C19.6677 14.978 19.9897 14.152 20.6337 13.508C21.2777 12.864 22.0897 12.542 23.0697 12.542Z" fill="white"/>
</svg>
