<svg width="13" height="17" viewBox="0 0 13 17" fill="none" xmlns="http://www.w3.org/2000/svg">
<path d="M12.0791 4.23113C12.0185 4.00433 11.8957 3.76268 11.8048 3.55111C10.717 0.936886 8.34017 0 6.42102 0C3.8519 0 1.02231 1.72271 0.644531 5.27362V5.99909C0.644531 6.02937 0.654966 6.30133 0.669787 6.43738C0.881559 8.12965 2.21689 9.92817 3.21417 11.6204C4.2871 13.4336 5.40042 15.2171 6.50343 17C7.18357 15.8365 7.86125 14.6578 8.5259 13.5245C8.70704 13.1919 8.91731 12.8595 9.09864 12.542C9.21951 12.3306 9.45041 12.1192 9.5559 11.9226C10.6288 9.95825 12.3557 7.97875 12.3557 6.02933V5.22848C12.3558 5.01715 12.0938 4.2767 12.0791 4.23113ZM6.46806 7.87298C5.71286 7.87298 4.88625 7.49537 4.47824 6.45252C4.41745 6.28651 4.42235 5.95384 4.42235 5.92336V5.45492C4.42235 4.12548 5.55117 3.52091 6.53319 3.52091C7.74217 3.52091 8.67719 4.48815 8.67719 5.69713C8.67719 6.90606 7.67703 7.87298 6.46806 7.87298Z" fill="#C5C5C5"/>
</svg>
