<svg width="15" height="16" viewBox="0 0 15 16" fill="none" xmlns="http://www.w3.org/2000/svg">
<path d="M1.22126 4.50132C2.06732 3.20961 3.38688 2.25705 4.93057 1.88382C5.04952 1.85531 5.1475 1.7711 5.19337 1.65805C5.23957 1.54468 5.22843 1.41623 5.16355 1.31235C4.66941 0.524613 3.79517 0 2.79641 0C1.25239 0 0 1.25173 0 2.79575C0 3.45111 0.226426 4.05305 0.604566 4.52917C0.68026 4.62518 0.797569 4.67826 0.919793 4.67269C1.04202 4.66712 1.15441 4.60322 1.22126 4.50132Z" fill="#C5C5C5"/>
<path d="M11.3139 0C10.3197 0 9.44845 0.519698 8.95333 1.30219C8.88779 1.40574 8.87633 1.53517 8.92253 1.6492C8.96906 1.76356 9.06736 1.84745 9.18762 1.87563C10.7356 2.24001 12.0597 3.18602 12.913 4.47346C12.9808 4.5757 13.0939 4.63894 13.2168 4.6432C13.3396 4.64779 13.4563 4.59274 13.5316 4.49542C13.8937 4.02487 14.1103 3.43636 14.1103 2.79608C14.1093 1.25173 12.8579 0 11.3139 0Z" fill="#C5C5C5"/>
<path d="M13.238 8.56627C13.238 7.4869 12.9572 6.47241 12.4676 5.58964C11.5603 3.95453 9.93076 2.77915 8.01286 2.48489C7.70714 2.43803 7.39682 2.40625 7.07799 2.40625C6.74507 2.40625 6.42067 2.44033 6.10184 2.49145C4.19213 2.79783 2.57078 3.97812 1.67294 5.6152C1.19224 6.49207 0.917969 7.49739 0.917969 8.56627C0.917969 10.3967 1.72504 12.0387 2.99643 13.1672L2.47739 13.8983C2.25391 14.2132 2.32797 14.649 2.64287 14.8731C2.76575 14.9603 2.90698 15.0025 3.04689 15.0025C3.26578 15.0025 3.4814 14.9 3.61738 14.7083L4.1361 13.9776C5.01067 14.455 6.01304 14.7269 7.07799 14.7269C8.14262 14.7269 9.14499 14.455 10.0196 13.9776L10.5383 14.7083C10.6746 14.9003 10.8899 15.0025 11.1088 15.0025C11.2487 15.0025 11.3896 14.9603 11.5125 14.8731C11.8274 14.649 11.9017 14.2132 11.6783 13.8983L11.1592 13.1672C12.4306 12.0387 13.238 10.3967 13.238 8.56627ZM7.07832 13.0037C4.63122 13.0037 2.6409 11.0134 2.6409 8.56627C2.6409 7.80344 2.83456 7.08549 3.17469 6.45766C3.82218 5.2636 5.00313 4.40345 6.39446 4.18685C6.61793 4.15212 6.84501 4.12853 7.07832 4.12853C7.29787 4.12853 7.51249 4.14983 7.72385 4.18095C9.12697 4.38674 10.3207 5.24689 10.9757 6.44619C11.3198 7.07632 11.5154 7.79819 11.5154 8.56595C11.5154 11.0134 9.52509 13.0037 7.07832 13.0037Z" fill="#C5C5C5"/>
<path d="M9.56643 9.59827L7.87365 8.55298C7.83858 8.35506 7.73143 8.18434 7.58103 8.06343L7.65836 5.93942C7.66786 5.6681 7.45618 5.44036 7.18519 5.4302C6.91486 5.41775 6.68614 5.63205 6.67598 5.90337L6.59832 8.02968C6.38828 8.17779 6.25 8.42158 6.25 8.69847C6.25 9.15099 6.61667 9.51734 7.0692 9.51734C7.19797 9.51734 7.31823 9.4849 7.42636 9.43214L9.05001 10.4355C9.13062 10.4846 9.22007 10.5086 9.30789 10.5086C9.47271 10.5086 9.63328 10.426 9.72667 10.2756C9.86953 10.0439 9.79744 9.74114 9.56643 9.59827Z" fill="#C5C5C5"/>
</svg>
