<svg width="38" height="56" viewBox="0 0 38 56" fill="none" xmlns="http://www.w3.org/2000/svg">
<path d="M37.1023 13.729C36.9059 12.9931 36.5072 12.209 36.2122 11.5225C32.6826 3.03997 24.9705 0 18.7433 0C10.4071 0 1.22579 5.58978 0 17.1116V19.4656C0 19.5638 0.0338572 20.4463 0.0819499 20.8877C0.769098 26.3788 5.10193 32.2145 8.33786 37.7055C11.8193 43.5886 15.4317 49.3759 19.0107 55.1607C21.2176 51.3857 23.4165 47.5609 25.5731 43.8836C26.1609 42.8044 26.8431 41.7258 27.4315 40.6958C27.8237 40.0099 28.5729 39.324 28.9152 38.6859C32.3965 32.3121 38 25.8891 38 19.5637V16.9652C38.0001 16.2794 37.1501 13.8768 37.1023 13.729Z" fill="#2C78F6"/>
<path d="M29.2591 15.3864V14.9269L18.8203 9.89844L8.39062 14.9224V15.3908L18.8203 20.4149L29.2591 15.3864Z" fill="white"/>
<path d="M12.0039 18.0479V21.0531L18.2918 24.082H19.3484L25.619 21.0614C25.625 21.0482 25.6307 21.035 25.6363 21.0217V18.0479L18.8201 21.3312L12.0039 18.0479Z" fill="white"/>
<path d="M28.1564 22.6472V16.8008L27.3309 17.2171V22.6472L26.793 24.2859L27.6061 25.3742H27.8812L28.6943 24.2859L28.1564 22.6472Z" fill="white"/>
</svg>
