<svg width="17" height="17" viewBox="0 0 17 17" fill="none" xmlns="http://www.w3.org/2000/svg">
<path d="M6.00709 9.38409C6.00709 9.17109 5.83433 8.99854 5.62116 8.99854H4.2744C4.06147 8.99854 3.88867 9.17109 3.88867 9.38409V10.7307C3.88867 10.9439 4.06147 11.1166 4.2744 11.1166H5.62116C5.83433 11.1166 6.00709 10.9439 6.00709 10.7307V9.38409Z" fill="white"/>
<path d="M9.37701 9.38409C9.37701 9.17109 9.20421 8.99854 8.99146 8.99854H7.64452C7.43159 8.99854 7.25879 9.17109 7.25879 9.38409V10.7307C7.25879 10.9439 7.43159 11.1166 7.64452 11.1166H8.99146C9.20421 11.1166 9.37701 10.9439 9.37701 10.7307V9.38409Z" fill="white"/>
<path d="M12.7366 9.38409C12.7366 9.17109 12.5638 8.99854 12.3509 8.99854H11.0041C10.7909 8.99854 10.6182 9.17109 10.6182 9.38409V10.7307C10.6182 10.9439 10.7909 11.1166 11.0041 11.1166H12.3509C12.5638 11.1166 12.7366 10.9439 12.7366 10.7307V9.38409Z" fill="white"/>
<path d="M6.00709 12.7476C6.00709 12.5342 5.83433 12.3618 5.62116 12.3618H4.2744C4.06147 12.3618 3.88867 12.5342 3.88867 12.7476V14.0939C3.88867 14.3071 4.06147 14.4796 4.2744 14.4796H5.62116C5.83433 14.4796 6.00709 14.307 6.00709 14.0939V12.7476Z" fill="white"/>
<path d="M9.37701 12.7476C9.37701 12.5342 9.20421 12.3618 8.99146 12.3618H7.64452C7.43159 12.3618 7.25879 12.5342 7.25879 12.7476V14.0939C7.25879 14.3071 7.43159 14.4796 7.64452 14.4796H8.99146C9.20421 14.4796 9.37701 14.307 9.37701 14.0939V12.7476Z" fill="white"/>
<path d="M12.7366 12.7476C12.7366 12.5342 12.5638 12.3618 12.351 12.3618H11.0041C10.7909 12.3618 10.6182 12.5342 10.6182 12.7476V14.0939C10.6182 14.3071 10.7909 14.4796 11.0041 14.4796H12.351C12.5638 14.4796 12.7366 14.307 12.7366 14.0939V12.7476Z" fill="white"/>
<path d="M15.1463 1.8902V3.947C15.1463 4.87666 14.3921 5.62582 13.4626 5.62582H12.4005C11.4709 5.62582 10.7067 4.87666 10.7067 3.947V1.88281H5.91945V3.947C5.91945 4.87666 5.15532 5.62582 4.22587 5.62582H3.16354C2.23406 5.62582 1.47992 4.87666 1.47992 3.947V1.8902C0.667547 1.91468 0 2.5869 0 3.41314V15.467C0 16.3088 0.682281 17.0001 1.52406 17.0001H15.1021C15.9426 17.0001 16.6262 16.3073 16.6262 15.467V3.41314C16.6262 2.5869 15.9586 1.91468 15.1463 1.8902ZM14.6529 14.7164C14.6529 15.0802 14.358 15.3753 13.9941 15.3753H2.60307C2.23915 15.3753 1.94419 15.0802 1.94419 14.7164V8.49012C1.94419 8.1262 2.23911 7.83108 2.60307 7.83108H13.994C14.358 7.83108 14.6529 8.1262 14.6529 8.49012L14.6529 14.7164Z" fill="white"/>
<path d="M3.15849 4.52619H4.20908C4.52797 4.52619 4.78652 4.26802 4.78652 3.94913V0.577264C4.78652 0.258346 4.52797 0 4.20908 0H3.15849C2.83957 0 2.58105 0.258346 2.58105 0.577264V3.94913C2.58105 4.26802 2.83957 4.52619 3.15849 4.52619Z" fill="white"/>
<path d="M12.3899 4.52619H13.4405C13.7592 4.52619 14.0177 4.26802 14.0177 3.94913V0.577264C14.0178 0.258346 13.7592 0 13.4405 0H12.3899C12.0711 0 11.8125 0.258346 11.8125 0.577264V3.94913C11.8125 4.26802 12.0711 4.52619 12.3899 4.52619Z" fill="white"/>
</svg>