<svg width="14" height="14" viewBox="0 0 14 14" fill="none" xmlns="http://www.w3.org/2000/svg">
<path d="M13.7815 6.12392C13.6688 6.05318 12.7859 5.52424 12.4349 5.36371L12.0001 4.31392C12.1293 3.96679 12.3761 2.993 12.4147 2.82418C12.4505 2.66766 12.4033 2.50376 12.2898 2.39023L11.6098 1.71027C11.4963 1.59674 11.3323 1.54955 11.1758 1.58531C11.0478 1.6146 10.0485 1.86504 9.68608 1.99995L8.63627 1.5651C8.48265 1.22932 7.96946 0.367255 7.87606 0.218532C7.79072 0.0825509 7.64142 0 7.48085 0H6.51917C6.35861 0 6.20931 0.0825509 6.12395 0.218532C6.05321 0.331216 5.52427 1.21417 5.36373 1.5651L4.31395 1.99995C3.96682 1.87075 2.99303 1.62392 2.82421 1.58531C2.66769 1.54957 2.50379 1.59677 2.39026 1.71027L1.71027 2.39026C1.59674 2.50379 1.54955 2.66769 1.58531 2.8242C1.6146 2.95223 1.86504 3.95148 1.99995 4.31395L1.5651 5.36373C1.22932 5.51735 0.367255 6.03054 0.218532 6.12395C0.082551 6.20929 0 6.35858 0 6.51915V7.48083C0 7.64139 0.082551 7.79069 0.218532 7.87605C0.331216 7.94679 1.21417 8.47573 1.5651 8.63627L1.99995 9.68605C1.87075 10.0332 1.62392 11.007 1.58531 11.1758C1.54957 11.3323 1.59674 11.4962 1.71027 11.6097L2.39026 12.2897C2.50379 12.4033 2.66774 12.4505 2.82421 12.4147C2.95223 12.3854 3.95148 12.135 4.31395 12L5.36373 12.4349C5.51735 12.7707 6.03054 13.6327 6.12395 13.7815C6.20931 13.9174 6.35861 14 6.51917 14H7.48085C7.64142 14 7.79072 13.9174 7.87608 13.7815C7.94682 13.6688 8.47576 12.7858 8.6363 12.4349L9.68608 12C10.0332 12.1292 11.007 12.3761 11.1758 12.4147C11.3324 12.4505 11.4963 12.4033 11.6098 12.2897L12.2898 11.6097C12.4033 11.4962 12.4505 11.3323 12.4147 11.1758C12.3854 11.0478 12.135 10.0485 12.0001 9.68605L12.4349 8.63627C12.7707 8.48265 13.6328 7.96946 13.7815 7.87605C13.9175 7.79069 14 7.64139 14 7.48083V6.51915C14 6.35858 13.9175 6.20929 13.7815 6.12392ZM7.00001 10.0517C5.3173 10.0517 3.94831 8.6827 3.94831 6.99999C3.94831 5.31728 5.3173 3.94831 7.00001 3.94831C8.68272 3.94831 10.0517 5.3173 10.0517 7.00001C10.0517 8.68272 8.68272 10.0517 7.00001 10.0517Z" fill="#DCDCDC"/>
</svg>