<svg width="166" height="166" viewBox="0 0 166 166" fill="none" xmlns="http://www.w3.org/2000/svg">
<path fill-rule="evenodd" clip-rule="evenodd" d="M0.840375 165.16C1.40388 165.72 2.13677 166 2.87291 166C3.60579 166 4.34193 165.72 4.90218 165.16L30.0944 139.967H144.062C154.783 139.967 163.52 131.454 163.52 120.997V57.7612C163.52 47.3047 154.783 38.7909 144.062 38.7909H131.271L165.16 4.90218C166.28 3.78168 166.28 1.96087 165.16 0.840374C164.039 -0.280125 162.218 -0.280125 161.098 0.840374L0.840375 161.098C-0.280125 162.218 -0.280125 164.039 0.840375 165.16ZM106.401 63.6608L64.1699 105.892C69.661 111.309 77.2815 114.672 85.6917 114.672C102.377 114.672 115.958 101.443 115.958 85.1678C115.958 76.6986 112.281 69.0468 106.401 63.6608ZM101.949 13.4956C107.745 13.4956 112.93 16.6193 115.52 21.6811L120.55 31.5356L95.0036 57.0817C92.0668 56.1514 88.9386 55.6498 85.6917 55.6498C68.9969 55.6498 55.4259 68.9017 55.4259 85.1678C55.4259 88.5925 56.0278 91.8895 57.1405 94.9494L15.8117 136.278C10.9961 132.822 7.86328 127.258 7.86328 120.997V57.7612C7.86328 47.3047 16.6006 38.7909 27.3215 38.7909H47.1264L55.8545 21.6811C58.4538 16.6193 63.6387 13.4956 69.4347 13.4956H101.949Z" fill="white" fill-opacity="0.15"/>
</svg>