<svg width="23" height="16" viewBox="0 0 23 16" fill="none" xmlns="http://www.w3.org/2000/svg">
<path d="M21.8661 0H0.705357C0.316 0 0 0.314589 0 0.705357V2.11607C0 2.50543 0.316 2.82143 0.705357 2.82143H1.41071V14.1071C1.41071 14.8859 2.04413 15.5179 2.82143 15.5179H19.75C20.5287 15.5179 21.1607 14.8859 21.1607 14.1071V2.82143H21.8661C22.2554 2.82143 22.5714 2.50543 22.5714 2.11607V0.705357C22.5714 0.314589 22.2554 0 21.8661 0ZM5.64286 12.6964H4.23214V8.46429H5.64286V12.6964ZM8.46429 12.6964H7.05357V5.64286H8.46429V12.6964ZM14.8125 12.6964C12.8671 12.6964 11.2857 11.1136 11.2857 9.16964C11.2857 7.46691 12.4989 6.04209 14.1071 5.7148V9.875H18.2673C17.9401 11.4832 16.5166 12.6964 14.8125 12.6964ZM15.5179 8.46429V5.7148C16.8975 5.99554 17.9866 7.08461 18.2673 8.46429H15.5179Z" fill="#808080"/>
</svg>