<svg width="17" height="17" viewBox="0 0 17 17" fill="none" xmlns="http://www.w3.org/2000/svg">
<path d="M16.5285 0H12.7276C12.5066 0 12.3274 0.179201 12.3274 0.40024V1.46755C12.3274 1.68859 12.5066 1.86779 12.7276 1.86779H13.7401L10.6915 4.91639C10.5351 5.0727 10.5351 5.32608 10.6914 5.48238L11.4461 6.23713C11.5212 6.31221 11.6229 6.35437 11.7291 6.35437C11.8353 6.35437 11.9371 6.31221 12.0121 6.23713L15.0609 3.18847V4.20103C15.0609 4.42207 15.2401 4.60127 15.4611 4.60127H16.5284C16.7494 4.60127 16.9286 4.42207 16.9286 4.20103V0.40024C16.9287 0.179201 16.7495 0 16.5285 0Z" fill="white"/>
<path d="M5.48244 10.5728C5.40735 10.4978 5.30558 10.4556 5.19939 10.4556C5.09324 10.4556 4.99142 10.4977 4.91639 10.5728L1.86779 13.6214V12.6088C1.86779 12.3878 1.68859 12.2086 1.46755 12.2086H0.40024C0.179201 12.2086 0 12.3878 0 12.6088V16.4097C0 16.6307 0.179201 16.8099 0.40024 16.8099H4.20108C4.42212 16.8099 4.60132 16.6307 4.60132 16.4097V15.3423C4.60132 15.1213 4.42212 14.9421 4.20108 14.9421H3.18853L6.23707 11.8936C6.39338 11.7373 6.39338 11.4839 6.23707 11.3276L5.48244 10.5728Z" fill="white"/>
</svg>