<svg width="16" height="17" viewBox="0 0 16 17" fill="none" xmlns="http://www.w3.org/2000/svg">
<path d="M1.38424 5.10205C2.34322 3.63795 3.83889 2.55827 5.5886 2.13523C5.72342 2.10292 5.83447 2.00747 5.88647 1.87933C5.93884 1.75082 5.92621 1.60523 5.85267 1.48749C5.29258 0.594626 4.30166 0 3.16961 0C1.41953 0 0 1.41878 0 3.16886C0 3.91168 0.256644 4.59396 0.68525 5.13362C0.771046 5.24244 0.90401 5.30261 1.04255 5.2963C1.18108 5.28998 1.30848 5.21756 1.38424 5.10205Z" fill="white"/>
<path d="M12.8282 0C11.7014 0 10.7138 0.589055 10.1526 1.47598C10.0783 1.59335 10.0653 1.74005 10.1177 1.8693C10.1704 1.99893 10.2818 2.09401 10.4181 2.12595C12.1727 2.53895 13.6735 3.61121 14.6407 5.07048C14.7176 5.18636 14.8457 5.25804 14.985 5.26287C15.1243 5.26807 15.2565 5.20567 15.3419 5.09537C15.7523 4.56202 15.9978 3.89497 15.9978 3.16924C15.9967 1.41878 14.5783 0 12.8282 0Z" fill="white"/>
<path d="M15.0131 9.70478C15.0131 8.48136 14.6948 7.33147 14.1399 6.3309C13.1115 4.47757 11.2644 3.14532 9.09058 2.81179C8.74406 2.75868 8.39233 2.72266 8.03095 2.72266C7.6536 2.72266 7.28591 2.76128 6.92452 2.81922C4.75995 3.16649 2.92222 4.50431 1.90456 6.35987C1.3597 7.35376 1.04883 8.49324 1.04883 9.70478C1.04883 11.7795 1.96361 13.6406 3.40468 14.9197L2.81637 15.7484C2.56306 16.1053 2.647 16.5993 3.00393 16.8533C3.14321 16.9521 3.30328 17 3.46187 17C3.70998 17 3.95436 16.8837 4.1085 16.6665L4.69644 15.8382C5.68773 16.3794 6.82387 16.6876 8.03095 16.6876C9.23766 16.6876 10.3738 16.3794 11.3651 15.8382L11.953 16.6665C12.1075 16.8841 12.3516 17 12.5997 17C12.7583 17 12.918 16.9521 13.0572 16.8533C13.4142 16.5993 13.4985 16.1053 13.2452 15.7484L12.6569 14.9197C14.0979 13.6406 15.0131 11.7795 15.0131 9.70478ZM8.03132 14.7344C5.25764 14.7344 3.0017 12.4785 3.0017 9.70478C3.0017 8.84014 3.2212 8.02638 3.60672 7.31476C4.34063 5.96135 5.67919 4.9864 7.25619 4.74089C7.50949 4.70152 7.76688 4.67478 8.03132 4.67478C8.28017 4.67478 8.52344 4.69892 8.763 4.73421C10.3534 4.96745 11.7064 5.9424 12.4489 7.30176C12.8388 8.01598 13.0606 8.8342 13.0606 9.70441C13.0606 12.4785 10.8046 14.7344 8.03132 14.7344Z" fill="white"/>
<path d="M10.8508 10.8777L8.93213 9.69295C8.89239 9.46862 8.77094 9.27511 8.60046 9.13806L8.68811 6.73059C8.69888 6.42306 8.45895 6.16493 8.1518 6.15342C7.84539 6.1393 7.58614 6.38221 7.57463 6.68973L7.4866 9.09981C7.24853 9.26768 7.0918 9.54401 7.0918 9.85785C7.0918 10.3708 7.5074 10.786 8.02032 10.786C8.16628 10.786 8.30259 10.7492 8.42516 10.6894L10.2655 11.8267C10.3569 11.8824 10.4583 11.9095 10.5578 11.9095C10.7446 11.9095 10.9266 11.8159 11.0324 11.6454C11.1944 11.3829 11.1127 11.0397 10.8508 10.8777Z" fill="white"/>
</svg>