<svg width="18" height="18" viewBox="0 0 18 18" fill="none" xmlns="http://www.w3.org/2000/svg">
<path d="M8.99982 0C4.03736 0 0 4.0374 0 9C0 13.9626 4.03736 18 8.99982 18C13.9626 18 18 13.9626 18 9C18 4.0374 13.9626 0 8.99982 0ZM8.99982 16.8197C4.68842 16.8197 1.18035 13.3117 1.18035 9C1.18035 4.68824 4.68842 1.1804 8.99982 1.1804C13.3115 1.1804 16.8196 4.68828 16.8196 9C16.8196 13.3117 13.3115 16.8197 8.99982 16.8197Z" fill="#B5B5B5"/>
<path d="M9.00136 4.11206C7.41844 4.11206 6.13086 5.39978 6.13086 6.98275C6.13086 7.30868 6.39505 7.57292 6.72094 7.57292C7.04701 7.57292 7.31121 7.30864 7.31121 6.98275C7.31121 6.0508 8.06937 5.29246 9.00136 5.29246C9.93372 5.29246 10.6918 6.0508 10.6918 6.98275C10.6918 7.91488 9.93363 8.67321 9.00136 8.67321C8.67547 8.67321 8.41128 8.9375 8.41128 9.26334V11.3191C8.41128 11.6451 8.67547 11.9093 9.00136 11.9093C9.32725 11.9093 9.59163 11.6451 9.59163 11.3191V9.79191C10.8924 9.51903 11.8722 8.36335 11.8722 6.9827C11.8722 5.39978 10.5845 4.11206 9.00136 4.11206Z" fill="#B5B5B5"/>
<path d="M9.00069 12.3184C8.59182 12.3184 8.25977 12.6501 8.25977 13.0591C8.25977 13.4682 8.59182 13.8001 9.00069 13.8001C9.40992 13.8001 9.74126 13.4682 9.74126 13.0591C9.74126 12.6501 9.40992 12.3184 9.00069 12.3184Z" fill="#B5B5B5"/>
</svg>