<svg width="12" height="18" viewBox="0 0 12 18" fill="none" xmlns="http://www.w3.org/2000/svg">
<path d="M11.9258 8.14442C11.9258 7.86336 11.6977 7.63525 11.4166 7.63525C11.1352 7.63525 10.9075 7.86336 10.9075 8.14442C10.9075 10.8709 8.68917 13.0892 5.96273 13.0892C3.23629 13.0892 1.01834 10.8709 1.01834 8.14442C1.01834 7.86336 0.790233 7.63525 0.509171 7.63525C0.227769 7.63525 0 7.86336 0 8.14442C0 11.2609 2.40329 13.8261 5.4539 14.0854V16.3614H4.32694C4.04553 16.3614 3.81776 16.5895 3.81776 16.8706C3.81776 17.1517 4.04553 17.3798 4.32694 17.3798H7.59921C7.88027 17.3798 8.10838 17.1517 8.10838 16.8706C8.10838 16.5895 7.88027 16.3614 7.59921 16.3614H6.47224V14.0854C9.52252 13.8264 11.9258 11.2609 11.9258 8.14442Z" fill="white"/>
<path d="M5.96619 0C4.48247 0 3.27539 1.20707 3.27539 2.6908V8.1447C3.27539 9.62842 4.48247 10.8352 5.96619 10.8352C7.44991 10.8352 8.65699 9.62808 8.65699 8.14436V2.6908C8.65665 1.20707 7.44991 0 5.96619 0Z" fill="white"/>
</svg>