<svg width="20" height="20" viewBox="0 0 20 20" fill="none" xmlns="http://www.w3.org/2000/svg">
<path d="M8.685 11.7975L7.075 13.4175C7.885 14.0375 8.885 14.3975 9.995 14.3975C12.715 14.3975 14.935 12.1775 14.935 9.4475C14.935 9.1675 15.165 8.9475 15.445 8.9475C15.725 8.9475 15.955 9.1675 15.955 9.4475C15.955 12.5675 13.555 15.1375 10.505 15.3975V17.6675H11.625C11.905 17.6675 12.135 17.8975 12.135 18.1775C12.135 18.4575 11.905 18.6875 11.625 18.6875H8.365C8.085 18.6875 7.855 18.4575 7.855 18.1775C7.855 17.8975 8.085 17.6675 8.365 17.6675H9.495V15.3975C8.325 15.2975 7.235 14.8475 6.345 14.1475L0.595 19.8975C0.515 19.9675 0.435 19.9975 0.345 19.9975C0.255 19.9975 0.175 19.9675 0.105 19.8975C-0.035 19.7575 -0.035 19.5375 0.105 19.4075L19.415 0.0975C19.545 -0.0325 19.765 -0.0325 19.895 0.0975C20.035 0.2375 20.035 0.4575 19.895 0.5875L12.695 7.7875V9.4475C12.695 10.9375 11.485 12.1475 10.005 12.1475C9.515 12.1475 9.065 12.0275 8.685 11.7975Z" fill="white"/>
<path d="M6.06539 12.4475L5.34539 13.1775C4.51539 12.1575 4.02539 10.8575 4.02539 9.44751C4.02539 9.16751 4.25539 8.94751 4.53539 8.94751C4.81539 8.94751 5.04539 9.16751 5.04539 9.44751C5.05539 10.5775 5.43539 11.6175 6.06539 12.4475Z" fill="white"/>
<path d="M6.54445 12.9675L5.81445 13.6875L6.53445 12.9675H6.54445Z" fill="white"/>
<path d="M12.6847 3.99762V5.82762L7.68469 10.8376C7.44469 10.4376 7.30469 9.95762 7.30469 9.44762V3.99762C7.30469 2.51762 8.50469 1.30762 9.99469 1.30762C11.4847 1.30762 12.6847 2.51762 12.6847 3.99762Z" fill="white"/>
</svg>