<svg width="20" height="20" viewBox="0 0 20 20" fill="none" xmlns="http://www.w3.org/2000/svg">
<path d="M13.9179 2.61218C13.6059 2.00233 12.9812 1.62598 12.2829 1.62598H8.36551C7.6672 1.62598 7.04251 2.00233 6.72934 2.61218L5.67776 4.6736H3.29163C1.99995 4.6736 0.947266 5.69936 0.947266 6.95918V14.578C0.947266 15.3323 1.32472 16.0026 1.9049 16.4191L6.88428 11.4397C6.75022 11.071 6.6777 10.6738 6.6777 10.2612C6.6777 8.30141 8.31277 6.7048 10.3242 6.7048C10.7154 6.7048 11.0923 6.76523 11.4461 6.87732L14.5239 3.79948L13.9179 2.61218ZM17.3567 4.6736H14.9783L12.3477 7.30421C13.3257 7.94209 13.9707 9.02994 13.9707 10.2612C13.9707 12.2221 12.3345 13.8159 10.3242 13.8159C9.09459 13.8159 8.00509 13.2193 7.34414 12.3078L2.83287 16.819C2.98121 16.8482 3.1345 16.8635 3.29163 16.8635H17.3567C18.6484 16.8635 19.7011 15.8378 19.7011 14.578V6.95918C19.7011 5.69936 18.6484 4.6736 17.3567 4.6736Z" fill="white"/>
<path d="M0.346133 20C0.257442 20 0.169142 19.9662 0.10125 19.8987C-0.03375 19.7637 -0.03375 19.5444 0.10125 19.4094L19.4094 0.10125C19.5444 -0.03375 19.7638 -0.03375 19.8988 0.10125C20.0338 0.23625 20.0338 0.455625 19.8988 0.590625L0.590625 19.8987C0.523125 19.9662 0.434433 20 0.346133 20Z" fill="white"/>
</svg>